%TF.GenerationSoftware,KiCad,Pcbnew,(5.1.9)-1*%
%TF.CreationDate,2021-03-12T12:12:47-05:00*%
%TF.ProjectId,ProgramBoard,50726f67-7261-46d4-926f-6172642e6b69,rev?*%
%TF.SameCoordinates,PX54c81a0PY791ddc0*%
%TF.FileFunction,Copper,L2,Bot*%
%TF.FilePolarity,Positive*%
%FSLAX46Y46*%
G04 Gerber Fmt 4.6, Leading zero omitted, Abs format (unit mm)*
G04 Created by KiCad (PCBNEW (5.1.9)-1) date 2021-03-12 12:12:47*
%MOMM*%
%LPD*%
G01*
G04 APERTURE LIST*
%TA.AperFunction,ComponentPad*%
%ADD10R,2.000000X4.000000*%
%TD*%
%TA.AperFunction,ComponentPad*%
%ADD11R,4.000000X3.000000*%
%TD*%
%TA.AperFunction,ComponentPad*%
%ADD12R,5.000000X3.000000*%
%TD*%
%TA.AperFunction,ComponentPad*%
%ADD13C,1.800000*%
%TD*%
%TA.AperFunction,ComponentPad*%
%ADD14C,2.000000*%
%TD*%
%TA.AperFunction,Conductor*%
%ADD15C,1.016000*%
%TD*%
%TA.AperFunction,Conductor*%
%ADD16C,0.254000*%
%TD*%
%TA.AperFunction,Conductor*%
%ADD17C,0.100000*%
%TD*%
G04 APERTURE END LIST*
D10*
%TO.P,J1,3*%
%TO.N,N/C*%
X42090000Y27430000D03*
D11*
%TO.P,J1,2*%
%TO.N,GND*%
X46990000Y30480000D03*
D12*
%TO.P,J1,1*%
%TO.N,Net-(J1-Pad1)*%
X46990000Y24480000D03*
%TD*%
D13*
%TO.P,P1,4*%
%TO.N,Net-(P1-Pad3)*%
X11430000Y22860000D03*
%TO.P,P1,1*%
%TO.N,GND*%
X8890000Y25400000D03*
%TO.P,P1,2*%
X11430000Y25400000D03*
%TO.P,P1,3*%
%TO.N,Net-(P1-Pad3)*%
X8890000Y22860000D03*
%TO.P,P1,7*%
%TO.N,Net-(P1-Pad7)*%
X8890000Y17780000D03*
%TO.P,P1,6*%
%TO.N,Net-(P1-Pad6)*%
X11430000Y20320000D03*
%TO.P,P1,5*%
%TO.N,Net-(P1-Pad5)*%
X8890000Y20320000D03*
%TO.P,P1,8*%
%TO.N,Net-(P1-Pad8)*%
X11430000Y17780000D03*
%TO.P,P1,10*%
%TO.N,Net-(P1-Pad10)*%
X11430000Y15240000D03*
%TO.P,P1,9*%
%TO.N,Net-(P1-Pad9)*%
X8890000Y15240000D03*
%TD*%
D14*
%TO.P,P2,2*%
%TO.N,Net-(P2-Pad2)*%
X31750000Y29845000D03*
%TO.P,P2,1*%
%TO.N,Net-(P1-Pad6)*%
X34290000Y29845000D03*
%TO.P,P2,3*%
%TO.N,GND*%
X29210000Y29845000D03*
%TO.P,P2,4*%
%TO.N,Net-(P1-Pad8)*%
X26670000Y29845000D03*
%TO.P,P2,5*%
%TO.N,Net-(P1-Pad7)*%
X24130000Y29845000D03*
%TO.P,P2,6*%
%TO.N,N/C*%
X21590000Y29845000D03*
%TD*%
D13*
%TO.P,U1,1*%
%TO.N,N/C*%
X45720000Y17780000D03*
%TO.P,U1,2*%
X43180000Y17780000D03*
%TO.P,U1,3*%
X40640000Y17780000D03*
%TO.P,U1,4*%
X38100000Y17780000D03*
%TO.P,U1,5*%
X35560000Y17780000D03*
%TO.P,U1,6*%
X33020000Y17780000D03*
%TO.P,U1,7*%
X30480000Y17780000D03*
%TO.P,U1,8*%
%TO.N,GND*%
X24130000Y17780000D03*
%TO.P,U1,9*%
%TO.N,N/C*%
X24130000Y15240000D03*
%TO.P,U1,10*%
X24130000Y12700000D03*
%TO.P,U1,11*%
%TO.N,Net-(P1-Pad9)*%
X24130000Y10160000D03*
%TO.P,U1,12*%
%TO.N,Net-(P1-Pad10)*%
X24130000Y7620000D03*
%TO.P,U1,13*%
%TO.N,N/C*%
X24130000Y5080000D03*
%TO.P,U1,14*%
X30480000Y5080000D03*
%TO.P,U1,15*%
X33020000Y5080000D03*
%TO.P,U1,16*%
X35560000Y5080000D03*
%TO.P,U1,17*%
X38100000Y5080000D03*
%TO.P,U1,18*%
X40640000Y5080000D03*
%TO.P,U1,19*%
%TO.N,+5V*%
X43180000Y5080000D03*
%TO.P,U1,20*%
%TO.N,GND*%
X45720000Y5080000D03*
%TD*%
%TO.P,P3,3*%
%TO.N,Net-(P2-Pad2)*%
X12065000Y33655000D03*
%TO.P,P3,1*%
%TO.N,N/C*%
X6985000Y33655000D03*
%TO.P,P3,2*%
%TO.N,Net-(P1-Pad5)*%
X9525000Y33655000D03*
%TD*%
%TO.P,P4,2*%
%TO.N,Net-(P1-Pad3)*%
X9525000Y6985000D03*
%TO.P,P4,1*%
%TO.N,N/C*%
X6985000Y6985000D03*
%TO.P,P4,3*%
%TO.N,+5V*%
X12065000Y6985000D03*
%TD*%
%TO.P,P5,2*%
%TO.N,Net-(P1-Pad3)*%
X9525000Y3175000D03*
%TO.P,P5,1*%
%TO.N,N/C*%
X6985000Y3175000D03*
%TO.P,P5,3*%
%TO.N,Net-(J1-Pad1)*%
X12065000Y3175000D03*
%TD*%
D15*
%TO.N,Net-(P1-Pad3)*%
X9525000Y6985000D02*
X6350000Y10160000D01*
X6350000Y10160000D02*
X6350000Y20320000D01*
X6350000Y20320000D02*
X8890000Y22860000D01*
X8890000Y22860000D02*
X11430000Y22860000D01*
D16*
%TO.N,Net-(P1-Pad6)*%
X24765000Y20320000D02*
X34290000Y29845000D01*
X11430000Y20320000D02*
X24765000Y20320000D01*
%TD*%
%TO.N,GND*%
X52671230Y38596438D02*
X53249560Y38421830D01*
X53782962Y38138216D01*
X54251118Y37756398D01*
X54636194Y37290920D01*
X54923526Y36759512D01*
X55102167Y36182415D01*
X55168801Y35548433D01*
X55168800Y3844786D01*
X55106438Y3208766D01*
X54931828Y2630435D01*
X54648215Y2097037D01*
X54266398Y1628882D01*
X53800920Y1243806D01*
X53269512Y956475D01*
X52692414Y777833D01*
X52058442Y711200D01*
X3844786Y711200D01*
X3208766Y773562D01*
X2630435Y948172D01*
X2097037Y1231785D01*
X1628882Y1613602D01*
X1243806Y2079080D01*
X956475Y2610488D01*
X777833Y3187586D01*
X763266Y3326184D01*
X5450000Y3326184D01*
X5450000Y3023816D01*
X5508989Y2727257D01*
X5624701Y2447905D01*
X5792688Y2196495D01*
X6006495Y1982688D01*
X6257905Y1814701D01*
X6537257Y1698989D01*
X6833816Y1640000D01*
X7136184Y1640000D01*
X7432743Y1698989D01*
X7712095Y1814701D01*
X7963505Y1982688D01*
X8177312Y2196495D01*
X8255000Y2312763D01*
X8332688Y2196495D01*
X8546495Y1982688D01*
X8797905Y1814701D01*
X9077257Y1698989D01*
X9373816Y1640000D01*
X9676184Y1640000D01*
X9972743Y1698989D01*
X10252095Y1814701D01*
X10503505Y1982688D01*
X10717312Y2196495D01*
X10795000Y2312763D01*
X10872688Y2196495D01*
X11086495Y1982688D01*
X11337905Y1814701D01*
X11617257Y1698989D01*
X11913816Y1640000D01*
X12216184Y1640000D01*
X12512743Y1698989D01*
X12792095Y1814701D01*
X13043505Y1982688D01*
X13257312Y2196495D01*
X13425299Y2447905D01*
X13541011Y2727257D01*
X13600000Y3023816D01*
X13600000Y3326184D01*
X13541011Y3622743D01*
X13425299Y3902095D01*
X13257312Y4153505D01*
X13043505Y4367312D01*
X12792095Y4535299D01*
X12512743Y4651011D01*
X12216184Y4710000D01*
X11913816Y4710000D01*
X11617257Y4651011D01*
X11337905Y4535299D01*
X11086495Y4367312D01*
X10872688Y4153505D01*
X10795000Y4037237D01*
X10717312Y4153505D01*
X10503505Y4367312D01*
X10252095Y4535299D01*
X9972743Y4651011D01*
X9676184Y4710000D01*
X9373816Y4710000D01*
X9077257Y4651011D01*
X8797905Y4535299D01*
X8546495Y4367312D01*
X8332688Y4153505D01*
X8255000Y4037237D01*
X8177312Y4153505D01*
X7963505Y4367312D01*
X7712095Y4535299D01*
X7432743Y4651011D01*
X7136184Y4710000D01*
X6833816Y4710000D01*
X6537257Y4651011D01*
X6257905Y4535299D01*
X6006495Y4367312D01*
X5792688Y4153505D01*
X5624701Y3902095D01*
X5508989Y3622743D01*
X5450000Y3326184D01*
X763266Y3326184D01*
X711200Y3821558D01*
X711200Y20320000D01*
X5201471Y20320000D01*
X5207001Y20263851D01*
X5207000Y10216139D01*
X5201471Y10160000D01*
X5207000Y10103861D01*
X5207000Y10103855D01*
X5223539Y9935934D01*
X5288897Y9720478D01*
X5395032Y9521912D01*
X5537867Y9347867D01*
X5581482Y9312073D01*
X6463214Y8430341D01*
X6257905Y8345299D01*
X6006495Y8177312D01*
X5792688Y7963505D01*
X5624701Y7712095D01*
X5508989Y7432743D01*
X5450000Y7136184D01*
X5450000Y6833816D01*
X5508989Y6537257D01*
X5624701Y6257905D01*
X5792688Y6006495D01*
X6006495Y5792688D01*
X6257905Y5624701D01*
X6537257Y5508989D01*
X6833816Y5450000D01*
X7136184Y5450000D01*
X7432743Y5508989D01*
X7712095Y5624701D01*
X7963505Y5792688D01*
X8177312Y6006495D01*
X8255000Y6122763D01*
X8332688Y6006495D01*
X8546495Y5792688D01*
X8797905Y5624701D01*
X9077257Y5508989D01*
X9373816Y5450000D01*
X9676184Y5450000D01*
X9972743Y5508989D01*
X10252095Y5624701D01*
X10503505Y5792688D01*
X10717312Y6006495D01*
X10795000Y6122763D01*
X10872688Y6006495D01*
X11086495Y5792688D01*
X11337905Y5624701D01*
X11617257Y5508989D01*
X11913816Y5450000D01*
X12216184Y5450000D01*
X12512743Y5508989D01*
X12792095Y5624701D01*
X13043505Y5792688D01*
X13257312Y6006495D01*
X13425299Y6257905D01*
X13541011Y6537257D01*
X13600000Y6833816D01*
X13600000Y7136184D01*
X13541011Y7432743D01*
X13425299Y7712095D01*
X13257312Y7963505D01*
X13043505Y8177312D01*
X12792095Y8345299D01*
X12512743Y8461011D01*
X12216184Y8520000D01*
X11913816Y8520000D01*
X11617257Y8461011D01*
X11337905Y8345299D01*
X11086495Y8177312D01*
X10872688Y7963505D01*
X10795000Y7847237D01*
X10717312Y7963505D01*
X10503505Y8177312D01*
X10252095Y8345299D01*
X9972743Y8461011D01*
X9676184Y8520000D01*
X9606446Y8520000D01*
X7493000Y10633445D01*
X7493000Y14601509D01*
X7529701Y14512905D01*
X7697688Y14261495D01*
X7911495Y14047688D01*
X8162905Y13879701D01*
X8442257Y13763989D01*
X8738816Y13705000D01*
X9041184Y13705000D01*
X9337743Y13763989D01*
X9617095Y13879701D01*
X9868505Y14047688D01*
X10082312Y14261495D01*
X10160000Y14377763D01*
X10237688Y14261495D01*
X10451495Y14047688D01*
X10702905Y13879701D01*
X10982257Y13763989D01*
X11278816Y13705000D01*
X11581184Y13705000D01*
X11877743Y13763989D01*
X12157095Y13879701D01*
X12408505Y14047688D01*
X12622312Y14261495D01*
X12790299Y14512905D01*
X12906011Y14792257D01*
X12965000Y15088816D01*
X12965000Y15391184D01*
X12906011Y15687743D01*
X12790299Y15967095D01*
X12622312Y16218505D01*
X12408505Y16432312D01*
X12292237Y16510000D01*
X12408505Y16587688D01*
X12622312Y16801495D01*
X12790299Y17052905D01*
X12906011Y17332257D01*
X12910590Y17355279D01*
X16915000Y17355279D01*
X16915000Y16934721D01*
X16997047Y16522244D01*
X17157988Y16133698D01*
X17391637Y15784017D01*
X17689017Y15486637D01*
X18038698Y15252988D01*
X18427244Y15092047D01*
X18839721Y15010000D01*
X19260279Y15010000D01*
X19672756Y15092047D01*
X20061302Y15252988D01*
X20268127Y15391184D01*
X22595000Y15391184D01*
X22595000Y15088816D01*
X22653989Y14792257D01*
X22769701Y14512905D01*
X22937688Y14261495D01*
X23151495Y14047688D01*
X23267763Y13970000D01*
X23151495Y13892312D01*
X22937688Y13678505D01*
X22769701Y13427095D01*
X22653989Y13147743D01*
X22595000Y12851184D01*
X22595000Y12548816D01*
X22653989Y12252257D01*
X22769701Y11972905D01*
X22937688Y11721495D01*
X23151495Y11507688D01*
X23267763Y11430000D01*
X23151495Y11352312D01*
X22937688Y11138505D01*
X22769701Y10887095D01*
X22653989Y10607743D01*
X22595000Y10311184D01*
X22595000Y10008816D01*
X22653989Y9712257D01*
X22769701Y9432905D01*
X22937688Y9181495D01*
X23151495Y8967688D01*
X23267763Y8890000D01*
X23151495Y8812312D01*
X22937688Y8598505D01*
X22769701Y8347095D01*
X22653989Y8067743D01*
X22595000Y7771184D01*
X22595000Y7468816D01*
X22653989Y7172257D01*
X22769701Y6892905D01*
X22937688Y6641495D01*
X23151495Y6427688D01*
X23267763Y6350000D01*
X23151495Y6272312D01*
X22937688Y6058505D01*
X22769701Y5807095D01*
X22653989Y5527743D01*
X22595000Y5231184D01*
X22595000Y4928816D01*
X22653989Y4632257D01*
X22769701Y4352905D01*
X22937688Y4101495D01*
X23151495Y3887688D01*
X23402905Y3719701D01*
X23682257Y3603989D01*
X23978816Y3545000D01*
X24281184Y3545000D01*
X24577743Y3603989D01*
X24857095Y3719701D01*
X25108505Y3887688D01*
X25322312Y4101495D01*
X25490299Y4352905D01*
X25606011Y4632257D01*
X25665000Y4928816D01*
X25665000Y5231184D01*
X28945000Y5231184D01*
X28945000Y4928816D01*
X29003989Y4632257D01*
X29119701Y4352905D01*
X29287688Y4101495D01*
X29501495Y3887688D01*
X29752905Y3719701D01*
X30032257Y3603989D01*
X30328816Y3545000D01*
X30631184Y3545000D01*
X30927743Y3603989D01*
X31207095Y3719701D01*
X31458505Y3887688D01*
X31672312Y4101495D01*
X31750000Y4217763D01*
X31827688Y4101495D01*
X32041495Y3887688D01*
X32292905Y3719701D01*
X32572257Y3603989D01*
X32868816Y3545000D01*
X33171184Y3545000D01*
X33467743Y3603989D01*
X33747095Y3719701D01*
X33998505Y3887688D01*
X34212312Y4101495D01*
X34290000Y4217763D01*
X34367688Y4101495D01*
X34581495Y3887688D01*
X34832905Y3719701D01*
X35112257Y3603989D01*
X35408816Y3545000D01*
X35711184Y3545000D01*
X36007743Y3603989D01*
X36287095Y3719701D01*
X36538505Y3887688D01*
X36752312Y4101495D01*
X36830000Y4217763D01*
X36907688Y4101495D01*
X37121495Y3887688D01*
X37372905Y3719701D01*
X37652257Y3603989D01*
X37948816Y3545000D01*
X38251184Y3545000D01*
X38547743Y3603989D01*
X38827095Y3719701D01*
X39078505Y3887688D01*
X39292312Y4101495D01*
X39370000Y4217763D01*
X39447688Y4101495D01*
X39661495Y3887688D01*
X39912905Y3719701D01*
X40192257Y3603989D01*
X40488816Y3545000D01*
X40791184Y3545000D01*
X41087743Y3603989D01*
X41367095Y3719701D01*
X41618505Y3887688D01*
X41832312Y4101495D01*
X41910000Y4217763D01*
X41987688Y4101495D01*
X42201495Y3887688D01*
X42452905Y3719701D01*
X42732257Y3603989D01*
X43028816Y3545000D01*
X43331184Y3545000D01*
X43627743Y3603989D01*
X43907095Y3719701D01*
X44158505Y3887688D01*
X44174009Y3903192D01*
X44992205Y3903192D01*
X45089662Y3672251D01*
X45376413Y3576328D01*
X45676367Y3538190D01*
X45977997Y3559303D01*
X46269713Y3638855D01*
X46350338Y3672251D01*
X46447795Y3903192D01*
X45720000Y4630987D01*
X44992205Y3903192D01*
X44174009Y3903192D01*
X44372312Y4101495D01*
X44540299Y4352905D01*
X44540483Y4353348D01*
X44543192Y4352205D01*
X45270987Y5080000D01*
X46169013Y5080000D01*
X46896808Y4352205D01*
X47127749Y4449662D01*
X47223672Y4736413D01*
X47261810Y5036367D01*
X47240697Y5337997D01*
X47161145Y5629713D01*
X47127749Y5710338D01*
X46896808Y5807795D01*
X46169013Y5080000D01*
X45270987Y5080000D01*
X44543192Y5807795D01*
X44540483Y5806652D01*
X44540299Y5807095D01*
X44372312Y6058505D01*
X44174009Y6256808D01*
X44992205Y6256808D01*
X45720000Y5529013D01*
X46447795Y6256808D01*
X46350338Y6487749D01*
X46063587Y6583672D01*
X45763633Y6621810D01*
X45462003Y6600697D01*
X45170287Y6521145D01*
X45089662Y6487749D01*
X44992205Y6256808D01*
X44174009Y6256808D01*
X44158505Y6272312D01*
X43907095Y6440299D01*
X43627743Y6556011D01*
X43331184Y6615000D01*
X43028816Y6615000D01*
X42732257Y6556011D01*
X42452905Y6440299D01*
X42201495Y6272312D01*
X41987688Y6058505D01*
X41910000Y5942237D01*
X41832312Y6058505D01*
X41618505Y6272312D01*
X41367095Y6440299D01*
X41087743Y6556011D01*
X40791184Y6615000D01*
X40488816Y6615000D01*
X40192257Y6556011D01*
X39912905Y6440299D01*
X39661495Y6272312D01*
X39447688Y6058505D01*
X39370000Y5942237D01*
X39292312Y6058505D01*
X39078505Y6272312D01*
X38827095Y6440299D01*
X38547743Y6556011D01*
X38251184Y6615000D01*
X37948816Y6615000D01*
X37652257Y6556011D01*
X37372905Y6440299D01*
X37121495Y6272312D01*
X36907688Y6058505D01*
X36830000Y5942237D01*
X36752312Y6058505D01*
X36538505Y6272312D01*
X36287095Y6440299D01*
X36007743Y6556011D01*
X35711184Y6615000D01*
X35408816Y6615000D01*
X35112257Y6556011D01*
X34832905Y6440299D01*
X34581495Y6272312D01*
X34367688Y6058505D01*
X34290000Y5942237D01*
X34212312Y6058505D01*
X33998505Y6272312D01*
X33747095Y6440299D01*
X33467743Y6556011D01*
X33171184Y6615000D01*
X32868816Y6615000D01*
X32572257Y6556011D01*
X32292905Y6440299D01*
X32041495Y6272312D01*
X31827688Y6058505D01*
X31750000Y5942237D01*
X31672312Y6058505D01*
X31458505Y6272312D01*
X31207095Y6440299D01*
X30927743Y6556011D01*
X30631184Y6615000D01*
X30328816Y6615000D01*
X30032257Y6556011D01*
X29752905Y6440299D01*
X29501495Y6272312D01*
X29287688Y6058505D01*
X29119701Y5807095D01*
X29003989Y5527743D01*
X28945000Y5231184D01*
X25665000Y5231184D01*
X25606011Y5527743D01*
X25490299Y5807095D01*
X25322312Y6058505D01*
X25108505Y6272312D01*
X24992237Y6350000D01*
X25108505Y6427688D01*
X25322312Y6641495D01*
X25490299Y6892905D01*
X25606011Y7172257D01*
X25665000Y7468816D01*
X25665000Y7771184D01*
X25606011Y8067743D01*
X25490299Y8347095D01*
X25322312Y8598505D01*
X25108505Y8812312D01*
X24992237Y8890000D01*
X25108505Y8967688D01*
X25322312Y9181495D01*
X25490299Y9432905D01*
X25606011Y9712257D01*
X25665000Y10008816D01*
X25665000Y10311184D01*
X25606011Y10607743D01*
X25490299Y10887095D01*
X25322312Y11138505D01*
X25108505Y11352312D01*
X24992237Y11430000D01*
X25108505Y11507688D01*
X25241096Y11640279D01*
X35965000Y11640279D01*
X35965000Y11219721D01*
X36047047Y10807244D01*
X36207988Y10418698D01*
X36441637Y10069017D01*
X36739017Y9771637D01*
X37088698Y9537988D01*
X37477244Y9377047D01*
X37889721Y9295000D01*
X38310279Y9295000D01*
X38722756Y9377047D01*
X39111302Y9537988D01*
X39460983Y9771637D01*
X39758363Y10069017D01*
X39992012Y10418698D01*
X40152953Y10807244D01*
X40235000Y11219721D01*
X40235000Y11640279D01*
X40152953Y12052756D01*
X39992012Y12441302D01*
X39758363Y12790983D01*
X39460983Y13088363D01*
X39111302Y13322012D01*
X38722756Y13482953D01*
X38310279Y13565000D01*
X37889721Y13565000D01*
X37477244Y13482953D01*
X37088698Y13322012D01*
X36739017Y13088363D01*
X36441637Y12790983D01*
X36207988Y12441302D01*
X36047047Y12052756D01*
X35965000Y11640279D01*
X25241096Y11640279D01*
X25322312Y11721495D01*
X25490299Y11972905D01*
X25606011Y12252257D01*
X25665000Y12548816D01*
X25665000Y12851184D01*
X25606011Y13147743D01*
X25490299Y13427095D01*
X25322312Y13678505D01*
X25108505Y13892312D01*
X24992237Y13970000D01*
X25108505Y14047688D01*
X25322312Y14261495D01*
X25490299Y14512905D01*
X25606011Y14792257D01*
X25665000Y15088816D01*
X25665000Y15391184D01*
X25606011Y15687743D01*
X25490299Y15967095D01*
X25322312Y16218505D01*
X25108505Y16432312D01*
X24857095Y16600299D01*
X24856652Y16600483D01*
X24857795Y16603192D01*
X24130000Y17330987D01*
X23402205Y16603192D01*
X23403348Y16600483D01*
X23402905Y16600299D01*
X23151495Y16432312D01*
X22937688Y16218505D01*
X22769701Y15967095D01*
X22653989Y15687743D01*
X22595000Y15391184D01*
X20268127Y15391184D01*
X20410983Y15486637D01*
X20708363Y15784017D01*
X20942012Y16133698D01*
X21102953Y16522244D01*
X21185000Y16934721D01*
X21185000Y17355279D01*
X21102953Y17767756D01*
X21079808Y17823633D01*
X22588190Y17823633D01*
X22609303Y17522003D01*
X22688855Y17230287D01*
X22722251Y17149662D01*
X22953192Y17052205D01*
X23680987Y17780000D01*
X24579013Y17780000D01*
X25306808Y17052205D01*
X25537749Y17149662D01*
X25633672Y17436413D01*
X25671810Y17736367D01*
X25658174Y17931184D01*
X28945000Y17931184D01*
X28945000Y17628816D01*
X29003989Y17332257D01*
X29119701Y17052905D01*
X29287688Y16801495D01*
X29501495Y16587688D01*
X29752905Y16419701D01*
X30032257Y16303989D01*
X30328816Y16245000D01*
X30631184Y16245000D01*
X30927743Y16303989D01*
X31207095Y16419701D01*
X31458505Y16587688D01*
X31672312Y16801495D01*
X31750000Y16917763D01*
X31827688Y16801495D01*
X32041495Y16587688D01*
X32292905Y16419701D01*
X32572257Y16303989D01*
X32868816Y16245000D01*
X33171184Y16245000D01*
X33467743Y16303989D01*
X33747095Y16419701D01*
X33998505Y16587688D01*
X34212312Y16801495D01*
X34290000Y16917763D01*
X34367688Y16801495D01*
X34581495Y16587688D01*
X34832905Y16419701D01*
X35112257Y16303989D01*
X35408816Y16245000D01*
X35711184Y16245000D01*
X36007743Y16303989D01*
X36287095Y16419701D01*
X36538505Y16587688D01*
X36752312Y16801495D01*
X36830000Y16917763D01*
X36907688Y16801495D01*
X37121495Y16587688D01*
X37372905Y16419701D01*
X37652257Y16303989D01*
X37948816Y16245000D01*
X38251184Y16245000D01*
X38547743Y16303989D01*
X38827095Y16419701D01*
X39078505Y16587688D01*
X39292312Y16801495D01*
X39370000Y16917763D01*
X39447688Y16801495D01*
X39661495Y16587688D01*
X39912905Y16419701D01*
X40192257Y16303989D01*
X40488816Y16245000D01*
X40791184Y16245000D01*
X41087743Y16303989D01*
X41367095Y16419701D01*
X41618505Y16587688D01*
X41832312Y16801495D01*
X41910000Y16917763D01*
X41987688Y16801495D01*
X42201495Y16587688D01*
X42452905Y16419701D01*
X42732257Y16303989D01*
X43028816Y16245000D01*
X43331184Y16245000D01*
X43627743Y16303989D01*
X43907095Y16419701D01*
X44158505Y16587688D01*
X44372312Y16801495D01*
X44450000Y16917763D01*
X44527688Y16801495D01*
X44741495Y16587688D01*
X44992905Y16419701D01*
X45272257Y16303989D01*
X45568816Y16245000D01*
X45871184Y16245000D01*
X46167743Y16303989D01*
X46447095Y16419701D01*
X46698505Y16587688D01*
X46912312Y16801495D01*
X47080299Y17052905D01*
X47196011Y17332257D01*
X47255000Y17628816D01*
X47255000Y17931184D01*
X47196011Y18227743D01*
X47080299Y18507095D01*
X46912312Y18758505D01*
X46698505Y18972312D01*
X46447095Y19140299D01*
X46167743Y19256011D01*
X45871184Y19315000D01*
X45568816Y19315000D01*
X45272257Y19256011D01*
X44992905Y19140299D01*
X44741495Y18972312D01*
X44527688Y18758505D01*
X44450000Y18642237D01*
X44372312Y18758505D01*
X44158505Y18972312D01*
X43907095Y19140299D01*
X43627743Y19256011D01*
X43331184Y19315000D01*
X43028816Y19315000D01*
X42732257Y19256011D01*
X42452905Y19140299D01*
X42201495Y18972312D01*
X41987688Y18758505D01*
X41910000Y18642237D01*
X41832312Y18758505D01*
X41618505Y18972312D01*
X41367095Y19140299D01*
X41087743Y19256011D01*
X40791184Y19315000D01*
X40488816Y19315000D01*
X40192257Y19256011D01*
X39912905Y19140299D01*
X39661495Y18972312D01*
X39447688Y18758505D01*
X39370000Y18642237D01*
X39292312Y18758505D01*
X39078505Y18972312D01*
X38827095Y19140299D01*
X38547743Y19256011D01*
X38251184Y19315000D01*
X37948816Y19315000D01*
X37652257Y19256011D01*
X37372905Y19140299D01*
X37121495Y18972312D01*
X36907688Y18758505D01*
X36830000Y18642237D01*
X36752312Y18758505D01*
X36538505Y18972312D01*
X36287095Y19140299D01*
X36007743Y19256011D01*
X35711184Y19315000D01*
X35408816Y19315000D01*
X35112257Y19256011D01*
X34832905Y19140299D01*
X34581495Y18972312D01*
X34367688Y18758505D01*
X34290000Y18642237D01*
X34212312Y18758505D01*
X33998505Y18972312D01*
X33747095Y19140299D01*
X33467743Y19256011D01*
X33171184Y19315000D01*
X32868816Y19315000D01*
X32572257Y19256011D01*
X32292905Y19140299D01*
X32041495Y18972312D01*
X31827688Y18758505D01*
X31750000Y18642237D01*
X31672312Y18758505D01*
X31458505Y18972312D01*
X31207095Y19140299D01*
X30927743Y19256011D01*
X30631184Y19315000D01*
X30328816Y19315000D01*
X30032257Y19256011D01*
X29752905Y19140299D01*
X29501495Y18972312D01*
X29287688Y18758505D01*
X29119701Y18507095D01*
X29003989Y18227743D01*
X28945000Y17931184D01*
X25658174Y17931184D01*
X25650697Y18037997D01*
X25571145Y18329713D01*
X25537749Y18410338D01*
X25306808Y18507795D01*
X24579013Y17780000D01*
X23680987Y17780000D01*
X22953192Y18507795D01*
X22722251Y18410338D01*
X22626328Y18123587D01*
X22588190Y17823633D01*
X21079808Y17823633D01*
X20942012Y18156302D01*
X20708363Y18505983D01*
X20410983Y18803363D01*
X20181336Y18956808D01*
X23402205Y18956808D01*
X24130000Y18229013D01*
X24857795Y18956808D01*
X24760338Y19187749D01*
X24473587Y19283672D01*
X24173633Y19321810D01*
X23872003Y19300697D01*
X23580287Y19221145D01*
X23499662Y19187749D01*
X23402205Y18956808D01*
X20181336Y18956808D01*
X20061302Y19037012D01*
X19672756Y19197953D01*
X19260279Y19280000D01*
X18839721Y19280000D01*
X18427244Y19197953D01*
X18038698Y19037012D01*
X17689017Y18803363D01*
X17391637Y18505983D01*
X17157988Y18156302D01*
X16997047Y17767756D01*
X16915000Y17355279D01*
X12910590Y17355279D01*
X12965000Y17628816D01*
X12965000Y17931184D01*
X12906011Y18227743D01*
X12790299Y18507095D01*
X12622312Y18758505D01*
X12408505Y18972312D01*
X12292237Y19050000D01*
X12408505Y19127688D01*
X12622312Y19341495D01*
X12766976Y19558000D01*
X24727577Y19558000D01*
X24765000Y19554314D01*
X24802423Y19558000D01*
X24802426Y19558000D01*
X24914378Y19569026D01*
X25058015Y19612598D01*
X25190392Y19683355D01*
X25306422Y19778578D01*
X25330284Y19807654D01*
X29227909Y23705279D01*
X32790000Y23705279D01*
X32790000Y23284721D01*
X32872047Y22872244D01*
X33032988Y22483698D01*
X33266637Y22134017D01*
X33564017Y21836637D01*
X33913698Y21602988D01*
X34302244Y21442047D01*
X34714721Y21360000D01*
X35135279Y21360000D01*
X35547756Y21442047D01*
X35936302Y21602988D01*
X36285983Y21836637D01*
X36583363Y22134017D01*
X36817012Y22483698D01*
X36977953Y22872244D01*
X37060000Y23284721D01*
X37060000Y23705279D01*
X36977953Y24117756D01*
X36817012Y24506302D01*
X36583363Y24855983D01*
X36285983Y25153363D01*
X35936302Y25387012D01*
X35547756Y25547953D01*
X35135279Y25630000D01*
X34714721Y25630000D01*
X34302244Y25547953D01*
X33913698Y25387012D01*
X33564017Y25153363D01*
X33266637Y24855983D01*
X33032988Y24506302D01*
X32872047Y24117756D01*
X32790000Y23705279D01*
X29227909Y23705279D01*
X33800625Y28277994D01*
X33813088Y28272832D01*
X34128967Y28210000D01*
X34451033Y28210000D01*
X34766912Y28272832D01*
X35064463Y28396082D01*
X35332252Y28575013D01*
X35559987Y28802748D01*
X35738918Y29070537D01*
X35862168Y29368088D01*
X35874483Y29430000D01*
X40451928Y29430000D01*
X40451928Y25430000D01*
X40464188Y25305518D01*
X40500498Y25185820D01*
X40559463Y25075506D01*
X40638815Y24978815D01*
X40735506Y24899463D01*
X40845820Y24840498D01*
X40965518Y24804188D01*
X41090000Y24791928D01*
X43090000Y24791928D01*
X43214482Y24804188D01*
X43334180Y24840498D01*
X43444494Y24899463D01*
X43541185Y24978815D01*
X43620537Y25075506D01*
X43679502Y25185820D01*
X43715812Y25305518D01*
X43728072Y25430000D01*
X43728072Y25980000D01*
X43851928Y25980000D01*
X43851928Y22980000D01*
X43864188Y22855518D01*
X43900498Y22735820D01*
X43959463Y22625506D01*
X44038815Y22528815D01*
X44135506Y22449463D01*
X44245820Y22390498D01*
X44365518Y22354188D01*
X44490000Y22341928D01*
X49490000Y22341928D01*
X49614482Y22354188D01*
X49734180Y22390498D01*
X49844494Y22449463D01*
X49941185Y22528815D01*
X50020537Y22625506D01*
X50079502Y22735820D01*
X50115812Y22855518D01*
X50128072Y22980000D01*
X50128072Y25980000D01*
X50115812Y26104482D01*
X50079502Y26224180D01*
X50020537Y26334494D01*
X49941185Y26431185D01*
X49844494Y26510537D01*
X49734180Y26569502D01*
X49614482Y26605812D01*
X49490000Y26618072D01*
X44490000Y26618072D01*
X44365518Y26605812D01*
X44245820Y26569502D01*
X44135506Y26510537D01*
X44038815Y26431185D01*
X43959463Y26334494D01*
X43900498Y26224180D01*
X43864188Y26104482D01*
X43851928Y25980000D01*
X43728072Y25980000D01*
X43728072Y28980000D01*
X44351928Y28980000D01*
X44364188Y28855518D01*
X44400498Y28735820D01*
X44459463Y28625506D01*
X44538815Y28528815D01*
X44635506Y28449463D01*
X44745820Y28390498D01*
X44865518Y28354188D01*
X44990000Y28341928D01*
X46513750Y28345000D01*
X46672500Y28503750D01*
X46672500Y30162500D01*
X47307500Y30162500D01*
X47307500Y28503750D01*
X47466250Y28345000D01*
X48990000Y28341928D01*
X49114482Y28354188D01*
X49234180Y28390498D01*
X49344494Y28449463D01*
X49441185Y28528815D01*
X49520537Y28625506D01*
X49579502Y28735820D01*
X49615812Y28855518D01*
X49628072Y28980000D01*
X49625000Y30003750D01*
X49466250Y30162500D01*
X47307500Y30162500D01*
X46672500Y30162500D01*
X44513750Y30162500D01*
X44355000Y30003750D01*
X44351928Y28980000D01*
X43728072Y28980000D01*
X43728072Y29430000D01*
X43715812Y29554482D01*
X43679502Y29674180D01*
X43620537Y29784494D01*
X43541185Y29881185D01*
X43444494Y29960537D01*
X43334180Y30019502D01*
X43214482Y30055812D01*
X43090000Y30068072D01*
X41090000Y30068072D01*
X40965518Y30055812D01*
X40845820Y30019502D01*
X40735506Y29960537D01*
X40638815Y29881185D01*
X40559463Y29784494D01*
X40500498Y29674180D01*
X40464188Y29554482D01*
X40451928Y29430000D01*
X35874483Y29430000D01*
X35925000Y29683967D01*
X35925000Y30006033D01*
X35862168Y30321912D01*
X35738918Y30619463D01*
X35559987Y30887252D01*
X35332252Y31114987D01*
X35064463Y31293918D01*
X34766912Y31417168D01*
X34451033Y31480000D01*
X34128967Y31480000D01*
X33813088Y31417168D01*
X33515537Y31293918D01*
X33247748Y31114987D01*
X33020013Y30887252D01*
X33020000Y30887233D01*
X33019987Y30887252D01*
X32792252Y31114987D01*
X32524463Y31293918D01*
X32226912Y31417168D01*
X31911033Y31480000D01*
X31588967Y31480000D01*
X31273088Y31417168D01*
X30975537Y31293918D01*
X30707748Y31114987D01*
X30480013Y30887252D01*
X30301082Y30619463D01*
X30207465Y30393452D01*
X29659013Y29845000D01*
X30207465Y29296548D01*
X30301082Y29070537D01*
X30480013Y28802748D01*
X30707748Y28575013D01*
X30975537Y28396082D01*
X31273088Y28272832D01*
X31579293Y28211924D01*
X24449370Y21082000D01*
X12766976Y21082000D01*
X12622312Y21298505D01*
X12408505Y21512312D01*
X12292237Y21590000D01*
X12408505Y21667688D01*
X12622312Y21881495D01*
X12790299Y22132905D01*
X12906011Y22412257D01*
X12965000Y22708816D01*
X12965000Y23011184D01*
X12906011Y23307743D01*
X12790299Y23587095D01*
X12622312Y23838505D01*
X12408505Y24052312D01*
X12157095Y24220299D01*
X12156652Y24220483D01*
X12157795Y24223192D01*
X11430000Y24950987D01*
X10702205Y24223192D01*
X10703348Y24220483D01*
X10702905Y24220299D01*
X10451495Y24052312D01*
X10402183Y24003000D01*
X9917817Y24003000D01*
X9868505Y24052312D01*
X9617095Y24220299D01*
X9616652Y24220483D01*
X9617795Y24223192D01*
X8890000Y24950987D01*
X8162205Y24223192D01*
X8163348Y24220483D01*
X8162905Y24220299D01*
X7911495Y24052312D01*
X7697688Y23838505D01*
X7529701Y23587095D01*
X7413989Y23307743D01*
X7355000Y23011184D01*
X7355000Y22941446D01*
X5581478Y21167923D01*
X5537868Y21132133D01*
X5502078Y21088523D01*
X5502076Y21088521D01*
X5487676Y21070974D01*
X5395033Y20958089D01*
X5343364Y20861422D01*
X5288898Y20759523D01*
X5223539Y20544067D01*
X5201471Y20320000D01*
X711200Y20320000D01*
X711200Y25443633D01*
X7348190Y25443633D01*
X7369303Y25142003D01*
X7448855Y24850287D01*
X7482251Y24769662D01*
X7713192Y24672205D01*
X8440987Y25400000D01*
X9339013Y25400000D01*
X10066808Y24672205D01*
X10160000Y24711532D01*
X10253192Y24672205D01*
X10980987Y25400000D01*
X11879013Y25400000D01*
X12606808Y24672205D01*
X12837749Y24769662D01*
X12933672Y25056413D01*
X12971810Y25356367D01*
X12950697Y25657997D01*
X12871145Y25949713D01*
X12837749Y26030338D01*
X12606808Y26127795D01*
X11879013Y25400000D01*
X10980987Y25400000D01*
X10253192Y26127795D01*
X10160000Y26088468D01*
X10066808Y26127795D01*
X9339013Y25400000D01*
X8440987Y25400000D01*
X7713192Y26127795D01*
X7482251Y26030338D01*
X7386328Y25743587D01*
X7348190Y25443633D01*
X711200Y25443633D01*
X711200Y26576808D01*
X8162205Y26576808D01*
X8890000Y25849013D01*
X9617795Y26576808D01*
X10702205Y26576808D01*
X11430000Y25849013D01*
X12157795Y26576808D01*
X12060338Y26807749D01*
X11773587Y26903672D01*
X11473633Y26941810D01*
X11172003Y26920697D01*
X10880287Y26841145D01*
X10799662Y26807749D01*
X10702205Y26576808D01*
X9617795Y26576808D01*
X9520338Y26807749D01*
X9233587Y26903672D01*
X8933633Y26941810D01*
X8632003Y26920697D01*
X8340287Y26841145D01*
X8259662Y26807749D01*
X8162205Y26576808D01*
X711200Y26576808D01*
X711200Y30006033D01*
X19955000Y30006033D01*
X19955000Y29683967D01*
X20017832Y29368088D01*
X20141082Y29070537D01*
X20320013Y28802748D01*
X20547748Y28575013D01*
X20815537Y28396082D01*
X21113088Y28272832D01*
X21428967Y28210000D01*
X21751033Y28210000D01*
X22066912Y28272832D01*
X22364463Y28396082D01*
X22632252Y28575013D01*
X22859987Y28802748D01*
X22860000Y28802767D01*
X22860013Y28802748D01*
X23087748Y28575013D01*
X23355537Y28396082D01*
X23653088Y28272832D01*
X23968967Y28210000D01*
X24291033Y28210000D01*
X24606912Y28272832D01*
X24904463Y28396082D01*
X25172252Y28575013D01*
X25399987Y28802748D01*
X25400000Y28802767D01*
X25400013Y28802748D01*
X25627748Y28575013D01*
X25895537Y28396082D01*
X26193088Y28272832D01*
X26508967Y28210000D01*
X26831033Y28210000D01*
X27146912Y28272832D01*
X27444463Y28396082D01*
X27712252Y28575013D01*
X27732567Y28595328D01*
X28409341Y28595328D01*
X28519389Y28354292D01*
X28823481Y28248203D01*
X29142428Y28203479D01*
X29463972Y28221838D01*
X29775755Y28302574D01*
X29900611Y28354292D01*
X30010659Y28595328D01*
X29210000Y29395987D01*
X28409341Y28595328D01*
X27732567Y28595328D01*
X27939987Y28802748D01*
X28118918Y29070537D01*
X28212535Y29296548D01*
X28760987Y29845000D01*
X28212535Y30393452D01*
X28118918Y30619463D01*
X27939987Y30887252D01*
X27732567Y31094672D01*
X28409341Y31094672D01*
X29210000Y30294013D01*
X30010659Y31094672D01*
X29900611Y31335708D01*
X29596519Y31441797D01*
X29277572Y31486521D01*
X28956028Y31468162D01*
X28644245Y31387426D01*
X28519389Y31335708D01*
X28409341Y31094672D01*
X27732567Y31094672D01*
X27712252Y31114987D01*
X27444463Y31293918D01*
X27146912Y31417168D01*
X26831033Y31480000D01*
X26508967Y31480000D01*
X26193088Y31417168D01*
X25895537Y31293918D01*
X25627748Y31114987D01*
X25400013Y30887252D01*
X25400000Y30887233D01*
X25399987Y30887252D01*
X25172252Y31114987D01*
X24904463Y31293918D01*
X24606912Y31417168D01*
X24291033Y31480000D01*
X23968967Y31480000D01*
X23653088Y31417168D01*
X23355537Y31293918D01*
X23087748Y31114987D01*
X22860013Y30887252D01*
X22860000Y30887233D01*
X22859987Y30887252D01*
X22632252Y31114987D01*
X22364463Y31293918D01*
X22066912Y31417168D01*
X21751033Y31480000D01*
X21428967Y31480000D01*
X21113088Y31417168D01*
X20815537Y31293918D01*
X20547748Y31114987D01*
X20320013Y30887252D01*
X20141082Y30619463D01*
X20017832Y30321912D01*
X19955000Y30006033D01*
X711200Y30006033D01*
X711200Y31980000D01*
X44351928Y31980000D01*
X44355000Y30956250D01*
X44513750Y30797500D01*
X46672500Y30797500D01*
X46672500Y32456250D01*
X47307500Y32456250D01*
X47307500Y30797500D01*
X49466250Y30797500D01*
X49625000Y30956250D01*
X49628072Y31980000D01*
X49615812Y32104482D01*
X49579502Y32224180D01*
X49520537Y32334494D01*
X49441185Y32431185D01*
X49344494Y32510537D01*
X49234180Y32569502D01*
X49114482Y32605812D01*
X48990000Y32618072D01*
X47466250Y32615000D01*
X47307500Y32456250D01*
X46672500Y32456250D01*
X46513750Y32615000D01*
X44990000Y32618072D01*
X44865518Y32605812D01*
X44745820Y32569502D01*
X44635506Y32510537D01*
X44538815Y32431185D01*
X44459463Y32334494D01*
X44400498Y32224180D01*
X44364188Y32104482D01*
X44351928Y31980000D01*
X711200Y31980000D01*
X711200Y33806184D01*
X5450000Y33806184D01*
X5450000Y33503816D01*
X5508989Y33207257D01*
X5624701Y32927905D01*
X5792688Y32676495D01*
X6006495Y32462688D01*
X6257905Y32294701D01*
X6537257Y32178989D01*
X6833816Y32120000D01*
X7136184Y32120000D01*
X7432743Y32178989D01*
X7712095Y32294701D01*
X7963505Y32462688D01*
X8177312Y32676495D01*
X8255000Y32792763D01*
X8332688Y32676495D01*
X8546495Y32462688D01*
X8797905Y32294701D01*
X9077257Y32178989D01*
X9373816Y32120000D01*
X9676184Y32120000D01*
X9972743Y32178989D01*
X10252095Y32294701D01*
X10503505Y32462688D01*
X10717312Y32676495D01*
X10795000Y32792763D01*
X10872688Y32676495D01*
X11086495Y32462688D01*
X11337905Y32294701D01*
X11617257Y32178989D01*
X11913816Y32120000D01*
X12216184Y32120000D01*
X12512743Y32178989D01*
X12792095Y32294701D01*
X13043505Y32462688D01*
X13257312Y32676495D01*
X13425299Y32927905D01*
X13541011Y33207257D01*
X13600000Y33503816D01*
X13600000Y33806184D01*
X13541011Y34102743D01*
X13425299Y34382095D01*
X13257312Y34633505D01*
X13043505Y34847312D01*
X12792095Y35015299D01*
X12512743Y35131011D01*
X12216184Y35190000D01*
X11913816Y35190000D01*
X11617257Y35131011D01*
X11337905Y35015299D01*
X11086495Y34847312D01*
X10872688Y34633505D01*
X10795000Y34517237D01*
X10717312Y34633505D01*
X10503505Y34847312D01*
X10252095Y35015299D01*
X9972743Y35131011D01*
X9676184Y35190000D01*
X9373816Y35190000D01*
X9077257Y35131011D01*
X8797905Y35015299D01*
X8546495Y34847312D01*
X8332688Y34633505D01*
X8255000Y34517237D01*
X8177312Y34633505D01*
X7963505Y34847312D01*
X7712095Y35015299D01*
X7432743Y35131011D01*
X7136184Y35190000D01*
X6833816Y35190000D01*
X6537257Y35131011D01*
X6257905Y35015299D01*
X6006495Y34847312D01*
X5792688Y34633505D01*
X5624701Y34382095D01*
X5508989Y34102743D01*
X5450000Y33806184D01*
X711200Y33806184D01*
X711200Y35525214D01*
X773562Y36161230D01*
X948170Y36739560D01*
X1231784Y37272962D01*
X1613602Y37741118D01*
X2079080Y38126194D01*
X2610488Y38413526D01*
X3187585Y38592167D01*
X3821558Y38658800D01*
X52035214Y38658800D01*
X52671230Y38596438D01*
%TA.AperFunction,Conductor*%
D17*
G36*
X52671230Y38596438D02*
G01*
X53249560Y38421830D01*
X53782962Y38138216D01*
X54251118Y37756398D01*
X54636194Y37290920D01*
X54923526Y36759512D01*
X55102167Y36182415D01*
X55168801Y35548433D01*
X55168800Y3844786D01*
X55106438Y3208766D01*
X54931828Y2630435D01*
X54648215Y2097037D01*
X54266398Y1628882D01*
X53800920Y1243806D01*
X53269512Y956475D01*
X52692414Y777833D01*
X52058442Y711200D01*
X3844786Y711200D01*
X3208766Y773562D01*
X2630435Y948172D01*
X2097037Y1231785D01*
X1628882Y1613602D01*
X1243806Y2079080D01*
X956475Y2610488D01*
X777833Y3187586D01*
X763266Y3326184D01*
X5450000Y3326184D01*
X5450000Y3023816D01*
X5508989Y2727257D01*
X5624701Y2447905D01*
X5792688Y2196495D01*
X6006495Y1982688D01*
X6257905Y1814701D01*
X6537257Y1698989D01*
X6833816Y1640000D01*
X7136184Y1640000D01*
X7432743Y1698989D01*
X7712095Y1814701D01*
X7963505Y1982688D01*
X8177312Y2196495D01*
X8255000Y2312763D01*
X8332688Y2196495D01*
X8546495Y1982688D01*
X8797905Y1814701D01*
X9077257Y1698989D01*
X9373816Y1640000D01*
X9676184Y1640000D01*
X9972743Y1698989D01*
X10252095Y1814701D01*
X10503505Y1982688D01*
X10717312Y2196495D01*
X10795000Y2312763D01*
X10872688Y2196495D01*
X11086495Y1982688D01*
X11337905Y1814701D01*
X11617257Y1698989D01*
X11913816Y1640000D01*
X12216184Y1640000D01*
X12512743Y1698989D01*
X12792095Y1814701D01*
X13043505Y1982688D01*
X13257312Y2196495D01*
X13425299Y2447905D01*
X13541011Y2727257D01*
X13600000Y3023816D01*
X13600000Y3326184D01*
X13541011Y3622743D01*
X13425299Y3902095D01*
X13257312Y4153505D01*
X13043505Y4367312D01*
X12792095Y4535299D01*
X12512743Y4651011D01*
X12216184Y4710000D01*
X11913816Y4710000D01*
X11617257Y4651011D01*
X11337905Y4535299D01*
X11086495Y4367312D01*
X10872688Y4153505D01*
X10795000Y4037237D01*
X10717312Y4153505D01*
X10503505Y4367312D01*
X10252095Y4535299D01*
X9972743Y4651011D01*
X9676184Y4710000D01*
X9373816Y4710000D01*
X9077257Y4651011D01*
X8797905Y4535299D01*
X8546495Y4367312D01*
X8332688Y4153505D01*
X8255000Y4037237D01*
X8177312Y4153505D01*
X7963505Y4367312D01*
X7712095Y4535299D01*
X7432743Y4651011D01*
X7136184Y4710000D01*
X6833816Y4710000D01*
X6537257Y4651011D01*
X6257905Y4535299D01*
X6006495Y4367312D01*
X5792688Y4153505D01*
X5624701Y3902095D01*
X5508989Y3622743D01*
X5450000Y3326184D01*
X763266Y3326184D01*
X711200Y3821558D01*
X711200Y20320000D01*
X5201471Y20320000D01*
X5207001Y20263851D01*
X5207000Y10216139D01*
X5201471Y10160000D01*
X5207000Y10103861D01*
X5207000Y10103855D01*
X5223539Y9935934D01*
X5288897Y9720478D01*
X5395032Y9521912D01*
X5537867Y9347867D01*
X5581482Y9312073D01*
X6463214Y8430341D01*
X6257905Y8345299D01*
X6006495Y8177312D01*
X5792688Y7963505D01*
X5624701Y7712095D01*
X5508989Y7432743D01*
X5450000Y7136184D01*
X5450000Y6833816D01*
X5508989Y6537257D01*
X5624701Y6257905D01*
X5792688Y6006495D01*
X6006495Y5792688D01*
X6257905Y5624701D01*
X6537257Y5508989D01*
X6833816Y5450000D01*
X7136184Y5450000D01*
X7432743Y5508989D01*
X7712095Y5624701D01*
X7963505Y5792688D01*
X8177312Y6006495D01*
X8255000Y6122763D01*
X8332688Y6006495D01*
X8546495Y5792688D01*
X8797905Y5624701D01*
X9077257Y5508989D01*
X9373816Y5450000D01*
X9676184Y5450000D01*
X9972743Y5508989D01*
X10252095Y5624701D01*
X10503505Y5792688D01*
X10717312Y6006495D01*
X10795000Y6122763D01*
X10872688Y6006495D01*
X11086495Y5792688D01*
X11337905Y5624701D01*
X11617257Y5508989D01*
X11913816Y5450000D01*
X12216184Y5450000D01*
X12512743Y5508989D01*
X12792095Y5624701D01*
X13043505Y5792688D01*
X13257312Y6006495D01*
X13425299Y6257905D01*
X13541011Y6537257D01*
X13600000Y6833816D01*
X13600000Y7136184D01*
X13541011Y7432743D01*
X13425299Y7712095D01*
X13257312Y7963505D01*
X13043505Y8177312D01*
X12792095Y8345299D01*
X12512743Y8461011D01*
X12216184Y8520000D01*
X11913816Y8520000D01*
X11617257Y8461011D01*
X11337905Y8345299D01*
X11086495Y8177312D01*
X10872688Y7963505D01*
X10795000Y7847237D01*
X10717312Y7963505D01*
X10503505Y8177312D01*
X10252095Y8345299D01*
X9972743Y8461011D01*
X9676184Y8520000D01*
X9606446Y8520000D01*
X7493000Y10633445D01*
X7493000Y14601509D01*
X7529701Y14512905D01*
X7697688Y14261495D01*
X7911495Y14047688D01*
X8162905Y13879701D01*
X8442257Y13763989D01*
X8738816Y13705000D01*
X9041184Y13705000D01*
X9337743Y13763989D01*
X9617095Y13879701D01*
X9868505Y14047688D01*
X10082312Y14261495D01*
X10160000Y14377763D01*
X10237688Y14261495D01*
X10451495Y14047688D01*
X10702905Y13879701D01*
X10982257Y13763989D01*
X11278816Y13705000D01*
X11581184Y13705000D01*
X11877743Y13763989D01*
X12157095Y13879701D01*
X12408505Y14047688D01*
X12622312Y14261495D01*
X12790299Y14512905D01*
X12906011Y14792257D01*
X12965000Y15088816D01*
X12965000Y15391184D01*
X12906011Y15687743D01*
X12790299Y15967095D01*
X12622312Y16218505D01*
X12408505Y16432312D01*
X12292237Y16510000D01*
X12408505Y16587688D01*
X12622312Y16801495D01*
X12790299Y17052905D01*
X12906011Y17332257D01*
X12910590Y17355279D01*
X16915000Y17355279D01*
X16915000Y16934721D01*
X16997047Y16522244D01*
X17157988Y16133698D01*
X17391637Y15784017D01*
X17689017Y15486637D01*
X18038698Y15252988D01*
X18427244Y15092047D01*
X18839721Y15010000D01*
X19260279Y15010000D01*
X19672756Y15092047D01*
X20061302Y15252988D01*
X20268127Y15391184D01*
X22595000Y15391184D01*
X22595000Y15088816D01*
X22653989Y14792257D01*
X22769701Y14512905D01*
X22937688Y14261495D01*
X23151495Y14047688D01*
X23267763Y13970000D01*
X23151495Y13892312D01*
X22937688Y13678505D01*
X22769701Y13427095D01*
X22653989Y13147743D01*
X22595000Y12851184D01*
X22595000Y12548816D01*
X22653989Y12252257D01*
X22769701Y11972905D01*
X22937688Y11721495D01*
X23151495Y11507688D01*
X23267763Y11430000D01*
X23151495Y11352312D01*
X22937688Y11138505D01*
X22769701Y10887095D01*
X22653989Y10607743D01*
X22595000Y10311184D01*
X22595000Y10008816D01*
X22653989Y9712257D01*
X22769701Y9432905D01*
X22937688Y9181495D01*
X23151495Y8967688D01*
X23267763Y8890000D01*
X23151495Y8812312D01*
X22937688Y8598505D01*
X22769701Y8347095D01*
X22653989Y8067743D01*
X22595000Y7771184D01*
X22595000Y7468816D01*
X22653989Y7172257D01*
X22769701Y6892905D01*
X22937688Y6641495D01*
X23151495Y6427688D01*
X23267763Y6350000D01*
X23151495Y6272312D01*
X22937688Y6058505D01*
X22769701Y5807095D01*
X22653989Y5527743D01*
X22595000Y5231184D01*
X22595000Y4928816D01*
X22653989Y4632257D01*
X22769701Y4352905D01*
X22937688Y4101495D01*
X23151495Y3887688D01*
X23402905Y3719701D01*
X23682257Y3603989D01*
X23978816Y3545000D01*
X24281184Y3545000D01*
X24577743Y3603989D01*
X24857095Y3719701D01*
X25108505Y3887688D01*
X25322312Y4101495D01*
X25490299Y4352905D01*
X25606011Y4632257D01*
X25665000Y4928816D01*
X25665000Y5231184D01*
X28945000Y5231184D01*
X28945000Y4928816D01*
X29003989Y4632257D01*
X29119701Y4352905D01*
X29287688Y4101495D01*
X29501495Y3887688D01*
X29752905Y3719701D01*
X30032257Y3603989D01*
X30328816Y3545000D01*
X30631184Y3545000D01*
X30927743Y3603989D01*
X31207095Y3719701D01*
X31458505Y3887688D01*
X31672312Y4101495D01*
X31750000Y4217763D01*
X31827688Y4101495D01*
X32041495Y3887688D01*
X32292905Y3719701D01*
X32572257Y3603989D01*
X32868816Y3545000D01*
X33171184Y3545000D01*
X33467743Y3603989D01*
X33747095Y3719701D01*
X33998505Y3887688D01*
X34212312Y4101495D01*
X34290000Y4217763D01*
X34367688Y4101495D01*
X34581495Y3887688D01*
X34832905Y3719701D01*
X35112257Y3603989D01*
X35408816Y3545000D01*
X35711184Y3545000D01*
X36007743Y3603989D01*
X36287095Y3719701D01*
X36538505Y3887688D01*
X36752312Y4101495D01*
X36830000Y4217763D01*
X36907688Y4101495D01*
X37121495Y3887688D01*
X37372905Y3719701D01*
X37652257Y3603989D01*
X37948816Y3545000D01*
X38251184Y3545000D01*
X38547743Y3603989D01*
X38827095Y3719701D01*
X39078505Y3887688D01*
X39292312Y4101495D01*
X39370000Y4217763D01*
X39447688Y4101495D01*
X39661495Y3887688D01*
X39912905Y3719701D01*
X40192257Y3603989D01*
X40488816Y3545000D01*
X40791184Y3545000D01*
X41087743Y3603989D01*
X41367095Y3719701D01*
X41618505Y3887688D01*
X41832312Y4101495D01*
X41910000Y4217763D01*
X41987688Y4101495D01*
X42201495Y3887688D01*
X42452905Y3719701D01*
X42732257Y3603989D01*
X43028816Y3545000D01*
X43331184Y3545000D01*
X43627743Y3603989D01*
X43907095Y3719701D01*
X44158505Y3887688D01*
X44174009Y3903192D01*
X44992205Y3903192D01*
X45089662Y3672251D01*
X45376413Y3576328D01*
X45676367Y3538190D01*
X45977997Y3559303D01*
X46269713Y3638855D01*
X46350338Y3672251D01*
X46447795Y3903192D01*
X45720000Y4630987D01*
X44992205Y3903192D01*
X44174009Y3903192D01*
X44372312Y4101495D01*
X44540299Y4352905D01*
X44540483Y4353348D01*
X44543192Y4352205D01*
X45270987Y5080000D01*
X46169013Y5080000D01*
X46896808Y4352205D01*
X47127749Y4449662D01*
X47223672Y4736413D01*
X47261810Y5036367D01*
X47240697Y5337997D01*
X47161145Y5629713D01*
X47127749Y5710338D01*
X46896808Y5807795D01*
X46169013Y5080000D01*
X45270987Y5080000D01*
X44543192Y5807795D01*
X44540483Y5806652D01*
X44540299Y5807095D01*
X44372312Y6058505D01*
X44174009Y6256808D01*
X44992205Y6256808D01*
X45720000Y5529013D01*
X46447795Y6256808D01*
X46350338Y6487749D01*
X46063587Y6583672D01*
X45763633Y6621810D01*
X45462003Y6600697D01*
X45170287Y6521145D01*
X45089662Y6487749D01*
X44992205Y6256808D01*
X44174009Y6256808D01*
X44158505Y6272312D01*
X43907095Y6440299D01*
X43627743Y6556011D01*
X43331184Y6615000D01*
X43028816Y6615000D01*
X42732257Y6556011D01*
X42452905Y6440299D01*
X42201495Y6272312D01*
X41987688Y6058505D01*
X41910000Y5942237D01*
X41832312Y6058505D01*
X41618505Y6272312D01*
X41367095Y6440299D01*
X41087743Y6556011D01*
X40791184Y6615000D01*
X40488816Y6615000D01*
X40192257Y6556011D01*
X39912905Y6440299D01*
X39661495Y6272312D01*
X39447688Y6058505D01*
X39370000Y5942237D01*
X39292312Y6058505D01*
X39078505Y6272312D01*
X38827095Y6440299D01*
X38547743Y6556011D01*
X38251184Y6615000D01*
X37948816Y6615000D01*
X37652257Y6556011D01*
X37372905Y6440299D01*
X37121495Y6272312D01*
X36907688Y6058505D01*
X36830000Y5942237D01*
X36752312Y6058505D01*
X36538505Y6272312D01*
X36287095Y6440299D01*
X36007743Y6556011D01*
X35711184Y6615000D01*
X35408816Y6615000D01*
X35112257Y6556011D01*
X34832905Y6440299D01*
X34581495Y6272312D01*
X34367688Y6058505D01*
X34290000Y5942237D01*
X34212312Y6058505D01*
X33998505Y6272312D01*
X33747095Y6440299D01*
X33467743Y6556011D01*
X33171184Y6615000D01*
X32868816Y6615000D01*
X32572257Y6556011D01*
X32292905Y6440299D01*
X32041495Y6272312D01*
X31827688Y6058505D01*
X31750000Y5942237D01*
X31672312Y6058505D01*
X31458505Y6272312D01*
X31207095Y6440299D01*
X30927743Y6556011D01*
X30631184Y6615000D01*
X30328816Y6615000D01*
X30032257Y6556011D01*
X29752905Y6440299D01*
X29501495Y6272312D01*
X29287688Y6058505D01*
X29119701Y5807095D01*
X29003989Y5527743D01*
X28945000Y5231184D01*
X25665000Y5231184D01*
X25606011Y5527743D01*
X25490299Y5807095D01*
X25322312Y6058505D01*
X25108505Y6272312D01*
X24992237Y6350000D01*
X25108505Y6427688D01*
X25322312Y6641495D01*
X25490299Y6892905D01*
X25606011Y7172257D01*
X25665000Y7468816D01*
X25665000Y7771184D01*
X25606011Y8067743D01*
X25490299Y8347095D01*
X25322312Y8598505D01*
X25108505Y8812312D01*
X24992237Y8890000D01*
X25108505Y8967688D01*
X25322312Y9181495D01*
X25490299Y9432905D01*
X25606011Y9712257D01*
X25665000Y10008816D01*
X25665000Y10311184D01*
X25606011Y10607743D01*
X25490299Y10887095D01*
X25322312Y11138505D01*
X25108505Y11352312D01*
X24992237Y11430000D01*
X25108505Y11507688D01*
X25241096Y11640279D01*
X35965000Y11640279D01*
X35965000Y11219721D01*
X36047047Y10807244D01*
X36207988Y10418698D01*
X36441637Y10069017D01*
X36739017Y9771637D01*
X37088698Y9537988D01*
X37477244Y9377047D01*
X37889721Y9295000D01*
X38310279Y9295000D01*
X38722756Y9377047D01*
X39111302Y9537988D01*
X39460983Y9771637D01*
X39758363Y10069017D01*
X39992012Y10418698D01*
X40152953Y10807244D01*
X40235000Y11219721D01*
X40235000Y11640279D01*
X40152953Y12052756D01*
X39992012Y12441302D01*
X39758363Y12790983D01*
X39460983Y13088363D01*
X39111302Y13322012D01*
X38722756Y13482953D01*
X38310279Y13565000D01*
X37889721Y13565000D01*
X37477244Y13482953D01*
X37088698Y13322012D01*
X36739017Y13088363D01*
X36441637Y12790983D01*
X36207988Y12441302D01*
X36047047Y12052756D01*
X35965000Y11640279D01*
X25241096Y11640279D01*
X25322312Y11721495D01*
X25490299Y11972905D01*
X25606011Y12252257D01*
X25665000Y12548816D01*
X25665000Y12851184D01*
X25606011Y13147743D01*
X25490299Y13427095D01*
X25322312Y13678505D01*
X25108505Y13892312D01*
X24992237Y13970000D01*
X25108505Y14047688D01*
X25322312Y14261495D01*
X25490299Y14512905D01*
X25606011Y14792257D01*
X25665000Y15088816D01*
X25665000Y15391184D01*
X25606011Y15687743D01*
X25490299Y15967095D01*
X25322312Y16218505D01*
X25108505Y16432312D01*
X24857095Y16600299D01*
X24856652Y16600483D01*
X24857795Y16603192D01*
X24130000Y17330987D01*
X23402205Y16603192D01*
X23403348Y16600483D01*
X23402905Y16600299D01*
X23151495Y16432312D01*
X22937688Y16218505D01*
X22769701Y15967095D01*
X22653989Y15687743D01*
X22595000Y15391184D01*
X20268127Y15391184D01*
X20410983Y15486637D01*
X20708363Y15784017D01*
X20942012Y16133698D01*
X21102953Y16522244D01*
X21185000Y16934721D01*
X21185000Y17355279D01*
X21102953Y17767756D01*
X21079808Y17823633D01*
X22588190Y17823633D01*
X22609303Y17522003D01*
X22688855Y17230287D01*
X22722251Y17149662D01*
X22953192Y17052205D01*
X23680987Y17780000D01*
X24579013Y17780000D01*
X25306808Y17052205D01*
X25537749Y17149662D01*
X25633672Y17436413D01*
X25671810Y17736367D01*
X25658174Y17931184D01*
X28945000Y17931184D01*
X28945000Y17628816D01*
X29003989Y17332257D01*
X29119701Y17052905D01*
X29287688Y16801495D01*
X29501495Y16587688D01*
X29752905Y16419701D01*
X30032257Y16303989D01*
X30328816Y16245000D01*
X30631184Y16245000D01*
X30927743Y16303989D01*
X31207095Y16419701D01*
X31458505Y16587688D01*
X31672312Y16801495D01*
X31750000Y16917763D01*
X31827688Y16801495D01*
X32041495Y16587688D01*
X32292905Y16419701D01*
X32572257Y16303989D01*
X32868816Y16245000D01*
X33171184Y16245000D01*
X33467743Y16303989D01*
X33747095Y16419701D01*
X33998505Y16587688D01*
X34212312Y16801495D01*
X34290000Y16917763D01*
X34367688Y16801495D01*
X34581495Y16587688D01*
X34832905Y16419701D01*
X35112257Y16303989D01*
X35408816Y16245000D01*
X35711184Y16245000D01*
X36007743Y16303989D01*
X36287095Y16419701D01*
X36538505Y16587688D01*
X36752312Y16801495D01*
X36830000Y16917763D01*
X36907688Y16801495D01*
X37121495Y16587688D01*
X37372905Y16419701D01*
X37652257Y16303989D01*
X37948816Y16245000D01*
X38251184Y16245000D01*
X38547743Y16303989D01*
X38827095Y16419701D01*
X39078505Y16587688D01*
X39292312Y16801495D01*
X39370000Y16917763D01*
X39447688Y16801495D01*
X39661495Y16587688D01*
X39912905Y16419701D01*
X40192257Y16303989D01*
X40488816Y16245000D01*
X40791184Y16245000D01*
X41087743Y16303989D01*
X41367095Y16419701D01*
X41618505Y16587688D01*
X41832312Y16801495D01*
X41910000Y16917763D01*
X41987688Y16801495D01*
X42201495Y16587688D01*
X42452905Y16419701D01*
X42732257Y16303989D01*
X43028816Y16245000D01*
X43331184Y16245000D01*
X43627743Y16303989D01*
X43907095Y16419701D01*
X44158505Y16587688D01*
X44372312Y16801495D01*
X44450000Y16917763D01*
X44527688Y16801495D01*
X44741495Y16587688D01*
X44992905Y16419701D01*
X45272257Y16303989D01*
X45568816Y16245000D01*
X45871184Y16245000D01*
X46167743Y16303989D01*
X46447095Y16419701D01*
X46698505Y16587688D01*
X46912312Y16801495D01*
X47080299Y17052905D01*
X47196011Y17332257D01*
X47255000Y17628816D01*
X47255000Y17931184D01*
X47196011Y18227743D01*
X47080299Y18507095D01*
X46912312Y18758505D01*
X46698505Y18972312D01*
X46447095Y19140299D01*
X46167743Y19256011D01*
X45871184Y19315000D01*
X45568816Y19315000D01*
X45272257Y19256011D01*
X44992905Y19140299D01*
X44741495Y18972312D01*
X44527688Y18758505D01*
X44450000Y18642237D01*
X44372312Y18758505D01*
X44158505Y18972312D01*
X43907095Y19140299D01*
X43627743Y19256011D01*
X43331184Y19315000D01*
X43028816Y19315000D01*
X42732257Y19256011D01*
X42452905Y19140299D01*
X42201495Y18972312D01*
X41987688Y18758505D01*
X41910000Y18642237D01*
X41832312Y18758505D01*
X41618505Y18972312D01*
X41367095Y19140299D01*
X41087743Y19256011D01*
X40791184Y19315000D01*
X40488816Y19315000D01*
X40192257Y19256011D01*
X39912905Y19140299D01*
X39661495Y18972312D01*
X39447688Y18758505D01*
X39370000Y18642237D01*
X39292312Y18758505D01*
X39078505Y18972312D01*
X38827095Y19140299D01*
X38547743Y19256011D01*
X38251184Y19315000D01*
X37948816Y19315000D01*
X37652257Y19256011D01*
X37372905Y19140299D01*
X37121495Y18972312D01*
X36907688Y18758505D01*
X36830000Y18642237D01*
X36752312Y18758505D01*
X36538505Y18972312D01*
X36287095Y19140299D01*
X36007743Y19256011D01*
X35711184Y19315000D01*
X35408816Y19315000D01*
X35112257Y19256011D01*
X34832905Y19140299D01*
X34581495Y18972312D01*
X34367688Y18758505D01*
X34290000Y18642237D01*
X34212312Y18758505D01*
X33998505Y18972312D01*
X33747095Y19140299D01*
X33467743Y19256011D01*
X33171184Y19315000D01*
X32868816Y19315000D01*
X32572257Y19256011D01*
X32292905Y19140299D01*
X32041495Y18972312D01*
X31827688Y18758505D01*
X31750000Y18642237D01*
X31672312Y18758505D01*
X31458505Y18972312D01*
X31207095Y19140299D01*
X30927743Y19256011D01*
X30631184Y19315000D01*
X30328816Y19315000D01*
X30032257Y19256011D01*
X29752905Y19140299D01*
X29501495Y18972312D01*
X29287688Y18758505D01*
X29119701Y18507095D01*
X29003989Y18227743D01*
X28945000Y17931184D01*
X25658174Y17931184D01*
X25650697Y18037997D01*
X25571145Y18329713D01*
X25537749Y18410338D01*
X25306808Y18507795D01*
X24579013Y17780000D01*
X23680987Y17780000D01*
X22953192Y18507795D01*
X22722251Y18410338D01*
X22626328Y18123587D01*
X22588190Y17823633D01*
X21079808Y17823633D01*
X20942012Y18156302D01*
X20708363Y18505983D01*
X20410983Y18803363D01*
X20181336Y18956808D01*
X23402205Y18956808D01*
X24130000Y18229013D01*
X24857795Y18956808D01*
X24760338Y19187749D01*
X24473587Y19283672D01*
X24173633Y19321810D01*
X23872003Y19300697D01*
X23580287Y19221145D01*
X23499662Y19187749D01*
X23402205Y18956808D01*
X20181336Y18956808D01*
X20061302Y19037012D01*
X19672756Y19197953D01*
X19260279Y19280000D01*
X18839721Y19280000D01*
X18427244Y19197953D01*
X18038698Y19037012D01*
X17689017Y18803363D01*
X17391637Y18505983D01*
X17157988Y18156302D01*
X16997047Y17767756D01*
X16915000Y17355279D01*
X12910590Y17355279D01*
X12965000Y17628816D01*
X12965000Y17931184D01*
X12906011Y18227743D01*
X12790299Y18507095D01*
X12622312Y18758505D01*
X12408505Y18972312D01*
X12292237Y19050000D01*
X12408505Y19127688D01*
X12622312Y19341495D01*
X12766976Y19558000D01*
X24727577Y19558000D01*
X24765000Y19554314D01*
X24802423Y19558000D01*
X24802426Y19558000D01*
X24914378Y19569026D01*
X25058015Y19612598D01*
X25190392Y19683355D01*
X25306422Y19778578D01*
X25330284Y19807654D01*
X29227909Y23705279D01*
X32790000Y23705279D01*
X32790000Y23284721D01*
X32872047Y22872244D01*
X33032988Y22483698D01*
X33266637Y22134017D01*
X33564017Y21836637D01*
X33913698Y21602988D01*
X34302244Y21442047D01*
X34714721Y21360000D01*
X35135279Y21360000D01*
X35547756Y21442047D01*
X35936302Y21602988D01*
X36285983Y21836637D01*
X36583363Y22134017D01*
X36817012Y22483698D01*
X36977953Y22872244D01*
X37060000Y23284721D01*
X37060000Y23705279D01*
X36977953Y24117756D01*
X36817012Y24506302D01*
X36583363Y24855983D01*
X36285983Y25153363D01*
X35936302Y25387012D01*
X35547756Y25547953D01*
X35135279Y25630000D01*
X34714721Y25630000D01*
X34302244Y25547953D01*
X33913698Y25387012D01*
X33564017Y25153363D01*
X33266637Y24855983D01*
X33032988Y24506302D01*
X32872047Y24117756D01*
X32790000Y23705279D01*
X29227909Y23705279D01*
X33800625Y28277994D01*
X33813088Y28272832D01*
X34128967Y28210000D01*
X34451033Y28210000D01*
X34766912Y28272832D01*
X35064463Y28396082D01*
X35332252Y28575013D01*
X35559987Y28802748D01*
X35738918Y29070537D01*
X35862168Y29368088D01*
X35874483Y29430000D01*
X40451928Y29430000D01*
X40451928Y25430000D01*
X40464188Y25305518D01*
X40500498Y25185820D01*
X40559463Y25075506D01*
X40638815Y24978815D01*
X40735506Y24899463D01*
X40845820Y24840498D01*
X40965518Y24804188D01*
X41090000Y24791928D01*
X43090000Y24791928D01*
X43214482Y24804188D01*
X43334180Y24840498D01*
X43444494Y24899463D01*
X43541185Y24978815D01*
X43620537Y25075506D01*
X43679502Y25185820D01*
X43715812Y25305518D01*
X43728072Y25430000D01*
X43728072Y25980000D01*
X43851928Y25980000D01*
X43851928Y22980000D01*
X43864188Y22855518D01*
X43900498Y22735820D01*
X43959463Y22625506D01*
X44038815Y22528815D01*
X44135506Y22449463D01*
X44245820Y22390498D01*
X44365518Y22354188D01*
X44490000Y22341928D01*
X49490000Y22341928D01*
X49614482Y22354188D01*
X49734180Y22390498D01*
X49844494Y22449463D01*
X49941185Y22528815D01*
X50020537Y22625506D01*
X50079502Y22735820D01*
X50115812Y22855518D01*
X50128072Y22980000D01*
X50128072Y25980000D01*
X50115812Y26104482D01*
X50079502Y26224180D01*
X50020537Y26334494D01*
X49941185Y26431185D01*
X49844494Y26510537D01*
X49734180Y26569502D01*
X49614482Y26605812D01*
X49490000Y26618072D01*
X44490000Y26618072D01*
X44365518Y26605812D01*
X44245820Y26569502D01*
X44135506Y26510537D01*
X44038815Y26431185D01*
X43959463Y26334494D01*
X43900498Y26224180D01*
X43864188Y26104482D01*
X43851928Y25980000D01*
X43728072Y25980000D01*
X43728072Y28980000D01*
X44351928Y28980000D01*
X44364188Y28855518D01*
X44400498Y28735820D01*
X44459463Y28625506D01*
X44538815Y28528815D01*
X44635506Y28449463D01*
X44745820Y28390498D01*
X44865518Y28354188D01*
X44990000Y28341928D01*
X46513750Y28345000D01*
X46672500Y28503750D01*
X46672500Y30162500D01*
X47307500Y30162500D01*
X47307500Y28503750D01*
X47466250Y28345000D01*
X48990000Y28341928D01*
X49114482Y28354188D01*
X49234180Y28390498D01*
X49344494Y28449463D01*
X49441185Y28528815D01*
X49520537Y28625506D01*
X49579502Y28735820D01*
X49615812Y28855518D01*
X49628072Y28980000D01*
X49625000Y30003750D01*
X49466250Y30162500D01*
X47307500Y30162500D01*
X46672500Y30162500D01*
X44513750Y30162500D01*
X44355000Y30003750D01*
X44351928Y28980000D01*
X43728072Y28980000D01*
X43728072Y29430000D01*
X43715812Y29554482D01*
X43679502Y29674180D01*
X43620537Y29784494D01*
X43541185Y29881185D01*
X43444494Y29960537D01*
X43334180Y30019502D01*
X43214482Y30055812D01*
X43090000Y30068072D01*
X41090000Y30068072D01*
X40965518Y30055812D01*
X40845820Y30019502D01*
X40735506Y29960537D01*
X40638815Y29881185D01*
X40559463Y29784494D01*
X40500498Y29674180D01*
X40464188Y29554482D01*
X40451928Y29430000D01*
X35874483Y29430000D01*
X35925000Y29683967D01*
X35925000Y30006033D01*
X35862168Y30321912D01*
X35738918Y30619463D01*
X35559987Y30887252D01*
X35332252Y31114987D01*
X35064463Y31293918D01*
X34766912Y31417168D01*
X34451033Y31480000D01*
X34128967Y31480000D01*
X33813088Y31417168D01*
X33515537Y31293918D01*
X33247748Y31114987D01*
X33020013Y30887252D01*
X33020000Y30887233D01*
X33019987Y30887252D01*
X32792252Y31114987D01*
X32524463Y31293918D01*
X32226912Y31417168D01*
X31911033Y31480000D01*
X31588967Y31480000D01*
X31273088Y31417168D01*
X30975537Y31293918D01*
X30707748Y31114987D01*
X30480013Y30887252D01*
X30301082Y30619463D01*
X30207465Y30393452D01*
X29659013Y29845000D01*
X30207465Y29296548D01*
X30301082Y29070537D01*
X30480013Y28802748D01*
X30707748Y28575013D01*
X30975537Y28396082D01*
X31273088Y28272832D01*
X31579293Y28211924D01*
X24449370Y21082000D01*
X12766976Y21082000D01*
X12622312Y21298505D01*
X12408505Y21512312D01*
X12292237Y21590000D01*
X12408505Y21667688D01*
X12622312Y21881495D01*
X12790299Y22132905D01*
X12906011Y22412257D01*
X12965000Y22708816D01*
X12965000Y23011184D01*
X12906011Y23307743D01*
X12790299Y23587095D01*
X12622312Y23838505D01*
X12408505Y24052312D01*
X12157095Y24220299D01*
X12156652Y24220483D01*
X12157795Y24223192D01*
X11430000Y24950987D01*
X10702205Y24223192D01*
X10703348Y24220483D01*
X10702905Y24220299D01*
X10451495Y24052312D01*
X10402183Y24003000D01*
X9917817Y24003000D01*
X9868505Y24052312D01*
X9617095Y24220299D01*
X9616652Y24220483D01*
X9617795Y24223192D01*
X8890000Y24950987D01*
X8162205Y24223192D01*
X8163348Y24220483D01*
X8162905Y24220299D01*
X7911495Y24052312D01*
X7697688Y23838505D01*
X7529701Y23587095D01*
X7413989Y23307743D01*
X7355000Y23011184D01*
X7355000Y22941446D01*
X5581478Y21167923D01*
X5537868Y21132133D01*
X5502078Y21088523D01*
X5502076Y21088521D01*
X5487676Y21070974D01*
X5395033Y20958089D01*
X5343364Y20861422D01*
X5288898Y20759523D01*
X5223539Y20544067D01*
X5201471Y20320000D01*
X711200Y20320000D01*
X711200Y25443633D01*
X7348190Y25443633D01*
X7369303Y25142003D01*
X7448855Y24850287D01*
X7482251Y24769662D01*
X7713192Y24672205D01*
X8440987Y25400000D01*
X9339013Y25400000D01*
X10066808Y24672205D01*
X10160000Y24711532D01*
X10253192Y24672205D01*
X10980987Y25400000D01*
X11879013Y25400000D01*
X12606808Y24672205D01*
X12837749Y24769662D01*
X12933672Y25056413D01*
X12971810Y25356367D01*
X12950697Y25657997D01*
X12871145Y25949713D01*
X12837749Y26030338D01*
X12606808Y26127795D01*
X11879013Y25400000D01*
X10980987Y25400000D01*
X10253192Y26127795D01*
X10160000Y26088468D01*
X10066808Y26127795D01*
X9339013Y25400000D01*
X8440987Y25400000D01*
X7713192Y26127795D01*
X7482251Y26030338D01*
X7386328Y25743587D01*
X7348190Y25443633D01*
X711200Y25443633D01*
X711200Y26576808D01*
X8162205Y26576808D01*
X8890000Y25849013D01*
X9617795Y26576808D01*
X10702205Y26576808D01*
X11430000Y25849013D01*
X12157795Y26576808D01*
X12060338Y26807749D01*
X11773587Y26903672D01*
X11473633Y26941810D01*
X11172003Y26920697D01*
X10880287Y26841145D01*
X10799662Y26807749D01*
X10702205Y26576808D01*
X9617795Y26576808D01*
X9520338Y26807749D01*
X9233587Y26903672D01*
X8933633Y26941810D01*
X8632003Y26920697D01*
X8340287Y26841145D01*
X8259662Y26807749D01*
X8162205Y26576808D01*
X711200Y26576808D01*
X711200Y30006033D01*
X19955000Y30006033D01*
X19955000Y29683967D01*
X20017832Y29368088D01*
X20141082Y29070537D01*
X20320013Y28802748D01*
X20547748Y28575013D01*
X20815537Y28396082D01*
X21113088Y28272832D01*
X21428967Y28210000D01*
X21751033Y28210000D01*
X22066912Y28272832D01*
X22364463Y28396082D01*
X22632252Y28575013D01*
X22859987Y28802748D01*
X22860000Y28802767D01*
X22860013Y28802748D01*
X23087748Y28575013D01*
X23355537Y28396082D01*
X23653088Y28272832D01*
X23968967Y28210000D01*
X24291033Y28210000D01*
X24606912Y28272832D01*
X24904463Y28396082D01*
X25172252Y28575013D01*
X25399987Y28802748D01*
X25400000Y28802767D01*
X25400013Y28802748D01*
X25627748Y28575013D01*
X25895537Y28396082D01*
X26193088Y28272832D01*
X26508967Y28210000D01*
X26831033Y28210000D01*
X27146912Y28272832D01*
X27444463Y28396082D01*
X27712252Y28575013D01*
X27732567Y28595328D01*
X28409341Y28595328D01*
X28519389Y28354292D01*
X28823481Y28248203D01*
X29142428Y28203479D01*
X29463972Y28221838D01*
X29775755Y28302574D01*
X29900611Y28354292D01*
X30010659Y28595328D01*
X29210000Y29395987D01*
X28409341Y28595328D01*
X27732567Y28595328D01*
X27939987Y28802748D01*
X28118918Y29070537D01*
X28212535Y29296548D01*
X28760987Y29845000D01*
X28212535Y30393452D01*
X28118918Y30619463D01*
X27939987Y30887252D01*
X27732567Y31094672D01*
X28409341Y31094672D01*
X29210000Y30294013D01*
X30010659Y31094672D01*
X29900611Y31335708D01*
X29596519Y31441797D01*
X29277572Y31486521D01*
X28956028Y31468162D01*
X28644245Y31387426D01*
X28519389Y31335708D01*
X28409341Y31094672D01*
X27732567Y31094672D01*
X27712252Y31114987D01*
X27444463Y31293918D01*
X27146912Y31417168D01*
X26831033Y31480000D01*
X26508967Y31480000D01*
X26193088Y31417168D01*
X25895537Y31293918D01*
X25627748Y31114987D01*
X25400013Y30887252D01*
X25400000Y30887233D01*
X25399987Y30887252D01*
X25172252Y31114987D01*
X24904463Y31293918D01*
X24606912Y31417168D01*
X24291033Y31480000D01*
X23968967Y31480000D01*
X23653088Y31417168D01*
X23355537Y31293918D01*
X23087748Y31114987D01*
X22860013Y30887252D01*
X22860000Y30887233D01*
X22859987Y30887252D01*
X22632252Y31114987D01*
X22364463Y31293918D01*
X22066912Y31417168D01*
X21751033Y31480000D01*
X21428967Y31480000D01*
X21113088Y31417168D01*
X20815537Y31293918D01*
X20547748Y31114987D01*
X20320013Y30887252D01*
X20141082Y30619463D01*
X20017832Y30321912D01*
X19955000Y30006033D01*
X711200Y30006033D01*
X711200Y31980000D01*
X44351928Y31980000D01*
X44355000Y30956250D01*
X44513750Y30797500D01*
X46672500Y30797500D01*
X46672500Y32456250D01*
X47307500Y32456250D01*
X47307500Y30797500D01*
X49466250Y30797500D01*
X49625000Y30956250D01*
X49628072Y31980000D01*
X49615812Y32104482D01*
X49579502Y32224180D01*
X49520537Y32334494D01*
X49441185Y32431185D01*
X49344494Y32510537D01*
X49234180Y32569502D01*
X49114482Y32605812D01*
X48990000Y32618072D01*
X47466250Y32615000D01*
X47307500Y32456250D01*
X46672500Y32456250D01*
X46513750Y32615000D01*
X44990000Y32618072D01*
X44865518Y32605812D01*
X44745820Y32569502D01*
X44635506Y32510537D01*
X44538815Y32431185D01*
X44459463Y32334494D01*
X44400498Y32224180D01*
X44364188Y32104482D01*
X44351928Y31980000D01*
X711200Y31980000D01*
X711200Y33806184D01*
X5450000Y33806184D01*
X5450000Y33503816D01*
X5508989Y33207257D01*
X5624701Y32927905D01*
X5792688Y32676495D01*
X6006495Y32462688D01*
X6257905Y32294701D01*
X6537257Y32178989D01*
X6833816Y32120000D01*
X7136184Y32120000D01*
X7432743Y32178989D01*
X7712095Y32294701D01*
X7963505Y32462688D01*
X8177312Y32676495D01*
X8255000Y32792763D01*
X8332688Y32676495D01*
X8546495Y32462688D01*
X8797905Y32294701D01*
X9077257Y32178989D01*
X9373816Y32120000D01*
X9676184Y32120000D01*
X9972743Y32178989D01*
X10252095Y32294701D01*
X10503505Y32462688D01*
X10717312Y32676495D01*
X10795000Y32792763D01*
X10872688Y32676495D01*
X11086495Y32462688D01*
X11337905Y32294701D01*
X11617257Y32178989D01*
X11913816Y32120000D01*
X12216184Y32120000D01*
X12512743Y32178989D01*
X12792095Y32294701D01*
X13043505Y32462688D01*
X13257312Y32676495D01*
X13425299Y32927905D01*
X13541011Y33207257D01*
X13600000Y33503816D01*
X13600000Y33806184D01*
X13541011Y34102743D01*
X13425299Y34382095D01*
X13257312Y34633505D01*
X13043505Y34847312D01*
X12792095Y35015299D01*
X12512743Y35131011D01*
X12216184Y35190000D01*
X11913816Y35190000D01*
X11617257Y35131011D01*
X11337905Y35015299D01*
X11086495Y34847312D01*
X10872688Y34633505D01*
X10795000Y34517237D01*
X10717312Y34633505D01*
X10503505Y34847312D01*
X10252095Y35015299D01*
X9972743Y35131011D01*
X9676184Y35190000D01*
X9373816Y35190000D01*
X9077257Y35131011D01*
X8797905Y35015299D01*
X8546495Y34847312D01*
X8332688Y34633505D01*
X8255000Y34517237D01*
X8177312Y34633505D01*
X7963505Y34847312D01*
X7712095Y35015299D01*
X7432743Y35131011D01*
X7136184Y35190000D01*
X6833816Y35190000D01*
X6537257Y35131011D01*
X6257905Y35015299D01*
X6006495Y34847312D01*
X5792688Y34633505D01*
X5624701Y34382095D01*
X5508989Y34102743D01*
X5450000Y33806184D01*
X711200Y33806184D01*
X711200Y35525214D01*
X773562Y36161230D01*
X948170Y36739560D01*
X1231784Y37272962D01*
X1613602Y37741118D01*
X2079080Y38126194D01*
X2610488Y38413526D01*
X3187585Y38592167D01*
X3821558Y38658800D01*
X52035214Y38658800D01*
X52671230Y38596438D01*
G37*
%TD.AperFunction*%
%TD*%
M02*
