%TF.GenerationSoftware,KiCad,Pcbnew,(5.1.9)-1*%
%TF.CreationDate,2021-03-12T12:12:47-05:00*%
%TF.ProjectId,ProgramBoard,50726f67-7261-46d4-926f-6172642e6b69,rev?*%
%TF.SameCoordinates,PX54c81a0PY791ddc0*%
%TF.FileFunction,Legend,Top*%
%TF.FilePolarity,Positive*%
%FSLAX46Y46*%
G04 Gerber Fmt 4.6, Leading zero omitted, Abs format (unit mm)*
G04 Created by KiCad (PCBNEW (5.1.9)-1) date 2021-03-12 12:12:47*
%MOMM*%
%LPD*%
G01*
G04 APERTURE LIST*
%ADD10C,0.152400*%
%ADD11C,0.254000*%
%ADD12C,0.100000*%
%ADD13C,0.381000*%
G04 APERTURE END LIST*
D10*
X45526476Y3096381D02*
X45042666Y3096381D01*
X44994285Y2612572D01*
X45042666Y2660953D01*
X45139428Y2709334D01*
X45381333Y2709334D01*
X45478095Y2660953D01*
X45526476Y2612572D01*
X45574857Y2515810D01*
X45574857Y2273905D01*
X45526476Y2177143D01*
X45478095Y2128762D01*
X45381333Y2080381D01*
X45139428Y2080381D01*
X45042666Y2128762D01*
X44994285Y2177143D01*
X45865142Y3096381D02*
X46203809Y2080381D01*
X46542476Y3096381D01*
X21209001Y7620000D02*
X20828000Y7493000D01*
X21209001Y7620000D02*
X20828000Y7747000D01*
X20701000Y7747000D02*
X19685000Y7747000D01*
X20701000Y7493000D02*
X19685000Y7493000D01*
X19685000Y7493000D02*
X19685000Y7747000D01*
X21717000Y7620000D02*
X20701000Y7874000D01*
X20701000Y7112000D02*
X22225000Y7620000D01*
X21717000Y7620000D02*
X20701000Y7366000D01*
X22225000Y7620000D02*
X20701000Y8128000D01*
X22225000Y7620000D02*
X19685000Y7620000D01*
X20701000Y8128000D02*
X20701000Y7112000D01*
X21971000Y7620000D02*
X20701000Y7239000D01*
X21844000Y7620000D02*
X20701000Y8001000D01*
X20701000Y10160000D02*
X21082000Y10287000D01*
X20701000Y10160000D02*
X21082000Y10033000D01*
X21209000Y10033000D02*
X22225000Y10033000D01*
X21209000Y10287000D02*
X22225000Y10287000D01*
X22225000Y10287000D02*
X22225000Y10033000D01*
X20193000Y10160000D02*
X21209000Y9906000D01*
X21209000Y10668000D02*
X19685000Y10160000D01*
X20193000Y10160000D02*
X21209000Y10414000D01*
X19685000Y10160000D02*
X21209000Y9652000D01*
X19685000Y10160000D02*
X22225000Y10160000D01*
X21209000Y9652000D02*
X21209000Y10668000D01*
X19939000Y10160000D02*
X21209000Y10541000D01*
X20066000Y10160000D02*
X21209000Y9779000D01*
X28915964Y26845381D02*
X28915964Y27861381D01*
X29303012Y27861381D01*
X29399774Y27813000D01*
X29448155Y27764620D01*
X29496536Y27667858D01*
X29496536Y27522715D01*
X29448155Y27425953D01*
X29399774Y27377572D01*
X29303012Y27329191D01*
X28915964Y27329191D01*
X29931964Y26845381D02*
X29931964Y27861381D01*
X30996345Y26942143D02*
X30947964Y26893762D01*
X30802821Y26845381D01*
X30706060Y26845381D01*
X30560917Y26893762D01*
X30464155Y26990524D01*
X30415774Y27087286D01*
X30367393Y27280810D01*
X30367393Y27425953D01*
X30415774Y27619477D01*
X30464155Y27716239D01*
X30560917Y27813000D01*
X30706060Y27861381D01*
X30802821Y27861381D01*
X30947964Y27813000D01*
X30996345Y27764620D01*
X31431774Y26845381D02*
X31431774Y27861381D01*
X31528536Y27232429D02*
X31818821Y26845381D01*
X31818821Y27522715D02*
X31431774Y27135667D01*
X32254250Y26845381D02*
X32254250Y27522715D01*
X32254250Y27861381D02*
X32205869Y27813000D01*
X32254250Y27764620D01*
X32302631Y27813000D01*
X32254250Y27861381D01*
X32254250Y27764620D01*
X32592917Y27522715D02*
X32979964Y27522715D01*
X32738060Y27861381D02*
X32738060Y26990524D01*
X32786440Y26893762D01*
X32883202Y26845381D01*
X32979964Y26845381D01*
X33995964Y27861381D02*
X34624917Y27861381D01*
X34286250Y27474334D01*
X34431393Y27474334D01*
X34528155Y27425953D01*
X34576536Y27377572D01*
X34624917Y27280810D01*
X34624917Y27038905D01*
X34576536Y26942143D01*
X34528155Y26893762D01*
X34431393Y26845381D01*
X34141107Y26845381D01*
X34044345Y26893762D01*
X33995964Y26942143D01*
X53718580Y26603325D02*
X54734580Y26476325D01*
X54008866Y26228373D01*
X54734580Y25798992D01*
X53718580Y25925992D01*
X53718580Y24861611D02*
X54202390Y25139802D01*
X53718580Y25442183D02*
X54734580Y25315183D01*
X54734580Y24928135D01*
X54686200Y24837421D01*
X54637819Y24795087D01*
X54541057Y24758802D01*
X54395914Y24776945D01*
X54299152Y24837421D01*
X54250771Y24891849D01*
X54202390Y24994659D01*
X54202390Y25381706D01*
X53718580Y24426183D02*
X54734580Y24299183D01*
X53718580Y23168278D02*
X54734580Y23041278D01*
X54734580Y22654230D01*
X54686200Y22563516D01*
X54637819Y22521183D01*
X54541057Y22484897D01*
X54395914Y22503040D01*
X54299152Y22563516D01*
X54250771Y22617945D01*
X54202390Y22720754D01*
X54202390Y23107802D01*
X54734580Y21976897D02*
X54541057Y22097849D01*
X54395914Y21583802D02*
X53718580Y21668468D01*
X54299152Y21595897D02*
X54347533Y21541468D01*
X54395914Y21438659D01*
X54395914Y21293516D01*
X54347533Y21202802D01*
X54250771Y21166516D01*
X53718580Y21233040D01*
X54734580Y20573849D02*
X54541057Y20694802D01*
X53718580Y20265421D02*
X54734580Y20138421D01*
X54734580Y19751373D01*
X54686200Y19660659D01*
X54637819Y19618326D01*
X54541057Y19582040D01*
X54395914Y19600183D01*
X54299152Y19660659D01*
X54250771Y19715087D01*
X54202390Y19817897D01*
X54202390Y20204945D01*
X53766961Y18517659D02*
X53718580Y18378564D01*
X53718580Y18136659D01*
X53766961Y18033849D01*
X53815342Y17979421D01*
X53912104Y17918945D01*
X54008866Y17906849D01*
X54105628Y17943135D01*
X54154009Y17985468D01*
X54202390Y18076183D01*
X54250771Y18263659D01*
X54299152Y18354373D01*
X54347533Y18396706D01*
X54444295Y18432992D01*
X54541057Y18420897D01*
X54637819Y18360421D01*
X54686200Y18305992D01*
X54734580Y18203183D01*
X54734580Y17961278D01*
X54686200Y17822183D01*
X53766961Y17114611D02*
X53718580Y17217421D01*
X53718580Y17410945D01*
X53766961Y17501659D01*
X53863723Y17537945D01*
X54250771Y17489564D01*
X54347533Y17429087D01*
X54395914Y17326278D01*
X54395914Y17132754D01*
X54347533Y17042040D01*
X54250771Y17005754D01*
X54154009Y17017849D01*
X54057247Y17513754D01*
X54395914Y16552183D02*
X53718580Y16636849D01*
X54299152Y16564278D02*
X54347533Y16509849D01*
X54395914Y16407040D01*
X54395914Y16261897D01*
X54347533Y16171183D01*
X54250771Y16134897D01*
X53718580Y16201421D01*
X53766961Y15759945D02*
X53718580Y15669230D01*
X53718580Y15475706D01*
X53766961Y15372897D01*
X53863723Y15312421D01*
X53912104Y15306373D01*
X54008866Y15342659D01*
X54057247Y15433373D01*
X54057247Y15578516D01*
X54105628Y15669230D01*
X54202390Y15705516D01*
X54250771Y15699468D01*
X54347533Y15638992D01*
X54395914Y15536183D01*
X54395914Y15391040D01*
X54347533Y15300325D01*
X53718580Y14749992D02*
X53766961Y14840706D01*
X53815342Y14883040D01*
X53912104Y14919325D01*
X54202390Y14883040D01*
X54299152Y14822564D01*
X54347533Y14768135D01*
X54395914Y14665325D01*
X54395914Y14520183D01*
X54347533Y14429468D01*
X54299152Y14387135D01*
X54202390Y14350849D01*
X53912104Y14387135D01*
X53815342Y14447611D01*
X53766961Y14502040D01*
X53718580Y14604849D01*
X53718580Y14749992D01*
X53718580Y13975897D02*
X54395914Y13891230D01*
X54202390Y13915421D02*
X54299152Y13854945D01*
X54347533Y13800516D01*
X54395914Y13697706D01*
X54395914Y13600945D01*
X53718580Y12572849D02*
X54734580Y12445849D01*
X54734580Y12203945D01*
X54686200Y12064849D01*
X54589438Y11980183D01*
X54492676Y11943897D01*
X54299152Y11919706D01*
X54154009Y11937849D01*
X53960485Y12010421D01*
X53863723Y12070897D01*
X53766961Y12179754D01*
X53718580Y12330945D01*
X53718580Y12572849D01*
X53766961Y11163754D02*
X53718580Y11266564D01*
X53718580Y11460087D01*
X53766961Y11550802D01*
X53863723Y11587087D01*
X54250771Y11538706D01*
X54347533Y11478230D01*
X54395914Y11375421D01*
X54395914Y11181897D01*
X54347533Y11091183D01*
X54250771Y11054897D01*
X54154009Y11066992D01*
X54057247Y11562897D01*
X53718580Y10685992D02*
X54395914Y10601325D01*
X54299152Y10613421D02*
X54347533Y10558992D01*
X54395914Y10456183D01*
X54395914Y10311040D01*
X54347533Y10220325D01*
X54250771Y10184040D01*
X53718580Y10250564D01*
X54250771Y10184040D02*
X54347533Y10123564D01*
X54395914Y10020754D01*
X54395914Y9875611D01*
X54347533Y9784897D01*
X54250771Y9748611D01*
X53718580Y9815135D01*
X53718580Y9186183D02*
X53766961Y9276897D01*
X53815342Y9319230D01*
X53912104Y9355516D01*
X54202390Y9319230D01*
X54299152Y9258754D01*
X54347533Y9204325D01*
X54395914Y9101516D01*
X54395914Y8956373D01*
X54347533Y8865659D01*
X54299152Y8823325D01*
X54202390Y8787040D01*
X53912104Y8823325D01*
X53815342Y8883802D01*
X53766961Y8938230D01*
X53718580Y9041040D01*
X53718580Y9186183D01*
X53766961Y7680325D02*
X53718580Y7541230D01*
X53718580Y7299325D01*
X53766961Y7196516D01*
X53815342Y7142087D01*
X53912104Y7081611D01*
X54008866Y7069516D01*
X54105628Y7105802D01*
X54154009Y7148135D01*
X54202390Y7238849D01*
X54250771Y7426325D01*
X54299152Y7517040D01*
X54347533Y7559373D01*
X54444295Y7595659D01*
X54541057Y7583564D01*
X54637819Y7523087D01*
X54686200Y7468659D01*
X54734580Y7365849D01*
X54734580Y7123945D01*
X54686200Y6984849D01*
X54395914Y6150278D02*
X53718580Y6234945D01*
X54395914Y6585706D02*
X53863723Y6652230D01*
X53766961Y6615945D01*
X53718580Y6525230D01*
X53718580Y6380087D01*
X53766961Y6277278D01*
X53815342Y6222849D01*
X54395914Y5666468D02*
X53379914Y5793468D01*
X54347533Y5672516D02*
X54395914Y5569706D01*
X54395914Y5376183D01*
X54347533Y5285468D01*
X54299152Y5243135D01*
X54202390Y5206849D01*
X53912104Y5243135D01*
X53815342Y5303611D01*
X53766961Y5358040D01*
X53718580Y5460849D01*
X53718580Y5654373D01*
X53766961Y5745087D01*
X54395914Y4747230D02*
X53379914Y4874230D01*
X54347533Y4753278D02*
X54395914Y4650468D01*
X54395914Y4456945D01*
X54347533Y4366230D01*
X54299152Y4323897D01*
X54202390Y4287611D01*
X53912104Y4323897D01*
X53815342Y4384373D01*
X53766961Y4438802D01*
X53718580Y4541611D01*
X53718580Y4735135D01*
X53766961Y4825849D01*
X53718580Y3767516D02*
X53766961Y3858230D01*
X53863723Y3894516D01*
X54734580Y3785659D01*
X54395914Y3392564D02*
X53718580Y3235325D01*
X54395914Y2908754D02*
X53718580Y3235325D01*
X53476676Y3362325D01*
X53428295Y3416754D01*
X53379914Y3519564D01*
X53058180Y22944516D02*
X52235704Y23047326D01*
X52138942Y23011040D01*
X52090561Y22968706D01*
X52042180Y22877992D01*
X52042180Y22684468D01*
X52090561Y22581659D01*
X52138942Y22527230D01*
X52235704Y22466754D01*
X53058180Y22363945D01*
X52719514Y21922468D02*
X52042180Y22007135D01*
X52622752Y21934564D02*
X52671133Y21880135D01*
X52719514Y21777326D01*
X52719514Y21632183D01*
X52671133Y21541468D01*
X52574371Y21505183D01*
X52042180Y21571706D01*
X52042180Y21087897D02*
X52719514Y21003230D01*
X53058180Y20960897D02*
X53009800Y21015326D01*
X52961419Y20972992D01*
X53009800Y20918564D01*
X53058180Y20960897D01*
X52961419Y20972992D01*
X52719514Y20616183D02*
X52042180Y20458945D01*
X52719514Y20132373D01*
X52042180Y18910754D02*
X52090561Y19001468D01*
X52138942Y19043802D01*
X52235704Y19080087D01*
X52525990Y19043802D01*
X52622752Y18983326D01*
X52671133Y18928897D01*
X52719514Y18826087D01*
X52719514Y18680945D01*
X52671133Y18590230D01*
X52622752Y18547897D01*
X52525990Y18511611D01*
X52235704Y18547897D01*
X52138942Y18608373D01*
X52090561Y18662802D01*
X52042180Y18765611D01*
X52042180Y18910754D01*
X52719514Y18197135D02*
X52719514Y17810087D01*
X52042180Y18136659D02*
X52913038Y18027802D01*
X53009800Y17967326D01*
X53058180Y17864516D01*
X53058180Y17767754D01*
X52042180Y16298183D02*
X52042180Y16781992D01*
X53058180Y16654992D01*
X52042180Y15814373D02*
X52090561Y15905087D01*
X52138942Y15947421D01*
X52235704Y15983706D01*
X52525990Y15947421D01*
X52622752Y15886945D01*
X52671133Y15832516D01*
X52719514Y15729706D01*
X52719514Y15584564D01*
X52671133Y15493849D01*
X52622752Y15451516D01*
X52525990Y15415230D01*
X52235704Y15451516D01*
X52138942Y15511992D01*
X52090561Y15566421D01*
X52042180Y15669230D01*
X52042180Y15814373D01*
X52719514Y14520183D02*
X52042180Y14604849D01*
X52719514Y14955611D02*
X52187323Y15022135D01*
X52090561Y14985849D01*
X52042180Y14895135D01*
X52042180Y14749992D01*
X52090561Y14647183D01*
X52138942Y14592754D01*
X52042180Y14121040D02*
X52719514Y14036373D01*
X53058180Y13994040D02*
X53009800Y14048468D01*
X52961419Y14006135D01*
X53009800Y13951706D01*
X53058180Y13994040D01*
X52961419Y14006135D01*
X52090561Y13679564D02*
X52042180Y13588849D01*
X52042180Y13395326D01*
X52090561Y13292516D01*
X52187323Y13232040D01*
X52235704Y13225992D01*
X52332466Y13262278D01*
X52380847Y13352992D01*
X52380847Y13498135D01*
X52429228Y13588849D01*
X52525990Y13625135D01*
X52574371Y13619087D01*
X52671133Y13558611D01*
X52719514Y13455802D01*
X52719514Y13310659D01*
X52671133Y13219945D01*
X52719514Y12826849D02*
X52042180Y12669611D01*
X52719514Y12343040D01*
X52042180Y12040659D02*
X52719514Y11955992D01*
X53058180Y11913659D02*
X53009800Y11968087D01*
X52961419Y11925754D01*
X53009800Y11871326D01*
X53058180Y11913659D01*
X52961419Y11925754D01*
X52042180Y11411706D02*
X52090561Y11502421D01*
X52187323Y11538706D01*
X53058180Y11429849D01*
X52042180Y10879516D02*
X52090561Y10970230D01*
X52187323Y11006516D01*
X53058180Y10897659D01*
X52090561Y10099373D02*
X52042180Y10202183D01*
X52042180Y10395706D01*
X52090561Y10486421D01*
X52187323Y10522706D01*
X52574371Y10474326D01*
X52671133Y10413849D01*
X52719514Y10311040D01*
X52719514Y10117516D01*
X52671133Y10026802D01*
X52574371Y9990516D01*
X52477609Y10002611D01*
X52380847Y10498516D01*
X52429228Y8799135D02*
X52429228Y8025040D01*
X52042180Y6331706D02*
X52042180Y6815516D01*
X53058180Y6688516D01*
X52332466Y6005135D02*
X52332466Y5521325D01*
X52042180Y6138183D02*
X53058180Y5672516D01*
X52042180Y5460849D01*
X52042180Y4541611D02*
X52525990Y4819802D01*
X52042180Y5122183D02*
X53058180Y4995183D01*
X53058180Y4608135D01*
X53009800Y4517421D01*
X52961419Y4475087D01*
X52864657Y4438802D01*
X52719514Y4456945D01*
X52622752Y4517421D01*
X52574371Y4571849D01*
X52525990Y4674659D01*
X52525990Y5061706D01*
X52042180Y3525611D02*
X52525990Y3803802D01*
X52042180Y4106183D02*
X53058180Y3979183D01*
X53058180Y3592135D01*
X53009800Y3501421D01*
X52961419Y3459087D01*
X52864657Y3422802D01*
X52719514Y3440945D01*
X52622752Y3501421D01*
X52574371Y3555849D01*
X52525990Y3658659D01*
X52525990Y4045706D01*
X52042180Y3090183D02*
X53058180Y2963183D01*
X3731380Y26512762D02*
X3731380Y25932191D01*
X2715380Y26222477D02*
X3731380Y26222477D01*
X2812142Y25012953D02*
X2763761Y25061334D01*
X2715380Y25206477D01*
X2715380Y25303239D01*
X2763761Y25448381D01*
X2860523Y25545143D01*
X2957285Y25593524D01*
X3150809Y25641905D01*
X3295952Y25641905D01*
X3489476Y25593524D01*
X3586238Y25545143D01*
X3683000Y25448381D01*
X3731380Y25303239D01*
X3731380Y25206477D01*
X3683000Y25061334D01*
X3634619Y25012953D01*
X3634619Y24625905D02*
X3683000Y24577524D01*
X3731380Y24480762D01*
X3731380Y24238858D01*
X3683000Y24142096D01*
X3634619Y24093715D01*
X3537857Y24045334D01*
X3441095Y24045334D01*
X3295952Y24093715D01*
X2715380Y24674286D01*
X2715380Y24045334D01*
X3731380Y23416381D02*
X3731380Y23319620D01*
X3683000Y23222858D01*
X3634619Y23174477D01*
X3537857Y23126096D01*
X3344333Y23077715D01*
X3102428Y23077715D01*
X2908904Y23126096D01*
X2812142Y23174477D01*
X2763761Y23222858D01*
X2715380Y23319620D01*
X2715380Y23416381D01*
X2763761Y23513143D01*
X2812142Y23561524D01*
X2908904Y23609905D01*
X3102428Y23658286D01*
X3344333Y23658286D01*
X3537857Y23609905D01*
X3634619Y23561524D01*
X3683000Y23513143D01*
X3731380Y23416381D01*
X3731380Y22158477D02*
X3731380Y22642286D01*
X3247571Y22690667D01*
X3295952Y22642286D01*
X3344333Y22545524D01*
X3344333Y22303620D01*
X3295952Y22206858D01*
X3247571Y22158477D01*
X3150809Y22110096D01*
X2908904Y22110096D01*
X2812142Y22158477D01*
X2763761Y22206858D01*
X2715380Y22303620D01*
X2715380Y22545524D01*
X2763761Y22642286D01*
X2812142Y22690667D01*
X3731380Y21481143D02*
X3731380Y21384381D01*
X3683000Y21287620D01*
X3634619Y21239239D01*
X3537857Y21190858D01*
X3344333Y21142477D01*
X3102428Y21142477D01*
X2908904Y21190858D01*
X2812142Y21239239D01*
X2763761Y21287620D01*
X2715380Y21384381D01*
X2715380Y21481143D01*
X2763761Y21577905D01*
X2812142Y21626286D01*
X2908904Y21674667D01*
X3102428Y21723048D01*
X3344333Y21723048D01*
X3537857Y21674667D01*
X3634619Y21626286D01*
X3683000Y21577905D01*
X3731380Y21481143D01*
X3102428Y20707048D02*
X3102428Y19932953D01*
X2715380Y19449143D02*
X3731380Y19449143D01*
X2715380Y18965334D02*
X3731380Y18965334D01*
X3731380Y18723429D01*
X3683000Y18578286D01*
X3586238Y18481524D01*
X3489476Y18433143D01*
X3295952Y18384762D01*
X3150809Y18384762D01*
X2957285Y18433143D01*
X2860523Y18481524D01*
X2763761Y18578286D01*
X2715380Y18723429D01*
X2715380Y18965334D01*
X2812142Y17368762D02*
X2763761Y17417143D01*
X2715380Y17562286D01*
X2715380Y17659048D01*
X2763761Y17804191D01*
X2860523Y17900953D01*
X2957285Y17949334D01*
X3150809Y17997715D01*
X3295952Y17997715D01*
X3489476Y17949334D01*
X3586238Y17900953D01*
X3683000Y17804191D01*
X3731380Y17659048D01*
X3731380Y17562286D01*
X3683000Y17417143D01*
X3634619Y17368762D01*
X3102428Y16933334D02*
X3102428Y16159239D01*
X2715380Y15675429D02*
X3731380Y15675429D01*
X2715380Y15094858D01*
X3731380Y15094858D01*
X2715380Y14127239D02*
X2715380Y14611048D01*
X3731380Y14611048D01*
X16222012Y24711781D02*
X16349012Y25727781D01*
X16736060Y25727781D01*
X16826774Y25679400D01*
X16869107Y25631020D01*
X16905393Y25534258D01*
X16887250Y25389115D01*
X16826774Y25292353D01*
X16772345Y25243972D01*
X16669536Y25195591D01*
X16282488Y25195591D01*
X17268250Y25727781D02*
X17897202Y25727781D01*
X17510155Y25340734D01*
X17655298Y25340734D01*
X17746012Y25292353D01*
X17788345Y25243972D01*
X17824631Y25147210D01*
X17794393Y24905305D01*
X17733917Y24808543D01*
X17679488Y24760162D01*
X17576679Y24711781D01*
X17286393Y24711781D01*
X17195679Y24760162D01*
X17153345Y24808543D01*
X18217726Y24808543D02*
X18260060Y24760162D01*
X18205631Y24711781D01*
X18163298Y24760162D01*
X18217726Y24808543D01*
X18205631Y24711781D01*
X18284250Y25340734D02*
X18326583Y25292353D01*
X18272155Y25243972D01*
X18229821Y25292353D01*
X18284250Y25340734D01*
X18272155Y25243972D01*
X19463536Y24711781D02*
X19590536Y25727781D01*
X19977583Y25727781D01*
X20068298Y25679400D01*
X20110631Y25631020D01*
X20146917Y25534258D01*
X20128774Y25389115D01*
X20068298Y25292353D01*
X20013869Y25243972D01*
X19911060Y25195591D01*
X19524012Y25195591D01*
X20479536Y24711781D02*
X20606536Y25727781D01*
X21556012Y24808543D02*
X21501583Y24760162D01*
X21350393Y24711781D01*
X21253631Y24711781D01*
X21114536Y24760162D01*
X21029869Y24856924D01*
X20993583Y24953686D01*
X20969393Y25147210D01*
X20987536Y25292353D01*
X21060107Y25485877D01*
X21120583Y25582639D01*
X21229440Y25679400D01*
X21380631Y25727781D01*
X21477393Y25727781D01*
X21616488Y25679400D01*
X21658821Y25631020D01*
X21979345Y24711781D02*
X22106345Y25727781D01*
X22124488Y25098829D02*
X22366393Y24711781D01*
X22451060Y25389115D02*
X22015631Y25002067D01*
X22801821Y24711781D02*
X22886488Y25389115D01*
X22928821Y25727781D02*
X22874393Y25679400D01*
X22916726Y25631020D01*
X22971155Y25679400D01*
X22928821Y25727781D01*
X22916726Y25631020D01*
X23225155Y25389115D02*
X23612202Y25389115D01*
X23412631Y25727781D02*
X23303774Y24856924D01*
X23340060Y24760162D01*
X23430774Y24711781D01*
X23527536Y24711781D01*
X24670536Y25727781D02*
X25299488Y25727781D01*
X24912440Y25340734D01*
X25057583Y25340734D01*
X25148298Y25292353D01*
X25190631Y25243972D01*
X25226917Y25147210D01*
X25196679Y24905305D01*
X25136202Y24808543D01*
X25081774Y24760162D01*
X24978964Y24711781D01*
X24688679Y24711781D01*
X24597964Y24760162D01*
X24555631Y24808543D01*
X25589774Y25727781D02*
X25801440Y24711781D01*
X26267107Y25727781D01*
X26509012Y25727781D02*
X27137964Y25727781D01*
X26750917Y25340734D01*
X26896060Y25340734D01*
X26986774Y25292353D01*
X27029107Y25243972D01*
X27065393Y25147210D01*
X27035155Y24905305D01*
X26974679Y24808543D01*
X26920250Y24760162D01*
X26817440Y24711781D01*
X26527155Y24711781D01*
X26436440Y24760162D01*
X26394107Y24808543D01*
X16222012Y23035381D02*
X16349012Y24051381D01*
X16736060Y24051381D01*
X16826774Y24003000D01*
X16869107Y23954620D01*
X16905393Y23857858D01*
X16887250Y23712715D01*
X16826774Y23615953D01*
X16772345Y23567572D01*
X16669536Y23519191D01*
X16282488Y23519191D01*
X17758107Y23712715D02*
X17673440Y23035381D01*
X17564583Y24099762D02*
X17231964Y23374048D01*
X17860917Y23374048D01*
X18217726Y23132143D02*
X18260060Y23083762D01*
X18205631Y23035381D01*
X18163298Y23083762D01*
X18217726Y23132143D01*
X18205631Y23035381D01*
X18284250Y23664334D02*
X18326583Y23615953D01*
X18272155Y23567572D01*
X18229821Y23615953D01*
X18284250Y23664334D01*
X18272155Y23567572D01*
X19868726Y23567572D02*
X19530060Y23567572D01*
X19463536Y23035381D02*
X19590536Y24051381D01*
X20074345Y24051381D01*
X20316250Y24051381D02*
X20896821Y24051381D01*
X20479536Y23035381D02*
X20606536Y24051381D01*
X21175012Y23954620D02*
X21229440Y24003000D01*
X21332250Y24051381D01*
X21574155Y24051381D01*
X21664869Y24003000D01*
X21707202Y23954620D01*
X21743488Y23857858D01*
X21731393Y23761096D01*
X21664869Y23615953D01*
X21011726Y23035381D01*
X21640679Y23035381D01*
X22106345Y24051381D02*
X22735298Y24051381D01*
X22348250Y23664334D01*
X22493393Y23664334D01*
X22584107Y23615953D01*
X22626440Y23567572D01*
X22662726Y23470810D01*
X22632488Y23228905D01*
X22572012Y23132143D01*
X22517583Y23083762D01*
X22414774Y23035381D01*
X22124488Y23035381D01*
X22033774Y23083762D01*
X21991440Y23132143D01*
X23110250Y23954620D02*
X23164679Y24003000D01*
X23267488Y24051381D01*
X23509393Y24051381D01*
X23600107Y24003000D01*
X23642440Y23954620D01*
X23678726Y23857858D01*
X23666631Y23761096D01*
X23600107Y23615953D01*
X22946964Y23035381D01*
X23575917Y23035381D01*
X24041583Y24051381D02*
X24591917Y23035381D01*
X24718917Y24051381D02*
X23914583Y23035381D01*
X26363869Y24051381D02*
X25880060Y24051381D01*
X25771202Y23567572D01*
X25825631Y23615953D01*
X25928440Y23664334D01*
X26170345Y23664334D01*
X26261060Y23615953D01*
X26303393Y23567572D01*
X26339679Y23470810D01*
X26309440Y23228905D01*
X26248964Y23132143D01*
X26194536Y23083762D01*
X26091726Y23035381D01*
X25849821Y23035381D01*
X25759107Y23083762D01*
X25716774Y23132143D01*
X26702536Y24051381D02*
X26914202Y23035381D01*
X27379869Y24051381D01*
X16222012Y21358981D02*
X16349012Y22374981D01*
X16736060Y22374981D01*
X16826774Y22326600D01*
X16869107Y22278220D01*
X16905393Y22181458D01*
X16887250Y22036315D01*
X16826774Y21939553D01*
X16772345Y21891172D01*
X16669536Y21842791D01*
X16282488Y21842791D01*
X17848821Y22374981D02*
X17365012Y22374981D01*
X17256155Y21891172D01*
X17310583Y21939553D01*
X17413393Y21987934D01*
X17655298Y21987934D01*
X17746012Y21939553D01*
X17788345Y21891172D01*
X17824631Y21794410D01*
X17794393Y21552505D01*
X17733917Y21455743D01*
X17679488Y21407362D01*
X17576679Y21358981D01*
X17334774Y21358981D01*
X17244060Y21407362D01*
X17201726Y21455743D01*
X18217726Y21455743D02*
X18260060Y21407362D01*
X18205631Y21358981D01*
X18163298Y21407362D01*
X18217726Y21455743D01*
X18205631Y21358981D01*
X18284250Y21987934D02*
X18326583Y21939553D01*
X18272155Y21891172D01*
X18229821Y21939553D01*
X18284250Y21987934D01*
X18272155Y21891172D01*
X20074345Y22374981D02*
X19590536Y22374981D01*
X19481679Y21891172D01*
X19536107Y21939553D01*
X19638917Y21987934D01*
X19880821Y21987934D01*
X19971536Y21939553D01*
X20013869Y21891172D01*
X20050155Y21794410D01*
X20019917Y21552505D01*
X19959440Y21455743D01*
X19905012Y21407362D01*
X19802202Y21358981D01*
X19560298Y21358981D01*
X19469583Y21407362D01*
X19427250Y21455743D01*
X20413012Y22374981D02*
X20624679Y21358981D01*
X21090345Y22374981D01*
X21302012Y21358981D02*
X21429012Y22374981D01*
X21670917Y22374981D01*
X21810012Y22326600D01*
X21894679Y22229839D01*
X21930964Y22133077D01*
X21955155Y21939553D01*
X21937012Y21794410D01*
X21864440Y21600886D01*
X21803964Y21504124D01*
X21695107Y21407362D01*
X21543917Y21358981D01*
X21302012Y21358981D01*
X22910679Y21455743D02*
X22856250Y21407362D01*
X22705060Y21358981D01*
X22608298Y21358981D01*
X22469202Y21407362D01*
X22384536Y21504124D01*
X22348250Y21600886D01*
X22324060Y21794410D01*
X22342202Y21939553D01*
X22414774Y22133077D01*
X22475250Y22229839D01*
X22584107Y22326600D01*
X22735298Y22374981D01*
X22832060Y22374981D01*
X22971155Y22326600D01*
X23013488Y22278220D01*
X23152583Y2128762D02*
X23297726Y2080381D01*
X23539631Y2080381D01*
X23636393Y2128762D01*
X23684774Y2177143D01*
X23733155Y2273905D01*
X23733155Y2370667D01*
X23684774Y2467429D01*
X23636393Y2515810D01*
X23539631Y2564191D01*
X23346107Y2612572D01*
X23249345Y2660953D01*
X23200964Y2709334D01*
X23152583Y2806096D01*
X23152583Y2902858D01*
X23200964Y2999620D01*
X23249345Y3048000D01*
X23346107Y3096381D01*
X23588012Y3096381D01*
X23733155Y3048000D01*
X24168583Y2757715D02*
X24168583Y1741715D01*
X24168583Y2709334D02*
X24265345Y2757715D01*
X24458869Y2757715D01*
X24555631Y2709334D01*
X24604012Y2660953D01*
X24652393Y2564191D01*
X24652393Y2273905D01*
X24604012Y2177143D01*
X24555631Y2128762D01*
X24458869Y2080381D01*
X24265345Y2080381D01*
X24168583Y2128762D01*
X25523250Y2080381D02*
X25523250Y2612572D01*
X25474869Y2709334D01*
X25378107Y2757715D01*
X25184583Y2757715D01*
X25087821Y2709334D01*
X25523250Y2128762D02*
X25426488Y2080381D01*
X25184583Y2080381D01*
X25087821Y2128762D01*
X25039440Y2225524D01*
X25039440Y2322286D01*
X25087821Y2419048D01*
X25184583Y2467429D01*
X25426488Y2467429D01*
X25523250Y2515810D01*
X26007060Y2080381D02*
X26007060Y2757715D01*
X26007060Y2564191D02*
X26055440Y2660953D01*
X26103821Y2709334D01*
X26200583Y2757715D01*
X26297345Y2757715D01*
X26636012Y2080381D02*
X26636012Y3096381D01*
X26732774Y2467429D02*
X27023060Y2080381D01*
X27023060Y2757715D02*
X26636012Y2370667D01*
X27797155Y2612572D02*
X27458488Y2612572D01*
X27458488Y2080381D02*
X27458488Y3096381D01*
X27942298Y3096381D01*
X28764774Y2757715D02*
X28764774Y2080381D01*
X28329345Y2757715D02*
X28329345Y2225524D01*
X28377726Y2128762D01*
X28474488Y2080381D01*
X28619631Y2080381D01*
X28716393Y2128762D01*
X28764774Y2177143D01*
X29248583Y2757715D02*
X29248583Y2080381D01*
X29248583Y2660953D02*
X29296964Y2709334D01*
X29393726Y2757715D01*
X29538869Y2757715D01*
X29635631Y2709334D01*
X29684012Y2612572D01*
X29684012Y2080381D01*
X31280583Y2612572D02*
X30941917Y2612572D01*
X30941917Y2080381D02*
X30941917Y3096381D01*
X31425726Y3096381D01*
X31667631Y3096381D02*
X32248202Y3096381D01*
X31957917Y2080381D02*
X31957917Y3096381D01*
X32538488Y2999620D02*
X32586869Y3048000D01*
X32683631Y3096381D01*
X32925536Y3096381D01*
X33022298Y3048000D01*
X33070679Y2999620D01*
X33119060Y2902858D01*
X33119060Y2806096D01*
X33070679Y2660953D01*
X32490107Y2080381D01*
X33119060Y2080381D01*
X33457726Y3096381D02*
X34086679Y3096381D01*
X33748012Y2709334D01*
X33893155Y2709334D01*
X33989917Y2660953D01*
X34038298Y2612572D01*
X34086679Y2515810D01*
X34086679Y2273905D01*
X34038298Y2177143D01*
X33989917Y2128762D01*
X33893155Y2080381D01*
X33602869Y2080381D01*
X33506107Y2128762D01*
X33457726Y2177143D01*
X35054298Y2080381D02*
X34473726Y2080381D01*
X34764012Y2080381D02*
X34764012Y3096381D01*
X34667250Y2951239D01*
X34570488Y2854477D01*
X34473726Y2806096D01*
X35392964Y3096381D02*
X36070298Y2080381D01*
X36070298Y3096381D02*
X35392964Y2080381D01*
X37570107Y2612572D02*
X37715250Y2564191D01*
X37763631Y2515810D01*
X37812012Y2419048D01*
X37812012Y2273905D01*
X37763631Y2177143D01*
X37715250Y2128762D01*
X37618488Y2080381D01*
X37231440Y2080381D01*
X37231440Y3096381D01*
X37570107Y3096381D01*
X37666869Y3048000D01*
X37715250Y2999620D01*
X37763631Y2902858D01*
X37763631Y2806096D01*
X37715250Y2709334D01*
X37666869Y2660953D01*
X37570107Y2612572D01*
X37231440Y2612572D01*
X38247440Y2080381D02*
X38247440Y2757715D01*
X38247440Y2564191D02*
X38295821Y2660953D01*
X38344202Y2709334D01*
X38440964Y2757715D01*
X38537726Y2757715D01*
X39263440Y2128762D02*
X39166679Y2080381D01*
X38973155Y2080381D01*
X38876393Y2128762D01*
X38828012Y2225524D01*
X38828012Y2612572D01*
X38876393Y2709334D01*
X38973155Y2757715D01*
X39166679Y2757715D01*
X39263440Y2709334D01*
X39311821Y2612572D01*
X39311821Y2515810D01*
X38828012Y2419048D01*
X40182679Y2080381D02*
X40182679Y2612572D01*
X40134298Y2709334D01*
X40037536Y2757715D01*
X39844012Y2757715D01*
X39747250Y2709334D01*
X40182679Y2128762D02*
X40085917Y2080381D01*
X39844012Y2080381D01*
X39747250Y2128762D01*
X39698869Y2225524D01*
X39698869Y2322286D01*
X39747250Y2419048D01*
X39844012Y2467429D01*
X40085917Y2467429D01*
X40182679Y2515810D01*
X40666488Y2080381D02*
X40666488Y3096381D01*
X40763250Y2467429D02*
X41053536Y2080381D01*
X41053536Y2757715D02*
X40666488Y2370667D01*
X41634107Y2080381D02*
X41537345Y2128762D01*
X41488964Y2177143D01*
X41440583Y2273905D01*
X41440583Y2564191D01*
X41488964Y2660953D01*
X41537345Y2709334D01*
X41634107Y2757715D01*
X41779250Y2757715D01*
X41876012Y2709334D01*
X41924393Y2660953D01*
X41972774Y2564191D01*
X41972774Y2273905D01*
X41924393Y2177143D01*
X41876012Y2128762D01*
X41779250Y2080381D01*
X41634107Y2080381D01*
X42843631Y2757715D02*
X42843631Y2080381D01*
X42408202Y2757715D02*
X42408202Y2225524D01*
X42456583Y2128762D01*
X42553345Y2080381D01*
X42698488Y2080381D01*
X42795250Y2128762D01*
X42843631Y2177143D01*
X43182298Y2757715D02*
X43569345Y2757715D01*
X43327440Y3096381D02*
X43327440Y2225524D01*
X43375821Y2128762D01*
X43472583Y2080381D01*
X43569345Y2080381D01*
D11*
X40839571Y37338227D02*
X40839571Y38063942D01*
X40113857Y38227227D01*
X40186428Y38145584D01*
X40259000Y37991370D01*
X40259000Y37628513D01*
X40186428Y37492442D01*
X40113857Y37428942D01*
X39968714Y37374513D01*
X39605857Y37419870D01*
X39460714Y37510584D01*
X39388142Y37592227D01*
X39315571Y37746442D01*
X39315571Y38109299D01*
X39388142Y38245370D01*
X39460714Y38308870D01*
X40839571Y36830227D02*
X39315571Y36512727D01*
X40839571Y35814227D01*
X39315571Y35496727D02*
X40839571Y35306227D01*
X40839571Y34943370D01*
X40767000Y34734727D01*
X40621857Y34607727D01*
X40476714Y34553299D01*
X40186428Y34517013D01*
X39968714Y34544227D01*
X39678428Y34653084D01*
X39533285Y34743799D01*
X39388142Y34907084D01*
X39315571Y35133870D01*
X39315571Y35496727D01*
X39460714Y33083727D02*
X39388142Y33165370D01*
X39315571Y33392156D01*
X39315571Y33537299D01*
X39388142Y33745942D01*
X39533285Y33872942D01*
X39678428Y33927370D01*
X39968714Y33963656D01*
X40186428Y33936442D01*
X40476714Y33827584D01*
X40621857Y33736870D01*
X40767000Y33573584D01*
X40839571Y33346799D01*
X40839571Y33201656D01*
X40767000Y32993013D01*
X40694428Y32929513D01*
D12*
G36*
X38100000Y26933026D02*
G01*
X37201974Y26035000D01*
X35854936Y28280064D01*
X38100000Y26933026D01*
G37*
X38100000Y26933026D02*
X37201974Y26035000D01*
X35854936Y28280064D01*
X38100000Y26933026D01*
D10*
X2610273Y34211381D02*
X2803797Y34211381D01*
X2900559Y34163000D01*
X2997320Y34066239D01*
X3045701Y33872715D01*
X3045701Y33534048D01*
X2997320Y33340524D01*
X2900559Y33243762D01*
X2803797Y33195381D01*
X2610273Y33195381D01*
X2513511Y33243762D01*
X2416749Y33340524D01*
X2368368Y33534048D01*
X2368368Y33872715D01*
X2416749Y34066239D01*
X2513511Y34163000D01*
X2610273Y34211381D01*
X3819797Y33727572D02*
X3481130Y33727572D01*
X3481130Y33195381D02*
X3481130Y34211381D01*
X3964940Y34211381D01*
X4690654Y33727572D02*
X4351987Y33727572D01*
X4351987Y33195381D02*
X4351987Y34211381D01*
X4835797Y34211381D01*
X14504488Y34211381D02*
X14698012Y34211381D01*
X14794774Y34163000D01*
X14891536Y34066239D01*
X14939917Y33872715D01*
X14939917Y33534048D01*
X14891536Y33340524D01*
X14794774Y33243762D01*
X14698012Y33195381D01*
X14504488Y33195381D01*
X14407726Y33243762D01*
X14310964Y33340524D01*
X14262583Y33534048D01*
X14262583Y33872715D01*
X14310964Y34066239D01*
X14407726Y34163000D01*
X14504488Y34211381D01*
X15375345Y33195381D02*
X15375345Y34211381D01*
X15955917Y33195381D01*
X15955917Y34211381D01*
X2610273Y7541381D02*
X2803797Y7541381D01*
X2900559Y7493000D01*
X2997320Y7396239D01*
X3045701Y7202715D01*
X3045701Y6864048D01*
X2997320Y6670524D01*
X2900559Y6573762D01*
X2803797Y6525381D01*
X2610273Y6525381D01*
X2513511Y6573762D01*
X2416749Y6670524D01*
X2368368Y6864048D01*
X2368368Y7202715D01*
X2416749Y7396239D01*
X2513511Y7493000D01*
X2610273Y7541381D01*
X3819797Y7057572D02*
X3481130Y7057572D01*
X3481130Y6525381D02*
X3481130Y7541381D01*
X3964940Y7541381D01*
X4690654Y7057572D02*
X4351987Y7057572D01*
X4351987Y6525381D02*
X4351987Y7541381D01*
X4835797Y7541381D01*
X2610273Y3731381D02*
X2803797Y3731381D01*
X2900559Y3683000D01*
X2997320Y3586239D01*
X3045701Y3392715D01*
X3045701Y3054048D01*
X2997320Y2860524D01*
X2900559Y2763762D01*
X2803797Y2715381D01*
X2610273Y2715381D01*
X2513511Y2763762D01*
X2416749Y2860524D01*
X2368368Y3054048D01*
X2368368Y3392715D01*
X2416749Y3586239D01*
X2513511Y3683000D01*
X2610273Y3731381D01*
X3819797Y3247572D02*
X3481130Y3247572D01*
X3481130Y2715381D02*
X3481130Y3731381D01*
X3964940Y3731381D01*
X4690654Y3247572D02*
X4351987Y3247572D01*
X4351987Y2715381D02*
X4351987Y3731381D01*
X4835797Y3731381D01*
X14504488Y7541381D02*
X14698012Y7541381D01*
X14794774Y7493000D01*
X14891536Y7396239D01*
X14939917Y7202715D01*
X14939917Y6864048D01*
X14891536Y6670524D01*
X14794774Y6573762D01*
X14698012Y6525381D01*
X14504488Y6525381D01*
X14407726Y6573762D01*
X14310964Y6670524D01*
X14262583Y6864048D01*
X14262583Y7202715D01*
X14310964Y7396239D01*
X14407726Y7493000D01*
X14504488Y7541381D01*
X15375345Y6525381D02*
X15375345Y7541381D01*
X15955917Y6525381D01*
X15955917Y7541381D01*
X14504488Y3731381D02*
X14698012Y3731381D01*
X14794774Y3683000D01*
X14891536Y3586239D01*
X14939917Y3392715D01*
X14939917Y3054048D01*
X14891536Y2860524D01*
X14794774Y2763762D01*
X14698012Y2715381D01*
X14504488Y2715381D01*
X14407726Y2763762D01*
X14310964Y2860524D01*
X14262583Y3054048D01*
X14262583Y3392715D01*
X14310964Y3586239D01*
X14407726Y3683000D01*
X14504488Y3731381D01*
X15375345Y2715381D02*
X15375345Y3731381D01*
X15955917Y2715381D01*
X15955917Y3731381D01*
D13*
%TO.C,J1*%
X42090000Y38180000D02*
X42090000Y24480000D01*
X51890000Y38180000D02*
X51890000Y24480000D01*
X42090000Y24480000D02*
X51890000Y24480000D01*
X51890000Y38180000D02*
X42090000Y38180000D01*
D10*
%TO.C,P1*%
X5715000Y22225000D02*
X5715000Y30480000D01*
X5080000Y18415000D02*
X5715000Y18415000D01*
X5080000Y22225000D02*
X5080000Y18415000D01*
X5715000Y22225000D02*
X5080000Y22225000D01*
X5715000Y30480000D02*
X14605000Y30480000D01*
X5715000Y10160000D02*
X5715000Y18415000D01*
X14605000Y10160000D02*
X5715000Y10160000D01*
X14605000Y30480000D02*
X14605000Y10160000D01*
%TO.C,P2*%
X34925000Y31115000D02*
X20320000Y31115000D01*
X35560000Y28575000D02*
X35560000Y30480000D01*
X35560000Y30480000D02*
X34925000Y31115000D01*
X20320000Y28575000D02*
X35560000Y28575000D01*
X20320000Y31115000D02*
X20320000Y28575000D01*
%TO.C,U1*%
X45720000Y7620000D02*
X50800000Y7620000D01*
X45720000Y15240000D02*
X45720000Y7620000D01*
X50800000Y15240000D02*
X45720000Y15240000D01*
X22860000Y19050000D02*
X50800000Y19050000D01*
X22860000Y3810000D02*
X22860000Y19050000D01*
X50800000Y3810000D02*
X22860000Y3810000D01*
X50800000Y19050000D02*
X50800000Y3810000D01*
%TO.C,P3*%
X5715000Y34163000D02*
X5715000Y32385000D01*
X6477000Y34925000D02*
X13335000Y34925000D01*
X6477000Y34925000D02*
X5715000Y34163000D01*
X13335000Y34925000D02*
X13335000Y32385000D01*
X13335000Y32385000D02*
X5715000Y32385000D01*
%TO.C,P4*%
X13335000Y5715000D02*
X5715000Y5715000D01*
X13335000Y8255000D02*
X13335000Y5715000D01*
X6477000Y8255000D02*
X5715000Y7493000D01*
X6477000Y8255000D02*
X13335000Y8255000D01*
X5715000Y7493000D02*
X5715000Y5715000D01*
%TO.C,P5*%
X5715000Y3683000D02*
X5715000Y1905000D01*
X6477000Y4445000D02*
X13335000Y4445000D01*
X6477000Y4445000D02*
X5715000Y3683000D01*
X13335000Y4445000D02*
X13335000Y1905000D01*
X13335000Y1905000D02*
X5715000Y1905000D01*
%TO.C,J1*%
X42206333Y23416381D02*
X42206333Y22690667D01*
X42157952Y22545524D01*
X42061190Y22448762D01*
X41916047Y22400381D01*
X41819285Y22400381D01*
X43222333Y22400381D02*
X42641761Y22400381D01*
X42932047Y22400381D02*
X42932047Y23416381D01*
X42835285Y23271239D01*
X42738523Y23174477D01*
X42641761Y23126096D01*
%TO.C,P1*%
X15125095Y10335381D02*
X15125095Y11351381D01*
X15512142Y11351381D01*
X15608904Y11303000D01*
X15657285Y11254620D01*
X15705666Y11157858D01*
X15705666Y11012715D01*
X15657285Y10915953D01*
X15608904Y10867572D01*
X15512142Y10819191D01*
X15125095Y10819191D01*
X16673285Y10335381D02*
X16092714Y10335381D01*
X16383000Y10335381D02*
X16383000Y11351381D01*
X16286238Y11206239D01*
X16189476Y11109477D01*
X16092714Y11061096D01*
%TO.C,P2*%
X36080095Y29385381D02*
X36080095Y30401381D01*
X36467142Y30401381D01*
X36563904Y30353000D01*
X36612285Y30304620D01*
X36660666Y30207858D01*
X36660666Y30062715D01*
X36612285Y29965953D01*
X36563904Y29917572D01*
X36467142Y29869191D01*
X36080095Y29869191D01*
X37047714Y30304620D02*
X37096095Y30353000D01*
X37192857Y30401381D01*
X37434761Y30401381D01*
X37531523Y30353000D01*
X37579904Y30304620D01*
X37628285Y30207858D01*
X37628285Y30111096D01*
X37579904Y29965953D01*
X36999333Y29385381D01*
X37628285Y29385381D01*
%TO.C,U1*%
X49390904Y20876381D02*
X49390904Y20053905D01*
X49439285Y19957143D01*
X49487666Y19908762D01*
X49584428Y19860381D01*
X49777952Y19860381D01*
X49874714Y19908762D01*
X49923095Y19957143D01*
X49971476Y20053905D01*
X49971476Y20876381D01*
X50987476Y19860381D02*
X50406904Y19860381D01*
X50697190Y19860381D02*
X50697190Y20876381D01*
X50600428Y20731239D01*
X50503666Y20634477D01*
X50406904Y20586096D01*
%TO.C,P3*%
X17030095Y33195381D02*
X17030095Y34211381D01*
X17417142Y34211381D01*
X17513904Y34163000D01*
X17562285Y34114620D01*
X17610666Y34017858D01*
X17610666Y33872715D01*
X17562285Y33775953D01*
X17513904Y33727572D01*
X17417142Y33679191D01*
X17030095Y33679191D01*
X17949333Y34211381D02*
X18578285Y34211381D01*
X18239619Y33824334D01*
X18384761Y33824334D01*
X18481523Y33775953D01*
X18529904Y33727572D01*
X18578285Y33630810D01*
X18578285Y33388905D01*
X18529904Y33292143D01*
X18481523Y33243762D01*
X18384761Y33195381D01*
X18094476Y33195381D01*
X17997714Y33243762D01*
X17949333Y33292143D01*
%TO.C,P4*%
X17030095Y6525381D02*
X17030095Y7541381D01*
X17417142Y7541381D01*
X17513904Y7493000D01*
X17562285Y7444620D01*
X17610666Y7347858D01*
X17610666Y7202715D01*
X17562285Y7105953D01*
X17513904Y7057572D01*
X17417142Y7009191D01*
X17030095Y7009191D01*
X18481523Y7202715D02*
X18481523Y6525381D01*
X18239619Y7589762D02*
X17997714Y6864048D01*
X18626666Y6864048D01*
%TO.C,P5*%
X17030095Y2715381D02*
X17030095Y3731381D01*
X17417142Y3731381D01*
X17513904Y3683000D01*
X17562285Y3634620D01*
X17610666Y3537858D01*
X17610666Y3392715D01*
X17562285Y3295953D01*
X17513904Y3247572D01*
X17417142Y3199191D01*
X17030095Y3199191D01*
X18529904Y3731381D02*
X18046095Y3731381D01*
X17997714Y3247572D01*
X18046095Y3295953D01*
X18142857Y3344334D01*
X18384761Y3344334D01*
X18481523Y3295953D01*
X18529904Y3247572D01*
X18578285Y3150810D01*
X18578285Y2908905D01*
X18529904Y2812143D01*
X18481523Y2763762D01*
X18384761Y2715381D01*
X18142857Y2715381D01*
X18046095Y2763762D01*
X17997714Y2812143D01*
%TD*%
M02*
