%TF.GenerationSoftware,KiCad,Pcbnew,(5.1.9)-1*%
%TF.CreationDate,2021-03-12T12:12:47-05:00*%
%TF.ProjectId,ProgramBoard,50726f67-7261-46d4-926f-6172642e6b69,rev?*%
%TF.SameCoordinates,PX54c81a0PY791ddc0*%
%TF.FileFunction,Copper,L1,Top*%
%TF.FilePolarity,Positive*%
%FSLAX46Y46*%
G04 Gerber Fmt 4.6, Leading zero omitted, Abs format (unit mm)*
G04 Created by KiCad (PCBNEW (5.1.9)-1) date 2021-03-12 12:12:47*
%MOMM*%
%LPD*%
G01*
G04 APERTURE LIST*
%TA.AperFunction,ComponentPad*%
%ADD10R,2.000000X4.000000*%
%TD*%
%TA.AperFunction,ComponentPad*%
%ADD11R,4.000000X3.000000*%
%TD*%
%TA.AperFunction,ComponentPad*%
%ADD12R,5.000000X3.000000*%
%TD*%
%TA.AperFunction,ComponentPad*%
%ADD13C,1.800000*%
%TD*%
%TA.AperFunction,ComponentPad*%
%ADD14C,2.000000*%
%TD*%
%TA.AperFunction,Conductor*%
%ADD15C,1.016000*%
%TD*%
%TA.AperFunction,Conductor*%
%ADD16C,0.254000*%
%TD*%
G04 APERTURE END LIST*
D10*
%TO.P,J1,3*%
%TO.N,N/C*%
X42090000Y27430000D03*
D11*
%TO.P,J1,2*%
%TO.N,GND*%
X46990000Y30480000D03*
D12*
%TO.P,J1,1*%
%TO.N,Net-(J1-Pad1)*%
X46990000Y24480000D03*
%TD*%
D13*
%TO.P,P1,4*%
%TO.N,Net-(P1-Pad3)*%
X11430000Y22860000D03*
%TO.P,P1,1*%
%TO.N,GND*%
X8890000Y25400000D03*
%TO.P,P1,2*%
X11430000Y25400000D03*
%TO.P,P1,3*%
%TO.N,Net-(P1-Pad3)*%
X8890000Y22860000D03*
%TO.P,P1,7*%
%TO.N,Net-(P1-Pad7)*%
X8890000Y17780000D03*
%TO.P,P1,6*%
%TO.N,Net-(P1-Pad6)*%
X11430000Y20320000D03*
%TO.P,P1,5*%
%TO.N,Net-(P1-Pad5)*%
X8890000Y20320000D03*
%TO.P,P1,8*%
%TO.N,Net-(P1-Pad8)*%
X11430000Y17780000D03*
%TO.P,P1,10*%
%TO.N,Net-(P1-Pad10)*%
X11430000Y15240000D03*
%TO.P,P1,9*%
%TO.N,Net-(P1-Pad9)*%
X8890000Y15240000D03*
%TD*%
D14*
%TO.P,P2,2*%
%TO.N,Net-(P2-Pad2)*%
X31750000Y29845000D03*
%TO.P,P2,1*%
%TO.N,Net-(P1-Pad6)*%
X34290000Y29845000D03*
%TO.P,P2,3*%
%TO.N,GND*%
X29210000Y29845000D03*
%TO.P,P2,4*%
%TO.N,Net-(P1-Pad8)*%
X26670000Y29845000D03*
%TO.P,P2,5*%
%TO.N,Net-(P1-Pad7)*%
X24130000Y29845000D03*
%TO.P,P2,6*%
%TO.N,N/C*%
X21590000Y29845000D03*
%TD*%
D13*
%TO.P,U1,1*%
%TO.N,N/C*%
X45720000Y17780000D03*
%TO.P,U1,2*%
X43180000Y17780000D03*
%TO.P,U1,3*%
X40640000Y17780000D03*
%TO.P,U1,4*%
X38100000Y17780000D03*
%TO.P,U1,5*%
X35560000Y17780000D03*
%TO.P,U1,6*%
X33020000Y17780000D03*
%TO.P,U1,7*%
X30480000Y17780000D03*
%TO.P,U1,8*%
%TO.N,GND*%
X24130000Y17780000D03*
%TO.P,U1,9*%
%TO.N,N/C*%
X24130000Y15240000D03*
%TO.P,U1,10*%
X24130000Y12700000D03*
%TO.P,U1,11*%
%TO.N,Net-(P1-Pad9)*%
X24130000Y10160000D03*
%TO.P,U1,12*%
%TO.N,Net-(P1-Pad10)*%
X24130000Y7620000D03*
%TO.P,U1,13*%
%TO.N,N/C*%
X24130000Y5080000D03*
%TO.P,U1,14*%
X30480000Y5080000D03*
%TO.P,U1,15*%
X33020000Y5080000D03*
%TO.P,U1,16*%
X35560000Y5080000D03*
%TO.P,U1,17*%
X38100000Y5080000D03*
%TO.P,U1,18*%
X40640000Y5080000D03*
%TO.P,U1,19*%
%TO.N,+5V*%
X43180000Y5080000D03*
%TO.P,U1,20*%
%TO.N,GND*%
X45720000Y5080000D03*
%TD*%
%TO.P,P3,3*%
%TO.N,Net-(P2-Pad2)*%
X12065000Y33655000D03*
%TO.P,P3,1*%
%TO.N,N/C*%
X6985000Y33655000D03*
%TO.P,P3,2*%
%TO.N,Net-(P1-Pad5)*%
X9525000Y33655000D03*
%TD*%
%TO.P,P4,2*%
%TO.N,Net-(P1-Pad3)*%
X9525000Y6985000D03*
%TO.P,P4,1*%
%TO.N,N/C*%
X6985000Y6985000D03*
%TO.P,P4,3*%
%TO.N,+5V*%
X12065000Y6985000D03*
%TD*%
%TO.P,P5,2*%
%TO.N,Net-(P1-Pad3)*%
X9525000Y3175000D03*
%TO.P,P5,1*%
%TO.N,N/C*%
X6985000Y3175000D03*
%TO.P,P5,3*%
%TO.N,Net-(J1-Pad1)*%
X12065000Y3175000D03*
%TD*%
D15*
%TO.N,Net-(P1-Pad3)*%
X9525000Y3175000D02*
X9525000Y6985000D01*
D16*
%TO.N,Net-(P1-Pad7)*%
X13335000Y19050000D02*
X24130000Y29845000D01*
X10160000Y19050000D02*
X13335000Y19050000D01*
X8890000Y17780000D02*
X10160000Y19050000D01*
D15*
%TO.N,Net-(P1-Pad5)*%
X8255000Y20320000D02*
X8890000Y20320000D01*
X6350000Y27305000D02*
X6350000Y22225000D01*
X6350000Y22225000D02*
X8255000Y20320000D01*
X9525000Y30480000D02*
X6350000Y27305000D01*
X9525000Y33655000D02*
X9525000Y30480000D01*
D16*
%TO.N,Net-(P1-Pad8)*%
X14605000Y17780000D02*
X26670000Y29845000D01*
X11430000Y17780000D02*
X14605000Y17780000D01*
%TO.N,Net-(P1-Pad10)*%
X19050000Y7620000D02*
X24130000Y7620000D01*
X11430000Y15240000D02*
X19050000Y7620000D01*
%TO.N,Net-(P1-Pad9)*%
X24130000Y10160000D02*
X19685000Y10160000D01*
X19685000Y10160000D02*
X13335000Y16510000D01*
X13335000Y16510000D02*
X10160000Y16510000D01*
X10160000Y16510000D02*
X8890000Y15240000D01*
D15*
%TO.N,Net-(P2-Pad2)*%
X28575000Y33655000D02*
X12065000Y33655000D01*
X31750000Y30480000D02*
X28575000Y33655000D01*
X31750000Y29845000D02*
X31750000Y30480000D01*
%TO.N,+5V*%
X14605000Y6985000D02*
X12065000Y6985000D01*
X18415000Y3175000D02*
X14605000Y6985000D01*
X43180000Y5080000D02*
X41275000Y3175000D01*
X41275000Y3175000D02*
X18415000Y3175000D01*
%TO.N,Net-(J1-Pad1)*%
X13970000Y1270000D02*
X12065000Y3175000D01*
X45020000Y1270000D02*
X13970000Y1270000D01*
X48260000Y4510000D02*
X45020000Y1270000D01*
X48260000Y23210000D02*
X48260000Y4510000D01*
X46990000Y24480000D02*
X48260000Y23210000D01*
%TD*%
M02*
