%TF.GenerationSoftware,KiCad,Pcbnew,(5.1.9)-1*%
%TF.CreationDate,2021-03-12T12:12:47-05:00*%
%TF.ProjectId,ProgramBoard,50726f67-7261-46d4-926f-6172642e6b69,rev?*%
%TF.SameCoordinates,PX54c81a0PY791ddc0*%
%TF.FileFunction,Legend,Bot*%
%TF.FilePolarity,Positive*%
%FSLAX46Y46*%
G04 Gerber Fmt 4.6, Leading zero omitted, Abs format (unit mm)*
G04 Created by KiCad (PCBNEW (5.1.9)-1) date 2021-03-12 12:12:47*
%MOMM*%
%LPD*%
G01*
G04 APERTURE LIST*
%ADD10C,0.228600*%
%ADD11C,0.010000*%
G04 APERTURE END LIST*
D10*
X38365707Y34465858D02*
X38079957Y36751858D01*
X37626386Y36751858D01*
X37367850Y36643000D01*
X37213636Y36425286D01*
X37150136Y36207572D01*
X37113850Y35772143D01*
X37154671Y35445572D01*
X37299814Y35010143D01*
X37417743Y34792429D01*
X37626386Y34574715D01*
X37912136Y34465858D01*
X38365707Y34465858D01*
X35644279Y34465858D02*
X35494600Y35663286D01*
X35558100Y35881000D01*
X35725921Y35989858D01*
X36088779Y35989858D01*
X36283814Y35881000D01*
X35630671Y34574715D02*
X35825707Y34465858D01*
X36279279Y34465858D01*
X36447100Y34574715D01*
X36510600Y34792429D01*
X36483386Y35010143D01*
X36365457Y35227858D01*
X36170421Y35336715D01*
X35716850Y35336715D01*
X35521814Y35445572D01*
X34546636Y35989858D02*
X34737136Y34465858D01*
X34573850Y35772143D02*
X34469529Y35881000D01*
X34274493Y35989858D01*
X34002350Y35989858D01*
X33834529Y35881000D01*
X33771029Y35663286D01*
X33920707Y34465858D01*
X33013564Y34465858D02*
X32823064Y35989858D01*
X32727814Y36751858D02*
X32832136Y36643000D01*
X32755029Y36534143D01*
X32650707Y36643000D01*
X32727814Y36751858D01*
X32755029Y36534143D01*
X31367100Y34574715D02*
X31562136Y34465858D01*
X31924993Y34465858D01*
X32092814Y34574715D01*
X32156314Y34792429D01*
X32047457Y35663286D01*
X31929529Y35881000D01*
X31734493Y35989858D01*
X31371636Y35989858D01*
X31203814Y35881000D01*
X31140314Y35663286D01*
X31167529Y35445572D01*
X32101886Y35227858D01*
X30201421Y34465858D02*
X30369243Y34574715D01*
X30432743Y34792429D01*
X30187814Y36751858D01*
X26482136Y34465858D02*
X26572850Y34465858D01*
X26740671Y34574715D01*
X26971993Y34901286D01*
X27343921Y35554429D01*
X27484529Y35881000D01*
X27534421Y36207572D01*
X27507207Y36425286D01*
X27389279Y36643000D01*
X27194243Y36751858D01*
X27103529Y36751858D01*
X26935707Y36643000D01*
X26872207Y36425286D01*
X26885814Y36316429D01*
X27003743Y36098715D01*
X27108064Y35989858D01*
X27706779Y35554429D01*
X27811100Y35445572D01*
X27929029Y35227858D01*
X27969850Y34901286D01*
X27906350Y34683572D01*
X27829243Y34574715D01*
X27661421Y34465858D01*
X27389279Y34465858D01*
X27194243Y34574715D01*
X27089921Y34683572D01*
X26763350Y35119000D01*
X26631814Y35445572D01*
X26604600Y35663286D01*
D11*
%TO.C,G\u002A\u002A\u002A*%
G36*
X20781261Y34757080D02*
G01*
X20758066Y34745306D01*
X20729789Y34727290D01*
X20703596Y34708012D01*
X20686653Y34692449D01*
X20684998Y34690210D01*
X20677329Y34661138D01*
X20684874Y34629612D01*
X20697320Y34612080D01*
X20720896Y34596844D01*
X20751123Y34594447D01*
X20792449Y34604666D01*
X20798920Y34606927D01*
X20834051Y34627476D01*
X20856998Y34656964D01*
X20864886Y34690440D01*
X20860303Y34712660D01*
X20841179Y34739662D01*
X20814062Y34756257D01*
X20785942Y34758519D01*
X20781261Y34757080D01*
G37*
X20781261Y34757080D02*
X20758066Y34745306D01*
X20729789Y34727290D01*
X20703596Y34708012D01*
X20686653Y34692449D01*
X20684998Y34690210D01*
X20677329Y34661138D01*
X20684874Y34629612D01*
X20697320Y34612080D01*
X20720896Y34596844D01*
X20751123Y34594447D01*
X20792449Y34604666D01*
X20798920Y34606927D01*
X20834051Y34627476D01*
X20856998Y34656964D01*
X20864886Y34690440D01*
X20860303Y34712660D01*
X20841179Y34739662D01*
X20814062Y34756257D01*
X20785942Y34758519D01*
X20781261Y34757080D01*
G36*
X15982090Y34683835D02*
G01*
X15953419Y34661158D01*
X15942856Y34646063D01*
X15926102Y34610796D01*
X15924041Y34582812D01*
X15936332Y34555718D01*
X15937937Y34553381D01*
X15962241Y34534715D01*
X15995545Y34532670D01*
X16035082Y34547300D01*
X16042075Y34551358D01*
X16063633Y34566834D01*
X16072420Y34583395D01*
X16072823Y34610029D01*
X16072555Y34613805D01*
X16062183Y34653281D01*
X16040778Y34678825D01*
X16012645Y34689367D01*
X15982090Y34683835D01*
G37*
X15982090Y34683835D02*
X15953419Y34661158D01*
X15942856Y34646063D01*
X15926102Y34610796D01*
X15924041Y34582812D01*
X15936332Y34555718D01*
X15937937Y34553381D01*
X15962241Y34534715D01*
X15995545Y34532670D01*
X16035082Y34547300D01*
X16042075Y34551358D01*
X16063633Y34566834D01*
X16072420Y34583395D01*
X16072823Y34610029D01*
X16072555Y34613805D01*
X16062183Y34653281D01*
X16040778Y34678825D01*
X16012645Y34689367D01*
X15982090Y34683835D01*
G36*
X16585694Y37059838D02*
G01*
X16508379Y37057579D01*
X16440953Y37053465D01*
X16387724Y37047537D01*
X16371272Y37044645D01*
X16290978Y37021543D01*
X16228366Y36989411D01*
X16183541Y36949417D01*
X16156608Y36902728D01*
X16147673Y36850511D01*
X16156839Y36793933D01*
X16184213Y36734162D01*
X16229900Y36672363D01*
X16294005Y36609706D01*
X16329503Y36581071D01*
X16353303Y36563881D01*
X16392119Y36537040D01*
X16443900Y36501919D01*
X16506591Y36459887D01*
X16578139Y36412317D01*
X16656490Y36360579D01*
X16739591Y36306044D01*
X16821280Y36252755D01*
X17014710Y36125930D01*
X17191741Y36007617D01*
X17353856Y35896681D01*
X17502540Y35791985D01*
X17639276Y35692393D01*
X17765548Y35596768D01*
X17882840Y35503976D01*
X17992636Y35412878D01*
X18096419Y35322339D01*
X18195673Y35231223D01*
X18291883Y35138394D01*
X18342132Y35088126D01*
X18430190Y34995320D01*
X18507221Y34906634D01*
X18572335Y34823374D01*
X18624640Y34746847D01*
X18663245Y34678359D01*
X18687260Y34619218D01*
X18695793Y34570729D01*
X18695800Y34569442D01*
X18694895Y34539298D01*
X18688941Y34521953D01*
X18673077Y34509966D01*
X18649954Y34499218D01*
X18616964Y34486013D01*
X18581963Y34475235D01*
X18542715Y34466707D01*
X18496985Y34460250D01*
X18442537Y34455688D01*
X18377133Y34452840D01*
X18298538Y34451531D01*
X18204517Y34451582D01*
X18092832Y34452814D01*
X18070960Y34453143D01*
X17985226Y34454767D01*
X17903668Y34456861D01*
X17829093Y34459312D01*
X17764305Y34462007D01*
X17712113Y34464833D01*
X17675320Y34467676D01*
X17659480Y34469760D01*
X17628581Y34473763D01*
X17580186Y34477333D01*
X17517113Y34480435D01*
X17442184Y34483035D01*
X17358217Y34485101D01*
X17268032Y34486598D01*
X17174450Y34487493D01*
X17080288Y34487753D01*
X16988368Y34487344D01*
X16901508Y34486232D01*
X16822529Y34484384D01*
X16754250Y34481767D01*
X16734994Y34480754D01*
X16663457Y34476472D01*
X16609275Y34472604D01*
X16569500Y34468745D01*
X16541185Y34464491D01*
X16521381Y34459434D01*
X16507141Y34453171D01*
X16499678Y34448408D01*
X16480051Y34429607D01*
X16470856Y34411297D01*
X16470760Y34409763D01*
X16474231Y34392366D01*
X16486177Y34377624D01*
X16508900Y34364560D01*
X16544702Y34352194D01*
X16595883Y34339550D01*
X16664746Y34325648D01*
X16671779Y34324322D01*
X16719593Y34315555D01*
X16761200Y34308627D01*
X16800090Y34303284D01*
X16839753Y34299268D01*
X16883679Y34296326D01*
X16935357Y34294200D01*
X16998277Y34292636D01*
X17075929Y34291377D01*
X17131160Y34290661D01*
X17333917Y34288226D01*
X17517018Y34286179D01*
X17681124Y34284517D01*
X17826897Y34283238D01*
X17954995Y34282339D01*
X18066082Y34281819D01*
X18160816Y34281675D01*
X18239860Y34281905D01*
X18303873Y34282506D01*
X18353517Y34283478D01*
X18389452Y34284817D01*
X18411320Y34286408D01*
X18485142Y34295932D01*
X18557968Y34308185D01*
X18624884Y34322151D01*
X18680976Y34336813D01*
X18718932Y34350099D01*
X18771386Y34381359D01*
X18815979Y34424553D01*
X18850048Y34475421D01*
X18870930Y34529704D01*
X18875962Y34583144D01*
X18874027Y34598138D01*
X18850996Y34676900D01*
X18810270Y34763663D01*
X18752476Y34857637D01*
X18678240Y34958031D01*
X18588188Y35064056D01*
X18482945Y35174922D01*
X18363138Y35289839D01*
X18238600Y35400162D01*
X18193886Y35438195D01*
X18153090Y35472348D01*
X18113780Y35504490D01*
X18073525Y35536491D01*
X18029893Y35570220D01*
X17980455Y35607547D01*
X17922777Y35650342D01*
X17854429Y35700475D01*
X17772981Y35759815D01*
X17735680Y35786916D01*
X17643872Y35853451D01*
X17563116Y35911599D01*
X17490373Y35963431D01*
X17422605Y36011017D01*
X17356773Y36056429D01*
X17289838Y36101735D01*
X17218761Y36149009D01*
X17140504Y36200319D01*
X17052027Y36257737D01*
X16950292Y36323333D01*
X16917800Y36344229D01*
X16805918Y36416188D01*
X16709785Y36478150D01*
X16628043Y36531084D01*
X16559334Y36575958D01*
X16502299Y36613740D01*
X16455579Y36645397D01*
X16417815Y36671897D01*
X16387650Y36694208D01*
X16363724Y36713298D01*
X16344679Y36730134D01*
X16329156Y36745686D01*
X16315797Y36760919D01*
X16303243Y36776803D01*
X16294802Y36788026D01*
X16274025Y36826231D01*
X16272491Y36859466D01*
X16290338Y36887892D01*
X16327705Y36911671D01*
X16384730Y36930964D01*
X16425113Y36939833D01*
X16459956Y36943790D01*
X16512537Y36946214D01*
X16580335Y36947169D01*
X16660833Y36946717D01*
X16751510Y36944922D01*
X16849846Y36941847D01*
X16953323Y36937556D01*
X17059420Y36932112D01*
X17165619Y36925578D01*
X17258160Y36918899D01*
X17337022Y36913124D01*
X17416175Y36907966D01*
X17491196Y36903665D01*
X17557662Y36900463D01*
X17611148Y36898602D01*
X17636620Y36898226D01*
X17682078Y36897461D01*
X17718965Y36895492D01*
X17743229Y36892629D01*
X17750920Y36889551D01*
X17760016Y36875530D01*
X17783978Y36866841D01*
X17817825Y36864477D01*
X17854345Y36868941D01*
X17901384Y36884919D01*
X17934038Y36908147D01*
X17950914Y36936161D01*
X17950618Y36966497D01*
X17931757Y36996691D01*
X17928414Y36999969D01*
X17902707Y37024119D01*
X17458514Y37031728D01*
X17360734Y37033598D01*
X17265339Y37035791D01*
X17175098Y37038215D01*
X17092781Y37040783D01*
X17021157Y37043404D01*
X16962997Y37045989D01*
X16921070Y37048448D01*
X16907640Y37049546D01*
X16833871Y37055097D01*
X16752750Y37058637D01*
X16668588Y37060204D01*
X16585694Y37059838D01*
G37*
X16585694Y37059838D02*
X16508379Y37057579D01*
X16440953Y37053465D01*
X16387724Y37047537D01*
X16371272Y37044645D01*
X16290978Y37021543D01*
X16228366Y36989411D01*
X16183541Y36949417D01*
X16156608Y36902728D01*
X16147673Y36850511D01*
X16156839Y36793933D01*
X16184213Y36734162D01*
X16229900Y36672363D01*
X16294005Y36609706D01*
X16329503Y36581071D01*
X16353303Y36563881D01*
X16392119Y36537040D01*
X16443900Y36501919D01*
X16506591Y36459887D01*
X16578139Y36412317D01*
X16656490Y36360579D01*
X16739591Y36306044D01*
X16821280Y36252755D01*
X17014710Y36125930D01*
X17191741Y36007617D01*
X17353856Y35896681D01*
X17502540Y35791985D01*
X17639276Y35692393D01*
X17765548Y35596768D01*
X17882840Y35503976D01*
X17992636Y35412878D01*
X18096419Y35322339D01*
X18195673Y35231223D01*
X18291883Y35138394D01*
X18342132Y35088126D01*
X18430190Y34995320D01*
X18507221Y34906634D01*
X18572335Y34823374D01*
X18624640Y34746847D01*
X18663245Y34678359D01*
X18687260Y34619218D01*
X18695793Y34570729D01*
X18695800Y34569442D01*
X18694895Y34539298D01*
X18688941Y34521953D01*
X18673077Y34509966D01*
X18649954Y34499218D01*
X18616964Y34486013D01*
X18581963Y34475235D01*
X18542715Y34466707D01*
X18496985Y34460250D01*
X18442537Y34455688D01*
X18377133Y34452840D01*
X18298538Y34451531D01*
X18204517Y34451582D01*
X18092832Y34452814D01*
X18070960Y34453143D01*
X17985226Y34454767D01*
X17903668Y34456861D01*
X17829093Y34459312D01*
X17764305Y34462007D01*
X17712113Y34464833D01*
X17675320Y34467676D01*
X17659480Y34469760D01*
X17628581Y34473763D01*
X17580186Y34477333D01*
X17517113Y34480435D01*
X17442184Y34483035D01*
X17358217Y34485101D01*
X17268032Y34486598D01*
X17174450Y34487493D01*
X17080288Y34487753D01*
X16988368Y34487344D01*
X16901508Y34486232D01*
X16822529Y34484384D01*
X16754250Y34481767D01*
X16734994Y34480754D01*
X16663457Y34476472D01*
X16609275Y34472604D01*
X16569500Y34468745D01*
X16541185Y34464491D01*
X16521381Y34459434D01*
X16507141Y34453171D01*
X16499678Y34448408D01*
X16480051Y34429607D01*
X16470856Y34411297D01*
X16470760Y34409763D01*
X16474231Y34392366D01*
X16486177Y34377624D01*
X16508900Y34364560D01*
X16544702Y34352194D01*
X16595883Y34339550D01*
X16664746Y34325648D01*
X16671779Y34324322D01*
X16719593Y34315555D01*
X16761200Y34308627D01*
X16800090Y34303284D01*
X16839753Y34299268D01*
X16883679Y34296326D01*
X16935357Y34294200D01*
X16998277Y34292636D01*
X17075929Y34291377D01*
X17131160Y34290661D01*
X17333917Y34288226D01*
X17517018Y34286179D01*
X17681124Y34284517D01*
X17826897Y34283238D01*
X17954995Y34282339D01*
X18066082Y34281819D01*
X18160816Y34281675D01*
X18239860Y34281905D01*
X18303873Y34282506D01*
X18353517Y34283478D01*
X18389452Y34284817D01*
X18411320Y34286408D01*
X18485142Y34295932D01*
X18557968Y34308185D01*
X18624884Y34322151D01*
X18680976Y34336813D01*
X18718932Y34350099D01*
X18771386Y34381359D01*
X18815979Y34424553D01*
X18850048Y34475421D01*
X18870930Y34529704D01*
X18875962Y34583144D01*
X18874027Y34598138D01*
X18850996Y34676900D01*
X18810270Y34763663D01*
X18752476Y34857637D01*
X18678240Y34958031D01*
X18588188Y35064056D01*
X18482945Y35174922D01*
X18363138Y35289839D01*
X18238600Y35400162D01*
X18193886Y35438195D01*
X18153090Y35472348D01*
X18113780Y35504490D01*
X18073525Y35536491D01*
X18029893Y35570220D01*
X17980455Y35607547D01*
X17922777Y35650342D01*
X17854429Y35700475D01*
X17772981Y35759815D01*
X17735680Y35786916D01*
X17643872Y35853451D01*
X17563116Y35911599D01*
X17490373Y35963431D01*
X17422605Y36011017D01*
X17356773Y36056429D01*
X17289838Y36101735D01*
X17218761Y36149009D01*
X17140504Y36200319D01*
X17052027Y36257737D01*
X16950292Y36323333D01*
X16917800Y36344229D01*
X16805918Y36416188D01*
X16709785Y36478150D01*
X16628043Y36531084D01*
X16559334Y36575958D01*
X16502299Y36613740D01*
X16455579Y36645397D01*
X16417815Y36671897D01*
X16387650Y36694208D01*
X16363724Y36713298D01*
X16344679Y36730134D01*
X16329156Y36745686D01*
X16315797Y36760919D01*
X16303243Y36776803D01*
X16294802Y36788026D01*
X16274025Y36826231D01*
X16272491Y36859466D01*
X16290338Y36887892D01*
X16327705Y36911671D01*
X16384730Y36930964D01*
X16425113Y36939833D01*
X16459956Y36943790D01*
X16512537Y36946214D01*
X16580335Y36947169D01*
X16660833Y36946717D01*
X16751510Y36944922D01*
X16849846Y36941847D01*
X16953323Y36937556D01*
X17059420Y36932112D01*
X17165619Y36925578D01*
X17258160Y36918899D01*
X17337022Y36913124D01*
X17416175Y36907966D01*
X17491196Y36903665D01*
X17557662Y36900463D01*
X17611148Y36898602D01*
X17636620Y36898226D01*
X17682078Y36897461D01*
X17718965Y36895492D01*
X17743229Y36892629D01*
X17750920Y36889551D01*
X17760016Y36875530D01*
X17783978Y36866841D01*
X17817825Y36864477D01*
X17854345Y36868941D01*
X17901384Y36884919D01*
X17934038Y36908147D01*
X17950914Y36936161D01*
X17950618Y36966497D01*
X17931757Y36996691D01*
X17928414Y36999969D01*
X17902707Y37024119D01*
X17458514Y37031728D01*
X17360734Y37033598D01*
X17265339Y37035791D01*
X17175098Y37038215D01*
X17092781Y37040783D01*
X17021157Y37043404D01*
X16962997Y37045989D01*
X16921070Y37048448D01*
X16907640Y37049546D01*
X16833871Y37055097D01*
X16752750Y37058637D01*
X16668588Y37060204D01*
X16585694Y37059838D01*
G36*
X21800678Y37532866D02*
G01*
X21703792Y37511895D01*
X21615997Y37472969D01*
X21537585Y37416338D01*
X21468847Y37342250D01*
X21410078Y37250957D01*
X21361568Y37142706D01*
X21330354Y37044098D01*
X21319725Y37001940D01*
X21312255Y36964584D01*
X21307379Y36926658D01*
X21304534Y36882789D01*
X21303157Y36827605D01*
X21302773Y36781240D01*
X21304301Y36688146D01*
X21310632Y36609450D01*
X21322961Y36539554D01*
X21342481Y36472861D01*
X21370387Y36403773D01*
X21393791Y36354520D01*
X21445622Y36263344D01*
X21513040Y36165673D01*
X21593555Y36064291D01*
X21684676Y35961980D01*
X21783911Y35861524D01*
X21888770Y35765705D01*
X21996761Y35677306D01*
X22007034Y35669440D01*
X22103403Y35599235D01*
X22205337Y35530659D01*
X22309662Y35465508D01*
X22413205Y35405576D01*
X22512791Y35352659D01*
X22605247Y35308554D01*
X22687400Y35275056D01*
X22727923Y35261539D01*
X22753533Y35252541D01*
X22768427Y35244744D01*
X22769960Y35242585D01*
X22763186Y35232982D01*
X22745226Y35213235D01*
X22719628Y35187198D01*
X22713000Y35180693D01*
X22691115Y35158564D01*
X22657932Y35123972D01*
X22615847Y35079468D01*
X22567258Y35027599D01*
X22514563Y34970916D01*
X22460158Y34911968D01*
X22455335Y34906720D01*
X22377486Y34822342D01*
X22311272Y34751575D01*
X22254864Y34692812D01*
X22206436Y34644442D01*
X22164162Y34604857D01*
X22126214Y34572447D01*
X22090765Y34545602D01*
X22055989Y34522712D01*
X22020058Y34502170D01*
X21981146Y34482364D01*
X21964634Y34474429D01*
X21904824Y34449905D01*
X21832531Y34426170D01*
X21755548Y34405360D01*
X21681667Y34389610D01*
X21626369Y34381722D01*
X21554232Y34383567D01*
X21477018Y34401182D01*
X21405708Y34430635D01*
X21367734Y34443978D01*
X21340066Y34440224D01*
X21323164Y34419479D01*
X21320587Y34411307D01*
X21319067Y34392830D01*
X21327336Y34375901D01*
X21348633Y34354519D01*
X21353583Y34350183D01*
X21424779Y34299079D01*
X21507732Y34257041D01*
X21596324Y34226354D01*
X21684437Y34209304D01*
X21737806Y34206605D01*
X21780212Y34209908D01*
X21830698Y34217641D01*
X21875880Y34227537D01*
X21941698Y34248826D01*
X22017124Y34279750D01*
X22095856Y34317302D01*
X22171594Y34358477D01*
X22238037Y34400265D01*
X22238525Y34400602D01*
X22299449Y34446664D01*
X22363900Y34503593D01*
X22433361Y34572903D01*
X22509315Y34656108D01*
X22593243Y34754723D01*
X22634509Y34805151D01*
X22683430Y34865041D01*
X22734992Y34927252D01*
X22785480Y34987368D01*
X22831183Y35040971D01*
X22868388Y35083644D01*
X22872191Y35087917D01*
X22909878Y35129774D01*
X22937056Y35158525D01*
X22956547Y35176399D01*
X22971171Y35185629D01*
X22983749Y35188444D01*
X22997101Y35187076D01*
X22997483Y35187005D01*
X23090333Y35173109D01*
X23190265Y35164052D01*
X23275741Y35161034D01*
X23375380Y35168462D01*
X23462546Y35191560D01*
X23524188Y35221699D01*
X23547271Y35234794D01*
X23562511Y35241664D01*
X23564137Y35241963D01*
X23569839Y35232799D01*
X23580194Y35207525D01*
X23594094Y35169517D01*
X23610432Y35122149D01*
X23628099Y35068799D01*
X23645988Y35012840D01*
X23662988Y34957650D01*
X23677994Y34906604D01*
X23689896Y34863077D01*
X23694202Y34845760D01*
X23714003Y34738649D01*
X23721976Y34636624D01*
X23717911Y34544052D01*
X23710805Y34500320D01*
X23696825Y34445577D01*
X23680672Y34407944D01*
X23659994Y34384212D01*
X23632436Y34371173D01*
X23613258Y34367363D01*
X23574193Y34355144D01*
X23549947Y34333387D01*
X23541979Y34305582D01*
X23551747Y34275220D01*
X23567093Y34256882D01*
X23588051Y34241651D01*
X23611968Y34236857D01*
X23636081Y34238383D01*
X23698023Y34253731D01*
X23749018Y34284815D01*
X23789275Y34332015D01*
X23819005Y34395710D01*
X23838417Y34476278D01*
X23847722Y34574099D01*
X23848669Y34622240D01*
X23845900Y34702548D01*
X23837145Y34785589D01*
X23821789Y34874250D01*
X23799215Y34971417D01*
X23768808Y35079974D01*
X23729952Y35202809D01*
X23715626Y35245625D01*
X23698540Y35297194D01*
X23687616Y35334051D01*
X23682047Y35360572D01*
X23681027Y35381133D01*
X23683752Y35400111D01*
X23685312Y35406594D01*
X23500746Y35406594D01*
X23482901Y35380583D01*
X23448535Y35357454D01*
X23399545Y35338813D01*
X23382431Y35334371D01*
X23344234Y35328765D01*
X23295074Y35326029D01*
X23243765Y35326246D01*
X23199120Y35329502D01*
X23181440Y35332429D01*
X23150960Y35339174D01*
X23196680Y35366223D01*
X23280126Y35410195D01*
X23355658Y35438248D01*
X23422556Y35451178D01*
X23458992Y35454443D01*
X23480356Y35454193D01*
X23491759Y35449292D01*
X23498308Y35438601D01*
X23500171Y35433885D01*
X23500746Y35406594D01*
X23685312Y35406594D01*
X23685696Y35408185D01*
X23690003Y35461135D01*
X23675297Y35508527D01*
X23642525Y35547823D01*
X23630308Y35556982D01*
X23614323Y35569362D01*
X23600036Y35584979D01*
X23595085Y35592520D01*
X23439846Y35592520D01*
X23386559Y35586480D01*
X23316332Y35572722D01*
X23236825Y35547478D01*
X23153618Y35513121D01*
X23072292Y35472021D01*
X22998429Y35426551D01*
X22980752Y35414026D01*
X22951512Y35393789D01*
X22927829Y35379516D01*
X22915724Y35374533D01*
X22901714Y35377524D01*
X22873177Y35385958D01*
X22834715Y35398419D01*
X22803964Y35408914D01*
X22699774Y35448320D01*
X22597878Y35493639D01*
X22494344Y35546920D01*
X22385240Y35610216D01*
X22266632Y35685575D01*
X22241668Y35702112D01*
X22070130Y35826019D01*
X21911198Y35960298D01*
X21767027Y36102906D01*
X21639771Y36251804D01*
X21588347Y36320670D01*
X21524072Y36427640D01*
X21478730Y36541403D01*
X21452425Y36661115D01*
X21445261Y36785928D01*
X21457342Y36914996D01*
X21488771Y37047474D01*
X21496217Y37070791D01*
X21524685Y37148095D01*
X21554559Y37209924D01*
X21588685Y37261073D01*
X21629908Y37306336D01*
X21643578Y37319030D01*
X21707079Y37362781D01*
X21780607Y37389505D01*
X21863088Y37399190D01*
X21953445Y37391826D01*
X22050603Y37367404D01*
X22153486Y37325912D01*
X22157682Y37323909D01*
X22252972Y37270416D01*
X22353655Y37199495D01*
X22458164Y37112811D01*
X22564933Y37012025D01*
X22672395Y36898802D01*
X22778984Y36774804D01*
X22883132Y36641695D01*
X22983274Y36501139D01*
X23077841Y36354798D01*
X23091324Y36332659D01*
X23146386Y36236075D01*
X23204872Y36122833D01*
X23267191Y35992083D01*
X23333756Y35842971D01*
X23375660Y35744920D01*
X23439846Y35592520D01*
X23595085Y35592520D01*
X23585515Y35607093D01*
X23568829Y35638968D01*
X23548048Y35683865D01*
X23527448Y35730723D01*
X23483834Y35828930D01*
X23437109Y35930251D01*
X23389023Y36031140D01*
X23341327Y36128048D01*
X23295773Y36217429D01*
X23254110Y36295737D01*
X23218091Y36359423D01*
X23212383Y36368992D01*
X23148226Y36470421D01*
X23071503Y36582921D01*
X22984315Y36703498D01*
X22898360Y36816800D01*
X22860469Y36863077D01*
X22812258Y36917957D01*
X22756552Y36978575D01*
X22696174Y37042065D01*
X22633949Y37105561D01*
X22572699Y37166197D01*
X22515250Y37221106D01*
X22464425Y37267422D01*
X22423047Y37302280D01*
X22410914Y37311541D01*
X22288215Y37394522D01*
X22172370Y37458502D01*
X22063425Y37503462D01*
X21961423Y37529382D01*
X21906360Y37535632D01*
X21800678Y37532866D01*
G37*
X21800678Y37532866D02*
X21703792Y37511895D01*
X21615997Y37472969D01*
X21537585Y37416338D01*
X21468847Y37342250D01*
X21410078Y37250957D01*
X21361568Y37142706D01*
X21330354Y37044098D01*
X21319725Y37001940D01*
X21312255Y36964584D01*
X21307379Y36926658D01*
X21304534Y36882789D01*
X21303157Y36827605D01*
X21302773Y36781240D01*
X21304301Y36688146D01*
X21310632Y36609450D01*
X21322961Y36539554D01*
X21342481Y36472861D01*
X21370387Y36403773D01*
X21393791Y36354520D01*
X21445622Y36263344D01*
X21513040Y36165673D01*
X21593555Y36064291D01*
X21684676Y35961980D01*
X21783911Y35861524D01*
X21888770Y35765705D01*
X21996761Y35677306D01*
X22007034Y35669440D01*
X22103403Y35599235D01*
X22205337Y35530659D01*
X22309662Y35465508D01*
X22413205Y35405576D01*
X22512791Y35352659D01*
X22605247Y35308554D01*
X22687400Y35275056D01*
X22727923Y35261539D01*
X22753533Y35252541D01*
X22768427Y35244744D01*
X22769960Y35242585D01*
X22763186Y35232982D01*
X22745226Y35213235D01*
X22719628Y35187198D01*
X22713000Y35180693D01*
X22691115Y35158564D01*
X22657932Y35123972D01*
X22615847Y35079468D01*
X22567258Y35027599D01*
X22514563Y34970916D01*
X22460158Y34911968D01*
X22455335Y34906720D01*
X22377486Y34822342D01*
X22311272Y34751575D01*
X22254864Y34692812D01*
X22206436Y34644442D01*
X22164162Y34604857D01*
X22126214Y34572447D01*
X22090765Y34545602D01*
X22055989Y34522712D01*
X22020058Y34502170D01*
X21981146Y34482364D01*
X21964634Y34474429D01*
X21904824Y34449905D01*
X21832531Y34426170D01*
X21755548Y34405360D01*
X21681667Y34389610D01*
X21626369Y34381722D01*
X21554232Y34383567D01*
X21477018Y34401182D01*
X21405708Y34430635D01*
X21367734Y34443978D01*
X21340066Y34440224D01*
X21323164Y34419479D01*
X21320587Y34411307D01*
X21319067Y34392830D01*
X21327336Y34375901D01*
X21348633Y34354519D01*
X21353583Y34350183D01*
X21424779Y34299079D01*
X21507732Y34257041D01*
X21596324Y34226354D01*
X21684437Y34209304D01*
X21737806Y34206605D01*
X21780212Y34209908D01*
X21830698Y34217641D01*
X21875880Y34227537D01*
X21941698Y34248826D01*
X22017124Y34279750D01*
X22095856Y34317302D01*
X22171594Y34358477D01*
X22238037Y34400265D01*
X22238525Y34400602D01*
X22299449Y34446664D01*
X22363900Y34503593D01*
X22433361Y34572903D01*
X22509315Y34656108D01*
X22593243Y34754723D01*
X22634509Y34805151D01*
X22683430Y34865041D01*
X22734992Y34927252D01*
X22785480Y34987368D01*
X22831183Y35040971D01*
X22868388Y35083644D01*
X22872191Y35087917D01*
X22909878Y35129774D01*
X22937056Y35158525D01*
X22956547Y35176399D01*
X22971171Y35185629D01*
X22983749Y35188444D01*
X22997101Y35187076D01*
X22997483Y35187005D01*
X23090333Y35173109D01*
X23190265Y35164052D01*
X23275741Y35161034D01*
X23375380Y35168462D01*
X23462546Y35191560D01*
X23524188Y35221699D01*
X23547271Y35234794D01*
X23562511Y35241664D01*
X23564137Y35241963D01*
X23569839Y35232799D01*
X23580194Y35207525D01*
X23594094Y35169517D01*
X23610432Y35122149D01*
X23628099Y35068799D01*
X23645988Y35012840D01*
X23662988Y34957650D01*
X23677994Y34906604D01*
X23689896Y34863077D01*
X23694202Y34845760D01*
X23714003Y34738649D01*
X23721976Y34636624D01*
X23717911Y34544052D01*
X23710805Y34500320D01*
X23696825Y34445577D01*
X23680672Y34407944D01*
X23659994Y34384212D01*
X23632436Y34371173D01*
X23613258Y34367363D01*
X23574193Y34355144D01*
X23549947Y34333387D01*
X23541979Y34305582D01*
X23551747Y34275220D01*
X23567093Y34256882D01*
X23588051Y34241651D01*
X23611968Y34236857D01*
X23636081Y34238383D01*
X23698023Y34253731D01*
X23749018Y34284815D01*
X23789275Y34332015D01*
X23819005Y34395710D01*
X23838417Y34476278D01*
X23847722Y34574099D01*
X23848669Y34622240D01*
X23845900Y34702548D01*
X23837145Y34785589D01*
X23821789Y34874250D01*
X23799215Y34971417D01*
X23768808Y35079974D01*
X23729952Y35202809D01*
X23715626Y35245625D01*
X23698540Y35297194D01*
X23687616Y35334051D01*
X23682047Y35360572D01*
X23681027Y35381133D01*
X23683752Y35400111D01*
X23685312Y35406594D01*
X23500746Y35406594D01*
X23482901Y35380583D01*
X23448535Y35357454D01*
X23399545Y35338813D01*
X23382431Y35334371D01*
X23344234Y35328765D01*
X23295074Y35326029D01*
X23243765Y35326246D01*
X23199120Y35329502D01*
X23181440Y35332429D01*
X23150960Y35339174D01*
X23196680Y35366223D01*
X23280126Y35410195D01*
X23355658Y35438248D01*
X23422556Y35451178D01*
X23458992Y35454443D01*
X23480356Y35454193D01*
X23491759Y35449292D01*
X23498308Y35438601D01*
X23500171Y35433885D01*
X23500746Y35406594D01*
X23685312Y35406594D01*
X23685696Y35408185D01*
X23690003Y35461135D01*
X23675297Y35508527D01*
X23642525Y35547823D01*
X23630308Y35556982D01*
X23614323Y35569362D01*
X23600036Y35584979D01*
X23595085Y35592520D01*
X23439846Y35592520D01*
X23386559Y35586480D01*
X23316332Y35572722D01*
X23236825Y35547478D01*
X23153618Y35513121D01*
X23072292Y35472021D01*
X22998429Y35426551D01*
X22980752Y35414026D01*
X22951512Y35393789D01*
X22927829Y35379516D01*
X22915724Y35374533D01*
X22901714Y35377524D01*
X22873177Y35385958D01*
X22834715Y35398419D01*
X22803964Y35408914D01*
X22699774Y35448320D01*
X22597878Y35493639D01*
X22494344Y35546920D01*
X22385240Y35610216D01*
X22266632Y35685575D01*
X22241668Y35702112D01*
X22070130Y35826019D01*
X21911198Y35960298D01*
X21767027Y36102906D01*
X21639771Y36251804D01*
X21588347Y36320670D01*
X21524072Y36427640D01*
X21478730Y36541403D01*
X21452425Y36661115D01*
X21445261Y36785928D01*
X21457342Y36914996D01*
X21488771Y37047474D01*
X21496217Y37070791D01*
X21524685Y37148095D01*
X21554559Y37209924D01*
X21588685Y37261073D01*
X21629908Y37306336D01*
X21643578Y37319030D01*
X21707079Y37362781D01*
X21780607Y37389505D01*
X21863088Y37399190D01*
X21953445Y37391826D01*
X22050603Y37367404D01*
X22153486Y37325912D01*
X22157682Y37323909D01*
X22252972Y37270416D01*
X22353655Y37199495D01*
X22458164Y37112811D01*
X22564933Y37012025D01*
X22672395Y36898802D01*
X22778984Y36774804D01*
X22883132Y36641695D01*
X22983274Y36501139D01*
X23077841Y36354798D01*
X23091324Y36332659D01*
X23146386Y36236075D01*
X23204872Y36122833D01*
X23267191Y35992083D01*
X23333756Y35842971D01*
X23375660Y35744920D01*
X23439846Y35592520D01*
X23595085Y35592520D01*
X23585515Y35607093D01*
X23568829Y35638968D01*
X23548048Y35683865D01*
X23527448Y35730723D01*
X23483834Y35828930D01*
X23437109Y35930251D01*
X23389023Y36031140D01*
X23341327Y36128048D01*
X23295773Y36217429D01*
X23254110Y36295737D01*
X23218091Y36359423D01*
X23212383Y36368992D01*
X23148226Y36470421D01*
X23071503Y36582921D01*
X22984315Y36703498D01*
X22898360Y36816800D01*
X22860469Y36863077D01*
X22812258Y36917957D01*
X22756552Y36978575D01*
X22696174Y37042065D01*
X22633949Y37105561D01*
X22572699Y37166197D01*
X22515250Y37221106D01*
X22464425Y37267422D01*
X22423047Y37302280D01*
X22410914Y37311541D01*
X22288215Y37394522D01*
X22172370Y37458502D01*
X22063425Y37503462D01*
X21961423Y37529382D01*
X21906360Y37535632D01*
X21800678Y37532866D01*
%TD*%
M02*
