M48
; DRILL file {KiCad (5.1.9)-1} date 03/12/21 12:12:48
; FORMAT={-:-/ absolute / metric / decimal}
; #@! TF.CreationDate,2021-03-12T12:12:48-05:00
; #@! TF.GenerationSoftware,Kicad,Pcbnew,(5.1.9)-1
FMAT,2
METRIC
T1C0.700
T2C0.900
T3C1.020
T4C3.000
%
G90
G05
T2
X6.985Y33.655
X6.985Y6.985
X6.985Y3.175
X8.89Y25.4
X8.89Y22.86
X8.89Y20.32
X8.89Y17.78
X8.89Y15.24
X9.525Y33.655
X9.525Y6.985
X9.525Y3.175
X11.43Y25.4
X11.43Y22.86
X11.43Y20.32
X11.43Y17.78
X11.43Y15.24
X12.065Y33.655
X12.065Y6.985
X12.065Y3.175
X24.13Y17.78
X24.13Y15.24
X24.13Y12.7
X24.13Y10.16
X24.13Y7.62
X24.13Y5.08
X30.48Y17.78
X30.48Y5.08
X33.02Y17.78
X33.02Y5.08
X35.56Y17.78
X35.56Y5.08
X38.1Y17.78
X38.1Y5.08
X40.64Y17.78
X40.64Y5.08
X43.18Y17.78
X43.18Y5.08
X45.72Y17.78
X45.72Y5.08
T3
X21.59Y29.845
X24.13Y29.845
X26.67Y29.845
X29.21Y29.845
X31.75Y29.845
X34.29Y29.845
T4
X19.05Y17.145
X34.925Y23.495
X38.1Y11.43
T1
G00X42.09Y28.58
M15
G01X42.09Y26.28
M16
G05
G00X48.14Y30.48
M15
G01X45.84Y30.48
M16
G05
G00X48.39Y24.48
M15
G01X45.59Y24.48
M16
G05
T0
M30
