M48
; DRILL file {KiCad (5.1.9)-1} date 03/12/21 11:47:05
; FORMAT={-:-/ absolute / metric / decimal}
; #@! TF.CreationDate,2021-03-12T11:47:05-05:00
; #@! TF.GenerationSoftware,Kicad,Pcbnew,(5.1.9)-1
FMAT,2
METRIC
T1C0.250
T2C0.300
T3C0.400
T4C0.508
T5C0.762
T6C0.900
T7C1.016
T8C3.000
%
G90
G05
T1
X3.0Y60.0
X3.0Y56.0
X3.0Y42.0
X3.0Y38.0
X3.5Y15.5
X3.5Y11.5
X3.5Y10.5
X3.5Y6.5
X6.25Y52.75
X7.0Y60.0
X7.0Y56.0
X7.0Y48.5
X7.0Y42.0
X7.0Y38.0
X7.5Y24.5
X7.5Y21.5
X7.5Y17.5
X7.5Y13.0
X7.5Y11.5
X7.5Y10.0
X9.0Y13.0
X9.5Y66.0
X10.25Y32.0
X10.5Y13.0
X11.0Y60.0
X11.5Y28.5
X11.5Y24.5
X12.0Y13.0
X13.0Y35.0
X13.5Y38.5
X13.5Y13.0
X13.5Y11.5
X13.5Y10.0
X14.75Y36.0
X15.5Y28.5
X15.5Y24.5
X17.0Y7.0
X19.5Y24.5
X20.0Y32.0
X20.5Y14.75
X20.5Y7.0
X23.0Y29.5
X23.0Y24.5
X24.0Y47.0
X24.0Y43.0
X24.0Y7.0
X24.5Y14.75
X27.5Y7.0
X28.0Y47.0
X28.0Y43.0
X28.0Y39.75
X30.75Y26.25
X30.75Y25.0
X31.0Y8.5
X31.0Y7.0
X32.0Y39.75
X34.5Y7.0
X35.0Y8.5
X35.75Y31.5
X35.75Y21.0
X36.0Y39.75
X37.75Y27.75
X37.75Y26.0
X37.75Y24.75
X40.0Y8.0
X41.75Y33.0
X43.5Y47.5
T2
X12.5Y54.5
X20.5Y10.75
X24.5Y10.75
X27.25Y33.0
T3
X43.2Y19.7
X44.25Y26.5
T4
X8.2Y2.4
T5
X10.5Y2.0
T6
X10.25Y38.0
X13.0Y43.5
X21.0Y48.5
X24.0Y37.5
X33.0Y13.5
X37.25Y18.5
X37.25Y15.0
X43.0Y16.75
T7
X40.484Y27.12
X41.5Y19.5
X42.516Y27.12
T8
X3.0Y65.0
X3.0Y3.0
X15.5Y64.5
X15.5Y48.5
X40.5Y56.5
X43.0Y65.0
X43.0Y3.0
T0
M30
