%TF.GenerationSoftware,KiCad,Pcbnew,(5.1.9)-1*%
%TF.CreationDate,2021-03-12T11:46:57-05:00*%
%TF.ProjectId,SensorDemo,53656e73-6f72-4446-956d-6f2e6b696361,rev?*%
%TF.SameCoordinates,PX700e860PY7735940*%
%TF.FileFunction,Legend,Bot*%
%TF.FilePolarity,Positive*%
%FSLAX46Y46*%
G04 Gerber Fmt 4.6, Leading zero omitted, Abs format (unit mm)*
G04 Created by KiCad (PCBNEW (5.1.9)-1) date 2021-03-12 11:46:57*
%MOMM*%
%LPD*%
G01*
G04 APERTURE LIST*
%ADD10C,0.152400*%
%ADD11C,0.010000*%
G04 APERTURE END LIST*
D10*
X40513892Y50497381D02*
X40513892Y50255477D01*
X40755797Y50352239D02*
X40513892Y50255477D01*
X40271987Y50352239D01*
X40659035Y50061953D02*
X40513892Y50255477D01*
X40368749Y50061953D01*
X39159225Y49529762D02*
X39014082Y49481381D01*
X38772178Y49481381D01*
X38675416Y49529762D01*
X38627035Y49578143D01*
X38578654Y49674905D01*
X38578654Y49771667D01*
X38627035Y49868429D01*
X38675416Y49916810D01*
X38772178Y49965191D01*
X38965701Y50013572D01*
X39062463Y50061953D01*
X39110844Y50110334D01*
X39159225Y50207096D01*
X39159225Y50303858D01*
X39110844Y50400620D01*
X39062463Y50449000D01*
X38965701Y50497381D01*
X38723797Y50497381D01*
X38578654Y50449000D01*
X37756178Y49529762D02*
X37852940Y49481381D01*
X38046463Y49481381D01*
X38143225Y49529762D01*
X38191606Y49626524D01*
X38191606Y50013572D01*
X38143225Y50110334D01*
X38046463Y50158715D01*
X37852940Y50158715D01*
X37756178Y50110334D01*
X37707797Y50013572D01*
X37707797Y49916810D01*
X38191606Y49820048D01*
X37272368Y50158715D02*
X37272368Y49481381D01*
X37272368Y50061953D02*
X37223987Y50110334D01*
X37127225Y50158715D01*
X36982082Y50158715D01*
X36885320Y50110334D01*
X36836940Y50013572D01*
X36836940Y49481381D01*
X36401511Y49529762D02*
X36304749Y49481381D01*
X36111225Y49481381D01*
X36014463Y49529762D01*
X35966082Y49626524D01*
X35966082Y49674905D01*
X36014463Y49771667D01*
X36111225Y49820048D01*
X36256368Y49820048D01*
X36353130Y49868429D01*
X36401511Y49965191D01*
X36401511Y50013572D01*
X36353130Y50110334D01*
X36256368Y50158715D01*
X36111225Y50158715D01*
X36014463Y50110334D01*
X35385511Y49481381D02*
X35482273Y49529762D01*
X35530654Y49578143D01*
X35579035Y49674905D01*
X35579035Y49965191D01*
X35530654Y50061953D01*
X35482273Y50110334D01*
X35385511Y50158715D01*
X35240368Y50158715D01*
X35143606Y50110334D01*
X35095225Y50061953D01*
X35046844Y49965191D01*
X35046844Y49674905D01*
X35095225Y49578143D01*
X35143606Y49529762D01*
X35240368Y49481381D01*
X35385511Y49481381D01*
X34611416Y49481381D02*
X34611416Y50158715D01*
X34611416Y49965191D02*
X34563035Y50061953D01*
X34514654Y50110334D01*
X34417892Y50158715D01*
X34321130Y50158715D01*
X33256749Y49529762D02*
X33159987Y49481381D01*
X32966463Y49481381D01*
X32869701Y49529762D01*
X32821320Y49626524D01*
X32821320Y49674905D01*
X32869701Y49771667D01*
X32966463Y49820048D01*
X33111606Y49820048D01*
X33208368Y49868429D01*
X33256749Y49965191D01*
X33256749Y50013572D01*
X33208368Y50110334D01*
X33111606Y50158715D01*
X32966463Y50158715D01*
X32869701Y50110334D01*
X31998844Y49529762D02*
X32095606Y49481381D01*
X32289130Y49481381D01*
X32385892Y49529762D01*
X32434273Y49626524D01*
X32434273Y50013572D01*
X32385892Y50110334D01*
X32289130Y50158715D01*
X32095606Y50158715D01*
X31998844Y50110334D01*
X31950463Y50013572D01*
X31950463Y49916810D01*
X32434273Y49820048D01*
X31515035Y49481381D02*
X31515035Y50158715D01*
X31515035Y49965191D02*
X31466654Y50061953D01*
X31418273Y50110334D01*
X31321511Y50158715D01*
X31224749Y50158715D01*
X30886082Y49481381D02*
X30886082Y50158715D01*
X30886082Y50497381D02*
X30934463Y50449000D01*
X30886082Y50400620D01*
X30837701Y50449000D01*
X30886082Y50497381D01*
X30886082Y50400620D01*
X30015225Y49529762D02*
X30111987Y49481381D01*
X30305511Y49481381D01*
X30402273Y49529762D01*
X30450654Y49626524D01*
X30450654Y50013572D01*
X30402273Y50110334D01*
X30305511Y50158715D01*
X30111987Y50158715D01*
X30015225Y50110334D01*
X29966844Y50013572D01*
X29966844Y49916810D01*
X30450654Y49820048D01*
X29579797Y49529762D02*
X29483035Y49481381D01*
X29289511Y49481381D01*
X29192749Y49529762D01*
X29144368Y49626524D01*
X29144368Y49674905D01*
X29192749Y49771667D01*
X29289511Y49820048D01*
X29434654Y49820048D01*
X29531416Y49868429D01*
X29579797Y49965191D01*
X29579797Y50013572D01*
X29531416Y50110334D01*
X29434654Y50158715D01*
X29289511Y50158715D01*
X29192749Y50110334D01*
X27934844Y49481381D02*
X27934844Y50158715D01*
X27934844Y49965191D02*
X27886463Y50061953D01*
X27838082Y50110334D01*
X27741320Y50158715D01*
X27644559Y50158715D01*
X26918844Y49529762D02*
X27015606Y49481381D01*
X27209130Y49481381D01*
X27305892Y49529762D01*
X27354273Y49626524D01*
X27354273Y50013572D01*
X27305892Y50110334D01*
X27209130Y50158715D01*
X27015606Y50158715D01*
X26918844Y50110334D01*
X26870463Y50013572D01*
X26870463Y49916810D01*
X27354273Y49820048D01*
X26483416Y49529762D02*
X26386654Y49481381D01*
X26193130Y49481381D01*
X26096368Y49529762D01*
X26047987Y49626524D01*
X26047987Y49674905D01*
X26096368Y49771667D01*
X26193130Y49820048D01*
X26338273Y49820048D01*
X26435035Y49868429D01*
X26483416Y49965191D01*
X26483416Y50013572D01*
X26435035Y50110334D01*
X26338273Y50158715D01*
X26193130Y50158715D01*
X26096368Y50110334D01*
X25612559Y49481381D02*
X25612559Y50158715D01*
X25612559Y50497381D02*
X25660940Y50449000D01*
X25612559Y50400620D01*
X25564178Y50449000D01*
X25612559Y50497381D01*
X25612559Y50400620D01*
X25177130Y49529762D02*
X25080368Y49481381D01*
X24886844Y49481381D01*
X24790082Y49529762D01*
X24741701Y49626524D01*
X24741701Y49674905D01*
X24790082Y49771667D01*
X24886844Y49820048D01*
X25031987Y49820048D01*
X25128749Y49868429D01*
X25177130Y49965191D01*
X25177130Y50013572D01*
X25128749Y50110334D01*
X25031987Y50158715D01*
X24886844Y50158715D01*
X24790082Y50110334D01*
X24451416Y50158715D02*
X24064368Y50158715D01*
X24306273Y50497381D02*
X24306273Y49626524D01*
X24257892Y49529762D01*
X24161130Y49481381D01*
X24064368Y49481381D01*
X23580559Y49481381D02*
X23677320Y49529762D01*
X23725701Y49578143D01*
X23774082Y49674905D01*
X23774082Y49965191D01*
X23725701Y50061953D01*
X23677320Y50110334D01*
X23580559Y50158715D01*
X23435416Y50158715D01*
X23338654Y50110334D01*
X23290273Y50061953D01*
X23241892Y49965191D01*
X23241892Y49674905D01*
X23290273Y49578143D01*
X23338654Y49529762D01*
X23435416Y49481381D01*
X23580559Y49481381D01*
X22806463Y49481381D02*
X22806463Y50158715D01*
X22806463Y49965191D02*
X22758082Y50061953D01*
X22709701Y50110334D01*
X22612940Y50158715D01*
X22516178Y50158715D01*
X40078463Y47804981D02*
X40417130Y48288791D01*
X40659035Y47804981D02*
X40659035Y48820981D01*
X40271987Y48820981D01*
X40175225Y48772600D01*
X40126844Y48724220D01*
X40078463Y48627458D01*
X40078463Y48482315D01*
X40126844Y48385553D01*
X40175225Y48337172D01*
X40271987Y48288791D01*
X40659035Y48288791D01*
X39207606Y48820981D02*
X39401130Y48820981D01*
X39497892Y48772600D01*
X39546273Y48724220D01*
X39643035Y48579077D01*
X39691416Y48385553D01*
X39691416Y47998505D01*
X39643035Y47901743D01*
X39594654Y47853362D01*
X39497892Y47804981D01*
X39304368Y47804981D01*
X39207606Y47853362D01*
X39159225Y47901743D01*
X39110844Y47998505D01*
X39110844Y48240410D01*
X39159225Y48337172D01*
X39207606Y48385553D01*
X39304368Y48433934D01*
X39497892Y48433934D01*
X39594654Y48385553D01*
X39643035Y48337172D01*
X39691416Y48240410D01*
X38675416Y47901743D02*
X38627035Y47853362D01*
X38675416Y47804981D01*
X38723797Y47853362D01*
X38675416Y47901743D01*
X38675416Y47804981D01*
X38675416Y48433934D02*
X38627035Y48385553D01*
X38675416Y48337172D01*
X38723797Y48385553D01*
X38675416Y48433934D01*
X38675416Y48337172D01*
X37562654Y48820981D02*
X36982082Y48820981D01*
X37272368Y47804981D02*
X37272368Y48820981D01*
X36643416Y47804981D02*
X36643416Y48820981D01*
X36256368Y48820981D01*
X36159606Y48772600D01*
X36111225Y48724220D01*
X36062844Y48627458D01*
X36062844Y48482315D01*
X36111225Y48385553D01*
X36159606Y48337172D01*
X36256368Y48288791D01*
X36643416Y48288791D01*
X35095225Y47804981D02*
X35675797Y47804981D01*
X35385511Y47804981D02*
X35385511Y48820981D01*
X35482273Y48675839D01*
X35579035Y48579077D01*
X35675797Y48530696D01*
X33063225Y47804981D02*
X33111606Y47804981D01*
X33208368Y47853362D01*
X33353511Y47998505D01*
X33595416Y48288791D01*
X33692178Y48433934D01*
X33740559Y48579077D01*
X33740559Y48675839D01*
X33692178Y48772600D01*
X33595416Y48820981D01*
X33547035Y48820981D01*
X33450273Y48772600D01*
X33401892Y48675839D01*
X33401892Y48627458D01*
X33450273Y48530696D01*
X33498654Y48482315D01*
X33788940Y48288791D01*
X33837320Y48240410D01*
X33885701Y48143648D01*
X33885701Y47998505D01*
X33837320Y47901743D01*
X33788940Y47853362D01*
X33692178Y47804981D01*
X33547035Y47804981D01*
X33450273Y47853362D01*
X33401892Y47901743D01*
X33256749Y48095267D01*
X33208368Y48240410D01*
X33208368Y48337172D01*
X31998844Y48820981D02*
X31418273Y48820981D01*
X31708559Y47804981D02*
X31708559Y48820981D01*
X31079606Y47804981D02*
X31079606Y48820981D01*
X30692559Y48820981D01*
X30595797Y48772600D01*
X30547416Y48724220D01*
X30499035Y48627458D01*
X30499035Y48482315D01*
X30547416Y48385553D01*
X30595797Y48337172D01*
X30692559Y48288791D01*
X31079606Y48288791D01*
X30111987Y48724220D02*
X30063606Y48772600D01*
X29966844Y48820981D01*
X29724940Y48820981D01*
X29628178Y48772600D01*
X29579797Y48724220D01*
X29531416Y48627458D01*
X29531416Y48530696D01*
X29579797Y48385553D01*
X30160368Y47804981D01*
X29531416Y47804981D01*
X40078463Y46128581D02*
X40417130Y46612391D01*
X40659035Y46128581D02*
X40659035Y47144581D01*
X40271987Y47144581D01*
X40175225Y47096200D01*
X40126844Y47047820D01*
X40078463Y46951058D01*
X40078463Y46805915D01*
X40126844Y46709153D01*
X40175225Y46660772D01*
X40271987Y46612391D01*
X40659035Y46612391D01*
X39594654Y46128581D02*
X39401130Y46128581D01*
X39304368Y46176962D01*
X39255987Y46225343D01*
X39159225Y46370486D01*
X39110844Y46564010D01*
X39110844Y46951058D01*
X39159225Y47047820D01*
X39207606Y47096200D01*
X39304368Y47144581D01*
X39497892Y47144581D01*
X39594654Y47096200D01*
X39643035Y47047820D01*
X39691416Y46951058D01*
X39691416Y46709153D01*
X39643035Y46612391D01*
X39594654Y46564010D01*
X39497892Y46515629D01*
X39304368Y46515629D01*
X39207606Y46564010D01*
X39159225Y46612391D01*
X39110844Y46709153D01*
X38675416Y46225343D02*
X38627035Y46176962D01*
X38675416Y46128581D01*
X38723797Y46176962D01*
X38675416Y46225343D01*
X38675416Y46128581D01*
X38675416Y46757534D02*
X38627035Y46709153D01*
X38675416Y46660772D01*
X38723797Y46709153D01*
X38675416Y46757534D01*
X38675416Y46660772D01*
X37562654Y47144581D02*
X36982082Y47144581D01*
X37272368Y46128581D02*
X37272368Y47144581D01*
X36643416Y46128581D02*
X36643416Y47144581D01*
X36256368Y47144581D01*
X36159606Y47096200D01*
X36111225Y47047820D01*
X36062844Y46951058D01*
X36062844Y46805915D01*
X36111225Y46709153D01*
X36159606Y46660772D01*
X36256368Y46612391D01*
X36643416Y46612391D01*
X35724178Y47144581D02*
X35095225Y47144581D01*
X35433892Y46757534D01*
X35288749Y46757534D01*
X35191987Y46709153D01*
X35143606Y46660772D01*
X35095225Y46564010D01*
X35095225Y46322105D01*
X35143606Y46225343D01*
X35191987Y46176962D01*
X35288749Y46128581D01*
X35579035Y46128581D01*
X35675797Y46176962D01*
X35724178Y46225343D01*
X33063225Y46128581D02*
X33111606Y46128581D01*
X33208368Y46176962D01*
X33353511Y46322105D01*
X33595416Y46612391D01*
X33692178Y46757534D01*
X33740559Y46902677D01*
X33740559Y46999439D01*
X33692178Y47096200D01*
X33595416Y47144581D01*
X33547035Y47144581D01*
X33450273Y47096200D01*
X33401892Y46999439D01*
X33401892Y46951058D01*
X33450273Y46854296D01*
X33498654Y46805915D01*
X33788940Y46612391D01*
X33837320Y46564010D01*
X33885701Y46467248D01*
X33885701Y46322105D01*
X33837320Y46225343D01*
X33788940Y46176962D01*
X33692178Y46128581D01*
X33547035Y46128581D01*
X33450273Y46176962D01*
X33401892Y46225343D01*
X33256749Y46418867D01*
X33208368Y46564010D01*
X33208368Y46660772D01*
X31998844Y47144581D02*
X31418273Y47144581D01*
X31708559Y46128581D02*
X31708559Y47144581D01*
X31079606Y46128581D02*
X31079606Y47144581D01*
X30692559Y47144581D01*
X30595797Y47096200D01*
X30547416Y47047820D01*
X30499035Y46951058D01*
X30499035Y46805915D01*
X30547416Y46709153D01*
X30595797Y46660772D01*
X30692559Y46612391D01*
X31079606Y46612391D01*
X29628178Y46805915D02*
X29628178Y46128581D01*
X29870082Y47192962D02*
X30111987Y46467248D01*
X29483035Y46467248D01*
X40513892Y45468181D02*
X40513892Y45226277D01*
X40755797Y45323039D02*
X40513892Y45226277D01*
X40271987Y45323039D01*
X40659035Y45032753D02*
X40513892Y45226277D01*
X40368749Y45032753D01*
X39739797Y45468181D02*
X39739797Y45226277D01*
X39981701Y45323039D02*
X39739797Y45226277D01*
X39497892Y45323039D01*
X39884940Y45032753D02*
X39739797Y45226277D01*
X39594654Y45032753D01*
X38385130Y44500562D02*
X38239987Y44452181D01*
X37998082Y44452181D01*
X37901320Y44500562D01*
X37852940Y44548943D01*
X37804559Y44645705D01*
X37804559Y44742467D01*
X37852940Y44839229D01*
X37901320Y44887610D01*
X37998082Y44935991D01*
X38191606Y44984372D01*
X38288368Y45032753D01*
X38336749Y45081134D01*
X38385130Y45177896D01*
X38385130Y45274658D01*
X38336749Y45371420D01*
X38288368Y45419800D01*
X38191606Y45468181D01*
X37949701Y45468181D01*
X37804559Y45419800D01*
X36982082Y44500562D02*
X37078844Y44452181D01*
X37272368Y44452181D01*
X37369130Y44500562D01*
X37417511Y44597324D01*
X37417511Y44984372D01*
X37369130Y45081134D01*
X37272368Y45129515D01*
X37078844Y45129515D01*
X36982082Y45081134D01*
X36933701Y44984372D01*
X36933701Y44887610D01*
X37417511Y44790848D01*
X36498273Y45129515D02*
X36498273Y44452181D01*
X36498273Y45032753D02*
X36449892Y45081134D01*
X36353130Y45129515D01*
X36207987Y45129515D01*
X36111225Y45081134D01*
X36062844Y44984372D01*
X36062844Y44452181D01*
X35627416Y44500562D02*
X35530654Y44452181D01*
X35337130Y44452181D01*
X35240368Y44500562D01*
X35191987Y44597324D01*
X35191987Y44645705D01*
X35240368Y44742467D01*
X35337130Y44790848D01*
X35482273Y44790848D01*
X35579035Y44839229D01*
X35627416Y44935991D01*
X35627416Y44984372D01*
X35579035Y45081134D01*
X35482273Y45129515D01*
X35337130Y45129515D01*
X35240368Y45081134D01*
X34611416Y44452181D02*
X34708178Y44500562D01*
X34756559Y44548943D01*
X34804940Y44645705D01*
X34804940Y44935991D01*
X34756559Y45032753D01*
X34708178Y45081134D01*
X34611416Y45129515D01*
X34466273Y45129515D01*
X34369511Y45081134D01*
X34321130Y45032753D01*
X34272749Y44935991D01*
X34272749Y44645705D01*
X34321130Y44548943D01*
X34369511Y44500562D01*
X34466273Y44452181D01*
X34611416Y44452181D01*
X33837320Y44452181D02*
X33837320Y45129515D01*
X33837320Y44935991D02*
X33788940Y45032753D01*
X33740559Y45081134D01*
X33643797Y45129515D01*
X33547035Y45129515D01*
X32434273Y44452181D02*
X32434273Y45468181D01*
X32434273Y45081134D02*
X32337511Y45129515D01*
X32143987Y45129515D01*
X32047225Y45081134D01*
X31998844Y45032753D01*
X31950463Y44935991D01*
X31950463Y44645705D01*
X31998844Y44548943D01*
X32047225Y44500562D01*
X32143987Y44452181D01*
X32337511Y44452181D01*
X32434273Y44500562D01*
X31515035Y44452181D02*
X31515035Y45129515D01*
X31515035Y45468181D02*
X31563416Y45419800D01*
X31515035Y45371420D01*
X31466654Y45419800D01*
X31515035Y45468181D01*
X31515035Y45371420D01*
X30595797Y44452181D02*
X30595797Y44984372D01*
X30644178Y45081134D01*
X30740940Y45129515D01*
X30934463Y45129515D01*
X31031225Y45081134D01*
X30595797Y44500562D02*
X30692559Y44452181D01*
X30934463Y44452181D01*
X31031225Y44500562D01*
X31079606Y44597324D01*
X31079606Y44694086D01*
X31031225Y44790848D01*
X30934463Y44839229D01*
X30692559Y44839229D01*
X30595797Y44887610D01*
X30160368Y44500562D02*
X30063606Y44452181D01*
X29870082Y44452181D01*
X29773320Y44500562D01*
X29724940Y44597324D01*
X29724940Y44645705D01*
X29773320Y44742467D01*
X29870082Y44790848D01*
X30015225Y44790848D01*
X30111987Y44839229D01*
X30160368Y44935991D01*
X30160368Y44984372D01*
X30111987Y45081134D01*
X30015225Y45129515D01*
X29870082Y45129515D01*
X29773320Y45081134D01*
X28563797Y44500562D02*
X28467035Y44452181D01*
X28273511Y44452181D01*
X28176749Y44500562D01*
X28128368Y44597324D01*
X28128368Y44645705D01*
X28176749Y44742467D01*
X28273511Y44790848D01*
X28418654Y44790848D01*
X28515416Y44839229D01*
X28563797Y44935991D01*
X28563797Y44984372D01*
X28515416Y45081134D01*
X28418654Y45129515D01*
X28273511Y45129515D01*
X28176749Y45081134D01*
X27305892Y44500562D02*
X27402654Y44452181D01*
X27596178Y44452181D01*
X27692940Y44500562D01*
X27741320Y44597324D01*
X27741320Y44984372D01*
X27692940Y45081134D01*
X27596178Y45129515D01*
X27402654Y45129515D01*
X27305892Y45081134D01*
X27257511Y44984372D01*
X27257511Y44887610D01*
X27741320Y44790848D01*
X26676940Y44452181D02*
X26773701Y44500562D01*
X26822082Y44597324D01*
X26822082Y45468181D01*
X25902844Y44500562D02*
X25999606Y44452181D01*
X26193130Y44452181D01*
X26289892Y44500562D01*
X26338273Y44597324D01*
X26338273Y44984372D01*
X26289892Y45081134D01*
X26193130Y45129515D01*
X25999606Y45129515D01*
X25902844Y45081134D01*
X25854463Y44984372D01*
X25854463Y44887610D01*
X26338273Y44790848D01*
X24983606Y44500562D02*
X25080368Y44452181D01*
X25273892Y44452181D01*
X25370654Y44500562D01*
X25419035Y44548943D01*
X25467416Y44645705D01*
X25467416Y44935991D01*
X25419035Y45032753D01*
X25370654Y45081134D01*
X25273892Y45129515D01*
X25080368Y45129515D01*
X24983606Y45081134D01*
X24693320Y45129515D02*
X24306273Y45129515D01*
X24548178Y45468181D02*
X24548178Y44597324D01*
X24499797Y44500562D01*
X24403035Y44452181D01*
X24306273Y44452181D01*
X23967606Y44452181D02*
X23967606Y45129515D01*
X23967606Y45468181D02*
X24015987Y45419800D01*
X23967606Y45371420D01*
X23919225Y45419800D01*
X23967606Y45468181D01*
X23967606Y45371420D01*
X23338654Y44452181D02*
X23435416Y44500562D01*
X23483797Y44548943D01*
X23532178Y44645705D01*
X23532178Y44935991D01*
X23483797Y45032753D01*
X23435416Y45081134D01*
X23338654Y45129515D01*
X23193511Y45129515D01*
X23096749Y45081134D01*
X23048368Y45032753D01*
X22999987Y44935991D01*
X22999987Y44645705D01*
X23048368Y44548943D01*
X23096749Y44500562D01*
X23193511Y44452181D01*
X23338654Y44452181D01*
X22564559Y45129515D02*
X22564559Y44452181D01*
X22564559Y45032753D02*
X22516178Y45081134D01*
X22419416Y45129515D01*
X22274273Y45129515D01*
X22177511Y45081134D01*
X22129130Y44984372D01*
X22129130Y44452181D01*
X40078463Y42775781D02*
X40417130Y43259591D01*
X40659035Y42775781D02*
X40659035Y43791781D01*
X40271987Y43791781D01*
X40175225Y43743400D01*
X40126844Y43695020D01*
X40078463Y43598258D01*
X40078463Y43453115D01*
X40126844Y43356353D01*
X40175225Y43307972D01*
X40271987Y43259591D01*
X40659035Y43259591D01*
X39159225Y43791781D02*
X39643035Y43791781D01*
X39691416Y43307972D01*
X39643035Y43356353D01*
X39546273Y43404734D01*
X39304368Y43404734D01*
X39207606Y43356353D01*
X39159225Y43307972D01*
X39110844Y43211210D01*
X39110844Y42969305D01*
X39159225Y42872543D01*
X39207606Y42824162D01*
X39304368Y42775781D01*
X39546273Y42775781D01*
X39643035Y42824162D01*
X39691416Y42872543D01*
X38675416Y42872543D02*
X38627035Y42824162D01*
X38675416Y42775781D01*
X38723797Y42824162D01*
X38675416Y42872543D01*
X38675416Y42775781D01*
X38675416Y43404734D02*
X38627035Y43356353D01*
X38675416Y43307972D01*
X38723797Y43356353D01*
X38675416Y43404734D01*
X38675416Y43307972D01*
X36933701Y42775781D02*
X37417511Y42775781D01*
X37417511Y43791781D01*
X36595035Y42775781D02*
X36595035Y43791781D01*
X36353130Y43791781D01*
X36207987Y43743400D01*
X36111225Y43646639D01*
X36062844Y43549877D01*
X36014463Y43356353D01*
X36014463Y43211210D01*
X36062844Y43017686D01*
X36111225Y42920924D01*
X36207987Y42824162D01*
X36353130Y42775781D01*
X36595035Y42775781D01*
X35385511Y43791781D02*
X35191987Y43791781D01*
X35095225Y43743400D01*
X34998463Y43646639D01*
X34950082Y43453115D01*
X34950082Y43114448D01*
X34998463Y42920924D01*
X35095225Y42824162D01*
X35191987Y42775781D01*
X35385511Y42775781D01*
X35482273Y42824162D01*
X35579035Y42920924D01*
X35627416Y43114448D01*
X35627416Y43453115D01*
X35579035Y43646639D01*
X35482273Y43743400D01*
X35385511Y43791781D01*
X33837320Y43791781D02*
X33208368Y43791781D01*
X33547035Y43404734D01*
X33401892Y43404734D01*
X33305130Y43356353D01*
X33256749Y43307972D01*
X33208368Y43211210D01*
X33208368Y42969305D01*
X33256749Y42872543D01*
X33305130Y42824162D01*
X33401892Y42775781D01*
X33692178Y42775781D01*
X33788940Y42824162D01*
X33837320Y42872543D01*
X32772940Y42872543D02*
X32724559Y42824162D01*
X32772940Y42775781D01*
X32821320Y42824162D01*
X32772940Y42872543D01*
X32772940Y42775781D01*
X32385892Y43791781D02*
X31756940Y43791781D01*
X32095606Y43404734D01*
X31950463Y43404734D01*
X31853701Y43356353D01*
X31805320Y43307972D01*
X31756940Y43211210D01*
X31756940Y42969305D01*
X31805320Y42872543D01*
X31853701Y42824162D01*
X31950463Y42775781D01*
X32240749Y42775781D01*
X32337511Y42824162D01*
X32385892Y42872543D01*
X31466654Y43791781D02*
X31127987Y42775781D01*
X30789320Y43791781D01*
X40078463Y41099381D02*
X40417130Y41583191D01*
X40659035Y41099381D02*
X40659035Y42115381D01*
X40271987Y42115381D01*
X40175225Y42067000D01*
X40126844Y42018620D01*
X40078463Y41921858D01*
X40078463Y41776715D01*
X40126844Y41679953D01*
X40175225Y41631572D01*
X40271987Y41583191D01*
X40659035Y41583191D01*
X39110844Y41099381D02*
X39691416Y41099381D01*
X39401130Y41099381D02*
X39401130Y42115381D01*
X39497892Y41970239D01*
X39594654Y41873477D01*
X39691416Y41825096D01*
X38481892Y42115381D02*
X38385130Y42115381D01*
X38288368Y42067000D01*
X38239987Y42018620D01*
X38191606Y41921858D01*
X38143225Y41728334D01*
X38143225Y41486429D01*
X38191606Y41292905D01*
X38239987Y41196143D01*
X38288368Y41147762D01*
X38385130Y41099381D01*
X38481892Y41099381D01*
X38578654Y41147762D01*
X38627035Y41196143D01*
X38675416Y41292905D01*
X38723797Y41486429D01*
X38723797Y41728334D01*
X38675416Y41921858D01*
X38627035Y42018620D01*
X38578654Y42067000D01*
X38481892Y42115381D01*
X37707797Y41196143D02*
X37659416Y41147762D01*
X37707797Y41099381D01*
X37756178Y41147762D01*
X37707797Y41196143D01*
X37707797Y41099381D01*
X37707797Y41728334D02*
X37659416Y41679953D01*
X37707797Y41631572D01*
X37756178Y41679953D01*
X37707797Y41728334D01*
X37707797Y41631572D01*
X35869320Y41099381D02*
X36207987Y41583191D01*
X36449892Y41099381D02*
X36449892Y42115381D01*
X36062844Y42115381D01*
X35966082Y42067000D01*
X35917701Y42018620D01*
X35869320Y41921858D01*
X35869320Y41776715D01*
X35917701Y41679953D01*
X35966082Y41631572D01*
X36062844Y41583191D01*
X36449892Y41583191D01*
X35433892Y41631572D02*
X35095225Y41631572D01*
X34950082Y41099381D02*
X35433892Y41099381D01*
X35433892Y42115381D01*
X34950082Y42115381D01*
X34175987Y41631572D02*
X34514654Y41631572D01*
X34514654Y41099381D02*
X34514654Y42115381D01*
X34030844Y42115381D01*
X33111606Y41099381D02*
X33692178Y41099381D01*
X33401892Y41099381D02*
X33401892Y42115381D01*
X33498654Y41970239D01*
X33595416Y41873477D01*
X33692178Y41825096D01*
X32627797Y41099381D02*
X32434273Y41099381D01*
X32337511Y41147762D01*
X32289130Y41196143D01*
X32192368Y41341286D01*
X32143987Y41534810D01*
X32143987Y41921858D01*
X32192368Y42018620D01*
X32240749Y42067000D01*
X32337511Y42115381D01*
X32531035Y42115381D01*
X32627797Y42067000D01*
X32676178Y42018620D01*
X32724559Y41921858D01*
X32724559Y41679953D01*
X32676178Y41583191D01*
X32627797Y41534810D01*
X32531035Y41486429D01*
X32337511Y41486429D01*
X32240749Y41534810D01*
X32192368Y41583191D01*
X32143987Y41679953D01*
X31805320Y41099381D02*
X31273130Y41776715D01*
X31805320Y41776715D02*
X31273130Y41099381D01*
X30982844Y41099381D02*
X30450654Y41776715D01*
X30982844Y41776715D02*
X30450654Y41099381D01*
X12000000Y56250000D02*
X12500000Y55750000D01*
X13000000Y56750000D02*
X12000000Y56250000D01*
X12500000Y57250000D02*
X13000000Y56750000D01*
X27465511Y1330762D02*
X27211511Y3362762D01*
X26788178Y3362762D01*
X26546273Y3266000D01*
X26401130Y3072477D01*
X26340654Y2878953D01*
X26304368Y2491905D01*
X26340654Y2201620D01*
X26473701Y1814572D01*
X26582559Y1621048D01*
X26776082Y1427524D01*
X27042178Y1330762D01*
X27465511Y1330762D01*
X24925511Y1330762D02*
X24792463Y2395143D01*
X24852940Y2588667D01*
X25010178Y2685429D01*
X25348844Y2685429D01*
X25530273Y2588667D01*
X24913416Y1427524D02*
X25094844Y1330762D01*
X25518178Y1330762D01*
X25675416Y1427524D01*
X25735892Y1621048D01*
X25711701Y1814572D01*
X25602844Y2008096D01*
X25421416Y2104858D01*
X24998082Y2104858D01*
X24816654Y2201620D01*
X23909511Y2685429D02*
X24078844Y1330762D01*
X23933701Y2491905D02*
X23836940Y2588667D01*
X23655511Y2685429D01*
X23401511Y2685429D01*
X23244273Y2588667D01*
X23183797Y2395143D01*
X23316844Y1330762D01*
X22470178Y1330762D02*
X22300844Y2685429D01*
X22216178Y3362762D02*
X22312940Y3266000D01*
X22240368Y3169239D01*
X22143606Y3266000D01*
X22216178Y3362762D01*
X22240368Y3169239D01*
X20934082Y1427524D02*
X21115511Y1330762D01*
X21454178Y1330762D01*
X21611416Y1427524D01*
X21671892Y1621048D01*
X21575130Y2395143D01*
X21466273Y2588667D01*
X21284844Y2685429D01*
X20946178Y2685429D01*
X20788940Y2588667D01*
X20728463Y2395143D01*
X20752654Y2201620D01*
X21623511Y2008096D01*
X19845511Y1330762D02*
X20002749Y1427524D01*
X20063225Y1621048D01*
X19845511Y3362762D01*
X16374178Y1330762D02*
X16458844Y1330762D01*
X16616082Y1427524D01*
X16833797Y1717810D01*
X17184559Y2298381D01*
X17317606Y2588667D01*
X17365987Y2878953D01*
X17341797Y3072477D01*
X17232940Y3266000D01*
X17051511Y3362762D01*
X16966844Y3362762D01*
X16809606Y3266000D01*
X16749130Y3072477D01*
X16761225Y2975715D01*
X16870082Y2782191D01*
X16966844Y2685429D01*
X17523225Y2298381D01*
X17619987Y2201620D01*
X17728844Y2008096D01*
X17765130Y1717810D01*
X17704654Y1524286D01*
X17632082Y1427524D01*
X17474844Y1330762D01*
X17220844Y1330762D01*
X17039416Y1427524D01*
X16942654Y1524286D01*
X16640273Y1911334D01*
X16519320Y2201620D01*
X16495130Y2395143D01*
D11*
%TO.C,G\u002A\u002A\u002A*%
G36*
X11366261Y1757080D02*
G01*
X11343066Y1745306D01*
X11314789Y1727290D01*
X11288596Y1708012D01*
X11271653Y1692449D01*
X11269998Y1690210D01*
X11262329Y1661138D01*
X11269874Y1629612D01*
X11282320Y1612080D01*
X11305896Y1596844D01*
X11336123Y1594447D01*
X11377449Y1604666D01*
X11383920Y1606927D01*
X11419051Y1627476D01*
X11441998Y1656964D01*
X11449886Y1690440D01*
X11445303Y1712660D01*
X11426179Y1739662D01*
X11399062Y1756257D01*
X11370942Y1758519D01*
X11366261Y1757080D01*
G37*
X11366261Y1757080D02*
X11343066Y1745306D01*
X11314789Y1727290D01*
X11288596Y1708012D01*
X11271653Y1692449D01*
X11269998Y1690210D01*
X11262329Y1661138D01*
X11269874Y1629612D01*
X11282320Y1612080D01*
X11305896Y1596844D01*
X11336123Y1594447D01*
X11377449Y1604666D01*
X11383920Y1606927D01*
X11419051Y1627476D01*
X11441998Y1656964D01*
X11449886Y1690440D01*
X11445303Y1712660D01*
X11426179Y1739662D01*
X11399062Y1756257D01*
X11370942Y1758519D01*
X11366261Y1757080D01*
G36*
X6567090Y1683835D02*
G01*
X6538419Y1661158D01*
X6527856Y1646063D01*
X6511102Y1610796D01*
X6509041Y1582812D01*
X6521332Y1555718D01*
X6522937Y1553381D01*
X6547241Y1534715D01*
X6580545Y1532670D01*
X6620082Y1547300D01*
X6627075Y1551358D01*
X6648633Y1566834D01*
X6657420Y1583395D01*
X6657823Y1610029D01*
X6657555Y1613805D01*
X6647183Y1653281D01*
X6625778Y1678825D01*
X6597645Y1689367D01*
X6567090Y1683835D01*
G37*
X6567090Y1683835D02*
X6538419Y1661158D01*
X6527856Y1646063D01*
X6511102Y1610796D01*
X6509041Y1582812D01*
X6521332Y1555718D01*
X6522937Y1553381D01*
X6547241Y1534715D01*
X6580545Y1532670D01*
X6620082Y1547300D01*
X6627075Y1551358D01*
X6648633Y1566834D01*
X6657420Y1583395D01*
X6657823Y1610029D01*
X6657555Y1613805D01*
X6647183Y1653281D01*
X6625778Y1678825D01*
X6597645Y1689367D01*
X6567090Y1683835D01*
G36*
X7170694Y4059838D02*
G01*
X7093379Y4057579D01*
X7025953Y4053465D01*
X6972724Y4047537D01*
X6956272Y4044645D01*
X6875978Y4021543D01*
X6813366Y3989411D01*
X6768541Y3949417D01*
X6741608Y3902728D01*
X6732673Y3850511D01*
X6741839Y3793933D01*
X6769213Y3734162D01*
X6814900Y3672363D01*
X6879005Y3609706D01*
X6914503Y3581071D01*
X6938303Y3563881D01*
X6977119Y3537040D01*
X7028900Y3501919D01*
X7091591Y3459887D01*
X7163139Y3412317D01*
X7241490Y3360579D01*
X7324591Y3306044D01*
X7406280Y3252755D01*
X7599710Y3125930D01*
X7776741Y3007617D01*
X7938856Y2896681D01*
X8087540Y2791985D01*
X8224276Y2692393D01*
X8350548Y2596768D01*
X8467840Y2503976D01*
X8577636Y2412878D01*
X8681419Y2322339D01*
X8780673Y2231223D01*
X8876883Y2138394D01*
X8927132Y2088126D01*
X9015190Y1995320D01*
X9092221Y1906634D01*
X9157335Y1823374D01*
X9209640Y1746847D01*
X9248245Y1678359D01*
X9272260Y1619218D01*
X9280793Y1570729D01*
X9280800Y1569442D01*
X9279895Y1539298D01*
X9273941Y1521953D01*
X9258077Y1509966D01*
X9234954Y1499218D01*
X9201964Y1486013D01*
X9166963Y1475235D01*
X9127715Y1466707D01*
X9081985Y1460250D01*
X9027537Y1455688D01*
X8962133Y1452840D01*
X8883538Y1451531D01*
X8789517Y1451582D01*
X8677832Y1452814D01*
X8655960Y1453143D01*
X8570226Y1454767D01*
X8488668Y1456861D01*
X8414093Y1459312D01*
X8349305Y1462007D01*
X8297113Y1464833D01*
X8260320Y1467676D01*
X8244480Y1469760D01*
X8213581Y1473763D01*
X8165186Y1477333D01*
X8102113Y1480435D01*
X8027184Y1483035D01*
X7943217Y1485101D01*
X7853032Y1486598D01*
X7759450Y1487493D01*
X7665288Y1487753D01*
X7573368Y1487344D01*
X7486508Y1486232D01*
X7407529Y1484384D01*
X7339250Y1481767D01*
X7319994Y1480754D01*
X7248457Y1476472D01*
X7194275Y1472604D01*
X7154500Y1468745D01*
X7126185Y1464491D01*
X7106381Y1459434D01*
X7092141Y1453171D01*
X7084678Y1448408D01*
X7065051Y1429607D01*
X7055856Y1411297D01*
X7055760Y1409763D01*
X7059231Y1392366D01*
X7071177Y1377624D01*
X7093900Y1364560D01*
X7129702Y1352194D01*
X7180883Y1339550D01*
X7249746Y1325648D01*
X7256779Y1324322D01*
X7304593Y1315555D01*
X7346200Y1308627D01*
X7385090Y1303284D01*
X7424753Y1299268D01*
X7468679Y1296326D01*
X7520357Y1294200D01*
X7583277Y1292636D01*
X7660929Y1291377D01*
X7716160Y1290661D01*
X7918917Y1288226D01*
X8102018Y1286179D01*
X8266124Y1284517D01*
X8411897Y1283238D01*
X8539995Y1282339D01*
X8651082Y1281819D01*
X8745816Y1281675D01*
X8824860Y1281905D01*
X8888873Y1282506D01*
X8938517Y1283478D01*
X8974452Y1284817D01*
X8996320Y1286408D01*
X9070142Y1295932D01*
X9142968Y1308185D01*
X9209884Y1322151D01*
X9265976Y1336813D01*
X9303932Y1350099D01*
X9356386Y1381359D01*
X9400979Y1424553D01*
X9435048Y1475421D01*
X9455930Y1529704D01*
X9460962Y1583144D01*
X9459027Y1598138D01*
X9435996Y1676900D01*
X9395270Y1763663D01*
X9337476Y1857637D01*
X9263240Y1958031D01*
X9173188Y2064056D01*
X9067945Y2174922D01*
X8948138Y2289839D01*
X8823600Y2400162D01*
X8778886Y2438195D01*
X8738090Y2472348D01*
X8698780Y2504490D01*
X8658525Y2536491D01*
X8614893Y2570220D01*
X8565455Y2607547D01*
X8507777Y2650342D01*
X8439429Y2700475D01*
X8357981Y2759815D01*
X8320680Y2786916D01*
X8228872Y2853451D01*
X8148116Y2911599D01*
X8075373Y2963431D01*
X8007605Y3011017D01*
X7941773Y3056429D01*
X7874838Y3101735D01*
X7803761Y3149009D01*
X7725504Y3200319D01*
X7637027Y3257737D01*
X7535292Y3323333D01*
X7502800Y3344229D01*
X7390918Y3416188D01*
X7294785Y3478150D01*
X7213043Y3531084D01*
X7144334Y3575958D01*
X7087299Y3613740D01*
X7040579Y3645397D01*
X7002815Y3671897D01*
X6972650Y3694208D01*
X6948724Y3713298D01*
X6929679Y3730134D01*
X6914156Y3745686D01*
X6900797Y3760919D01*
X6888243Y3776803D01*
X6879802Y3788026D01*
X6859025Y3826231D01*
X6857491Y3859466D01*
X6875338Y3887892D01*
X6912705Y3911671D01*
X6969730Y3930964D01*
X7010113Y3939833D01*
X7044956Y3943790D01*
X7097537Y3946214D01*
X7165335Y3947169D01*
X7245833Y3946717D01*
X7336510Y3944922D01*
X7434846Y3941847D01*
X7538323Y3937556D01*
X7644420Y3932112D01*
X7750619Y3925578D01*
X7843160Y3918899D01*
X7922022Y3913124D01*
X8001175Y3907966D01*
X8076196Y3903665D01*
X8142662Y3900463D01*
X8196148Y3898602D01*
X8221620Y3898226D01*
X8267078Y3897461D01*
X8303965Y3895492D01*
X8328229Y3892629D01*
X8335920Y3889551D01*
X8345016Y3875530D01*
X8368978Y3866841D01*
X8402825Y3864477D01*
X8439345Y3868941D01*
X8486384Y3884919D01*
X8519038Y3908147D01*
X8535914Y3936161D01*
X8535618Y3966497D01*
X8516757Y3996691D01*
X8513414Y3999969D01*
X8487707Y4024119D01*
X8043514Y4031728D01*
X7945734Y4033598D01*
X7850339Y4035791D01*
X7760098Y4038215D01*
X7677781Y4040783D01*
X7606157Y4043404D01*
X7547997Y4045989D01*
X7506070Y4048448D01*
X7492640Y4049546D01*
X7418871Y4055097D01*
X7337750Y4058637D01*
X7253588Y4060204D01*
X7170694Y4059838D01*
G37*
X7170694Y4059838D02*
X7093379Y4057579D01*
X7025953Y4053465D01*
X6972724Y4047537D01*
X6956272Y4044645D01*
X6875978Y4021543D01*
X6813366Y3989411D01*
X6768541Y3949417D01*
X6741608Y3902728D01*
X6732673Y3850511D01*
X6741839Y3793933D01*
X6769213Y3734162D01*
X6814900Y3672363D01*
X6879005Y3609706D01*
X6914503Y3581071D01*
X6938303Y3563881D01*
X6977119Y3537040D01*
X7028900Y3501919D01*
X7091591Y3459887D01*
X7163139Y3412317D01*
X7241490Y3360579D01*
X7324591Y3306044D01*
X7406280Y3252755D01*
X7599710Y3125930D01*
X7776741Y3007617D01*
X7938856Y2896681D01*
X8087540Y2791985D01*
X8224276Y2692393D01*
X8350548Y2596768D01*
X8467840Y2503976D01*
X8577636Y2412878D01*
X8681419Y2322339D01*
X8780673Y2231223D01*
X8876883Y2138394D01*
X8927132Y2088126D01*
X9015190Y1995320D01*
X9092221Y1906634D01*
X9157335Y1823374D01*
X9209640Y1746847D01*
X9248245Y1678359D01*
X9272260Y1619218D01*
X9280793Y1570729D01*
X9280800Y1569442D01*
X9279895Y1539298D01*
X9273941Y1521953D01*
X9258077Y1509966D01*
X9234954Y1499218D01*
X9201964Y1486013D01*
X9166963Y1475235D01*
X9127715Y1466707D01*
X9081985Y1460250D01*
X9027537Y1455688D01*
X8962133Y1452840D01*
X8883538Y1451531D01*
X8789517Y1451582D01*
X8677832Y1452814D01*
X8655960Y1453143D01*
X8570226Y1454767D01*
X8488668Y1456861D01*
X8414093Y1459312D01*
X8349305Y1462007D01*
X8297113Y1464833D01*
X8260320Y1467676D01*
X8244480Y1469760D01*
X8213581Y1473763D01*
X8165186Y1477333D01*
X8102113Y1480435D01*
X8027184Y1483035D01*
X7943217Y1485101D01*
X7853032Y1486598D01*
X7759450Y1487493D01*
X7665288Y1487753D01*
X7573368Y1487344D01*
X7486508Y1486232D01*
X7407529Y1484384D01*
X7339250Y1481767D01*
X7319994Y1480754D01*
X7248457Y1476472D01*
X7194275Y1472604D01*
X7154500Y1468745D01*
X7126185Y1464491D01*
X7106381Y1459434D01*
X7092141Y1453171D01*
X7084678Y1448408D01*
X7065051Y1429607D01*
X7055856Y1411297D01*
X7055760Y1409763D01*
X7059231Y1392366D01*
X7071177Y1377624D01*
X7093900Y1364560D01*
X7129702Y1352194D01*
X7180883Y1339550D01*
X7249746Y1325648D01*
X7256779Y1324322D01*
X7304593Y1315555D01*
X7346200Y1308627D01*
X7385090Y1303284D01*
X7424753Y1299268D01*
X7468679Y1296326D01*
X7520357Y1294200D01*
X7583277Y1292636D01*
X7660929Y1291377D01*
X7716160Y1290661D01*
X7918917Y1288226D01*
X8102018Y1286179D01*
X8266124Y1284517D01*
X8411897Y1283238D01*
X8539995Y1282339D01*
X8651082Y1281819D01*
X8745816Y1281675D01*
X8824860Y1281905D01*
X8888873Y1282506D01*
X8938517Y1283478D01*
X8974452Y1284817D01*
X8996320Y1286408D01*
X9070142Y1295932D01*
X9142968Y1308185D01*
X9209884Y1322151D01*
X9265976Y1336813D01*
X9303932Y1350099D01*
X9356386Y1381359D01*
X9400979Y1424553D01*
X9435048Y1475421D01*
X9455930Y1529704D01*
X9460962Y1583144D01*
X9459027Y1598138D01*
X9435996Y1676900D01*
X9395270Y1763663D01*
X9337476Y1857637D01*
X9263240Y1958031D01*
X9173188Y2064056D01*
X9067945Y2174922D01*
X8948138Y2289839D01*
X8823600Y2400162D01*
X8778886Y2438195D01*
X8738090Y2472348D01*
X8698780Y2504490D01*
X8658525Y2536491D01*
X8614893Y2570220D01*
X8565455Y2607547D01*
X8507777Y2650342D01*
X8439429Y2700475D01*
X8357981Y2759815D01*
X8320680Y2786916D01*
X8228872Y2853451D01*
X8148116Y2911599D01*
X8075373Y2963431D01*
X8007605Y3011017D01*
X7941773Y3056429D01*
X7874838Y3101735D01*
X7803761Y3149009D01*
X7725504Y3200319D01*
X7637027Y3257737D01*
X7535292Y3323333D01*
X7502800Y3344229D01*
X7390918Y3416188D01*
X7294785Y3478150D01*
X7213043Y3531084D01*
X7144334Y3575958D01*
X7087299Y3613740D01*
X7040579Y3645397D01*
X7002815Y3671897D01*
X6972650Y3694208D01*
X6948724Y3713298D01*
X6929679Y3730134D01*
X6914156Y3745686D01*
X6900797Y3760919D01*
X6888243Y3776803D01*
X6879802Y3788026D01*
X6859025Y3826231D01*
X6857491Y3859466D01*
X6875338Y3887892D01*
X6912705Y3911671D01*
X6969730Y3930964D01*
X7010113Y3939833D01*
X7044956Y3943790D01*
X7097537Y3946214D01*
X7165335Y3947169D01*
X7245833Y3946717D01*
X7336510Y3944922D01*
X7434846Y3941847D01*
X7538323Y3937556D01*
X7644420Y3932112D01*
X7750619Y3925578D01*
X7843160Y3918899D01*
X7922022Y3913124D01*
X8001175Y3907966D01*
X8076196Y3903665D01*
X8142662Y3900463D01*
X8196148Y3898602D01*
X8221620Y3898226D01*
X8267078Y3897461D01*
X8303965Y3895492D01*
X8328229Y3892629D01*
X8335920Y3889551D01*
X8345016Y3875530D01*
X8368978Y3866841D01*
X8402825Y3864477D01*
X8439345Y3868941D01*
X8486384Y3884919D01*
X8519038Y3908147D01*
X8535914Y3936161D01*
X8535618Y3966497D01*
X8516757Y3996691D01*
X8513414Y3999969D01*
X8487707Y4024119D01*
X8043514Y4031728D01*
X7945734Y4033598D01*
X7850339Y4035791D01*
X7760098Y4038215D01*
X7677781Y4040783D01*
X7606157Y4043404D01*
X7547997Y4045989D01*
X7506070Y4048448D01*
X7492640Y4049546D01*
X7418871Y4055097D01*
X7337750Y4058637D01*
X7253588Y4060204D01*
X7170694Y4059838D01*
G36*
X12385678Y4532866D02*
G01*
X12288792Y4511895D01*
X12200997Y4472969D01*
X12122585Y4416338D01*
X12053847Y4342250D01*
X11995078Y4250957D01*
X11946568Y4142706D01*
X11915354Y4044098D01*
X11904725Y4001940D01*
X11897255Y3964584D01*
X11892379Y3926658D01*
X11889534Y3882789D01*
X11888157Y3827605D01*
X11887773Y3781240D01*
X11889301Y3688146D01*
X11895632Y3609450D01*
X11907961Y3539554D01*
X11927481Y3472861D01*
X11955387Y3403773D01*
X11978791Y3354520D01*
X12030622Y3263344D01*
X12098040Y3165673D01*
X12178555Y3064291D01*
X12269676Y2961980D01*
X12368911Y2861524D01*
X12473770Y2765705D01*
X12581761Y2677306D01*
X12592034Y2669440D01*
X12688403Y2599235D01*
X12790337Y2530659D01*
X12894662Y2465508D01*
X12998205Y2405576D01*
X13097791Y2352659D01*
X13190247Y2308554D01*
X13272400Y2275056D01*
X13312923Y2261539D01*
X13338533Y2252541D01*
X13353427Y2244744D01*
X13354960Y2242585D01*
X13348186Y2232982D01*
X13330226Y2213235D01*
X13304628Y2187198D01*
X13298000Y2180693D01*
X13276115Y2158564D01*
X13242932Y2123972D01*
X13200847Y2079468D01*
X13152258Y2027599D01*
X13099563Y1970916D01*
X13045158Y1911968D01*
X13040335Y1906720D01*
X12962486Y1822342D01*
X12896272Y1751575D01*
X12839864Y1692812D01*
X12791436Y1644442D01*
X12749162Y1604857D01*
X12711214Y1572447D01*
X12675765Y1545602D01*
X12640989Y1522712D01*
X12605058Y1502170D01*
X12566146Y1482364D01*
X12549634Y1474429D01*
X12489824Y1449905D01*
X12417531Y1426170D01*
X12340548Y1405360D01*
X12266667Y1389610D01*
X12211369Y1381722D01*
X12139232Y1383567D01*
X12062018Y1401182D01*
X11990708Y1430635D01*
X11952734Y1443978D01*
X11925066Y1440224D01*
X11908164Y1419479D01*
X11905587Y1411307D01*
X11904067Y1392830D01*
X11912336Y1375901D01*
X11933633Y1354519D01*
X11938583Y1350183D01*
X12009779Y1299079D01*
X12092732Y1257041D01*
X12181324Y1226354D01*
X12269437Y1209304D01*
X12322806Y1206605D01*
X12365212Y1209908D01*
X12415698Y1217641D01*
X12460880Y1227537D01*
X12526698Y1248826D01*
X12602124Y1279750D01*
X12680856Y1317302D01*
X12756594Y1358477D01*
X12823037Y1400265D01*
X12823525Y1400602D01*
X12884449Y1446664D01*
X12948900Y1503593D01*
X13018361Y1572903D01*
X13094315Y1656108D01*
X13178243Y1754723D01*
X13219509Y1805151D01*
X13268430Y1865041D01*
X13319992Y1927252D01*
X13370480Y1987368D01*
X13416183Y2040971D01*
X13453388Y2083644D01*
X13457191Y2087917D01*
X13494878Y2129774D01*
X13522056Y2158525D01*
X13541547Y2176399D01*
X13556171Y2185629D01*
X13568749Y2188444D01*
X13582101Y2187076D01*
X13582483Y2187005D01*
X13675333Y2173109D01*
X13775265Y2164052D01*
X13860741Y2161034D01*
X13960380Y2168462D01*
X14047546Y2191560D01*
X14109188Y2221699D01*
X14132271Y2234794D01*
X14147511Y2241664D01*
X14149137Y2241963D01*
X14154839Y2232799D01*
X14165194Y2207525D01*
X14179094Y2169517D01*
X14195432Y2122149D01*
X14213099Y2068799D01*
X14230988Y2012840D01*
X14247988Y1957650D01*
X14262994Y1906604D01*
X14274896Y1863077D01*
X14279202Y1845760D01*
X14299003Y1738649D01*
X14306976Y1636624D01*
X14302911Y1544052D01*
X14295805Y1500320D01*
X14281825Y1445577D01*
X14265672Y1407944D01*
X14244994Y1384212D01*
X14217436Y1371173D01*
X14198258Y1367363D01*
X14159193Y1355144D01*
X14134947Y1333387D01*
X14126979Y1305582D01*
X14136747Y1275220D01*
X14152093Y1256882D01*
X14173051Y1241651D01*
X14196968Y1236857D01*
X14221081Y1238383D01*
X14283023Y1253731D01*
X14334018Y1284815D01*
X14374275Y1332015D01*
X14404005Y1395710D01*
X14423417Y1476278D01*
X14432722Y1574099D01*
X14433669Y1622240D01*
X14430900Y1702548D01*
X14422145Y1785589D01*
X14406789Y1874250D01*
X14384215Y1971417D01*
X14353808Y2079974D01*
X14314952Y2202809D01*
X14300626Y2245625D01*
X14283540Y2297194D01*
X14272616Y2334051D01*
X14267047Y2360572D01*
X14266027Y2381133D01*
X14268752Y2400111D01*
X14270312Y2406594D01*
X14085746Y2406594D01*
X14067901Y2380583D01*
X14033535Y2357454D01*
X13984545Y2338813D01*
X13967431Y2334371D01*
X13929234Y2328765D01*
X13880074Y2326029D01*
X13828765Y2326246D01*
X13784120Y2329502D01*
X13766440Y2332429D01*
X13735960Y2339174D01*
X13781680Y2366223D01*
X13865126Y2410195D01*
X13940658Y2438248D01*
X14007556Y2451178D01*
X14043992Y2454443D01*
X14065356Y2454193D01*
X14076759Y2449292D01*
X14083308Y2438601D01*
X14085171Y2433885D01*
X14085746Y2406594D01*
X14270312Y2406594D01*
X14270696Y2408185D01*
X14275003Y2461135D01*
X14260297Y2508527D01*
X14227525Y2547823D01*
X14215308Y2556982D01*
X14199323Y2569362D01*
X14185036Y2584979D01*
X14180085Y2592520D01*
X14024846Y2592520D01*
X13971559Y2586480D01*
X13901332Y2572722D01*
X13821825Y2547478D01*
X13738618Y2513121D01*
X13657292Y2472021D01*
X13583429Y2426551D01*
X13565752Y2414026D01*
X13536512Y2393789D01*
X13512829Y2379516D01*
X13500724Y2374533D01*
X13486714Y2377524D01*
X13458177Y2385958D01*
X13419715Y2398419D01*
X13388964Y2408914D01*
X13284774Y2448320D01*
X13182878Y2493639D01*
X13079344Y2546920D01*
X12970240Y2610216D01*
X12851632Y2685575D01*
X12826668Y2702112D01*
X12655130Y2826019D01*
X12496198Y2960298D01*
X12352027Y3102906D01*
X12224771Y3251804D01*
X12173347Y3320670D01*
X12109072Y3427640D01*
X12063730Y3541403D01*
X12037425Y3661115D01*
X12030261Y3785928D01*
X12042342Y3914996D01*
X12073771Y4047474D01*
X12081217Y4070791D01*
X12109685Y4148095D01*
X12139559Y4209924D01*
X12173685Y4261073D01*
X12214908Y4306336D01*
X12228578Y4319030D01*
X12292079Y4362781D01*
X12365607Y4389505D01*
X12448088Y4399190D01*
X12538445Y4391826D01*
X12635603Y4367404D01*
X12738486Y4325912D01*
X12742682Y4323909D01*
X12837972Y4270416D01*
X12938655Y4199495D01*
X13043164Y4112811D01*
X13149933Y4012025D01*
X13257395Y3898802D01*
X13363984Y3774804D01*
X13468132Y3641695D01*
X13568274Y3501139D01*
X13662841Y3354798D01*
X13676324Y3332659D01*
X13731386Y3236075D01*
X13789872Y3122833D01*
X13852191Y2992083D01*
X13918756Y2842971D01*
X13960660Y2744920D01*
X14024846Y2592520D01*
X14180085Y2592520D01*
X14170515Y2607093D01*
X14153829Y2638968D01*
X14133048Y2683865D01*
X14112448Y2730723D01*
X14068834Y2828930D01*
X14022109Y2930251D01*
X13974023Y3031140D01*
X13926327Y3128048D01*
X13880773Y3217429D01*
X13839110Y3295737D01*
X13803091Y3359423D01*
X13797383Y3368992D01*
X13733226Y3470421D01*
X13656503Y3582921D01*
X13569315Y3703498D01*
X13483360Y3816800D01*
X13445469Y3863077D01*
X13397258Y3917957D01*
X13341552Y3978575D01*
X13281174Y4042065D01*
X13218949Y4105561D01*
X13157699Y4166197D01*
X13100250Y4221106D01*
X13049425Y4267422D01*
X13008047Y4302280D01*
X12995914Y4311541D01*
X12873215Y4394522D01*
X12757370Y4458502D01*
X12648425Y4503462D01*
X12546423Y4529382D01*
X12491360Y4535632D01*
X12385678Y4532866D01*
G37*
X12385678Y4532866D02*
X12288792Y4511895D01*
X12200997Y4472969D01*
X12122585Y4416338D01*
X12053847Y4342250D01*
X11995078Y4250957D01*
X11946568Y4142706D01*
X11915354Y4044098D01*
X11904725Y4001940D01*
X11897255Y3964584D01*
X11892379Y3926658D01*
X11889534Y3882789D01*
X11888157Y3827605D01*
X11887773Y3781240D01*
X11889301Y3688146D01*
X11895632Y3609450D01*
X11907961Y3539554D01*
X11927481Y3472861D01*
X11955387Y3403773D01*
X11978791Y3354520D01*
X12030622Y3263344D01*
X12098040Y3165673D01*
X12178555Y3064291D01*
X12269676Y2961980D01*
X12368911Y2861524D01*
X12473770Y2765705D01*
X12581761Y2677306D01*
X12592034Y2669440D01*
X12688403Y2599235D01*
X12790337Y2530659D01*
X12894662Y2465508D01*
X12998205Y2405576D01*
X13097791Y2352659D01*
X13190247Y2308554D01*
X13272400Y2275056D01*
X13312923Y2261539D01*
X13338533Y2252541D01*
X13353427Y2244744D01*
X13354960Y2242585D01*
X13348186Y2232982D01*
X13330226Y2213235D01*
X13304628Y2187198D01*
X13298000Y2180693D01*
X13276115Y2158564D01*
X13242932Y2123972D01*
X13200847Y2079468D01*
X13152258Y2027599D01*
X13099563Y1970916D01*
X13045158Y1911968D01*
X13040335Y1906720D01*
X12962486Y1822342D01*
X12896272Y1751575D01*
X12839864Y1692812D01*
X12791436Y1644442D01*
X12749162Y1604857D01*
X12711214Y1572447D01*
X12675765Y1545602D01*
X12640989Y1522712D01*
X12605058Y1502170D01*
X12566146Y1482364D01*
X12549634Y1474429D01*
X12489824Y1449905D01*
X12417531Y1426170D01*
X12340548Y1405360D01*
X12266667Y1389610D01*
X12211369Y1381722D01*
X12139232Y1383567D01*
X12062018Y1401182D01*
X11990708Y1430635D01*
X11952734Y1443978D01*
X11925066Y1440224D01*
X11908164Y1419479D01*
X11905587Y1411307D01*
X11904067Y1392830D01*
X11912336Y1375901D01*
X11933633Y1354519D01*
X11938583Y1350183D01*
X12009779Y1299079D01*
X12092732Y1257041D01*
X12181324Y1226354D01*
X12269437Y1209304D01*
X12322806Y1206605D01*
X12365212Y1209908D01*
X12415698Y1217641D01*
X12460880Y1227537D01*
X12526698Y1248826D01*
X12602124Y1279750D01*
X12680856Y1317302D01*
X12756594Y1358477D01*
X12823037Y1400265D01*
X12823525Y1400602D01*
X12884449Y1446664D01*
X12948900Y1503593D01*
X13018361Y1572903D01*
X13094315Y1656108D01*
X13178243Y1754723D01*
X13219509Y1805151D01*
X13268430Y1865041D01*
X13319992Y1927252D01*
X13370480Y1987368D01*
X13416183Y2040971D01*
X13453388Y2083644D01*
X13457191Y2087917D01*
X13494878Y2129774D01*
X13522056Y2158525D01*
X13541547Y2176399D01*
X13556171Y2185629D01*
X13568749Y2188444D01*
X13582101Y2187076D01*
X13582483Y2187005D01*
X13675333Y2173109D01*
X13775265Y2164052D01*
X13860741Y2161034D01*
X13960380Y2168462D01*
X14047546Y2191560D01*
X14109188Y2221699D01*
X14132271Y2234794D01*
X14147511Y2241664D01*
X14149137Y2241963D01*
X14154839Y2232799D01*
X14165194Y2207525D01*
X14179094Y2169517D01*
X14195432Y2122149D01*
X14213099Y2068799D01*
X14230988Y2012840D01*
X14247988Y1957650D01*
X14262994Y1906604D01*
X14274896Y1863077D01*
X14279202Y1845760D01*
X14299003Y1738649D01*
X14306976Y1636624D01*
X14302911Y1544052D01*
X14295805Y1500320D01*
X14281825Y1445577D01*
X14265672Y1407944D01*
X14244994Y1384212D01*
X14217436Y1371173D01*
X14198258Y1367363D01*
X14159193Y1355144D01*
X14134947Y1333387D01*
X14126979Y1305582D01*
X14136747Y1275220D01*
X14152093Y1256882D01*
X14173051Y1241651D01*
X14196968Y1236857D01*
X14221081Y1238383D01*
X14283023Y1253731D01*
X14334018Y1284815D01*
X14374275Y1332015D01*
X14404005Y1395710D01*
X14423417Y1476278D01*
X14432722Y1574099D01*
X14433669Y1622240D01*
X14430900Y1702548D01*
X14422145Y1785589D01*
X14406789Y1874250D01*
X14384215Y1971417D01*
X14353808Y2079974D01*
X14314952Y2202809D01*
X14300626Y2245625D01*
X14283540Y2297194D01*
X14272616Y2334051D01*
X14267047Y2360572D01*
X14266027Y2381133D01*
X14268752Y2400111D01*
X14270312Y2406594D01*
X14085746Y2406594D01*
X14067901Y2380583D01*
X14033535Y2357454D01*
X13984545Y2338813D01*
X13967431Y2334371D01*
X13929234Y2328765D01*
X13880074Y2326029D01*
X13828765Y2326246D01*
X13784120Y2329502D01*
X13766440Y2332429D01*
X13735960Y2339174D01*
X13781680Y2366223D01*
X13865126Y2410195D01*
X13940658Y2438248D01*
X14007556Y2451178D01*
X14043992Y2454443D01*
X14065356Y2454193D01*
X14076759Y2449292D01*
X14083308Y2438601D01*
X14085171Y2433885D01*
X14085746Y2406594D01*
X14270312Y2406594D01*
X14270696Y2408185D01*
X14275003Y2461135D01*
X14260297Y2508527D01*
X14227525Y2547823D01*
X14215308Y2556982D01*
X14199323Y2569362D01*
X14185036Y2584979D01*
X14180085Y2592520D01*
X14024846Y2592520D01*
X13971559Y2586480D01*
X13901332Y2572722D01*
X13821825Y2547478D01*
X13738618Y2513121D01*
X13657292Y2472021D01*
X13583429Y2426551D01*
X13565752Y2414026D01*
X13536512Y2393789D01*
X13512829Y2379516D01*
X13500724Y2374533D01*
X13486714Y2377524D01*
X13458177Y2385958D01*
X13419715Y2398419D01*
X13388964Y2408914D01*
X13284774Y2448320D01*
X13182878Y2493639D01*
X13079344Y2546920D01*
X12970240Y2610216D01*
X12851632Y2685575D01*
X12826668Y2702112D01*
X12655130Y2826019D01*
X12496198Y2960298D01*
X12352027Y3102906D01*
X12224771Y3251804D01*
X12173347Y3320670D01*
X12109072Y3427640D01*
X12063730Y3541403D01*
X12037425Y3661115D01*
X12030261Y3785928D01*
X12042342Y3914996D01*
X12073771Y4047474D01*
X12081217Y4070791D01*
X12109685Y4148095D01*
X12139559Y4209924D01*
X12173685Y4261073D01*
X12214908Y4306336D01*
X12228578Y4319030D01*
X12292079Y4362781D01*
X12365607Y4389505D01*
X12448088Y4399190D01*
X12538445Y4391826D01*
X12635603Y4367404D01*
X12738486Y4325912D01*
X12742682Y4323909D01*
X12837972Y4270416D01*
X12938655Y4199495D01*
X13043164Y4112811D01*
X13149933Y4012025D01*
X13257395Y3898802D01*
X13363984Y3774804D01*
X13468132Y3641695D01*
X13568274Y3501139D01*
X13662841Y3354798D01*
X13676324Y3332659D01*
X13731386Y3236075D01*
X13789872Y3122833D01*
X13852191Y2992083D01*
X13918756Y2842971D01*
X13960660Y2744920D01*
X14024846Y2592520D01*
X14180085Y2592520D01*
X14170515Y2607093D01*
X14153829Y2638968D01*
X14133048Y2683865D01*
X14112448Y2730723D01*
X14068834Y2828930D01*
X14022109Y2930251D01*
X13974023Y3031140D01*
X13926327Y3128048D01*
X13880773Y3217429D01*
X13839110Y3295737D01*
X13803091Y3359423D01*
X13797383Y3368992D01*
X13733226Y3470421D01*
X13656503Y3582921D01*
X13569315Y3703498D01*
X13483360Y3816800D01*
X13445469Y3863077D01*
X13397258Y3917957D01*
X13341552Y3978575D01*
X13281174Y4042065D01*
X13218949Y4105561D01*
X13157699Y4166197D01*
X13100250Y4221106D01*
X13049425Y4267422D01*
X13008047Y4302280D01*
X12995914Y4311541D01*
X12873215Y4394522D01*
X12757370Y4458502D01*
X12648425Y4503462D01*
X12546423Y4529382D01*
X12491360Y4535632D01*
X12385678Y4532866D01*
%TO.C,TP3*%
D10*
X10782095Y55056381D02*
X10201523Y55056381D01*
X10491809Y54040381D02*
X10491809Y55056381D01*
X9862857Y54040381D02*
X9862857Y55056381D01*
X9475809Y55056381D01*
X9379047Y55008000D01*
X9330666Y54959620D01*
X9282285Y54862858D01*
X9282285Y54717715D01*
X9330666Y54620953D01*
X9379047Y54572572D01*
X9475809Y54524191D01*
X9862857Y54524191D01*
X8943619Y55056381D02*
X8314666Y55056381D01*
X8653333Y54669334D01*
X8508190Y54669334D01*
X8411428Y54620953D01*
X8363047Y54572572D01*
X8314666Y54475810D01*
X8314666Y54233905D01*
X8363047Y54137143D01*
X8411428Y54088762D01*
X8508190Y54040381D01*
X8798476Y54040381D01*
X8895238Y54088762D01*
X8943619Y54137143D01*
%TO.C,TP4*%
X10782095Y59056381D02*
X10201523Y59056381D01*
X10491809Y58040381D02*
X10491809Y59056381D01*
X9862857Y58040381D02*
X9862857Y59056381D01*
X9475809Y59056381D01*
X9379047Y59008000D01*
X9330666Y58959620D01*
X9282285Y58862858D01*
X9282285Y58717715D01*
X9330666Y58620953D01*
X9379047Y58572572D01*
X9475809Y58524191D01*
X9862857Y58524191D01*
X8411428Y58717715D02*
X8411428Y58040381D01*
X8653333Y59104762D02*
X8895238Y58379048D01*
X8266285Y58379048D01*
%TD*%
M02*
