%TF.GenerationSoftware,KiCad,Pcbnew,(5.1.9)-1*%
%TF.CreationDate,2021-03-12T11:46:57-05:00*%
%TF.ProjectId,SensorDemo,53656e73-6f72-4446-956d-6f2e6b696361,rev?*%
%TF.SameCoordinates,PX700e860PY7735940*%
%TF.FileFunction,Paste,Top*%
%TF.FilePolarity,Positive*%
%FSLAX46Y46*%
G04 Gerber Fmt 4.6, Leading zero omitted, Abs format (unit mm)*
G04 Created by KiCad (PCBNEW (5.1.9)-1) date 2021-03-12 11:46:57*
%MOMM*%
%LPD*%
G01*
G04 APERTURE LIST*
%ADD10R,0.315000X0.770000*%
%ADD11R,0.770000X0.315000*%
%ADD12R,1.015000X0.210000*%
%ADD13R,0.711200X1.066800*%
%ADD14R,1.680000X1.400000*%
%ADD15R,1.066800X0.711200*%
%ADD16R,1.955800X1.066800*%
%ADD17R,1.400000X0.420000*%
%ADD18R,1.050000X1.400000*%
%ADD19R,2.660000X1.750000*%
%ADD20R,1.085000X0.420000*%
%ADD21R,1.470000X0.980000*%
G04 APERTURE END LIST*
D10*
%TO.C,U5*%
X16000000Y32300000D03*
X14100000Y32300000D03*
X14100000Y35000000D03*
X15050000Y35000000D03*
X16000000Y35000000D03*
%TD*%
D11*
%TO.C,U6*%
X2300000Y51500000D03*
X2300000Y53400000D03*
X5000000Y53400000D03*
X5000000Y52450000D03*
X5000000Y51500000D03*
%TD*%
D12*
%TO.C,U4*%
X19400000Y40750000D03*
X19400000Y40100000D03*
X19400000Y39450000D03*
X19400000Y38800000D03*
X15000000Y38800000D03*
X15000000Y39450000D03*
X15000000Y40100000D03*
X15000000Y40750000D03*
%TD*%
D13*
%TO.C,C8*%
X40516000Y33000000D03*
X38484000Y33000000D03*
%TD*%
D14*
%TO.C,X1*%
X15000000Y17400000D03*
X15000000Y21600000D03*
%TD*%
D15*
%TO.C,R6*%
X9500000Y51484000D03*
X9500000Y53516000D03*
%TD*%
D13*
%TO.C,R4*%
X16234000Y43500000D03*
X18266000Y43500000D03*
%TD*%
D15*
%TO.C,C19*%
X20000000Y32984000D03*
X20000000Y35016000D03*
%TD*%
D16*
%TO.C,TC1*%
X40000000Y9599000D03*
X40000000Y12901000D03*
%TD*%
D15*
%TO.C,C24*%
X20500000Y13766000D03*
X20500000Y11734000D03*
%TD*%
%TO.C,C25*%
X24500000Y11734000D03*
X24500000Y13766000D03*
%TD*%
D17*
%TO.C,U2*%
X24800000Y33000000D03*
X24800000Y31730000D03*
X24800000Y30460000D03*
X24800000Y29190000D03*
X24800000Y27920000D03*
X24800000Y26650000D03*
X24800000Y25380000D03*
X24800000Y24110000D03*
X24800000Y22840000D03*
X24800000Y21570000D03*
X24800000Y20300000D03*
X24800000Y19030000D03*
X24800000Y17760000D03*
X24800000Y16490000D03*
X34200000Y16490000D03*
X34200000Y17760000D03*
X34200000Y19030000D03*
X34200000Y20300000D03*
X34200000Y21570000D03*
X34200000Y22840000D03*
X34200000Y24110000D03*
X34200000Y25380000D03*
X34200000Y26650000D03*
X34200000Y27920000D03*
X34200000Y29190000D03*
X34200000Y30460000D03*
X34200000Y31730000D03*
X34200000Y33000000D03*
%TD*%
D15*
%TO.C,D1*%
X31000000Y11516000D03*
X31000000Y9484000D03*
%TD*%
%TO.C,FB2*%
X36000000Y36734000D03*
X36000000Y38766000D03*
%TD*%
%TO.C,C16*%
X3500000Y14516000D03*
X3500000Y12484000D03*
%TD*%
%TO.C,R9*%
X9500000Y65016000D03*
X9500000Y62984000D03*
%TD*%
%TO.C,R1*%
X35000000Y9484000D03*
X35000000Y11516000D03*
%TD*%
D18*
%TO.C,U1*%
X8200000Y4500000D03*
X10500000Y4500000D03*
X12800000Y4500000D03*
D19*
X10500000Y10800000D03*
%TD*%
D13*
%TO.C,C1*%
X8484000Y21500000D03*
X10516000Y21500000D03*
%TD*%
D15*
%TO.C,C2*%
X28000000Y36734000D03*
X28000000Y38766000D03*
%TD*%
D13*
%TO.C,C3*%
X8484000Y17500000D03*
X10516000Y17500000D03*
%TD*%
D15*
%TO.C,C4*%
X19500000Y27516000D03*
X19500000Y25484000D03*
%TD*%
%TO.C,C5*%
X34500000Y3984000D03*
X34500000Y6016000D03*
%TD*%
%TO.C,C6*%
X31000000Y6016000D03*
X31000000Y3984000D03*
%TD*%
%TO.C,C7*%
X27500000Y6016000D03*
X27500000Y3984000D03*
%TD*%
%TO.C,C9*%
X24000000Y3984000D03*
X24000000Y6016000D03*
%TD*%
%TO.C,C10*%
X20500000Y6016000D03*
X20500000Y3984000D03*
%TD*%
%TO.C,C11*%
X17000000Y3984000D03*
X17000000Y6016000D03*
%TD*%
%TO.C,C12*%
X7000000Y38984000D03*
X7000000Y41016000D03*
%TD*%
%TO.C,C13*%
X3000000Y41016000D03*
X3000000Y38984000D03*
%TD*%
%TO.C,C15*%
X3500000Y9516000D03*
X3500000Y7484000D03*
%TD*%
%TO.C,C17*%
X28000000Y43984000D03*
X28000000Y46016000D03*
%TD*%
%TO.C,C18*%
X24000000Y46016000D03*
X24000000Y43984000D03*
%TD*%
%TO.C,C20*%
X15500000Y25484000D03*
X15500000Y27516000D03*
%TD*%
%TO.C,C21*%
X7000000Y56984000D03*
X7000000Y59016000D03*
%TD*%
%TO.C,C22*%
X11500000Y27516000D03*
X11500000Y25484000D03*
%TD*%
%TO.C,C23*%
X3000000Y56984000D03*
X3000000Y59016000D03*
%TD*%
%TO.C,R2*%
X19500000Y20516000D03*
X19500000Y18484000D03*
%TD*%
%TO.C,R3*%
X32000000Y36734000D03*
X32000000Y38766000D03*
%TD*%
%TO.C,R5*%
X7000000Y45484000D03*
X7000000Y47516000D03*
%TD*%
%TO.C,R10*%
X3000000Y45484000D03*
X3000000Y47516000D03*
%TD*%
D20*
%TO.C,U3*%
X9200000Y35500000D03*
X9200000Y34230000D03*
X9200000Y32960000D03*
X9200000Y31690000D03*
X3800000Y31690000D03*
X3800000Y32960000D03*
X3800000Y34230000D03*
X3800000Y35500000D03*
%TD*%
D15*
%TO.C,FB1*%
X38000000Y3984000D03*
X38000000Y6016000D03*
%TD*%
%TO.C,C14*%
X7500000Y27516000D03*
X7500000Y25484000D03*
%TD*%
D21*
%TO.C,K1*%
X41550000Y43000000D03*
X41550000Y47500000D03*
X32450000Y43000000D03*
X32450000Y47500000D03*
%TD*%
M02*
