%TF.GenerationSoftware,KiCad,Pcbnew,(5.1.9)-1*%
%TF.CreationDate,2021-03-12T11:46:57-05:00*%
%TF.ProjectId,SensorDemo,53656e73-6f72-4446-956d-6f2e6b696361,rev?*%
%TF.SameCoordinates,PX700e860PY7735940*%
%TF.FileFunction,Copper,L4,Bot*%
%TF.FilePolarity,Positive*%
%FSLAX46Y46*%
G04 Gerber Fmt 4.6, Leading zero omitted, Abs format (unit mm)*
G04 Created by KiCad (PCBNEW (5.1.9)-1) date 2021-03-12 11:46:57*
%MOMM*%
%LPD*%
G01*
G04 APERTURE LIST*
%TA.AperFunction,ComponentPad*%
%ADD10C,1.800000*%
%TD*%
%TA.AperFunction,SMDPad,CuDef*%
%ADD11C,2.000000*%
%TD*%
%TA.AperFunction,ViaPad*%
%ADD12C,0.550000*%
%TD*%
%TA.AperFunction,ViaPad*%
%ADD13C,1.016000*%
%TD*%
%TA.AperFunction,ViaPad*%
%ADD14C,0.400000*%
%TD*%
%TA.AperFunction,ViaPad*%
%ADD15C,0.800000*%
%TD*%
%TA.AperFunction,ViaPad*%
%ADD16C,1.524000*%
%TD*%
%TA.AperFunction,Conductor*%
%ADD17C,0.254000*%
%TD*%
%TA.AperFunction,Conductor*%
%ADD18C,0.381000*%
%TD*%
G04 APERTURE END LIST*
D10*
%TO.P,Vsen,1*%
%TO.N,/Vsen*%
X13000000Y43500000D03*
%TD*%
%TO.P,Vdac,1*%
%TO.N,Net-(U3-Pad7)*%
X10250000Y38000000D03*
%TD*%
%TO.P,sensVal,1*%
%TO.N,/sensVal*%
X24000000Y37500000D03*
%TD*%
%TO.P,5V,1*%
%TO.N,+5V*%
X43000000Y16750000D03*
%TD*%
%TO.P,3V3,1*%
%TO.N,+3V3*%
X21000000Y48500000D03*
%TD*%
%TO.P,~CS,1*%
%TO.N,Net-(U2-Pad15)*%
X33000000Y13500000D03*
%TD*%
%TO.P,DIN,1*%
%TO.N,Net-(U2-Pad16)*%
X37250000Y15000000D03*
%TD*%
%TO.P,SCK,1*%
%TO.N,Net-(U2-Pad17)*%
X37250000Y18500000D03*
%TD*%
D11*
%TO.P,TP3,1*%
%TO.N,/Vsen*%
X12500000Y54500000D03*
%TD*%
%TO.P,TP4,1*%
%TO.N,Net-(R9-Pad1)*%
X12500000Y58500000D03*
%TD*%
D12*
%TO.N,GND*%
X20000000Y32000000D03*
X10250000Y32000000D03*
X14750000Y36000000D03*
X3000000Y42000000D03*
X7000000Y42000000D03*
X3000000Y60000000D03*
X7000000Y60000000D03*
X9500000Y66000000D03*
X28000000Y47000000D03*
X24000000Y47000000D03*
X28000000Y39750000D03*
X35750000Y31500000D03*
X35750000Y21000000D03*
X7500000Y24500000D03*
X11500000Y24500000D03*
X15500000Y24500000D03*
X19500000Y24500000D03*
X7500000Y21500000D03*
X7500000Y17500000D03*
D13*
X8200000Y2400000D03*
D12*
X17000000Y7000000D03*
X20500000Y7000000D03*
X24000000Y7000000D03*
X27500000Y7000000D03*
X31000000Y7000000D03*
X34500000Y7000000D03*
D14*
X20500000Y10750000D03*
X24500000Y10750000D03*
D12*
X31000000Y8500000D03*
X3500000Y6500000D03*
X3500000Y15500000D03*
X23000000Y29500000D03*
X6250000Y52750000D03*
X23000000Y24500000D03*
X13500000Y38500000D03*
X43500000Y47500000D03*
X40000000Y8000000D03*
D15*
X43200000Y19700000D03*
D12*
X41750000Y33000000D03*
%TO.N,+3V3*%
X7500000Y13000000D03*
X9000000Y13000000D03*
X10500000Y13000000D03*
X12000000Y13000000D03*
X13500000Y13000000D03*
X13500000Y11500000D03*
X13500000Y10000000D03*
X7500000Y11500000D03*
X7500000Y10000000D03*
X3000000Y38000000D03*
X7000000Y38000000D03*
X11500000Y28500000D03*
X15500000Y28500000D03*
X13000000Y35000000D03*
X3000000Y56000000D03*
X7000000Y56000000D03*
X24000000Y43000000D03*
X28000000Y43000000D03*
X32000000Y39750000D03*
X36000000Y39750000D03*
X20500000Y14750000D03*
X24500000Y14750000D03*
X35000000Y8500000D03*
D16*
X10500000Y2000000D03*
D12*
X3500000Y10500000D03*
X3500000Y11500000D03*
X7000000Y48500000D03*
D15*
X44250000Y26500000D03*
D12*
%TO.N,/PGD*%
X30750000Y25000000D03*
X37750000Y24750000D03*
%TO.N,/PGC*%
X30750000Y26250000D03*
X37750000Y26000000D03*
%TO.N,Net-(R9-Pad1)*%
X11000000Y60000000D03*
D14*
%TO.N,/Vsen*%
X12500000Y54500000D03*
D12*
%TO.N,/~MCLR*%
X37750000Y27750000D03*
D14*
X27250000Y33000000D03*
%TD*%
D17*
%TO.N,/PGD*%
X30750000Y25000000D02*
X31000000Y24750000D01*
X31000000Y24750000D02*
X37750000Y24750000D01*
%TO.N,/PGC*%
X31000000Y26000000D02*
X30750000Y26250000D01*
X37750000Y26000000D02*
X31000000Y26000000D01*
D18*
%TO.N,Net-(R9-Pad1)*%
X11000000Y60000000D02*
X12500000Y58500000D01*
D17*
%TO.N,/~MCLR*%
X37750000Y27750000D02*
X33500000Y27750000D01*
X28250000Y33000000D02*
X27250000Y33000000D01*
X33500000Y27750000D02*
X28250000Y33000000D01*
%TD*%
M02*
