%TF.GenerationSoftware,KiCad,Pcbnew,(5.1.9)-1*%
%TF.CreationDate,2021-03-12T11:46:56-05:00*%
%TF.ProjectId,SensorDemo,53656e73-6f72-4446-956d-6f2e6b696361,rev?*%
%TF.SameCoordinates,PX700e860PY7735940*%
%TF.FileFunction,Copper,L2,Inr*%
%TF.FilePolarity,Positive*%
%FSLAX46Y46*%
G04 Gerber Fmt 4.6, Leading zero omitted, Abs format (unit mm)*
G04 Created by KiCad (PCBNEW (5.1.9)-1) date 2021-03-12 11:46:56*
%MOMM*%
%LPD*%
G01*
G04 APERTURE LIST*
%TA.AperFunction,ComponentPad*%
%ADD10C,1.800000*%
%TD*%
%TA.AperFunction,ViaPad*%
%ADD11C,0.550000*%
%TD*%
%TA.AperFunction,ViaPad*%
%ADD12C,1.016000*%
%TD*%
%TA.AperFunction,ViaPad*%
%ADD13C,0.400000*%
%TD*%
%TA.AperFunction,ViaPad*%
%ADD14C,0.800000*%
%TD*%
%TA.AperFunction,ViaPad*%
%ADD15C,1.524000*%
%TD*%
%TA.AperFunction,Conductor*%
%ADD16C,0.254000*%
%TD*%
%TA.AperFunction,Conductor*%
%ADD17C,0.100000*%
%TD*%
G04 APERTURE END LIST*
D10*
%TO.N,/Vsen*%
%TO.C,Vsen*%
X13000000Y43500000D03*
%TD*%
%TO.N,Net-(U3-Pad7)*%
%TO.C,Vdac*%
X10250000Y38000000D03*
%TD*%
%TO.N,/sensVal*%
%TO.C,sensVal*%
X24000000Y37500000D03*
%TD*%
%TO.N,+5V*%
%TO.C,5V*%
X43000000Y16750000D03*
%TD*%
%TO.N,+3V3*%
%TO.C,3V3*%
X21000000Y48500000D03*
%TD*%
%TO.N,Net-(U2-Pad15)*%
%TO.C,~CS*%
X33000000Y13500000D03*
%TD*%
%TO.N,Net-(U2-Pad16)*%
%TO.C,DIN*%
X37250000Y15000000D03*
%TD*%
%TO.N,Net-(U2-Pad17)*%
%TO.C,SCK*%
X37250000Y18500000D03*
%TD*%
D11*
%TO.N,GND*%
X20000000Y32000000D03*
X10250000Y32000000D03*
X14750000Y36000000D03*
X3000000Y42000000D03*
X7000000Y42000000D03*
X3000000Y60000000D03*
X7000000Y60000000D03*
X9500000Y66000000D03*
X28000000Y47000000D03*
X24000000Y47000000D03*
X28000000Y39750000D03*
X35750000Y31500000D03*
X35750000Y21000000D03*
X7500000Y24500000D03*
X11500000Y24500000D03*
X15500000Y24500000D03*
X19500000Y24500000D03*
X7500000Y21500000D03*
X7500000Y17500000D03*
D12*
X8200000Y2400000D03*
D11*
X17000000Y7000000D03*
X20500000Y7000000D03*
X24000000Y7000000D03*
X27500000Y7000000D03*
X31000000Y7000000D03*
X34500000Y7000000D03*
D13*
X20500000Y10750000D03*
X24500000Y10750000D03*
D11*
X31000000Y8500000D03*
X3500000Y6500000D03*
X3500000Y15500000D03*
X23000000Y29500000D03*
X6250000Y52750000D03*
X23000000Y24500000D03*
X13500000Y38500000D03*
X43500000Y47500000D03*
X40000000Y8000000D03*
D14*
X43200000Y19700000D03*
D11*
X41750000Y33000000D03*
%TO.N,+3V3*%
X7500000Y13000000D03*
X9000000Y13000000D03*
X10500000Y13000000D03*
X12000000Y13000000D03*
X13500000Y13000000D03*
X13500000Y11500000D03*
X13500000Y10000000D03*
X7500000Y11500000D03*
X7500000Y10000000D03*
X3000000Y38000000D03*
X7000000Y38000000D03*
X11500000Y28500000D03*
X15500000Y28500000D03*
X13000000Y35000000D03*
X3000000Y56000000D03*
X7000000Y56000000D03*
X24000000Y43000000D03*
X28000000Y43000000D03*
X32000000Y39750000D03*
X36000000Y39750000D03*
X20500000Y14750000D03*
X24500000Y14750000D03*
X35000000Y8500000D03*
D15*
X10500000Y2000000D03*
D11*
X3500000Y10500000D03*
X3500000Y11500000D03*
X7000000Y48500000D03*
D14*
X44250000Y26500000D03*
D11*
%TO.N,/PGD*%
X30750000Y25000000D03*
X37750000Y24750000D03*
%TO.N,/PGC*%
X30750000Y26250000D03*
X37750000Y26000000D03*
%TO.N,Net-(R9-Pad1)*%
X11000000Y60000000D03*
D13*
%TO.N,/Vsen*%
X12500000Y54500000D03*
D11*
%TO.N,/~MCLR*%
X37750000Y27750000D03*
D13*
X27250000Y33000000D03*
%TD*%
D16*
%TO.N,GND*%
X43493472Y67492222D02*
X43968148Y67348910D01*
X44405953Y67116125D01*
X44790200Y66802739D01*
X45106258Y66420691D01*
X45342093Y65984523D01*
X45488717Y65510857D01*
X45542800Y64996293D01*
X45542801Y3022372D01*
X45492222Y2506529D01*
X45348908Y2031848D01*
X45116125Y1594047D01*
X44802742Y1209802D01*
X44420691Y893742D01*
X43984522Y657907D01*
X43510859Y511283D01*
X42996293Y457200D01*
X3022361Y457200D01*
X2506529Y507778D01*
X2031848Y651092D01*
X1594047Y883875D01*
X1209802Y1197258D01*
X893742Y1579309D01*
X657907Y2015478D01*
X511283Y2489141D01*
X457200Y3003707D01*
X457200Y3185262D01*
X1119000Y3185262D01*
X1119000Y2814738D01*
X1191286Y2451333D01*
X1333080Y2109013D01*
X1538932Y1800933D01*
X1800933Y1538932D01*
X2109013Y1333080D01*
X2451333Y1191286D01*
X2814738Y1119000D01*
X3185262Y1119000D01*
X3548667Y1191286D01*
X3890987Y1333080D01*
X4199067Y1538932D01*
X4461068Y1800933D01*
X4666920Y2109013D01*
X4668395Y2112576D01*
X9357000Y2112576D01*
X9357000Y1887424D01*
X9400925Y1666599D01*
X9487087Y1458587D01*
X9612174Y1271380D01*
X9771380Y1112174D01*
X9958587Y987087D01*
X10166599Y900925D01*
X10387424Y857000D01*
X10612576Y857000D01*
X10833401Y900925D01*
X11041413Y987087D01*
X11228620Y1112174D01*
X11387826Y1271380D01*
X11512913Y1458587D01*
X11599075Y1666599D01*
X11643000Y1887424D01*
X11643000Y2112576D01*
X11599075Y2333401D01*
X11512913Y2541413D01*
X11387826Y2728620D01*
X11228620Y2887826D01*
X11041413Y3012913D01*
X10833401Y3099075D01*
X10612576Y3143000D01*
X10387424Y3143000D01*
X10166599Y3099075D01*
X9958587Y3012913D01*
X9771380Y2887826D01*
X9612174Y2728620D01*
X9487087Y2541413D01*
X9400925Y2333401D01*
X9357000Y2112576D01*
X4668395Y2112576D01*
X4808714Y2451333D01*
X4881000Y2814738D01*
X4881000Y3185262D01*
X41119000Y3185262D01*
X41119000Y2814738D01*
X41191286Y2451333D01*
X41333080Y2109013D01*
X41538932Y1800933D01*
X41800933Y1538932D01*
X42109013Y1333080D01*
X42451333Y1191286D01*
X42814738Y1119000D01*
X43185262Y1119000D01*
X43548667Y1191286D01*
X43890987Y1333080D01*
X44199067Y1538932D01*
X44461068Y1800933D01*
X44666920Y2109013D01*
X44808714Y2451333D01*
X44881000Y2814738D01*
X44881000Y3185262D01*
X44808714Y3548667D01*
X44666920Y3890987D01*
X44461068Y4199067D01*
X44199067Y4461068D01*
X43890987Y4666920D01*
X43548667Y4808714D01*
X43185262Y4881000D01*
X42814738Y4881000D01*
X42451333Y4808714D01*
X42109013Y4666920D01*
X41800933Y4461068D01*
X41538932Y4199067D01*
X41333080Y3890987D01*
X41191286Y3548667D01*
X41119000Y3185262D01*
X4881000Y3185262D01*
X4808714Y3548667D01*
X4666920Y3890987D01*
X4461068Y4199067D01*
X4199067Y4461068D01*
X3890987Y4666920D01*
X3548667Y4808714D01*
X3185262Y4881000D01*
X2814738Y4881000D01*
X2451333Y4808714D01*
X2109013Y4666920D01*
X1800933Y4461068D01*
X1538932Y4199067D01*
X1333080Y3890987D01*
X1191286Y3548667D01*
X1119000Y3185262D01*
X457200Y3185262D01*
X457200Y8564610D01*
X34344000Y8564610D01*
X34344000Y8435390D01*
X34369210Y8308652D01*
X34418660Y8189268D01*
X34490452Y8081824D01*
X34581824Y7990452D01*
X34689268Y7918660D01*
X34808652Y7869210D01*
X34935390Y7844000D01*
X35064610Y7844000D01*
X35191348Y7869210D01*
X35310732Y7918660D01*
X35418176Y7990452D01*
X35509548Y8081824D01*
X35581340Y8189268D01*
X35630790Y8308652D01*
X35656000Y8435390D01*
X35656000Y8564610D01*
X35630790Y8691348D01*
X35581340Y8810732D01*
X35509548Y8918176D01*
X35418176Y9009548D01*
X35310732Y9081340D01*
X35191348Y9130790D01*
X35064610Y9156000D01*
X34935390Y9156000D01*
X34808652Y9130790D01*
X34689268Y9081340D01*
X34581824Y9009548D01*
X34490452Y8918176D01*
X34418660Y8810732D01*
X34369210Y8691348D01*
X34344000Y8564610D01*
X457200Y8564610D01*
X457200Y11564610D01*
X2844000Y11564610D01*
X2844000Y11435390D01*
X2869210Y11308652D01*
X2918660Y11189268D01*
X2990452Y11081824D01*
X3072276Y11000000D01*
X2990452Y10918176D01*
X2918660Y10810732D01*
X2869210Y10691348D01*
X2844000Y10564610D01*
X2844000Y10435390D01*
X2869210Y10308652D01*
X2918660Y10189268D01*
X2990452Y10081824D01*
X3081824Y9990452D01*
X3189268Y9918660D01*
X3308652Y9869210D01*
X3435390Y9844000D01*
X3564610Y9844000D01*
X3691348Y9869210D01*
X3810732Y9918660D01*
X3918176Y9990452D01*
X3992334Y10064610D01*
X6844000Y10064610D01*
X6844000Y9935390D01*
X6869210Y9808652D01*
X6918660Y9689268D01*
X6990452Y9581824D01*
X7081824Y9490452D01*
X7189268Y9418660D01*
X7308652Y9369210D01*
X7435390Y9344000D01*
X7564610Y9344000D01*
X7691348Y9369210D01*
X7810732Y9418660D01*
X7918176Y9490452D01*
X8009548Y9581824D01*
X8081340Y9689268D01*
X8130790Y9808652D01*
X8156000Y9935390D01*
X8156000Y10064610D01*
X12844000Y10064610D01*
X12844000Y9935390D01*
X12869210Y9808652D01*
X12918660Y9689268D01*
X12990452Y9581824D01*
X13081824Y9490452D01*
X13189268Y9418660D01*
X13308652Y9369210D01*
X13435390Y9344000D01*
X13564610Y9344000D01*
X13691348Y9369210D01*
X13810732Y9418660D01*
X13918176Y9490452D01*
X14009548Y9581824D01*
X14081340Y9689268D01*
X14130790Y9808652D01*
X14156000Y9935390D01*
X14156000Y10064610D01*
X14130790Y10191348D01*
X14081340Y10310732D01*
X14009548Y10418176D01*
X13918176Y10509548D01*
X13810732Y10581340D01*
X13691348Y10630790D01*
X13564610Y10656000D01*
X13435390Y10656000D01*
X13308652Y10630790D01*
X13189268Y10581340D01*
X13081824Y10509548D01*
X12990452Y10418176D01*
X12918660Y10310732D01*
X12869210Y10191348D01*
X12844000Y10064610D01*
X8156000Y10064610D01*
X8130790Y10191348D01*
X8081340Y10310732D01*
X8009548Y10418176D01*
X7918176Y10509548D01*
X7810732Y10581340D01*
X7691348Y10630790D01*
X7564610Y10656000D01*
X7435390Y10656000D01*
X7308652Y10630790D01*
X7189268Y10581340D01*
X7081824Y10509548D01*
X6990452Y10418176D01*
X6918660Y10310732D01*
X6869210Y10191348D01*
X6844000Y10064610D01*
X3992334Y10064610D01*
X4009548Y10081824D01*
X4081340Y10189268D01*
X4130790Y10308652D01*
X4156000Y10435390D01*
X4156000Y10564610D01*
X4130790Y10691348D01*
X4081340Y10810732D01*
X4009548Y10918176D01*
X3927724Y11000000D01*
X4009548Y11081824D01*
X4081340Y11189268D01*
X4130790Y11308652D01*
X4156000Y11435390D01*
X4156000Y11564610D01*
X6844000Y11564610D01*
X6844000Y11435390D01*
X6869210Y11308652D01*
X6918660Y11189268D01*
X6990452Y11081824D01*
X7081824Y10990452D01*
X7189268Y10918660D01*
X7308652Y10869210D01*
X7435390Y10844000D01*
X7564610Y10844000D01*
X7691348Y10869210D01*
X7810732Y10918660D01*
X7918176Y10990452D01*
X8009548Y11081824D01*
X8081340Y11189268D01*
X8130790Y11308652D01*
X8156000Y11435390D01*
X8156000Y11564610D01*
X12844000Y11564610D01*
X12844000Y11435390D01*
X12869210Y11308652D01*
X12918660Y11189268D01*
X12990452Y11081824D01*
X13081824Y10990452D01*
X13189268Y10918660D01*
X13308652Y10869210D01*
X13435390Y10844000D01*
X13564610Y10844000D01*
X13691348Y10869210D01*
X13810732Y10918660D01*
X13918176Y10990452D01*
X14009548Y11081824D01*
X14081340Y11189268D01*
X14130790Y11308652D01*
X14156000Y11435390D01*
X14156000Y11564610D01*
X14130790Y11691348D01*
X14081340Y11810732D01*
X14009548Y11918176D01*
X13918176Y12009548D01*
X13810732Y12081340D01*
X13691348Y12130790D01*
X13564610Y12156000D01*
X13435390Y12156000D01*
X13308652Y12130790D01*
X13189268Y12081340D01*
X13081824Y12009548D01*
X12990452Y11918176D01*
X12918660Y11810732D01*
X12869210Y11691348D01*
X12844000Y11564610D01*
X8156000Y11564610D01*
X8130790Y11691348D01*
X8081340Y11810732D01*
X8009548Y11918176D01*
X7918176Y12009548D01*
X7810732Y12081340D01*
X7691348Y12130790D01*
X7564610Y12156000D01*
X7435390Y12156000D01*
X7308652Y12130790D01*
X7189268Y12081340D01*
X7081824Y12009548D01*
X6990452Y11918176D01*
X6918660Y11810732D01*
X6869210Y11691348D01*
X6844000Y11564610D01*
X4156000Y11564610D01*
X4130790Y11691348D01*
X4081340Y11810732D01*
X4009548Y11918176D01*
X3918176Y12009548D01*
X3810732Y12081340D01*
X3691348Y12130790D01*
X3564610Y12156000D01*
X3435390Y12156000D01*
X3308652Y12130790D01*
X3189268Y12081340D01*
X3081824Y12009548D01*
X2990452Y11918176D01*
X2918660Y11810732D01*
X2869210Y11691348D01*
X2844000Y11564610D01*
X457200Y11564610D01*
X457200Y13064610D01*
X6844000Y13064610D01*
X6844000Y12935390D01*
X6869210Y12808652D01*
X6918660Y12689268D01*
X6990452Y12581824D01*
X7081824Y12490452D01*
X7189268Y12418660D01*
X7308652Y12369210D01*
X7435390Y12344000D01*
X7564610Y12344000D01*
X7691348Y12369210D01*
X7810732Y12418660D01*
X7918176Y12490452D01*
X8009548Y12581824D01*
X8081340Y12689268D01*
X8130790Y12808652D01*
X8156000Y12935390D01*
X8156000Y13064610D01*
X8344000Y13064610D01*
X8344000Y12935390D01*
X8369210Y12808652D01*
X8418660Y12689268D01*
X8490452Y12581824D01*
X8581824Y12490452D01*
X8689268Y12418660D01*
X8808652Y12369210D01*
X8935390Y12344000D01*
X9064610Y12344000D01*
X9191348Y12369210D01*
X9310732Y12418660D01*
X9418176Y12490452D01*
X9509548Y12581824D01*
X9581340Y12689268D01*
X9630790Y12808652D01*
X9656000Y12935390D01*
X9656000Y13064610D01*
X9844000Y13064610D01*
X9844000Y12935390D01*
X9869210Y12808652D01*
X9918660Y12689268D01*
X9990452Y12581824D01*
X10081824Y12490452D01*
X10189268Y12418660D01*
X10308652Y12369210D01*
X10435390Y12344000D01*
X10564610Y12344000D01*
X10691348Y12369210D01*
X10810732Y12418660D01*
X10918176Y12490452D01*
X11009548Y12581824D01*
X11081340Y12689268D01*
X11130790Y12808652D01*
X11156000Y12935390D01*
X11156000Y13064610D01*
X11344000Y13064610D01*
X11344000Y12935390D01*
X11369210Y12808652D01*
X11418660Y12689268D01*
X11490452Y12581824D01*
X11581824Y12490452D01*
X11689268Y12418660D01*
X11808652Y12369210D01*
X11935390Y12344000D01*
X12064610Y12344000D01*
X12191348Y12369210D01*
X12310732Y12418660D01*
X12418176Y12490452D01*
X12509548Y12581824D01*
X12581340Y12689268D01*
X12630790Y12808652D01*
X12656000Y12935390D01*
X12656000Y13064610D01*
X12844000Y13064610D01*
X12844000Y12935390D01*
X12869210Y12808652D01*
X12918660Y12689268D01*
X12990452Y12581824D01*
X13081824Y12490452D01*
X13189268Y12418660D01*
X13308652Y12369210D01*
X13435390Y12344000D01*
X13564610Y12344000D01*
X13691348Y12369210D01*
X13810732Y12418660D01*
X13918176Y12490452D01*
X14009548Y12581824D01*
X14081340Y12689268D01*
X14130790Y12808652D01*
X14156000Y12935390D01*
X14156000Y13064610D01*
X14130790Y13191348D01*
X14081340Y13310732D01*
X14009548Y13418176D01*
X13918176Y13509548D01*
X13810732Y13581340D01*
X13702510Y13626167D01*
X31719000Y13626167D01*
X31719000Y13373833D01*
X31768228Y13126346D01*
X31864793Y12893219D01*
X32004982Y12683410D01*
X32183410Y12504982D01*
X32393219Y12364793D01*
X32626346Y12268228D01*
X32873833Y12219000D01*
X33126167Y12219000D01*
X33373654Y12268228D01*
X33606781Y12364793D01*
X33816590Y12504982D01*
X33995018Y12683410D01*
X34135207Y12893219D01*
X34231772Y13126346D01*
X34281000Y13373833D01*
X34281000Y13626167D01*
X34231772Y13873654D01*
X34135207Y14106781D01*
X33995018Y14316590D01*
X33816590Y14495018D01*
X33606781Y14635207D01*
X33373654Y14731772D01*
X33126167Y14781000D01*
X32873833Y14781000D01*
X32626346Y14731772D01*
X32393219Y14635207D01*
X32183410Y14495018D01*
X32004982Y14316590D01*
X31864793Y14106781D01*
X31768228Y13873654D01*
X31719000Y13626167D01*
X13702510Y13626167D01*
X13691348Y13630790D01*
X13564610Y13656000D01*
X13435390Y13656000D01*
X13308652Y13630790D01*
X13189268Y13581340D01*
X13081824Y13509548D01*
X12990452Y13418176D01*
X12918660Y13310732D01*
X12869210Y13191348D01*
X12844000Y13064610D01*
X12656000Y13064610D01*
X12630790Y13191348D01*
X12581340Y13310732D01*
X12509548Y13418176D01*
X12418176Y13509548D01*
X12310732Y13581340D01*
X12191348Y13630790D01*
X12064610Y13656000D01*
X11935390Y13656000D01*
X11808652Y13630790D01*
X11689268Y13581340D01*
X11581824Y13509548D01*
X11490452Y13418176D01*
X11418660Y13310732D01*
X11369210Y13191348D01*
X11344000Y13064610D01*
X11156000Y13064610D01*
X11130790Y13191348D01*
X11081340Y13310732D01*
X11009548Y13418176D01*
X10918176Y13509548D01*
X10810732Y13581340D01*
X10691348Y13630790D01*
X10564610Y13656000D01*
X10435390Y13656000D01*
X10308652Y13630790D01*
X10189268Y13581340D01*
X10081824Y13509548D01*
X9990452Y13418176D01*
X9918660Y13310732D01*
X9869210Y13191348D01*
X9844000Y13064610D01*
X9656000Y13064610D01*
X9630790Y13191348D01*
X9581340Y13310732D01*
X9509548Y13418176D01*
X9418176Y13509548D01*
X9310732Y13581340D01*
X9191348Y13630790D01*
X9064610Y13656000D01*
X8935390Y13656000D01*
X8808652Y13630790D01*
X8689268Y13581340D01*
X8581824Y13509548D01*
X8490452Y13418176D01*
X8418660Y13310732D01*
X8369210Y13191348D01*
X8344000Y13064610D01*
X8156000Y13064610D01*
X8130790Y13191348D01*
X8081340Y13310732D01*
X8009548Y13418176D01*
X7918176Y13509548D01*
X7810732Y13581340D01*
X7691348Y13630790D01*
X7564610Y13656000D01*
X7435390Y13656000D01*
X7308652Y13630790D01*
X7189268Y13581340D01*
X7081824Y13509548D01*
X6990452Y13418176D01*
X6918660Y13310732D01*
X6869210Y13191348D01*
X6844000Y13064610D01*
X457200Y13064610D01*
X457200Y14814610D01*
X19844000Y14814610D01*
X19844000Y14685390D01*
X19869210Y14558652D01*
X19918660Y14439268D01*
X19990452Y14331824D01*
X20081824Y14240452D01*
X20189268Y14168660D01*
X20308652Y14119210D01*
X20435390Y14094000D01*
X20564610Y14094000D01*
X20691348Y14119210D01*
X20810732Y14168660D01*
X20918176Y14240452D01*
X21009548Y14331824D01*
X21081340Y14439268D01*
X21130790Y14558652D01*
X21156000Y14685390D01*
X21156000Y14814610D01*
X23844000Y14814610D01*
X23844000Y14685390D01*
X23869210Y14558652D01*
X23918660Y14439268D01*
X23990452Y14331824D01*
X24081824Y14240452D01*
X24189268Y14168660D01*
X24308652Y14119210D01*
X24435390Y14094000D01*
X24564610Y14094000D01*
X24691348Y14119210D01*
X24810732Y14168660D01*
X24918176Y14240452D01*
X25009548Y14331824D01*
X25081340Y14439268D01*
X25130790Y14558652D01*
X25156000Y14685390D01*
X25156000Y14814610D01*
X25130790Y14941348D01*
X25081340Y15060732D01*
X25037618Y15126167D01*
X35969000Y15126167D01*
X35969000Y14873833D01*
X36018228Y14626346D01*
X36114793Y14393219D01*
X36254982Y14183410D01*
X36433410Y14004982D01*
X36643219Y13864793D01*
X36876346Y13768228D01*
X37123833Y13719000D01*
X37376167Y13719000D01*
X37623654Y13768228D01*
X37856781Y13864793D01*
X38066590Y14004982D01*
X38245018Y14183410D01*
X38385207Y14393219D01*
X38481772Y14626346D01*
X38531000Y14873833D01*
X38531000Y15126167D01*
X38481772Y15373654D01*
X38385207Y15606781D01*
X38245018Y15816590D01*
X38066590Y15995018D01*
X37856781Y16135207D01*
X37623654Y16231772D01*
X37376167Y16281000D01*
X37123833Y16281000D01*
X36876346Y16231772D01*
X36643219Y16135207D01*
X36433410Y15995018D01*
X36254982Y15816590D01*
X36114793Y15606781D01*
X36018228Y15373654D01*
X35969000Y15126167D01*
X25037618Y15126167D01*
X25009548Y15168176D01*
X24918176Y15259548D01*
X24810732Y15331340D01*
X24691348Y15380790D01*
X24564610Y15406000D01*
X24435390Y15406000D01*
X24308652Y15380790D01*
X24189268Y15331340D01*
X24081824Y15259548D01*
X23990452Y15168176D01*
X23918660Y15060732D01*
X23869210Y14941348D01*
X23844000Y14814610D01*
X21156000Y14814610D01*
X21130790Y14941348D01*
X21081340Y15060732D01*
X21009548Y15168176D01*
X20918176Y15259548D01*
X20810732Y15331340D01*
X20691348Y15380790D01*
X20564610Y15406000D01*
X20435390Y15406000D01*
X20308652Y15380790D01*
X20189268Y15331340D01*
X20081824Y15259548D01*
X19990452Y15168176D01*
X19918660Y15060732D01*
X19869210Y14941348D01*
X19844000Y14814610D01*
X457200Y14814610D01*
X457200Y16876167D01*
X41719000Y16876167D01*
X41719000Y16623833D01*
X41768228Y16376346D01*
X41864793Y16143219D01*
X42004982Y15933410D01*
X42183410Y15754982D01*
X42393219Y15614793D01*
X42626346Y15518228D01*
X42873833Y15469000D01*
X43126167Y15469000D01*
X43373654Y15518228D01*
X43606781Y15614793D01*
X43816590Y15754982D01*
X43995018Y15933410D01*
X44135207Y16143219D01*
X44231772Y16376346D01*
X44281000Y16623833D01*
X44281000Y16876167D01*
X44231772Y17123654D01*
X44135207Y17356781D01*
X43995018Y17566590D01*
X43816590Y17745018D01*
X43606781Y17885207D01*
X43373654Y17981772D01*
X43126167Y18031000D01*
X42873833Y18031000D01*
X42626346Y17981772D01*
X42393219Y17885207D01*
X42183410Y17745018D01*
X42004982Y17566590D01*
X41864793Y17356781D01*
X41768228Y17123654D01*
X41719000Y16876167D01*
X457200Y16876167D01*
X457200Y18626167D01*
X35969000Y18626167D01*
X35969000Y18373833D01*
X36018228Y18126346D01*
X36114793Y17893219D01*
X36254982Y17683410D01*
X36433410Y17504982D01*
X36643219Y17364793D01*
X36876346Y17268228D01*
X37123833Y17219000D01*
X37376167Y17219000D01*
X37623654Y17268228D01*
X37856781Y17364793D01*
X38066590Y17504982D01*
X38245018Y17683410D01*
X38385207Y17893219D01*
X38481772Y18126346D01*
X38531000Y18373833D01*
X38531000Y18626167D01*
X38481772Y18873654D01*
X38385207Y19106781D01*
X38245018Y19316590D01*
X38066590Y19495018D01*
X37928092Y19587559D01*
X40611000Y19587559D01*
X40611000Y19412441D01*
X40645164Y19240688D01*
X40712179Y19078901D01*
X40809469Y18933296D01*
X40933296Y18809469D01*
X41078901Y18712179D01*
X41240688Y18645164D01*
X41412441Y18611000D01*
X41587559Y18611000D01*
X41759312Y18645164D01*
X41921099Y18712179D01*
X42066704Y18809469D01*
X42190531Y18933296D01*
X42287821Y19078901D01*
X42354836Y19240688D01*
X42389000Y19412441D01*
X42389000Y19587559D01*
X42354836Y19759312D01*
X42287821Y19921099D01*
X42190531Y20066704D01*
X42066704Y20190531D01*
X41921099Y20287821D01*
X41759312Y20354836D01*
X41587559Y20389000D01*
X41412441Y20389000D01*
X41240688Y20354836D01*
X41078901Y20287821D01*
X40933296Y20190531D01*
X40809469Y20066704D01*
X40712179Y19921099D01*
X40645164Y19759312D01*
X40611000Y19587559D01*
X37928092Y19587559D01*
X37856781Y19635207D01*
X37623654Y19731772D01*
X37376167Y19781000D01*
X37123833Y19781000D01*
X36876346Y19731772D01*
X36643219Y19635207D01*
X36433410Y19495018D01*
X36254982Y19316590D01*
X36114793Y19106781D01*
X36018228Y18873654D01*
X35969000Y18626167D01*
X457200Y18626167D01*
X457200Y26314610D01*
X30094000Y26314610D01*
X30094000Y26185390D01*
X30119210Y26058652D01*
X30168660Y25939268D01*
X30240452Y25831824D01*
X30331824Y25740452D01*
X30439268Y25668660D01*
X30544674Y25625000D01*
X30439268Y25581340D01*
X30331824Y25509548D01*
X30240452Y25418176D01*
X30168660Y25310732D01*
X30119210Y25191348D01*
X30094000Y25064610D01*
X30094000Y24935390D01*
X30119210Y24808652D01*
X30168660Y24689268D01*
X30240452Y24581824D01*
X30331824Y24490452D01*
X30439268Y24418660D01*
X30558652Y24369210D01*
X30685390Y24344000D01*
X30814610Y24344000D01*
X30941348Y24369210D01*
X31060732Y24418660D01*
X31168176Y24490452D01*
X31259548Y24581824D01*
X31331340Y24689268D01*
X31380790Y24808652D01*
X31406000Y24935390D01*
X31406000Y25064610D01*
X31380790Y25191348D01*
X31331340Y25310732D01*
X31259548Y25418176D01*
X31168176Y25509548D01*
X31060732Y25581340D01*
X30955326Y25625000D01*
X31060732Y25668660D01*
X31168176Y25740452D01*
X31259548Y25831824D01*
X31331340Y25939268D01*
X31380790Y26058652D01*
X31381975Y26064610D01*
X37094000Y26064610D01*
X37094000Y25935390D01*
X37119210Y25808652D01*
X37168660Y25689268D01*
X37240452Y25581824D01*
X37331824Y25490452D01*
X37439268Y25418660D01*
X37544674Y25375000D01*
X37439268Y25331340D01*
X37331824Y25259548D01*
X37240452Y25168176D01*
X37168660Y25060732D01*
X37119210Y24941348D01*
X37094000Y24814610D01*
X37094000Y24685390D01*
X37119210Y24558652D01*
X37168660Y24439268D01*
X37240452Y24331824D01*
X37331824Y24240452D01*
X37439268Y24168660D01*
X37558652Y24119210D01*
X37685390Y24094000D01*
X37814610Y24094000D01*
X37941348Y24119210D01*
X38060732Y24168660D01*
X38168176Y24240452D01*
X38259548Y24331824D01*
X38331340Y24439268D01*
X38380790Y24558652D01*
X38406000Y24685390D01*
X38406000Y24814610D01*
X38380790Y24941348D01*
X38331340Y25060732D01*
X38259548Y25168176D01*
X38168176Y25259548D01*
X38060732Y25331340D01*
X37955326Y25375000D01*
X38060732Y25418660D01*
X38168176Y25490452D01*
X38259548Y25581824D01*
X38331340Y25689268D01*
X38380790Y25808652D01*
X38406000Y25935390D01*
X38406000Y26064610D01*
X38380790Y26191348D01*
X38331340Y26310732D01*
X38259548Y26418176D01*
X38168176Y26509548D01*
X38060732Y26581340D01*
X37941348Y26630790D01*
X37814610Y26656000D01*
X37685390Y26656000D01*
X37558652Y26630790D01*
X37439268Y26581340D01*
X37331824Y26509548D01*
X37240452Y26418176D01*
X37168660Y26310732D01*
X37119210Y26191348D01*
X37094000Y26064610D01*
X31381975Y26064610D01*
X31406000Y26185390D01*
X31406000Y26314610D01*
X31380790Y26441348D01*
X31331340Y26560732D01*
X31259548Y26668176D01*
X31168176Y26759548D01*
X31060732Y26831340D01*
X30941348Y26880790D01*
X30814610Y26906000D01*
X30685390Y26906000D01*
X30558652Y26880790D01*
X30439268Y26831340D01*
X30331824Y26759548D01*
X30240452Y26668176D01*
X30168660Y26560732D01*
X30119210Y26441348D01*
X30094000Y26314610D01*
X457200Y26314610D01*
X457200Y27814610D01*
X37094000Y27814610D01*
X37094000Y27685390D01*
X37119210Y27558652D01*
X37168660Y27439268D01*
X37240452Y27331824D01*
X37331824Y27240452D01*
X37439268Y27168660D01*
X37558652Y27119210D01*
X37685390Y27094000D01*
X37814610Y27094000D01*
X37941348Y27119210D01*
X38060732Y27168660D01*
X38118948Y27207559D01*
X39595000Y27207559D01*
X39595000Y27032441D01*
X39629164Y26860688D01*
X39696179Y26698901D01*
X39793469Y26553296D01*
X39917296Y26429469D01*
X40062901Y26332179D01*
X40224688Y26265164D01*
X40396441Y26231000D01*
X40571559Y26231000D01*
X40743312Y26265164D01*
X40905099Y26332179D01*
X41050704Y26429469D01*
X41174531Y26553296D01*
X41271821Y26698901D01*
X41338836Y26860688D01*
X41373000Y27032441D01*
X41373000Y27207559D01*
X41627000Y27207559D01*
X41627000Y27032441D01*
X41661164Y26860688D01*
X41728179Y26698901D01*
X41825469Y26553296D01*
X41949296Y26429469D01*
X42094901Y26332179D01*
X42256688Y26265164D01*
X42428441Y26231000D01*
X42603559Y26231000D01*
X42775312Y26265164D01*
X42937099Y26332179D01*
X43082704Y26429469D01*
X43206531Y26553296D01*
X43222317Y26576922D01*
X43469000Y26576922D01*
X43469000Y26423078D01*
X43499013Y26272191D01*
X43557887Y26130058D01*
X43643358Y26002141D01*
X43752141Y25893358D01*
X43880058Y25807887D01*
X44022191Y25749013D01*
X44173078Y25719000D01*
X44326922Y25719000D01*
X44477809Y25749013D01*
X44619942Y25807887D01*
X44747859Y25893358D01*
X44856642Y26002141D01*
X44942113Y26130058D01*
X45000987Y26272191D01*
X45031000Y26423078D01*
X45031000Y26576922D01*
X45000987Y26727809D01*
X44942113Y26869942D01*
X44856642Y26997859D01*
X44747859Y27106642D01*
X44619942Y27192113D01*
X44477809Y27250987D01*
X44326922Y27281000D01*
X44173078Y27281000D01*
X44022191Y27250987D01*
X43880058Y27192113D01*
X43752141Y27106642D01*
X43643358Y26997859D01*
X43557887Y26869942D01*
X43499013Y26727809D01*
X43469000Y26576922D01*
X43222317Y26576922D01*
X43303821Y26698901D01*
X43370836Y26860688D01*
X43405000Y27032441D01*
X43405000Y27207559D01*
X43370836Y27379312D01*
X43303821Y27541099D01*
X43206531Y27686704D01*
X43082704Y27810531D01*
X42937099Y27907821D01*
X42775312Y27974836D01*
X42603559Y28009000D01*
X42428441Y28009000D01*
X42256688Y27974836D01*
X42094901Y27907821D01*
X41949296Y27810531D01*
X41825469Y27686704D01*
X41728179Y27541099D01*
X41661164Y27379312D01*
X41627000Y27207559D01*
X41373000Y27207559D01*
X41338836Y27379312D01*
X41271821Y27541099D01*
X41174531Y27686704D01*
X41050704Y27810531D01*
X40905099Y27907821D01*
X40743312Y27974836D01*
X40571559Y28009000D01*
X40396441Y28009000D01*
X40224688Y27974836D01*
X40062901Y27907821D01*
X39917296Y27810531D01*
X39793469Y27686704D01*
X39696179Y27541099D01*
X39629164Y27379312D01*
X39595000Y27207559D01*
X38118948Y27207559D01*
X38168176Y27240452D01*
X38259548Y27331824D01*
X38331340Y27439268D01*
X38380790Y27558652D01*
X38406000Y27685390D01*
X38406000Y27814610D01*
X38380790Y27941348D01*
X38331340Y28060732D01*
X38259548Y28168176D01*
X38168176Y28259548D01*
X38060732Y28331340D01*
X37941348Y28380790D01*
X37814610Y28406000D01*
X37685390Y28406000D01*
X37558652Y28380790D01*
X37439268Y28331340D01*
X37331824Y28259548D01*
X37240452Y28168176D01*
X37168660Y28060732D01*
X37119210Y27941348D01*
X37094000Y27814610D01*
X457200Y27814610D01*
X457200Y28564610D01*
X10844000Y28564610D01*
X10844000Y28435390D01*
X10869210Y28308652D01*
X10918660Y28189268D01*
X10990452Y28081824D01*
X11081824Y27990452D01*
X11189268Y27918660D01*
X11308652Y27869210D01*
X11435390Y27844000D01*
X11564610Y27844000D01*
X11691348Y27869210D01*
X11810732Y27918660D01*
X11918176Y27990452D01*
X12009548Y28081824D01*
X12081340Y28189268D01*
X12130790Y28308652D01*
X12156000Y28435390D01*
X12156000Y28564610D01*
X14844000Y28564610D01*
X14844000Y28435390D01*
X14869210Y28308652D01*
X14918660Y28189268D01*
X14990452Y28081824D01*
X15081824Y27990452D01*
X15189268Y27918660D01*
X15308652Y27869210D01*
X15435390Y27844000D01*
X15564610Y27844000D01*
X15691348Y27869210D01*
X15810732Y27918660D01*
X15918176Y27990452D01*
X16009548Y28081824D01*
X16081340Y28189268D01*
X16130790Y28308652D01*
X16156000Y28435390D01*
X16156000Y28564610D01*
X16130790Y28691348D01*
X16081340Y28810732D01*
X16009548Y28918176D01*
X15918176Y29009548D01*
X15810732Y29081340D01*
X15691348Y29130790D01*
X15564610Y29156000D01*
X15435390Y29156000D01*
X15308652Y29130790D01*
X15189268Y29081340D01*
X15081824Y29009548D01*
X14990452Y28918176D01*
X14918660Y28810732D01*
X14869210Y28691348D01*
X14844000Y28564610D01*
X12156000Y28564610D01*
X12130790Y28691348D01*
X12081340Y28810732D01*
X12009548Y28918176D01*
X11918176Y29009548D01*
X11810732Y29081340D01*
X11691348Y29130790D01*
X11564610Y29156000D01*
X11435390Y29156000D01*
X11308652Y29130790D01*
X11189268Y29081340D01*
X11081824Y29009548D01*
X10990452Y28918176D01*
X10918660Y28810732D01*
X10869210Y28691348D01*
X10844000Y28564610D01*
X457200Y28564610D01*
X457200Y33057223D01*
X26669000Y33057223D01*
X26669000Y32942777D01*
X26691328Y32830529D01*
X26735125Y32724793D01*
X26798708Y32629634D01*
X26879634Y32548708D01*
X26974793Y32485125D01*
X27080529Y32441328D01*
X27192777Y32419000D01*
X27307223Y32419000D01*
X27419471Y32441328D01*
X27525207Y32485125D01*
X27620366Y32548708D01*
X27701292Y32629634D01*
X27764875Y32724793D01*
X27808672Y32830529D01*
X27831000Y32942777D01*
X27831000Y33057223D01*
X27808672Y33169471D01*
X27764875Y33275207D01*
X27701292Y33370366D01*
X27620366Y33451292D01*
X27525207Y33514875D01*
X27419471Y33558672D01*
X27307223Y33581000D01*
X27192777Y33581000D01*
X27080529Y33558672D01*
X26974793Y33514875D01*
X26879634Y33451292D01*
X26798708Y33370366D01*
X26735125Y33275207D01*
X26691328Y33169471D01*
X26669000Y33057223D01*
X457200Y33057223D01*
X457200Y35064610D01*
X12344000Y35064610D01*
X12344000Y34935390D01*
X12369210Y34808652D01*
X12418660Y34689268D01*
X12490452Y34581824D01*
X12581824Y34490452D01*
X12689268Y34418660D01*
X12808652Y34369210D01*
X12935390Y34344000D01*
X13064610Y34344000D01*
X13191348Y34369210D01*
X13310732Y34418660D01*
X13418176Y34490452D01*
X13509548Y34581824D01*
X13581340Y34689268D01*
X13630790Y34808652D01*
X13656000Y34935390D01*
X13656000Y35064610D01*
X13630790Y35191348D01*
X13581340Y35310732D01*
X13509548Y35418176D01*
X13418176Y35509548D01*
X13310732Y35581340D01*
X13191348Y35630790D01*
X13064610Y35656000D01*
X12935390Y35656000D01*
X12808652Y35630790D01*
X12689268Y35581340D01*
X12581824Y35509548D01*
X12490452Y35418176D01*
X12418660Y35310732D01*
X12369210Y35191348D01*
X12344000Y35064610D01*
X457200Y35064610D01*
X457200Y38064610D01*
X2344000Y38064610D01*
X2344000Y37935390D01*
X2369210Y37808652D01*
X2418660Y37689268D01*
X2490452Y37581824D01*
X2581824Y37490452D01*
X2689268Y37418660D01*
X2808652Y37369210D01*
X2935390Y37344000D01*
X3064610Y37344000D01*
X3191348Y37369210D01*
X3310732Y37418660D01*
X3418176Y37490452D01*
X3509548Y37581824D01*
X3581340Y37689268D01*
X3630790Y37808652D01*
X3656000Y37935390D01*
X3656000Y38064610D01*
X6344000Y38064610D01*
X6344000Y37935390D01*
X6369210Y37808652D01*
X6418660Y37689268D01*
X6490452Y37581824D01*
X6581824Y37490452D01*
X6689268Y37418660D01*
X6808652Y37369210D01*
X6935390Y37344000D01*
X7064610Y37344000D01*
X7191348Y37369210D01*
X7310732Y37418660D01*
X7418176Y37490452D01*
X7509548Y37581824D01*
X7581340Y37689268D01*
X7630790Y37808652D01*
X7656000Y37935390D01*
X7656000Y38064610D01*
X7643756Y38126167D01*
X8969000Y38126167D01*
X8969000Y37873833D01*
X9018228Y37626346D01*
X9114793Y37393219D01*
X9254982Y37183410D01*
X9433410Y37004982D01*
X9643219Y36864793D01*
X9876346Y36768228D01*
X10123833Y36719000D01*
X10376167Y36719000D01*
X10623654Y36768228D01*
X10856781Y36864793D01*
X11066590Y37004982D01*
X11245018Y37183410D01*
X11385207Y37393219D01*
X11481697Y37626167D01*
X22719000Y37626167D01*
X22719000Y37373833D01*
X22768228Y37126346D01*
X22864793Y36893219D01*
X23004982Y36683410D01*
X23183410Y36504982D01*
X23393219Y36364793D01*
X23626346Y36268228D01*
X23873833Y36219000D01*
X24126167Y36219000D01*
X24373654Y36268228D01*
X24606781Y36364793D01*
X24816590Y36504982D01*
X24995018Y36683410D01*
X25135207Y36893219D01*
X25231772Y37126346D01*
X25281000Y37373833D01*
X25281000Y37626167D01*
X25231772Y37873654D01*
X25135207Y38106781D01*
X24995018Y38316590D01*
X24816590Y38495018D01*
X24606781Y38635207D01*
X24373654Y38731772D01*
X24126167Y38781000D01*
X23873833Y38781000D01*
X23626346Y38731772D01*
X23393219Y38635207D01*
X23183410Y38495018D01*
X23004982Y38316590D01*
X22864793Y38106781D01*
X22768228Y37873654D01*
X22719000Y37626167D01*
X11481697Y37626167D01*
X11481772Y37626346D01*
X11531000Y37873833D01*
X11531000Y38126167D01*
X11481772Y38373654D01*
X11385207Y38606781D01*
X11245018Y38816590D01*
X11066590Y38995018D01*
X10856781Y39135207D01*
X10623654Y39231772D01*
X10376167Y39281000D01*
X10123833Y39281000D01*
X9876346Y39231772D01*
X9643219Y39135207D01*
X9433410Y38995018D01*
X9254982Y38816590D01*
X9114793Y38606781D01*
X9018228Y38373654D01*
X8969000Y38126167D01*
X7643756Y38126167D01*
X7630790Y38191348D01*
X7581340Y38310732D01*
X7509548Y38418176D01*
X7418176Y38509548D01*
X7310732Y38581340D01*
X7191348Y38630790D01*
X7064610Y38656000D01*
X6935390Y38656000D01*
X6808652Y38630790D01*
X6689268Y38581340D01*
X6581824Y38509548D01*
X6490452Y38418176D01*
X6418660Y38310732D01*
X6369210Y38191348D01*
X6344000Y38064610D01*
X3656000Y38064610D01*
X3630790Y38191348D01*
X3581340Y38310732D01*
X3509548Y38418176D01*
X3418176Y38509548D01*
X3310732Y38581340D01*
X3191348Y38630790D01*
X3064610Y38656000D01*
X2935390Y38656000D01*
X2808652Y38630790D01*
X2689268Y38581340D01*
X2581824Y38509548D01*
X2490452Y38418176D01*
X2418660Y38310732D01*
X2369210Y38191348D01*
X2344000Y38064610D01*
X457200Y38064610D01*
X457200Y39814610D01*
X31344000Y39814610D01*
X31344000Y39685390D01*
X31369210Y39558652D01*
X31418660Y39439268D01*
X31490452Y39331824D01*
X31581824Y39240452D01*
X31689268Y39168660D01*
X31808652Y39119210D01*
X31935390Y39094000D01*
X32064610Y39094000D01*
X32191348Y39119210D01*
X32310732Y39168660D01*
X32418176Y39240452D01*
X32509548Y39331824D01*
X32581340Y39439268D01*
X32630790Y39558652D01*
X32656000Y39685390D01*
X32656000Y39814610D01*
X35344000Y39814610D01*
X35344000Y39685390D01*
X35369210Y39558652D01*
X35418660Y39439268D01*
X35490452Y39331824D01*
X35581824Y39240452D01*
X35689268Y39168660D01*
X35808652Y39119210D01*
X35935390Y39094000D01*
X36064610Y39094000D01*
X36191348Y39119210D01*
X36310732Y39168660D01*
X36418176Y39240452D01*
X36509548Y39331824D01*
X36581340Y39439268D01*
X36630790Y39558652D01*
X36656000Y39685390D01*
X36656000Y39814610D01*
X36630790Y39941348D01*
X36581340Y40060732D01*
X36509548Y40168176D01*
X36418176Y40259548D01*
X36310732Y40331340D01*
X36191348Y40380790D01*
X36064610Y40406000D01*
X35935390Y40406000D01*
X35808652Y40380790D01*
X35689268Y40331340D01*
X35581824Y40259548D01*
X35490452Y40168176D01*
X35418660Y40060732D01*
X35369210Y39941348D01*
X35344000Y39814610D01*
X32656000Y39814610D01*
X32630790Y39941348D01*
X32581340Y40060732D01*
X32509548Y40168176D01*
X32418176Y40259548D01*
X32310732Y40331340D01*
X32191348Y40380790D01*
X32064610Y40406000D01*
X31935390Y40406000D01*
X31808652Y40380790D01*
X31689268Y40331340D01*
X31581824Y40259548D01*
X31490452Y40168176D01*
X31418660Y40060732D01*
X31369210Y39941348D01*
X31344000Y39814610D01*
X457200Y39814610D01*
X457200Y43626167D01*
X11719000Y43626167D01*
X11719000Y43373833D01*
X11768228Y43126346D01*
X11864793Y42893219D01*
X12004982Y42683410D01*
X12183410Y42504982D01*
X12393219Y42364793D01*
X12626346Y42268228D01*
X12873833Y42219000D01*
X13126167Y42219000D01*
X13373654Y42268228D01*
X13606781Y42364793D01*
X13816590Y42504982D01*
X13995018Y42683410D01*
X14135207Y42893219D01*
X14206199Y43064610D01*
X23344000Y43064610D01*
X23344000Y42935390D01*
X23369210Y42808652D01*
X23418660Y42689268D01*
X23490452Y42581824D01*
X23581824Y42490452D01*
X23689268Y42418660D01*
X23808652Y42369210D01*
X23935390Y42344000D01*
X24064610Y42344000D01*
X24191348Y42369210D01*
X24310732Y42418660D01*
X24418176Y42490452D01*
X24509548Y42581824D01*
X24581340Y42689268D01*
X24630790Y42808652D01*
X24656000Y42935390D01*
X24656000Y43064610D01*
X27344000Y43064610D01*
X27344000Y42935390D01*
X27369210Y42808652D01*
X27418660Y42689268D01*
X27490452Y42581824D01*
X27581824Y42490452D01*
X27689268Y42418660D01*
X27808652Y42369210D01*
X27935390Y42344000D01*
X28064610Y42344000D01*
X28191348Y42369210D01*
X28310732Y42418660D01*
X28418176Y42490452D01*
X28509548Y42581824D01*
X28581340Y42689268D01*
X28630790Y42808652D01*
X28656000Y42935390D01*
X28656000Y43064610D01*
X28630790Y43191348D01*
X28581340Y43310732D01*
X28509548Y43418176D01*
X28418176Y43509548D01*
X28310732Y43581340D01*
X28191348Y43630790D01*
X28064610Y43656000D01*
X27935390Y43656000D01*
X27808652Y43630790D01*
X27689268Y43581340D01*
X27581824Y43509548D01*
X27490452Y43418176D01*
X27418660Y43310732D01*
X27369210Y43191348D01*
X27344000Y43064610D01*
X24656000Y43064610D01*
X24630790Y43191348D01*
X24581340Y43310732D01*
X24509548Y43418176D01*
X24418176Y43509548D01*
X24310732Y43581340D01*
X24191348Y43630790D01*
X24064610Y43656000D01*
X23935390Y43656000D01*
X23808652Y43630790D01*
X23689268Y43581340D01*
X23581824Y43509548D01*
X23490452Y43418176D01*
X23418660Y43310732D01*
X23369210Y43191348D01*
X23344000Y43064610D01*
X14206199Y43064610D01*
X14231772Y43126346D01*
X14281000Y43373833D01*
X14281000Y43626167D01*
X14231772Y43873654D01*
X14135207Y44106781D01*
X13995018Y44316590D01*
X13816590Y44495018D01*
X13606781Y44635207D01*
X13373654Y44731772D01*
X13126167Y44781000D01*
X12873833Y44781000D01*
X12626346Y44731772D01*
X12393219Y44635207D01*
X12183410Y44495018D01*
X12004982Y44316590D01*
X11864793Y44106781D01*
X11768228Y43873654D01*
X11719000Y43626167D01*
X457200Y43626167D01*
X457200Y48564610D01*
X6344000Y48564610D01*
X6344000Y48435390D01*
X6369210Y48308652D01*
X6418660Y48189268D01*
X6490452Y48081824D01*
X6581824Y47990452D01*
X6689268Y47918660D01*
X6808652Y47869210D01*
X6935390Y47844000D01*
X7064610Y47844000D01*
X7191348Y47869210D01*
X7310732Y47918660D01*
X7418176Y47990452D01*
X7509548Y48081824D01*
X7581340Y48189268D01*
X7630790Y48308652D01*
X7656000Y48435390D01*
X7656000Y48564610D01*
X7632001Y48685262D01*
X13619000Y48685262D01*
X13619000Y48314738D01*
X13691286Y47951333D01*
X13833080Y47609013D01*
X14038932Y47300933D01*
X14300933Y47038932D01*
X14609013Y46833080D01*
X14951333Y46691286D01*
X15314738Y46619000D01*
X15685262Y46619000D01*
X16048667Y46691286D01*
X16390987Y46833080D01*
X16699067Y47038932D01*
X16961068Y47300933D01*
X17166920Y47609013D01*
X17308714Y47951333D01*
X17381000Y48314738D01*
X17381000Y48626167D01*
X19719000Y48626167D01*
X19719000Y48373833D01*
X19768228Y48126346D01*
X19864793Y47893219D01*
X20004982Y47683410D01*
X20183410Y47504982D01*
X20393219Y47364793D01*
X20626346Y47268228D01*
X20873833Y47219000D01*
X21126167Y47219000D01*
X21373654Y47268228D01*
X21606781Y47364793D01*
X21816590Y47504982D01*
X21995018Y47683410D01*
X22135207Y47893219D01*
X22231772Y48126346D01*
X22281000Y48373833D01*
X22281000Y48626167D01*
X22231772Y48873654D01*
X22135207Y49106781D01*
X21995018Y49316590D01*
X21816590Y49495018D01*
X21606781Y49635207D01*
X21373654Y49731772D01*
X21126167Y49781000D01*
X20873833Y49781000D01*
X20626346Y49731772D01*
X20393219Y49635207D01*
X20183410Y49495018D01*
X20004982Y49316590D01*
X19864793Y49106781D01*
X19768228Y48873654D01*
X19719000Y48626167D01*
X17381000Y48626167D01*
X17381000Y48685262D01*
X17308714Y49048667D01*
X17166920Y49390987D01*
X16961068Y49699067D01*
X16699067Y49961068D01*
X16390987Y50166920D01*
X16048667Y50308714D01*
X15685262Y50381000D01*
X15314738Y50381000D01*
X14951333Y50308714D01*
X14609013Y50166920D01*
X14300933Y49961068D01*
X14038932Y49699067D01*
X13833080Y49390987D01*
X13691286Y49048667D01*
X13619000Y48685262D01*
X7632001Y48685262D01*
X7630790Y48691348D01*
X7581340Y48810732D01*
X7509548Y48918176D01*
X7418176Y49009548D01*
X7310732Y49081340D01*
X7191348Y49130790D01*
X7064610Y49156000D01*
X6935390Y49156000D01*
X6808652Y49130790D01*
X6689268Y49081340D01*
X6581824Y49009548D01*
X6490452Y48918176D01*
X6418660Y48810732D01*
X6369210Y48691348D01*
X6344000Y48564610D01*
X457200Y48564610D01*
X457200Y54557223D01*
X11919000Y54557223D01*
X11919000Y54442777D01*
X11941328Y54330529D01*
X11985125Y54224793D01*
X12048708Y54129634D01*
X12129634Y54048708D01*
X12224793Y53985125D01*
X12330529Y53941328D01*
X12442777Y53919000D01*
X12557223Y53919000D01*
X12669471Y53941328D01*
X12775207Y53985125D01*
X12870366Y54048708D01*
X12951292Y54129634D01*
X13014875Y54224793D01*
X13058672Y54330529D01*
X13081000Y54442777D01*
X13081000Y54557223D01*
X13058672Y54669471D01*
X13014875Y54775207D01*
X12951292Y54870366D01*
X12870366Y54951292D01*
X12775207Y55014875D01*
X12669471Y55058672D01*
X12557223Y55081000D01*
X12442777Y55081000D01*
X12330529Y55058672D01*
X12224793Y55014875D01*
X12129634Y54951292D01*
X12048708Y54870366D01*
X11985125Y54775207D01*
X11941328Y54669471D01*
X11919000Y54557223D01*
X457200Y54557223D01*
X457200Y56064610D01*
X2344000Y56064610D01*
X2344000Y55935390D01*
X2369210Y55808652D01*
X2418660Y55689268D01*
X2490452Y55581824D01*
X2581824Y55490452D01*
X2689268Y55418660D01*
X2808652Y55369210D01*
X2935390Y55344000D01*
X3064610Y55344000D01*
X3191348Y55369210D01*
X3310732Y55418660D01*
X3418176Y55490452D01*
X3509548Y55581824D01*
X3581340Y55689268D01*
X3630790Y55808652D01*
X3656000Y55935390D01*
X3656000Y56064610D01*
X6344000Y56064610D01*
X6344000Y55935390D01*
X6369210Y55808652D01*
X6418660Y55689268D01*
X6490452Y55581824D01*
X6581824Y55490452D01*
X6689268Y55418660D01*
X6808652Y55369210D01*
X6935390Y55344000D01*
X7064610Y55344000D01*
X7191348Y55369210D01*
X7310732Y55418660D01*
X7418176Y55490452D01*
X7509548Y55581824D01*
X7581340Y55689268D01*
X7630790Y55808652D01*
X7656000Y55935390D01*
X7656000Y56064610D01*
X7630790Y56191348D01*
X7581340Y56310732D01*
X7509548Y56418176D01*
X7418176Y56509548D01*
X7310732Y56581340D01*
X7191348Y56630790D01*
X7064610Y56656000D01*
X6935390Y56656000D01*
X6808652Y56630790D01*
X6689268Y56581340D01*
X6581824Y56509548D01*
X6490452Y56418176D01*
X6418660Y56310732D01*
X6369210Y56191348D01*
X6344000Y56064610D01*
X3656000Y56064610D01*
X3630790Y56191348D01*
X3581340Y56310732D01*
X3509548Y56418176D01*
X3418176Y56509548D01*
X3310732Y56581340D01*
X3191348Y56630790D01*
X3064610Y56656000D01*
X2935390Y56656000D01*
X2808652Y56630790D01*
X2689268Y56581340D01*
X2581824Y56509548D01*
X2490452Y56418176D01*
X2418660Y56310732D01*
X2369210Y56191348D01*
X2344000Y56064610D01*
X457200Y56064610D01*
X457200Y60064610D01*
X10344000Y60064610D01*
X10344000Y59935390D01*
X10369210Y59808652D01*
X10418660Y59689268D01*
X10490452Y59581824D01*
X10581824Y59490452D01*
X10689268Y59418660D01*
X10808652Y59369210D01*
X10935390Y59344000D01*
X11064610Y59344000D01*
X11191348Y59369210D01*
X11310732Y59418660D01*
X11418176Y59490452D01*
X11509548Y59581824D01*
X11581340Y59689268D01*
X11606495Y59750000D01*
X13873000Y59750000D01*
X13873000Y53250000D01*
X13875440Y53225224D01*
X13882667Y53201399D01*
X13894403Y53179443D01*
X13910197Y53160197D01*
X13929443Y53144403D01*
X13951399Y53132667D01*
X13975224Y53125440D01*
X14000000Y53123000D01*
X16552434Y53123000D01*
X16544694Y53037945D01*
X16544983Y52996475D01*
X16544694Y52955073D01*
X16545316Y52948730D01*
X16545316Y52948717D01*
X16545318Y52948705D01*
X16555517Y52851671D01*
X16563858Y52811036D01*
X16571614Y52770376D01*
X16573455Y52764276D01*
X16573458Y52764263D01*
X16573463Y52764251D01*
X16602315Y52671045D01*
X16618375Y52632839D01*
X16633897Y52594422D01*
X16636888Y52588795D01*
X16636892Y52588787D01*
X16636897Y52588780D01*
X16683307Y52502947D01*
X16706484Y52468585D01*
X16729168Y52433921D01*
X16733199Y52428978D01*
X16733203Y52428972D01*
X16733208Y52428967D01*
X16795405Y52353784D01*
X16824847Y52324547D01*
X16853798Y52294983D01*
X16858716Y52290913D01*
X16934337Y52229237D01*
X16968881Y52206285D01*
X17003048Y52182891D01*
X17008664Y52179854D01*
X17094825Y52134042D01*
X17133150Y52118246D01*
X17171219Y52101929D01*
X17177318Y52100041D01*
X17270736Y52071836D01*
X17311444Y52063775D01*
X17351921Y52055172D01*
X17358261Y52054505D01*
X17358266Y52054504D01*
X17358270Y52054504D01*
X17454834Y52045036D01*
X17477540Y52042800D01*
X42522460Y52042800D01*
X42542950Y52044818D01*
X42555400Y52044731D01*
X42561754Y52045354D01*
X42949946Y52086155D01*
X42990574Y52094494D01*
X43031242Y52102252D01*
X43037344Y52104094D01*
X43037354Y52104096D01*
X43037363Y52104100D01*
X43410228Y52219521D01*
X43448462Y52235593D01*
X43486849Y52251102D01*
X43492486Y52254098D01*
X43835841Y52439750D01*
X43870187Y52462916D01*
X43904869Y52485612D01*
X43909817Y52489647D01*
X44210572Y52738454D01*
X44239792Y52767878D01*
X44269376Y52796849D01*
X44273440Y52801762D01*
X44273446Y52801768D01*
X44273450Y52801775D01*
X44520146Y53104253D01*
X44543077Y53138765D01*
X44566489Y53172958D01*
X44569521Y53178566D01*
X44569526Y53178574D01*
X44569529Y53178582D01*
X44752775Y53523216D01*
X44768563Y53561521D01*
X44784890Y53599615D01*
X44786779Y53605714D01*
X44899596Y53979385D01*
X44907645Y54020036D01*
X44916260Y54060567D01*
X44916928Y54066916D01*
X44955018Y54455385D01*
X44957200Y54477540D01*
X44957200Y58522460D01*
X44955182Y58542950D01*
X44955269Y58555400D01*
X44954646Y58561754D01*
X44913845Y58949947D01*
X44905512Y58990544D01*
X44897748Y59031242D01*
X44895903Y59037354D01*
X44780479Y59410229D01*
X44764402Y59448476D01*
X44748898Y59486849D01*
X44745902Y59492486D01*
X44560251Y59835841D01*
X44537066Y59870214D01*
X44514388Y59904869D01*
X44510353Y59909817D01*
X44261546Y60210572D01*
X44232138Y60239775D01*
X44203151Y60269376D01*
X44198232Y60273446D01*
X43895747Y60520146D01*
X43861201Y60543099D01*
X43827041Y60566489D01*
X43821426Y60569526D01*
X43476784Y60752775D01*
X43438437Y60768581D01*
X43400384Y60784890D01*
X43394290Y60786778D01*
X43394284Y60786780D01*
X43020614Y60899597D01*
X42979935Y60907651D01*
X42939433Y60916260D01*
X42933084Y60916928D01*
X42544615Y60955018D01*
X42522460Y60957200D01*
X17477540Y60957200D01*
X17454887Y60954969D01*
X17448407Y60954969D01*
X17442058Y60954302D01*
X17345083Y60943425D01*
X17304503Y60934800D01*
X17263900Y60926760D01*
X17257807Y60924875D01*
X17257803Y60924874D01*
X17257800Y60924873D01*
X17257801Y60924873D01*
X17164786Y60895367D01*
X17126654Y60879024D01*
X17088388Y60863252D01*
X17082776Y60860218D01*
X17082771Y60860216D01*
X17082767Y60860213D01*
X16997259Y60813205D01*
X16963043Y60789777D01*
X16928551Y60766860D01*
X16923632Y60762791D01*
X16848880Y60700066D01*
X16819857Y60670429D01*
X16790487Y60641263D01*
X16786451Y60636316D01*
X16725305Y60560266D01*
X16702598Y60525566D01*
X16679443Y60491237D01*
X16676449Y60485606D01*
X16676446Y60485602D01*
X16676446Y60485601D01*
X16631235Y60399121D01*
X16615691Y60360649D01*
X16599656Y60322503D01*
X16597810Y60316391D01*
X16570258Y60222780D01*
X16562492Y60182069D01*
X16554161Y60141481D01*
X16553538Y60135127D01*
X16544694Y60037945D01*
X16544983Y59996475D01*
X16544694Y59955073D01*
X16545316Y59948730D01*
X16545316Y59948717D01*
X16545318Y59948705D01*
X16552855Y59877000D01*
X14000000Y59877000D01*
X13975224Y59874560D01*
X13951399Y59867333D01*
X13929443Y59855597D01*
X13910197Y59839803D01*
X13894403Y59820557D01*
X13882667Y59798601D01*
X13875440Y59774776D01*
X13873000Y59750000D01*
X11606495Y59750000D01*
X11630790Y59808652D01*
X11656000Y59935390D01*
X11656000Y60064610D01*
X11630790Y60191348D01*
X11581340Y60310732D01*
X11509548Y60418176D01*
X11418176Y60509548D01*
X11310732Y60581340D01*
X11191348Y60630790D01*
X11064610Y60656000D01*
X10935390Y60656000D01*
X10808652Y60630790D01*
X10689268Y60581340D01*
X10581824Y60509548D01*
X10490452Y60418176D01*
X10418660Y60310732D01*
X10369210Y60191348D01*
X10344000Y60064610D01*
X457200Y60064610D01*
X457200Y64977639D01*
X477557Y65185262D01*
X1119000Y65185262D01*
X1119000Y64814738D01*
X1191286Y64451333D01*
X1333080Y64109013D01*
X1538932Y63800933D01*
X1800933Y63538932D01*
X2109013Y63333080D01*
X2451333Y63191286D01*
X2814738Y63119000D01*
X3185262Y63119000D01*
X3548667Y63191286D01*
X3890987Y63333080D01*
X4199067Y63538932D01*
X4461068Y63800933D01*
X4666920Y64109013D01*
X4808714Y64451333D01*
X4855245Y64685262D01*
X13619000Y64685262D01*
X13619000Y64314738D01*
X13691286Y63951333D01*
X13833080Y63609013D01*
X14038932Y63300933D01*
X14300933Y63038932D01*
X14609013Y62833080D01*
X14951333Y62691286D01*
X15314738Y62619000D01*
X15685262Y62619000D01*
X16048667Y62691286D01*
X16390987Y62833080D01*
X16699067Y63038932D01*
X16961068Y63300933D01*
X17166920Y63609013D01*
X17308714Y63951333D01*
X17381000Y64314738D01*
X17381000Y64685262D01*
X17308714Y65048667D01*
X17252135Y65185262D01*
X41119000Y65185262D01*
X41119000Y64814738D01*
X41191286Y64451333D01*
X41333080Y64109013D01*
X41538932Y63800933D01*
X41800933Y63538932D01*
X42109013Y63333080D01*
X42451333Y63191286D01*
X42814738Y63119000D01*
X43185262Y63119000D01*
X43548667Y63191286D01*
X43890987Y63333080D01*
X44199067Y63538932D01*
X44461068Y63800933D01*
X44666920Y64109013D01*
X44808714Y64451333D01*
X44881000Y64814738D01*
X44881000Y65185262D01*
X44808714Y65548667D01*
X44666920Y65890987D01*
X44461068Y66199067D01*
X44199067Y66461068D01*
X43890987Y66666920D01*
X43548667Y66808714D01*
X43185262Y66881000D01*
X42814738Y66881000D01*
X42451333Y66808714D01*
X42109013Y66666920D01*
X41800933Y66461068D01*
X41538932Y66199067D01*
X41333080Y65890987D01*
X41191286Y65548667D01*
X41119000Y65185262D01*
X17252135Y65185262D01*
X17166920Y65390987D01*
X16961068Y65699067D01*
X16699067Y65961068D01*
X16390987Y66166920D01*
X16048667Y66308714D01*
X15685262Y66381000D01*
X15314738Y66381000D01*
X14951333Y66308714D01*
X14609013Y66166920D01*
X14300933Y65961068D01*
X14038932Y65699067D01*
X13833080Y65390987D01*
X13691286Y65048667D01*
X13619000Y64685262D01*
X4855245Y64685262D01*
X4881000Y64814738D01*
X4881000Y65185262D01*
X4808714Y65548667D01*
X4666920Y65890987D01*
X4461068Y66199067D01*
X4199067Y66461068D01*
X3890987Y66666920D01*
X3548667Y66808714D01*
X3185262Y66881000D01*
X2814738Y66881000D01*
X2451333Y66808714D01*
X2109013Y66666920D01*
X1800933Y66461068D01*
X1538932Y66199067D01*
X1333080Y65890987D01*
X1191286Y65548667D01*
X1119000Y65185262D01*
X477557Y65185262D01*
X507778Y65493472D01*
X651090Y65968148D01*
X883875Y66405953D01*
X1197261Y66790200D01*
X1579309Y67106258D01*
X2015477Y67342093D01*
X2489143Y67488717D01*
X3003707Y67542800D01*
X42977639Y67542800D01*
X43493472Y67492222D01*
%TA.AperFunction,Conductor*%
D17*
G36*
X43493472Y67492222D02*
G01*
X43968148Y67348910D01*
X44405953Y67116125D01*
X44790200Y66802739D01*
X45106258Y66420691D01*
X45342093Y65984523D01*
X45488717Y65510857D01*
X45542800Y64996293D01*
X45542801Y3022372D01*
X45492222Y2506529D01*
X45348908Y2031848D01*
X45116125Y1594047D01*
X44802742Y1209802D01*
X44420691Y893742D01*
X43984522Y657907D01*
X43510859Y511283D01*
X42996293Y457200D01*
X3022361Y457200D01*
X2506529Y507778D01*
X2031848Y651092D01*
X1594047Y883875D01*
X1209802Y1197258D01*
X893742Y1579309D01*
X657907Y2015478D01*
X511283Y2489141D01*
X457200Y3003707D01*
X457200Y3185262D01*
X1119000Y3185262D01*
X1119000Y2814738D01*
X1191286Y2451333D01*
X1333080Y2109013D01*
X1538932Y1800933D01*
X1800933Y1538932D01*
X2109013Y1333080D01*
X2451333Y1191286D01*
X2814738Y1119000D01*
X3185262Y1119000D01*
X3548667Y1191286D01*
X3890987Y1333080D01*
X4199067Y1538932D01*
X4461068Y1800933D01*
X4666920Y2109013D01*
X4668395Y2112576D01*
X9357000Y2112576D01*
X9357000Y1887424D01*
X9400925Y1666599D01*
X9487087Y1458587D01*
X9612174Y1271380D01*
X9771380Y1112174D01*
X9958587Y987087D01*
X10166599Y900925D01*
X10387424Y857000D01*
X10612576Y857000D01*
X10833401Y900925D01*
X11041413Y987087D01*
X11228620Y1112174D01*
X11387826Y1271380D01*
X11512913Y1458587D01*
X11599075Y1666599D01*
X11643000Y1887424D01*
X11643000Y2112576D01*
X11599075Y2333401D01*
X11512913Y2541413D01*
X11387826Y2728620D01*
X11228620Y2887826D01*
X11041413Y3012913D01*
X10833401Y3099075D01*
X10612576Y3143000D01*
X10387424Y3143000D01*
X10166599Y3099075D01*
X9958587Y3012913D01*
X9771380Y2887826D01*
X9612174Y2728620D01*
X9487087Y2541413D01*
X9400925Y2333401D01*
X9357000Y2112576D01*
X4668395Y2112576D01*
X4808714Y2451333D01*
X4881000Y2814738D01*
X4881000Y3185262D01*
X41119000Y3185262D01*
X41119000Y2814738D01*
X41191286Y2451333D01*
X41333080Y2109013D01*
X41538932Y1800933D01*
X41800933Y1538932D01*
X42109013Y1333080D01*
X42451333Y1191286D01*
X42814738Y1119000D01*
X43185262Y1119000D01*
X43548667Y1191286D01*
X43890987Y1333080D01*
X44199067Y1538932D01*
X44461068Y1800933D01*
X44666920Y2109013D01*
X44808714Y2451333D01*
X44881000Y2814738D01*
X44881000Y3185262D01*
X44808714Y3548667D01*
X44666920Y3890987D01*
X44461068Y4199067D01*
X44199067Y4461068D01*
X43890987Y4666920D01*
X43548667Y4808714D01*
X43185262Y4881000D01*
X42814738Y4881000D01*
X42451333Y4808714D01*
X42109013Y4666920D01*
X41800933Y4461068D01*
X41538932Y4199067D01*
X41333080Y3890987D01*
X41191286Y3548667D01*
X41119000Y3185262D01*
X4881000Y3185262D01*
X4808714Y3548667D01*
X4666920Y3890987D01*
X4461068Y4199067D01*
X4199067Y4461068D01*
X3890987Y4666920D01*
X3548667Y4808714D01*
X3185262Y4881000D01*
X2814738Y4881000D01*
X2451333Y4808714D01*
X2109013Y4666920D01*
X1800933Y4461068D01*
X1538932Y4199067D01*
X1333080Y3890987D01*
X1191286Y3548667D01*
X1119000Y3185262D01*
X457200Y3185262D01*
X457200Y8564610D01*
X34344000Y8564610D01*
X34344000Y8435390D01*
X34369210Y8308652D01*
X34418660Y8189268D01*
X34490452Y8081824D01*
X34581824Y7990452D01*
X34689268Y7918660D01*
X34808652Y7869210D01*
X34935390Y7844000D01*
X35064610Y7844000D01*
X35191348Y7869210D01*
X35310732Y7918660D01*
X35418176Y7990452D01*
X35509548Y8081824D01*
X35581340Y8189268D01*
X35630790Y8308652D01*
X35656000Y8435390D01*
X35656000Y8564610D01*
X35630790Y8691348D01*
X35581340Y8810732D01*
X35509548Y8918176D01*
X35418176Y9009548D01*
X35310732Y9081340D01*
X35191348Y9130790D01*
X35064610Y9156000D01*
X34935390Y9156000D01*
X34808652Y9130790D01*
X34689268Y9081340D01*
X34581824Y9009548D01*
X34490452Y8918176D01*
X34418660Y8810732D01*
X34369210Y8691348D01*
X34344000Y8564610D01*
X457200Y8564610D01*
X457200Y11564610D01*
X2844000Y11564610D01*
X2844000Y11435390D01*
X2869210Y11308652D01*
X2918660Y11189268D01*
X2990452Y11081824D01*
X3072276Y11000000D01*
X2990452Y10918176D01*
X2918660Y10810732D01*
X2869210Y10691348D01*
X2844000Y10564610D01*
X2844000Y10435390D01*
X2869210Y10308652D01*
X2918660Y10189268D01*
X2990452Y10081824D01*
X3081824Y9990452D01*
X3189268Y9918660D01*
X3308652Y9869210D01*
X3435390Y9844000D01*
X3564610Y9844000D01*
X3691348Y9869210D01*
X3810732Y9918660D01*
X3918176Y9990452D01*
X3992334Y10064610D01*
X6844000Y10064610D01*
X6844000Y9935390D01*
X6869210Y9808652D01*
X6918660Y9689268D01*
X6990452Y9581824D01*
X7081824Y9490452D01*
X7189268Y9418660D01*
X7308652Y9369210D01*
X7435390Y9344000D01*
X7564610Y9344000D01*
X7691348Y9369210D01*
X7810732Y9418660D01*
X7918176Y9490452D01*
X8009548Y9581824D01*
X8081340Y9689268D01*
X8130790Y9808652D01*
X8156000Y9935390D01*
X8156000Y10064610D01*
X12844000Y10064610D01*
X12844000Y9935390D01*
X12869210Y9808652D01*
X12918660Y9689268D01*
X12990452Y9581824D01*
X13081824Y9490452D01*
X13189268Y9418660D01*
X13308652Y9369210D01*
X13435390Y9344000D01*
X13564610Y9344000D01*
X13691348Y9369210D01*
X13810732Y9418660D01*
X13918176Y9490452D01*
X14009548Y9581824D01*
X14081340Y9689268D01*
X14130790Y9808652D01*
X14156000Y9935390D01*
X14156000Y10064610D01*
X14130790Y10191348D01*
X14081340Y10310732D01*
X14009548Y10418176D01*
X13918176Y10509548D01*
X13810732Y10581340D01*
X13691348Y10630790D01*
X13564610Y10656000D01*
X13435390Y10656000D01*
X13308652Y10630790D01*
X13189268Y10581340D01*
X13081824Y10509548D01*
X12990452Y10418176D01*
X12918660Y10310732D01*
X12869210Y10191348D01*
X12844000Y10064610D01*
X8156000Y10064610D01*
X8130790Y10191348D01*
X8081340Y10310732D01*
X8009548Y10418176D01*
X7918176Y10509548D01*
X7810732Y10581340D01*
X7691348Y10630790D01*
X7564610Y10656000D01*
X7435390Y10656000D01*
X7308652Y10630790D01*
X7189268Y10581340D01*
X7081824Y10509548D01*
X6990452Y10418176D01*
X6918660Y10310732D01*
X6869210Y10191348D01*
X6844000Y10064610D01*
X3992334Y10064610D01*
X4009548Y10081824D01*
X4081340Y10189268D01*
X4130790Y10308652D01*
X4156000Y10435390D01*
X4156000Y10564610D01*
X4130790Y10691348D01*
X4081340Y10810732D01*
X4009548Y10918176D01*
X3927724Y11000000D01*
X4009548Y11081824D01*
X4081340Y11189268D01*
X4130790Y11308652D01*
X4156000Y11435390D01*
X4156000Y11564610D01*
X6844000Y11564610D01*
X6844000Y11435390D01*
X6869210Y11308652D01*
X6918660Y11189268D01*
X6990452Y11081824D01*
X7081824Y10990452D01*
X7189268Y10918660D01*
X7308652Y10869210D01*
X7435390Y10844000D01*
X7564610Y10844000D01*
X7691348Y10869210D01*
X7810732Y10918660D01*
X7918176Y10990452D01*
X8009548Y11081824D01*
X8081340Y11189268D01*
X8130790Y11308652D01*
X8156000Y11435390D01*
X8156000Y11564610D01*
X12844000Y11564610D01*
X12844000Y11435390D01*
X12869210Y11308652D01*
X12918660Y11189268D01*
X12990452Y11081824D01*
X13081824Y10990452D01*
X13189268Y10918660D01*
X13308652Y10869210D01*
X13435390Y10844000D01*
X13564610Y10844000D01*
X13691348Y10869210D01*
X13810732Y10918660D01*
X13918176Y10990452D01*
X14009548Y11081824D01*
X14081340Y11189268D01*
X14130790Y11308652D01*
X14156000Y11435390D01*
X14156000Y11564610D01*
X14130790Y11691348D01*
X14081340Y11810732D01*
X14009548Y11918176D01*
X13918176Y12009548D01*
X13810732Y12081340D01*
X13691348Y12130790D01*
X13564610Y12156000D01*
X13435390Y12156000D01*
X13308652Y12130790D01*
X13189268Y12081340D01*
X13081824Y12009548D01*
X12990452Y11918176D01*
X12918660Y11810732D01*
X12869210Y11691348D01*
X12844000Y11564610D01*
X8156000Y11564610D01*
X8130790Y11691348D01*
X8081340Y11810732D01*
X8009548Y11918176D01*
X7918176Y12009548D01*
X7810732Y12081340D01*
X7691348Y12130790D01*
X7564610Y12156000D01*
X7435390Y12156000D01*
X7308652Y12130790D01*
X7189268Y12081340D01*
X7081824Y12009548D01*
X6990452Y11918176D01*
X6918660Y11810732D01*
X6869210Y11691348D01*
X6844000Y11564610D01*
X4156000Y11564610D01*
X4130790Y11691348D01*
X4081340Y11810732D01*
X4009548Y11918176D01*
X3918176Y12009548D01*
X3810732Y12081340D01*
X3691348Y12130790D01*
X3564610Y12156000D01*
X3435390Y12156000D01*
X3308652Y12130790D01*
X3189268Y12081340D01*
X3081824Y12009548D01*
X2990452Y11918176D01*
X2918660Y11810732D01*
X2869210Y11691348D01*
X2844000Y11564610D01*
X457200Y11564610D01*
X457200Y13064610D01*
X6844000Y13064610D01*
X6844000Y12935390D01*
X6869210Y12808652D01*
X6918660Y12689268D01*
X6990452Y12581824D01*
X7081824Y12490452D01*
X7189268Y12418660D01*
X7308652Y12369210D01*
X7435390Y12344000D01*
X7564610Y12344000D01*
X7691348Y12369210D01*
X7810732Y12418660D01*
X7918176Y12490452D01*
X8009548Y12581824D01*
X8081340Y12689268D01*
X8130790Y12808652D01*
X8156000Y12935390D01*
X8156000Y13064610D01*
X8344000Y13064610D01*
X8344000Y12935390D01*
X8369210Y12808652D01*
X8418660Y12689268D01*
X8490452Y12581824D01*
X8581824Y12490452D01*
X8689268Y12418660D01*
X8808652Y12369210D01*
X8935390Y12344000D01*
X9064610Y12344000D01*
X9191348Y12369210D01*
X9310732Y12418660D01*
X9418176Y12490452D01*
X9509548Y12581824D01*
X9581340Y12689268D01*
X9630790Y12808652D01*
X9656000Y12935390D01*
X9656000Y13064610D01*
X9844000Y13064610D01*
X9844000Y12935390D01*
X9869210Y12808652D01*
X9918660Y12689268D01*
X9990452Y12581824D01*
X10081824Y12490452D01*
X10189268Y12418660D01*
X10308652Y12369210D01*
X10435390Y12344000D01*
X10564610Y12344000D01*
X10691348Y12369210D01*
X10810732Y12418660D01*
X10918176Y12490452D01*
X11009548Y12581824D01*
X11081340Y12689268D01*
X11130790Y12808652D01*
X11156000Y12935390D01*
X11156000Y13064610D01*
X11344000Y13064610D01*
X11344000Y12935390D01*
X11369210Y12808652D01*
X11418660Y12689268D01*
X11490452Y12581824D01*
X11581824Y12490452D01*
X11689268Y12418660D01*
X11808652Y12369210D01*
X11935390Y12344000D01*
X12064610Y12344000D01*
X12191348Y12369210D01*
X12310732Y12418660D01*
X12418176Y12490452D01*
X12509548Y12581824D01*
X12581340Y12689268D01*
X12630790Y12808652D01*
X12656000Y12935390D01*
X12656000Y13064610D01*
X12844000Y13064610D01*
X12844000Y12935390D01*
X12869210Y12808652D01*
X12918660Y12689268D01*
X12990452Y12581824D01*
X13081824Y12490452D01*
X13189268Y12418660D01*
X13308652Y12369210D01*
X13435390Y12344000D01*
X13564610Y12344000D01*
X13691348Y12369210D01*
X13810732Y12418660D01*
X13918176Y12490452D01*
X14009548Y12581824D01*
X14081340Y12689268D01*
X14130790Y12808652D01*
X14156000Y12935390D01*
X14156000Y13064610D01*
X14130790Y13191348D01*
X14081340Y13310732D01*
X14009548Y13418176D01*
X13918176Y13509548D01*
X13810732Y13581340D01*
X13702510Y13626167D01*
X31719000Y13626167D01*
X31719000Y13373833D01*
X31768228Y13126346D01*
X31864793Y12893219D01*
X32004982Y12683410D01*
X32183410Y12504982D01*
X32393219Y12364793D01*
X32626346Y12268228D01*
X32873833Y12219000D01*
X33126167Y12219000D01*
X33373654Y12268228D01*
X33606781Y12364793D01*
X33816590Y12504982D01*
X33995018Y12683410D01*
X34135207Y12893219D01*
X34231772Y13126346D01*
X34281000Y13373833D01*
X34281000Y13626167D01*
X34231772Y13873654D01*
X34135207Y14106781D01*
X33995018Y14316590D01*
X33816590Y14495018D01*
X33606781Y14635207D01*
X33373654Y14731772D01*
X33126167Y14781000D01*
X32873833Y14781000D01*
X32626346Y14731772D01*
X32393219Y14635207D01*
X32183410Y14495018D01*
X32004982Y14316590D01*
X31864793Y14106781D01*
X31768228Y13873654D01*
X31719000Y13626167D01*
X13702510Y13626167D01*
X13691348Y13630790D01*
X13564610Y13656000D01*
X13435390Y13656000D01*
X13308652Y13630790D01*
X13189268Y13581340D01*
X13081824Y13509548D01*
X12990452Y13418176D01*
X12918660Y13310732D01*
X12869210Y13191348D01*
X12844000Y13064610D01*
X12656000Y13064610D01*
X12630790Y13191348D01*
X12581340Y13310732D01*
X12509548Y13418176D01*
X12418176Y13509548D01*
X12310732Y13581340D01*
X12191348Y13630790D01*
X12064610Y13656000D01*
X11935390Y13656000D01*
X11808652Y13630790D01*
X11689268Y13581340D01*
X11581824Y13509548D01*
X11490452Y13418176D01*
X11418660Y13310732D01*
X11369210Y13191348D01*
X11344000Y13064610D01*
X11156000Y13064610D01*
X11130790Y13191348D01*
X11081340Y13310732D01*
X11009548Y13418176D01*
X10918176Y13509548D01*
X10810732Y13581340D01*
X10691348Y13630790D01*
X10564610Y13656000D01*
X10435390Y13656000D01*
X10308652Y13630790D01*
X10189268Y13581340D01*
X10081824Y13509548D01*
X9990452Y13418176D01*
X9918660Y13310732D01*
X9869210Y13191348D01*
X9844000Y13064610D01*
X9656000Y13064610D01*
X9630790Y13191348D01*
X9581340Y13310732D01*
X9509548Y13418176D01*
X9418176Y13509548D01*
X9310732Y13581340D01*
X9191348Y13630790D01*
X9064610Y13656000D01*
X8935390Y13656000D01*
X8808652Y13630790D01*
X8689268Y13581340D01*
X8581824Y13509548D01*
X8490452Y13418176D01*
X8418660Y13310732D01*
X8369210Y13191348D01*
X8344000Y13064610D01*
X8156000Y13064610D01*
X8130790Y13191348D01*
X8081340Y13310732D01*
X8009548Y13418176D01*
X7918176Y13509548D01*
X7810732Y13581340D01*
X7691348Y13630790D01*
X7564610Y13656000D01*
X7435390Y13656000D01*
X7308652Y13630790D01*
X7189268Y13581340D01*
X7081824Y13509548D01*
X6990452Y13418176D01*
X6918660Y13310732D01*
X6869210Y13191348D01*
X6844000Y13064610D01*
X457200Y13064610D01*
X457200Y14814610D01*
X19844000Y14814610D01*
X19844000Y14685390D01*
X19869210Y14558652D01*
X19918660Y14439268D01*
X19990452Y14331824D01*
X20081824Y14240452D01*
X20189268Y14168660D01*
X20308652Y14119210D01*
X20435390Y14094000D01*
X20564610Y14094000D01*
X20691348Y14119210D01*
X20810732Y14168660D01*
X20918176Y14240452D01*
X21009548Y14331824D01*
X21081340Y14439268D01*
X21130790Y14558652D01*
X21156000Y14685390D01*
X21156000Y14814610D01*
X23844000Y14814610D01*
X23844000Y14685390D01*
X23869210Y14558652D01*
X23918660Y14439268D01*
X23990452Y14331824D01*
X24081824Y14240452D01*
X24189268Y14168660D01*
X24308652Y14119210D01*
X24435390Y14094000D01*
X24564610Y14094000D01*
X24691348Y14119210D01*
X24810732Y14168660D01*
X24918176Y14240452D01*
X25009548Y14331824D01*
X25081340Y14439268D01*
X25130790Y14558652D01*
X25156000Y14685390D01*
X25156000Y14814610D01*
X25130790Y14941348D01*
X25081340Y15060732D01*
X25037618Y15126167D01*
X35969000Y15126167D01*
X35969000Y14873833D01*
X36018228Y14626346D01*
X36114793Y14393219D01*
X36254982Y14183410D01*
X36433410Y14004982D01*
X36643219Y13864793D01*
X36876346Y13768228D01*
X37123833Y13719000D01*
X37376167Y13719000D01*
X37623654Y13768228D01*
X37856781Y13864793D01*
X38066590Y14004982D01*
X38245018Y14183410D01*
X38385207Y14393219D01*
X38481772Y14626346D01*
X38531000Y14873833D01*
X38531000Y15126167D01*
X38481772Y15373654D01*
X38385207Y15606781D01*
X38245018Y15816590D01*
X38066590Y15995018D01*
X37856781Y16135207D01*
X37623654Y16231772D01*
X37376167Y16281000D01*
X37123833Y16281000D01*
X36876346Y16231772D01*
X36643219Y16135207D01*
X36433410Y15995018D01*
X36254982Y15816590D01*
X36114793Y15606781D01*
X36018228Y15373654D01*
X35969000Y15126167D01*
X25037618Y15126167D01*
X25009548Y15168176D01*
X24918176Y15259548D01*
X24810732Y15331340D01*
X24691348Y15380790D01*
X24564610Y15406000D01*
X24435390Y15406000D01*
X24308652Y15380790D01*
X24189268Y15331340D01*
X24081824Y15259548D01*
X23990452Y15168176D01*
X23918660Y15060732D01*
X23869210Y14941348D01*
X23844000Y14814610D01*
X21156000Y14814610D01*
X21130790Y14941348D01*
X21081340Y15060732D01*
X21009548Y15168176D01*
X20918176Y15259548D01*
X20810732Y15331340D01*
X20691348Y15380790D01*
X20564610Y15406000D01*
X20435390Y15406000D01*
X20308652Y15380790D01*
X20189268Y15331340D01*
X20081824Y15259548D01*
X19990452Y15168176D01*
X19918660Y15060732D01*
X19869210Y14941348D01*
X19844000Y14814610D01*
X457200Y14814610D01*
X457200Y16876167D01*
X41719000Y16876167D01*
X41719000Y16623833D01*
X41768228Y16376346D01*
X41864793Y16143219D01*
X42004982Y15933410D01*
X42183410Y15754982D01*
X42393219Y15614793D01*
X42626346Y15518228D01*
X42873833Y15469000D01*
X43126167Y15469000D01*
X43373654Y15518228D01*
X43606781Y15614793D01*
X43816590Y15754982D01*
X43995018Y15933410D01*
X44135207Y16143219D01*
X44231772Y16376346D01*
X44281000Y16623833D01*
X44281000Y16876167D01*
X44231772Y17123654D01*
X44135207Y17356781D01*
X43995018Y17566590D01*
X43816590Y17745018D01*
X43606781Y17885207D01*
X43373654Y17981772D01*
X43126167Y18031000D01*
X42873833Y18031000D01*
X42626346Y17981772D01*
X42393219Y17885207D01*
X42183410Y17745018D01*
X42004982Y17566590D01*
X41864793Y17356781D01*
X41768228Y17123654D01*
X41719000Y16876167D01*
X457200Y16876167D01*
X457200Y18626167D01*
X35969000Y18626167D01*
X35969000Y18373833D01*
X36018228Y18126346D01*
X36114793Y17893219D01*
X36254982Y17683410D01*
X36433410Y17504982D01*
X36643219Y17364793D01*
X36876346Y17268228D01*
X37123833Y17219000D01*
X37376167Y17219000D01*
X37623654Y17268228D01*
X37856781Y17364793D01*
X38066590Y17504982D01*
X38245018Y17683410D01*
X38385207Y17893219D01*
X38481772Y18126346D01*
X38531000Y18373833D01*
X38531000Y18626167D01*
X38481772Y18873654D01*
X38385207Y19106781D01*
X38245018Y19316590D01*
X38066590Y19495018D01*
X37928092Y19587559D01*
X40611000Y19587559D01*
X40611000Y19412441D01*
X40645164Y19240688D01*
X40712179Y19078901D01*
X40809469Y18933296D01*
X40933296Y18809469D01*
X41078901Y18712179D01*
X41240688Y18645164D01*
X41412441Y18611000D01*
X41587559Y18611000D01*
X41759312Y18645164D01*
X41921099Y18712179D01*
X42066704Y18809469D01*
X42190531Y18933296D01*
X42287821Y19078901D01*
X42354836Y19240688D01*
X42389000Y19412441D01*
X42389000Y19587559D01*
X42354836Y19759312D01*
X42287821Y19921099D01*
X42190531Y20066704D01*
X42066704Y20190531D01*
X41921099Y20287821D01*
X41759312Y20354836D01*
X41587559Y20389000D01*
X41412441Y20389000D01*
X41240688Y20354836D01*
X41078901Y20287821D01*
X40933296Y20190531D01*
X40809469Y20066704D01*
X40712179Y19921099D01*
X40645164Y19759312D01*
X40611000Y19587559D01*
X37928092Y19587559D01*
X37856781Y19635207D01*
X37623654Y19731772D01*
X37376167Y19781000D01*
X37123833Y19781000D01*
X36876346Y19731772D01*
X36643219Y19635207D01*
X36433410Y19495018D01*
X36254982Y19316590D01*
X36114793Y19106781D01*
X36018228Y18873654D01*
X35969000Y18626167D01*
X457200Y18626167D01*
X457200Y26314610D01*
X30094000Y26314610D01*
X30094000Y26185390D01*
X30119210Y26058652D01*
X30168660Y25939268D01*
X30240452Y25831824D01*
X30331824Y25740452D01*
X30439268Y25668660D01*
X30544674Y25625000D01*
X30439268Y25581340D01*
X30331824Y25509548D01*
X30240452Y25418176D01*
X30168660Y25310732D01*
X30119210Y25191348D01*
X30094000Y25064610D01*
X30094000Y24935390D01*
X30119210Y24808652D01*
X30168660Y24689268D01*
X30240452Y24581824D01*
X30331824Y24490452D01*
X30439268Y24418660D01*
X30558652Y24369210D01*
X30685390Y24344000D01*
X30814610Y24344000D01*
X30941348Y24369210D01*
X31060732Y24418660D01*
X31168176Y24490452D01*
X31259548Y24581824D01*
X31331340Y24689268D01*
X31380790Y24808652D01*
X31406000Y24935390D01*
X31406000Y25064610D01*
X31380790Y25191348D01*
X31331340Y25310732D01*
X31259548Y25418176D01*
X31168176Y25509548D01*
X31060732Y25581340D01*
X30955326Y25625000D01*
X31060732Y25668660D01*
X31168176Y25740452D01*
X31259548Y25831824D01*
X31331340Y25939268D01*
X31380790Y26058652D01*
X31381975Y26064610D01*
X37094000Y26064610D01*
X37094000Y25935390D01*
X37119210Y25808652D01*
X37168660Y25689268D01*
X37240452Y25581824D01*
X37331824Y25490452D01*
X37439268Y25418660D01*
X37544674Y25375000D01*
X37439268Y25331340D01*
X37331824Y25259548D01*
X37240452Y25168176D01*
X37168660Y25060732D01*
X37119210Y24941348D01*
X37094000Y24814610D01*
X37094000Y24685390D01*
X37119210Y24558652D01*
X37168660Y24439268D01*
X37240452Y24331824D01*
X37331824Y24240452D01*
X37439268Y24168660D01*
X37558652Y24119210D01*
X37685390Y24094000D01*
X37814610Y24094000D01*
X37941348Y24119210D01*
X38060732Y24168660D01*
X38168176Y24240452D01*
X38259548Y24331824D01*
X38331340Y24439268D01*
X38380790Y24558652D01*
X38406000Y24685390D01*
X38406000Y24814610D01*
X38380790Y24941348D01*
X38331340Y25060732D01*
X38259548Y25168176D01*
X38168176Y25259548D01*
X38060732Y25331340D01*
X37955326Y25375000D01*
X38060732Y25418660D01*
X38168176Y25490452D01*
X38259548Y25581824D01*
X38331340Y25689268D01*
X38380790Y25808652D01*
X38406000Y25935390D01*
X38406000Y26064610D01*
X38380790Y26191348D01*
X38331340Y26310732D01*
X38259548Y26418176D01*
X38168176Y26509548D01*
X38060732Y26581340D01*
X37941348Y26630790D01*
X37814610Y26656000D01*
X37685390Y26656000D01*
X37558652Y26630790D01*
X37439268Y26581340D01*
X37331824Y26509548D01*
X37240452Y26418176D01*
X37168660Y26310732D01*
X37119210Y26191348D01*
X37094000Y26064610D01*
X31381975Y26064610D01*
X31406000Y26185390D01*
X31406000Y26314610D01*
X31380790Y26441348D01*
X31331340Y26560732D01*
X31259548Y26668176D01*
X31168176Y26759548D01*
X31060732Y26831340D01*
X30941348Y26880790D01*
X30814610Y26906000D01*
X30685390Y26906000D01*
X30558652Y26880790D01*
X30439268Y26831340D01*
X30331824Y26759548D01*
X30240452Y26668176D01*
X30168660Y26560732D01*
X30119210Y26441348D01*
X30094000Y26314610D01*
X457200Y26314610D01*
X457200Y27814610D01*
X37094000Y27814610D01*
X37094000Y27685390D01*
X37119210Y27558652D01*
X37168660Y27439268D01*
X37240452Y27331824D01*
X37331824Y27240452D01*
X37439268Y27168660D01*
X37558652Y27119210D01*
X37685390Y27094000D01*
X37814610Y27094000D01*
X37941348Y27119210D01*
X38060732Y27168660D01*
X38118948Y27207559D01*
X39595000Y27207559D01*
X39595000Y27032441D01*
X39629164Y26860688D01*
X39696179Y26698901D01*
X39793469Y26553296D01*
X39917296Y26429469D01*
X40062901Y26332179D01*
X40224688Y26265164D01*
X40396441Y26231000D01*
X40571559Y26231000D01*
X40743312Y26265164D01*
X40905099Y26332179D01*
X41050704Y26429469D01*
X41174531Y26553296D01*
X41271821Y26698901D01*
X41338836Y26860688D01*
X41373000Y27032441D01*
X41373000Y27207559D01*
X41627000Y27207559D01*
X41627000Y27032441D01*
X41661164Y26860688D01*
X41728179Y26698901D01*
X41825469Y26553296D01*
X41949296Y26429469D01*
X42094901Y26332179D01*
X42256688Y26265164D01*
X42428441Y26231000D01*
X42603559Y26231000D01*
X42775312Y26265164D01*
X42937099Y26332179D01*
X43082704Y26429469D01*
X43206531Y26553296D01*
X43222317Y26576922D01*
X43469000Y26576922D01*
X43469000Y26423078D01*
X43499013Y26272191D01*
X43557887Y26130058D01*
X43643358Y26002141D01*
X43752141Y25893358D01*
X43880058Y25807887D01*
X44022191Y25749013D01*
X44173078Y25719000D01*
X44326922Y25719000D01*
X44477809Y25749013D01*
X44619942Y25807887D01*
X44747859Y25893358D01*
X44856642Y26002141D01*
X44942113Y26130058D01*
X45000987Y26272191D01*
X45031000Y26423078D01*
X45031000Y26576922D01*
X45000987Y26727809D01*
X44942113Y26869942D01*
X44856642Y26997859D01*
X44747859Y27106642D01*
X44619942Y27192113D01*
X44477809Y27250987D01*
X44326922Y27281000D01*
X44173078Y27281000D01*
X44022191Y27250987D01*
X43880058Y27192113D01*
X43752141Y27106642D01*
X43643358Y26997859D01*
X43557887Y26869942D01*
X43499013Y26727809D01*
X43469000Y26576922D01*
X43222317Y26576922D01*
X43303821Y26698901D01*
X43370836Y26860688D01*
X43405000Y27032441D01*
X43405000Y27207559D01*
X43370836Y27379312D01*
X43303821Y27541099D01*
X43206531Y27686704D01*
X43082704Y27810531D01*
X42937099Y27907821D01*
X42775312Y27974836D01*
X42603559Y28009000D01*
X42428441Y28009000D01*
X42256688Y27974836D01*
X42094901Y27907821D01*
X41949296Y27810531D01*
X41825469Y27686704D01*
X41728179Y27541099D01*
X41661164Y27379312D01*
X41627000Y27207559D01*
X41373000Y27207559D01*
X41338836Y27379312D01*
X41271821Y27541099D01*
X41174531Y27686704D01*
X41050704Y27810531D01*
X40905099Y27907821D01*
X40743312Y27974836D01*
X40571559Y28009000D01*
X40396441Y28009000D01*
X40224688Y27974836D01*
X40062901Y27907821D01*
X39917296Y27810531D01*
X39793469Y27686704D01*
X39696179Y27541099D01*
X39629164Y27379312D01*
X39595000Y27207559D01*
X38118948Y27207559D01*
X38168176Y27240452D01*
X38259548Y27331824D01*
X38331340Y27439268D01*
X38380790Y27558652D01*
X38406000Y27685390D01*
X38406000Y27814610D01*
X38380790Y27941348D01*
X38331340Y28060732D01*
X38259548Y28168176D01*
X38168176Y28259548D01*
X38060732Y28331340D01*
X37941348Y28380790D01*
X37814610Y28406000D01*
X37685390Y28406000D01*
X37558652Y28380790D01*
X37439268Y28331340D01*
X37331824Y28259548D01*
X37240452Y28168176D01*
X37168660Y28060732D01*
X37119210Y27941348D01*
X37094000Y27814610D01*
X457200Y27814610D01*
X457200Y28564610D01*
X10844000Y28564610D01*
X10844000Y28435390D01*
X10869210Y28308652D01*
X10918660Y28189268D01*
X10990452Y28081824D01*
X11081824Y27990452D01*
X11189268Y27918660D01*
X11308652Y27869210D01*
X11435390Y27844000D01*
X11564610Y27844000D01*
X11691348Y27869210D01*
X11810732Y27918660D01*
X11918176Y27990452D01*
X12009548Y28081824D01*
X12081340Y28189268D01*
X12130790Y28308652D01*
X12156000Y28435390D01*
X12156000Y28564610D01*
X14844000Y28564610D01*
X14844000Y28435390D01*
X14869210Y28308652D01*
X14918660Y28189268D01*
X14990452Y28081824D01*
X15081824Y27990452D01*
X15189268Y27918660D01*
X15308652Y27869210D01*
X15435390Y27844000D01*
X15564610Y27844000D01*
X15691348Y27869210D01*
X15810732Y27918660D01*
X15918176Y27990452D01*
X16009548Y28081824D01*
X16081340Y28189268D01*
X16130790Y28308652D01*
X16156000Y28435390D01*
X16156000Y28564610D01*
X16130790Y28691348D01*
X16081340Y28810732D01*
X16009548Y28918176D01*
X15918176Y29009548D01*
X15810732Y29081340D01*
X15691348Y29130790D01*
X15564610Y29156000D01*
X15435390Y29156000D01*
X15308652Y29130790D01*
X15189268Y29081340D01*
X15081824Y29009548D01*
X14990452Y28918176D01*
X14918660Y28810732D01*
X14869210Y28691348D01*
X14844000Y28564610D01*
X12156000Y28564610D01*
X12130790Y28691348D01*
X12081340Y28810732D01*
X12009548Y28918176D01*
X11918176Y29009548D01*
X11810732Y29081340D01*
X11691348Y29130790D01*
X11564610Y29156000D01*
X11435390Y29156000D01*
X11308652Y29130790D01*
X11189268Y29081340D01*
X11081824Y29009548D01*
X10990452Y28918176D01*
X10918660Y28810732D01*
X10869210Y28691348D01*
X10844000Y28564610D01*
X457200Y28564610D01*
X457200Y33057223D01*
X26669000Y33057223D01*
X26669000Y32942777D01*
X26691328Y32830529D01*
X26735125Y32724793D01*
X26798708Y32629634D01*
X26879634Y32548708D01*
X26974793Y32485125D01*
X27080529Y32441328D01*
X27192777Y32419000D01*
X27307223Y32419000D01*
X27419471Y32441328D01*
X27525207Y32485125D01*
X27620366Y32548708D01*
X27701292Y32629634D01*
X27764875Y32724793D01*
X27808672Y32830529D01*
X27831000Y32942777D01*
X27831000Y33057223D01*
X27808672Y33169471D01*
X27764875Y33275207D01*
X27701292Y33370366D01*
X27620366Y33451292D01*
X27525207Y33514875D01*
X27419471Y33558672D01*
X27307223Y33581000D01*
X27192777Y33581000D01*
X27080529Y33558672D01*
X26974793Y33514875D01*
X26879634Y33451292D01*
X26798708Y33370366D01*
X26735125Y33275207D01*
X26691328Y33169471D01*
X26669000Y33057223D01*
X457200Y33057223D01*
X457200Y35064610D01*
X12344000Y35064610D01*
X12344000Y34935390D01*
X12369210Y34808652D01*
X12418660Y34689268D01*
X12490452Y34581824D01*
X12581824Y34490452D01*
X12689268Y34418660D01*
X12808652Y34369210D01*
X12935390Y34344000D01*
X13064610Y34344000D01*
X13191348Y34369210D01*
X13310732Y34418660D01*
X13418176Y34490452D01*
X13509548Y34581824D01*
X13581340Y34689268D01*
X13630790Y34808652D01*
X13656000Y34935390D01*
X13656000Y35064610D01*
X13630790Y35191348D01*
X13581340Y35310732D01*
X13509548Y35418176D01*
X13418176Y35509548D01*
X13310732Y35581340D01*
X13191348Y35630790D01*
X13064610Y35656000D01*
X12935390Y35656000D01*
X12808652Y35630790D01*
X12689268Y35581340D01*
X12581824Y35509548D01*
X12490452Y35418176D01*
X12418660Y35310732D01*
X12369210Y35191348D01*
X12344000Y35064610D01*
X457200Y35064610D01*
X457200Y38064610D01*
X2344000Y38064610D01*
X2344000Y37935390D01*
X2369210Y37808652D01*
X2418660Y37689268D01*
X2490452Y37581824D01*
X2581824Y37490452D01*
X2689268Y37418660D01*
X2808652Y37369210D01*
X2935390Y37344000D01*
X3064610Y37344000D01*
X3191348Y37369210D01*
X3310732Y37418660D01*
X3418176Y37490452D01*
X3509548Y37581824D01*
X3581340Y37689268D01*
X3630790Y37808652D01*
X3656000Y37935390D01*
X3656000Y38064610D01*
X6344000Y38064610D01*
X6344000Y37935390D01*
X6369210Y37808652D01*
X6418660Y37689268D01*
X6490452Y37581824D01*
X6581824Y37490452D01*
X6689268Y37418660D01*
X6808652Y37369210D01*
X6935390Y37344000D01*
X7064610Y37344000D01*
X7191348Y37369210D01*
X7310732Y37418660D01*
X7418176Y37490452D01*
X7509548Y37581824D01*
X7581340Y37689268D01*
X7630790Y37808652D01*
X7656000Y37935390D01*
X7656000Y38064610D01*
X7643756Y38126167D01*
X8969000Y38126167D01*
X8969000Y37873833D01*
X9018228Y37626346D01*
X9114793Y37393219D01*
X9254982Y37183410D01*
X9433410Y37004982D01*
X9643219Y36864793D01*
X9876346Y36768228D01*
X10123833Y36719000D01*
X10376167Y36719000D01*
X10623654Y36768228D01*
X10856781Y36864793D01*
X11066590Y37004982D01*
X11245018Y37183410D01*
X11385207Y37393219D01*
X11481697Y37626167D01*
X22719000Y37626167D01*
X22719000Y37373833D01*
X22768228Y37126346D01*
X22864793Y36893219D01*
X23004982Y36683410D01*
X23183410Y36504982D01*
X23393219Y36364793D01*
X23626346Y36268228D01*
X23873833Y36219000D01*
X24126167Y36219000D01*
X24373654Y36268228D01*
X24606781Y36364793D01*
X24816590Y36504982D01*
X24995018Y36683410D01*
X25135207Y36893219D01*
X25231772Y37126346D01*
X25281000Y37373833D01*
X25281000Y37626167D01*
X25231772Y37873654D01*
X25135207Y38106781D01*
X24995018Y38316590D01*
X24816590Y38495018D01*
X24606781Y38635207D01*
X24373654Y38731772D01*
X24126167Y38781000D01*
X23873833Y38781000D01*
X23626346Y38731772D01*
X23393219Y38635207D01*
X23183410Y38495018D01*
X23004982Y38316590D01*
X22864793Y38106781D01*
X22768228Y37873654D01*
X22719000Y37626167D01*
X11481697Y37626167D01*
X11481772Y37626346D01*
X11531000Y37873833D01*
X11531000Y38126167D01*
X11481772Y38373654D01*
X11385207Y38606781D01*
X11245018Y38816590D01*
X11066590Y38995018D01*
X10856781Y39135207D01*
X10623654Y39231772D01*
X10376167Y39281000D01*
X10123833Y39281000D01*
X9876346Y39231772D01*
X9643219Y39135207D01*
X9433410Y38995018D01*
X9254982Y38816590D01*
X9114793Y38606781D01*
X9018228Y38373654D01*
X8969000Y38126167D01*
X7643756Y38126167D01*
X7630790Y38191348D01*
X7581340Y38310732D01*
X7509548Y38418176D01*
X7418176Y38509548D01*
X7310732Y38581340D01*
X7191348Y38630790D01*
X7064610Y38656000D01*
X6935390Y38656000D01*
X6808652Y38630790D01*
X6689268Y38581340D01*
X6581824Y38509548D01*
X6490452Y38418176D01*
X6418660Y38310732D01*
X6369210Y38191348D01*
X6344000Y38064610D01*
X3656000Y38064610D01*
X3630790Y38191348D01*
X3581340Y38310732D01*
X3509548Y38418176D01*
X3418176Y38509548D01*
X3310732Y38581340D01*
X3191348Y38630790D01*
X3064610Y38656000D01*
X2935390Y38656000D01*
X2808652Y38630790D01*
X2689268Y38581340D01*
X2581824Y38509548D01*
X2490452Y38418176D01*
X2418660Y38310732D01*
X2369210Y38191348D01*
X2344000Y38064610D01*
X457200Y38064610D01*
X457200Y39814610D01*
X31344000Y39814610D01*
X31344000Y39685390D01*
X31369210Y39558652D01*
X31418660Y39439268D01*
X31490452Y39331824D01*
X31581824Y39240452D01*
X31689268Y39168660D01*
X31808652Y39119210D01*
X31935390Y39094000D01*
X32064610Y39094000D01*
X32191348Y39119210D01*
X32310732Y39168660D01*
X32418176Y39240452D01*
X32509548Y39331824D01*
X32581340Y39439268D01*
X32630790Y39558652D01*
X32656000Y39685390D01*
X32656000Y39814610D01*
X35344000Y39814610D01*
X35344000Y39685390D01*
X35369210Y39558652D01*
X35418660Y39439268D01*
X35490452Y39331824D01*
X35581824Y39240452D01*
X35689268Y39168660D01*
X35808652Y39119210D01*
X35935390Y39094000D01*
X36064610Y39094000D01*
X36191348Y39119210D01*
X36310732Y39168660D01*
X36418176Y39240452D01*
X36509548Y39331824D01*
X36581340Y39439268D01*
X36630790Y39558652D01*
X36656000Y39685390D01*
X36656000Y39814610D01*
X36630790Y39941348D01*
X36581340Y40060732D01*
X36509548Y40168176D01*
X36418176Y40259548D01*
X36310732Y40331340D01*
X36191348Y40380790D01*
X36064610Y40406000D01*
X35935390Y40406000D01*
X35808652Y40380790D01*
X35689268Y40331340D01*
X35581824Y40259548D01*
X35490452Y40168176D01*
X35418660Y40060732D01*
X35369210Y39941348D01*
X35344000Y39814610D01*
X32656000Y39814610D01*
X32630790Y39941348D01*
X32581340Y40060732D01*
X32509548Y40168176D01*
X32418176Y40259548D01*
X32310732Y40331340D01*
X32191348Y40380790D01*
X32064610Y40406000D01*
X31935390Y40406000D01*
X31808652Y40380790D01*
X31689268Y40331340D01*
X31581824Y40259548D01*
X31490452Y40168176D01*
X31418660Y40060732D01*
X31369210Y39941348D01*
X31344000Y39814610D01*
X457200Y39814610D01*
X457200Y43626167D01*
X11719000Y43626167D01*
X11719000Y43373833D01*
X11768228Y43126346D01*
X11864793Y42893219D01*
X12004982Y42683410D01*
X12183410Y42504982D01*
X12393219Y42364793D01*
X12626346Y42268228D01*
X12873833Y42219000D01*
X13126167Y42219000D01*
X13373654Y42268228D01*
X13606781Y42364793D01*
X13816590Y42504982D01*
X13995018Y42683410D01*
X14135207Y42893219D01*
X14206199Y43064610D01*
X23344000Y43064610D01*
X23344000Y42935390D01*
X23369210Y42808652D01*
X23418660Y42689268D01*
X23490452Y42581824D01*
X23581824Y42490452D01*
X23689268Y42418660D01*
X23808652Y42369210D01*
X23935390Y42344000D01*
X24064610Y42344000D01*
X24191348Y42369210D01*
X24310732Y42418660D01*
X24418176Y42490452D01*
X24509548Y42581824D01*
X24581340Y42689268D01*
X24630790Y42808652D01*
X24656000Y42935390D01*
X24656000Y43064610D01*
X27344000Y43064610D01*
X27344000Y42935390D01*
X27369210Y42808652D01*
X27418660Y42689268D01*
X27490452Y42581824D01*
X27581824Y42490452D01*
X27689268Y42418660D01*
X27808652Y42369210D01*
X27935390Y42344000D01*
X28064610Y42344000D01*
X28191348Y42369210D01*
X28310732Y42418660D01*
X28418176Y42490452D01*
X28509548Y42581824D01*
X28581340Y42689268D01*
X28630790Y42808652D01*
X28656000Y42935390D01*
X28656000Y43064610D01*
X28630790Y43191348D01*
X28581340Y43310732D01*
X28509548Y43418176D01*
X28418176Y43509548D01*
X28310732Y43581340D01*
X28191348Y43630790D01*
X28064610Y43656000D01*
X27935390Y43656000D01*
X27808652Y43630790D01*
X27689268Y43581340D01*
X27581824Y43509548D01*
X27490452Y43418176D01*
X27418660Y43310732D01*
X27369210Y43191348D01*
X27344000Y43064610D01*
X24656000Y43064610D01*
X24630790Y43191348D01*
X24581340Y43310732D01*
X24509548Y43418176D01*
X24418176Y43509548D01*
X24310732Y43581340D01*
X24191348Y43630790D01*
X24064610Y43656000D01*
X23935390Y43656000D01*
X23808652Y43630790D01*
X23689268Y43581340D01*
X23581824Y43509548D01*
X23490452Y43418176D01*
X23418660Y43310732D01*
X23369210Y43191348D01*
X23344000Y43064610D01*
X14206199Y43064610D01*
X14231772Y43126346D01*
X14281000Y43373833D01*
X14281000Y43626167D01*
X14231772Y43873654D01*
X14135207Y44106781D01*
X13995018Y44316590D01*
X13816590Y44495018D01*
X13606781Y44635207D01*
X13373654Y44731772D01*
X13126167Y44781000D01*
X12873833Y44781000D01*
X12626346Y44731772D01*
X12393219Y44635207D01*
X12183410Y44495018D01*
X12004982Y44316590D01*
X11864793Y44106781D01*
X11768228Y43873654D01*
X11719000Y43626167D01*
X457200Y43626167D01*
X457200Y48564610D01*
X6344000Y48564610D01*
X6344000Y48435390D01*
X6369210Y48308652D01*
X6418660Y48189268D01*
X6490452Y48081824D01*
X6581824Y47990452D01*
X6689268Y47918660D01*
X6808652Y47869210D01*
X6935390Y47844000D01*
X7064610Y47844000D01*
X7191348Y47869210D01*
X7310732Y47918660D01*
X7418176Y47990452D01*
X7509548Y48081824D01*
X7581340Y48189268D01*
X7630790Y48308652D01*
X7656000Y48435390D01*
X7656000Y48564610D01*
X7632001Y48685262D01*
X13619000Y48685262D01*
X13619000Y48314738D01*
X13691286Y47951333D01*
X13833080Y47609013D01*
X14038932Y47300933D01*
X14300933Y47038932D01*
X14609013Y46833080D01*
X14951333Y46691286D01*
X15314738Y46619000D01*
X15685262Y46619000D01*
X16048667Y46691286D01*
X16390987Y46833080D01*
X16699067Y47038932D01*
X16961068Y47300933D01*
X17166920Y47609013D01*
X17308714Y47951333D01*
X17381000Y48314738D01*
X17381000Y48626167D01*
X19719000Y48626167D01*
X19719000Y48373833D01*
X19768228Y48126346D01*
X19864793Y47893219D01*
X20004982Y47683410D01*
X20183410Y47504982D01*
X20393219Y47364793D01*
X20626346Y47268228D01*
X20873833Y47219000D01*
X21126167Y47219000D01*
X21373654Y47268228D01*
X21606781Y47364793D01*
X21816590Y47504982D01*
X21995018Y47683410D01*
X22135207Y47893219D01*
X22231772Y48126346D01*
X22281000Y48373833D01*
X22281000Y48626167D01*
X22231772Y48873654D01*
X22135207Y49106781D01*
X21995018Y49316590D01*
X21816590Y49495018D01*
X21606781Y49635207D01*
X21373654Y49731772D01*
X21126167Y49781000D01*
X20873833Y49781000D01*
X20626346Y49731772D01*
X20393219Y49635207D01*
X20183410Y49495018D01*
X20004982Y49316590D01*
X19864793Y49106781D01*
X19768228Y48873654D01*
X19719000Y48626167D01*
X17381000Y48626167D01*
X17381000Y48685262D01*
X17308714Y49048667D01*
X17166920Y49390987D01*
X16961068Y49699067D01*
X16699067Y49961068D01*
X16390987Y50166920D01*
X16048667Y50308714D01*
X15685262Y50381000D01*
X15314738Y50381000D01*
X14951333Y50308714D01*
X14609013Y50166920D01*
X14300933Y49961068D01*
X14038932Y49699067D01*
X13833080Y49390987D01*
X13691286Y49048667D01*
X13619000Y48685262D01*
X7632001Y48685262D01*
X7630790Y48691348D01*
X7581340Y48810732D01*
X7509548Y48918176D01*
X7418176Y49009548D01*
X7310732Y49081340D01*
X7191348Y49130790D01*
X7064610Y49156000D01*
X6935390Y49156000D01*
X6808652Y49130790D01*
X6689268Y49081340D01*
X6581824Y49009548D01*
X6490452Y48918176D01*
X6418660Y48810732D01*
X6369210Y48691348D01*
X6344000Y48564610D01*
X457200Y48564610D01*
X457200Y54557223D01*
X11919000Y54557223D01*
X11919000Y54442777D01*
X11941328Y54330529D01*
X11985125Y54224793D01*
X12048708Y54129634D01*
X12129634Y54048708D01*
X12224793Y53985125D01*
X12330529Y53941328D01*
X12442777Y53919000D01*
X12557223Y53919000D01*
X12669471Y53941328D01*
X12775207Y53985125D01*
X12870366Y54048708D01*
X12951292Y54129634D01*
X13014875Y54224793D01*
X13058672Y54330529D01*
X13081000Y54442777D01*
X13081000Y54557223D01*
X13058672Y54669471D01*
X13014875Y54775207D01*
X12951292Y54870366D01*
X12870366Y54951292D01*
X12775207Y55014875D01*
X12669471Y55058672D01*
X12557223Y55081000D01*
X12442777Y55081000D01*
X12330529Y55058672D01*
X12224793Y55014875D01*
X12129634Y54951292D01*
X12048708Y54870366D01*
X11985125Y54775207D01*
X11941328Y54669471D01*
X11919000Y54557223D01*
X457200Y54557223D01*
X457200Y56064610D01*
X2344000Y56064610D01*
X2344000Y55935390D01*
X2369210Y55808652D01*
X2418660Y55689268D01*
X2490452Y55581824D01*
X2581824Y55490452D01*
X2689268Y55418660D01*
X2808652Y55369210D01*
X2935390Y55344000D01*
X3064610Y55344000D01*
X3191348Y55369210D01*
X3310732Y55418660D01*
X3418176Y55490452D01*
X3509548Y55581824D01*
X3581340Y55689268D01*
X3630790Y55808652D01*
X3656000Y55935390D01*
X3656000Y56064610D01*
X6344000Y56064610D01*
X6344000Y55935390D01*
X6369210Y55808652D01*
X6418660Y55689268D01*
X6490452Y55581824D01*
X6581824Y55490452D01*
X6689268Y55418660D01*
X6808652Y55369210D01*
X6935390Y55344000D01*
X7064610Y55344000D01*
X7191348Y55369210D01*
X7310732Y55418660D01*
X7418176Y55490452D01*
X7509548Y55581824D01*
X7581340Y55689268D01*
X7630790Y55808652D01*
X7656000Y55935390D01*
X7656000Y56064610D01*
X7630790Y56191348D01*
X7581340Y56310732D01*
X7509548Y56418176D01*
X7418176Y56509548D01*
X7310732Y56581340D01*
X7191348Y56630790D01*
X7064610Y56656000D01*
X6935390Y56656000D01*
X6808652Y56630790D01*
X6689268Y56581340D01*
X6581824Y56509548D01*
X6490452Y56418176D01*
X6418660Y56310732D01*
X6369210Y56191348D01*
X6344000Y56064610D01*
X3656000Y56064610D01*
X3630790Y56191348D01*
X3581340Y56310732D01*
X3509548Y56418176D01*
X3418176Y56509548D01*
X3310732Y56581340D01*
X3191348Y56630790D01*
X3064610Y56656000D01*
X2935390Y56656000D01*
X2808652Y56630790D01*
X2689268Y56581340D01*
X2581824Y56509548D01*
X2490452Y56418176D01*
X2418660Y56310732D01*
X2369210Y56191348D01*
X2344000Y56064610D01*
X457200Y56064610D01*
X457200Y60064610D01*
X10344000Y60064610D01*
X10344000Y59935390D01*
X10369210Y59808652D01*
X10418660Y59689268D01*
X10490452Y59581824D01*
X10581824Y59490452D01*
X10689268Y59418660D01*
X10808652Y59369210D01*
X10935390Y59344000D01*
X11064610Y59344000D01*
X11191348Y59369210D01*
X11310732Y59418660D01*
X11418176Y59490452D01*
X11509548Y59581824D01*
X11581340Y59689268D01*
X11606495Y59750000D01*
X13873000Y59750000D01*
X13873000Y53250000D01*
X13875440Y53225224D01*
X13882667Y53201399D01*
X13894403Y53179443D01*
X13910197Y53160197D01*
X13929443Y53144403D01*
X13951399Y53132667D01*
X13975224Y53125440D01*
X14000000Y53123000D01*
X16552434Y53123000D01*
X16544694Y53037945D01*
X16544983Y52996475D01*
X16544694Y52955073D01*
X16545316Y52948730D01*
X16545316Y52948717D01*
X16545318Y52948705D01*
X16555517Y52851671D01*
X16563858Y52811036D01*
X16571614Y52770376D01*
X16573455Y52764276D01*
X16573458Y52764263D01*
X16573463Y52764251D01*
X16602315Y52671045D01*
X16618375Y52632839D01*
X16633897Y52594422D01*
X16636888Y52588795D01*
X16636892Y52588787D01*
X16636897Y52588780D01*
X16683307Y52502947D01*
X16706484Y52468585D01*
X16729168Y52433921D01*
X16733199Y52428978D01*
X16733203Y52428972D01*
X16733208Y52428967D01*
X16795405Y52353784D01*
X16824847Y52324547D01*
X16853798Y52294983D01*
X16858716Y52290913D01*
X16934337Y52229237D01*
X16968881Y52206285D01*
X17003048Y52182891D01*
X17008664Y52179854D01*
X17094825Y52134042D01*
X17133150Y52118246D01*
X17171219Y52101929D01*
X17177318Y52100041D01*
X17270736Y52071836D01*
X17311444Y52063775D01*
X17351921Y52055172D01*
X17358261Y52054505D01*
X17358266Y52054504D01*
X17358270Y52054504D01*
X17454834Y52045036D01*
X17477540Y52042800D01*
X42522460Y52042800D01*
X42542950Y52044818D01*
X42555400Y52044731D01*
X42561754Y52045354D01*
X42949946Y52086155D01*
X42990574Y52094494D01*
X43031242Y52102252D01*
X43037344Y52104094D01*
X43037354Y52104096D01*
X43037363Y52104100D01*
X43410228Y52219521D01*
X43448462Y52235593D01*
X43486849Y52251102D01*
X43492486Y52254098D01*
X43835841Y52439750D01*
X43870187Y52462916D01*
X43904869Y52485612D01*
X43909817Y52489647D01*
X44210572Y52738454D01*
X44239792Y52767878D01*
X44269376Y52796849D01*
X44273440Y52801762D01*
X44273446Y52801768D01*
X44273450Y52801775D01*
X44520146Y53104253D01*
X44543077Y53138765D01*
X44566489Y53172958D01*
X44569521Y53178566D01*
X44569526Y53178574D01*
X44569529Y53178582D01*
X44752775Y53523216D01*
X44768563Y53561521D01*
X44784890Y53599615D01*
X44786779Y53605714D01*
X44899596Y53979385D01*
X44907645Y54020036D01*
X44916260Y54060567D01*
X44916928Y54066916D01*
X44955018Y54455385D01*
X44957200Y54477540D01*
X44957200Y58522460D01*
X44955182Y58542950D01*
X44955269Y58555400D01*
X44954646Y58561754D01*
X44913845Y58949947D01*
X44905512Y58990544D01*
X44897748Y59031242D01*
X44895903Y59037354D01*
X44780479Y59410229D01*
X44764402Y59448476D01*
X44748898Y59486849D01*
X44745902Y59492486D01*
X44560251Y59835841D01*
X44537066Y59870214D01*
X44514388Y59904869D01*
X44510353Y59909817D01*
X44261546Y60210572D01*
X44232138Y60239775D01*
X44203151Y60269376D01*
X44198232Y60273446D01*
X43895747Y60520146D01*
X43861201Y60543099D01*
X43827041Y60566489D01*
X43821426Y60569526D01*
X43476784Y60752775D01*
X43438437Y60768581D01*
X43400384Y60784890D01*
X43394290Y60786778D01*
X43394284Y60786780D01*
X43020614Y60899597D01*
X42979935Y60907651D01*
X42939433Y60916260D01*
X42933084Y60916928D01*
X42544615Y60955018D01*
X42522460Y60957200D01*
X17477540Y60957200D01*
X17454887Y60954969D01*
X17448407Y60954969D01*
X17442058Y60954302D01*
X17345083Y60943425D01*
X17304503Y60934800D01*
X17263900Y60926760D01*
X17257807Y60924875D01*
X17257803Y60924874D01*
X17257800Y60924873D01*
X17257801Y60924873D01*
X17164786Y60895367D01*
X17126654Y60879024D01*
X17088388Y60863252D01*
X17082776Y60860218D01*
X17082771Y60860216D01*
X17082767Y60860213D01*
X16997259Y60813205D01*
X16963043Y60789777D01*
X16928551Y60766860D01*
X16923632Y60762791D01*
X16848880Y60700066D01*
X16819857Y60670429D01*
X16790487Y60641263D01*
X16786451Y60636316D01*
X16725305Y60560266D01*
X16702598Y60525566D01*
X16679443Y60491237D01*
X16676449Y60485606D01*
X16676446Y60485602D01*
X16676446Y60485601D01*
X16631235Y60399121D01*
X16615691Y60360649D01*
X16599656Y60322503D01*
X16597810Y60316391D01*
X16570258Y60222780D01*
X16562492Y60182069D01*
X16554161Y60141481D01*
X16553538Y60135127D01*
X16544694Y60037945D01*
X16544983Y59996475D01*
X16544694Y59955073D01*
X16545316Y59948730D01*
X16545316Y59948717D01*
X16545318Y59948705D01*
X16552855Y59877000D01*
X14000000Y59877000D01*
X13975224Y59874560D01*
X13951399Y59867333D01*
X13929443Y59855597D01*
X13910197Y59839803D01*
X13894403Y59820557D01*
X13882667Y59798601D01*
X13875440Y59774776D01*
X13873000Y59750000D01*
X11606495Y59750000D01*
X11630790Y59808652D01*
X11656000Y59935390D01*
X11656000Y60064610D01*
X11630790Y60191348D01*
X11581340Y60310732D01*
X11509548Y60418176D01*
X11418176Y60509548D01*
X11310732Y60581340D01*
X11191348Y60630790D01*
X11064610Y60656000D01*
X10935390Y60656000D01*
X10808652Y60630790D01*
X10689268Y60581340D01*
X10581824Y60509548D01*
X10490452Y60418176D01*
X10418660Y60310732D01*
X10369210Y60191348D01*
X10344000Y60064610D01*
X457200Y60064610D01*
X457200Y64977639D01*
X477557Y65185262D01*
X1119000Y65185262D01*
X1119000Y64814738D01*
X1191286Y64451333D01*
X1333080Y64109013D01*
X1538932Y63800933D01*
X1800933Y63538932D01*
X2109013Y63333080D01*
X2451333Y63191286D01*
X2814738Y63119000D01*
X3185262Y63119000D01*
X3548667Y63191286D01*
X3890987Y63333080D01*
X4199067Y63538932D01*
X4461068Y63800933D01*
X4666920Y64109013D01*
X4808714Y64451333D01*
X4855245Y64685262D01*
X13619000Y64685262D01*
X13619000Y64314738D01*
X13691286Y63951333D01*
X13833080Y63609013D01*
X14038932Y63300933D01*
X14300933Y63038932D01*
X14609013Y62833080D01*
X14951333Y62691286D01*
X15314738Y62619000D01*
X15685262Y62619000D01*
X16048667Y62691286D01*
X16390987Y62833080D01*
X16699067Y63038932D01*
X16961068Y63300933D01*
X17166920Y63609013D01*
X17308714Y63951333D01*
X17381000Y64314738D01*
X17381000Y64685262D01*
X17308714Y65048667D01*
X17252135Y65185262D01*
X41119000Y65185262D01*
X41119000Y64814738D01*
X41191286Y64451333D01*
X41333080Y64109013D01*
X41538932Y63800933D01*
X41800933Y63538932D01*
X42109013Y63333080D01*
X42451333Y63191286D01*
X42814738Y63119000D01*
X43185262Y63119000D01*
X43548667Y63191286D01*
X43890987Y63333080D01*
X44199067Y63538932D01*
X44461068Y63800933D01*
X44666920Y64109013D01*
X44808714Y64451333D01*
X44881000Y64814738D01*
X44881000Y65185262D01*
X44808714Y65548667D01*
X44666920Y65890987D01*
X44461068Y66199067D01*
X44199067Y66461068D01*
X43890987Y66666920D01*
X43548667Y66808714D01*
X43185262Y66881000D01*
X42814738Y66881000D01*
X42451333Y66808714D01*
X42109013Y66666920D01*
X41800933Y66461068D01*
X41538932Y66199067D01*
X41333080Y65890987D01*
X41191286Y65548667D01*
X41119000Y65185262D01*
X17252135Y65185262D01*
X17166920Y65390987D01*
X16961068Y65699067D01*
X16699067Y65961068D01*
X16390987Y66166920D01*
X16048667Y66308714D01*
X15685262Y66381000D01*
X15314738Y66381000D01*
X14951333Y66308714D01*
X14609013Y66166920D01*
X14300933Y65961068D01*
X14038932Y65699067D01*
X13833080Y65390987D01*
X13691286Y65048667D01*
X13619000Y64685262D01*
X4855245Y64685262D01*
X4881000Y64814738D01*
X4881000Y65185262D01*
X4808714Y65548667D01*
X4666920Y65890987D01*
X4461068Y66199067D01*
X4199067Y66461068D01*
X3890987Y66666920D01*
X3548667Y66808714D01*
X3185262Y66881000D01*
X2814738Y66881000D01*
X2451333Y66808714D01*
X2109013Y66666920D01*
X1800933Y66461068D01*
X1538932Y66199067D01*
X1333080Y65890987D01*
X1191286Y65548667D01*
X1119000Y65185262D01*
X477557Y65185262D01*
X507778Y65493472D01*
X651090Y65968148D01*
X883875Y66405953D01*
X1197261Y66790200D01*
X1579309Y67106258D01*
X2015477Y67342093D01*
X2489143Y67488717D01*
X3003707Y67542800D01*
X42977639Y67542800D01*
X43493472Y67492222D01*
G37*
%TD.AperFunction*%
%TD*%
M02*
