%TF.GenerationSoftware,KiCad,Pcbnew,(5.1.9)-1*%
%TF.CreationDate,2021-03-12T11:46:57-05:00*%
%TF.ProjectId,SensorDemo,53656e73-6f72-4446-956d-6f2e6b696361,rev?*%
%TF.SameCoordinates,PX700e860PY7735940*%
%TF.FileFunction,Profile,NP*%
%FSLAX46Y46*%
G04 Gerber Fmt 4.6, Leading zero omitted, Abs format (unit mm)*
G04 Created by KiCad (PCBNEW (5.1.9)-1) date 2021-03-12 11:46:57*
%MOMM*%
%LPD*%
G01*
G04 APERTURE LIST*
%TA.AperFunction,Profile*%
%ADD10C,0.152400*%
%TD*%
G04 APERTURE END LIST*
D10*
X44500000Y54500000D02*
G75*
G02*
X42500000Y52500000I-2000000J0D01*
G01*
X42500000Y60500000D02*
G75*
G02*
X44500000Y58500000I0J-2000000D01*
G01*
X43500000Y55000000D02*
G75*
G02*
X42000000Y53500000I-1500000J0D01*
G01*
X42000000Y59500000D02*
G75*
G02*
X43500000Y58000000I0J-1500000D01*
G01*
X17500000Y52500000D02*
G75*
G02*
X17500000Y53500000I0J500000D01*
G01*
X17500000Y59500000D02*
G75*
G02*
X17500000Y60500000I0J500000D01*
G01*
X43000000Y68000000D02*
G75*
G02*
X46000000Y65000000I0J-3000000D01*
G01*
X0Y65000000D02*
G75*
G02*
X3000000Y68000000I3000000J0D01*
G01*
X3000000Y0D02*
G75*
G02*
X0Y3000000I0J3000000D01*
G01*
X46000000Y3000000D02*
G75*
G02*
X43000000Y0I-3000000J0D01*
G01*
X3000000Y68000000D02*
X43000000Y68000000D01*
X42000000Y59500000D02*
X17500000Y59500000D01*
X43500000Y55000000D02*
X43500000Y58000000D01*
X17500000Y53500000D02*
X42000000Y53500000D01*
X42500000Y52500000D02*
X17500000Y52500000D01*
X44500000Y58500000D02*
X44500000Y54500000D01*
X17500000Y60500000D02*
X42500000Y60500000D01*
X43000000Y0D02*
X3000000Y0D01*
X46000000Y65000000D02*
X46000000Y3000000D01*
X0Y3000000D02*
X0Y65000000D01*
M02*
