%TF.GenerationSoftware,KiCad,Pcbnew,(5.1.9)-1*%
%TF.CreationDate,2021-03-12T11:46:57-05:00*%
%TF.ProjectId,SensorDemo,53656e73-6f72-4446-956d-6f2e6b696361,rev?*%
%TF.SameCoordinates,PX700e860PY7735940*%
%TF.FileFunction,Soldermask,Top*%
%TF.FilePolarity,Negative*%
%FSLAX46Y46*%
G04 Gerber Fmt 4.6, Leading zero omitted, Abs format (unit mm)*
G04 Created by KiCad (PCBNEW (5.1.9)-1) date 2021-03-12 11:46:57*
%MOMM*%
%LPD*%
G01*
G04 APERTURE LIST*
%ADD10C,0.025400*%
%ADD11C,0.800000*%
%ADD12R,1.000000X1.000000*%
%ADD13C,1.000000*%
%ADD14C,3.000000*%
%ADD15R,0.450000X1.100000*%
%ADD16R,1.100000X0.450000*%
%ADD17R,1.450000X0.300000*%
%ADD18C,1.800000*%
%ADD19C,0.863000*%
%ADD20C,1.016000*%
%ADD21R,1.016000X1.524000*%
%ADD22R,2.400000X2.000000*%
%ADD23R,1.524000X1.016000*%
%ADD24R,2.794000X1.524000*%
%ADD25R,2.000000X0.600000*%
%ADD26C,2.000000*%
%ADD27R,1.500000X2.000000*%
%ADD28R,3.800000X2.500000*%
%ADD29R,1.550000X0.600000*%
%ADD30R,2.100000X1.400000*%
G04 APERTURE END LIST*
D10*
%TO.C,FD*%
G36*
X3200000Y20800000D02*
G01*
X800000Y20800000D01*
X800000Y23200000D01*
X3200000Y23200000D01*
X3200000Y20800000D01*
G37*
X3200000Y20800000D02*
X800000Y20800000D01*
X800000Y23200000D01*
X3200000Y23200000D01*
X3200000Y20800000D01*
D11*
X43800000Y36000000D02*
G75*
G03*
X43800000Y36000000I-800000J0D01*
G01*
X44800000Y6000000D02*
G75*
G03*
X44800000Y6000000I-800000J0D01*
G01*
D10*
G36*
X41700000Y61300000D02*
G01*
X39300000Y61300000D01*
X39300000Y63700000D01*
X41700000Y63700000D01*
X41700000Y61300000D01*
G37*
X41700000Y61300000D02*
X39300000Y61300000D01*
X39300000Y63700000D01*
X41700000Y63700000D01*
X41700000Y61300000D01*
G36*
X6700000Y4300000D02*
G01*
X4300000Y4300000D01*
X4300000Y6700000D01*
X6700000Y6700000D01*
X6700000Y4300000D01*
G37*
X6700000Y4300000D02*
X4300000Y4300000D01*
X4300000Y6700000D01*
X6700000Y6700000D01*
X6700000Y4300000D01*
D11*
X6300000Y62500000D02*
G75*
G03*
X6300000Y62500000I-800000J0D01*
G01*
%TD*%
D12*
%TO.C,FD*%
X2000000Y22000000D03*
%TD*%
D13*
%TO.C,FD*%
X43000000Y36000000D03*
%TD*%
D14*
%TO.C,MH4*%
X15500000Y64500000D03*
%TD*%
%TO.C,MH2*%
X15500000Y48500000D03*
%TD*%
%TO.C,MH1*%
X3000000Y3000000D03*
%TD*%
%TO.C,MH3*%
X43000000Y3000000D03*
%TD*%
%TO.C,MH5*%
X3000000Y65000000D03*
%TD*%
%TO.C,MH6*%
X40500000Y56500000D03*
%TD*%
%TO.C,MH7*%
X43000000Y65000000D03*
%TD*%
D13*
%TO.C,FD*%
X44000000Y6000000D03*
%TD*%
D12*
%TO.C,FD*%
X40500000Y62500000D03*
%TD*%
%TO.C,FD*%
X5500000Y5500000D03*
%TD*%
D13*
%TO.C,FD*%
X5500000Y62500000D03*
%TD*%
D15*
%TO.C,U5*%
X16000000Y32300000D03*
X14100000Y32300000D03*
X14100000Y35000000D03*
X15050000Y35000000D03*
X16000000Y35000000D03*
%TD*%
D16*
%TO.C,U6*%
X2300000Y51500000D03*
X2300000Y53400000D03*
X5000000Y53400000D03*
X5000000Y52450000D03*
X5000000Y51500000D03*
%TD*%
D17*
%TO.C,U4*%
X19400000Y40750000D03*
X19400000Y40100000D03*
X19400000Y39450000D03*
X19400000Y38800000D03*
X15000000Y38800000D03*
X15000000Y39450000D03*
X15000000Y40100000D03*
X15000000Y40750000D03*
%TD*%
D18*
%TO.C,Vsen*%
X13000000Y43500000D03*
%TD*%
%TO.C,Vdac*%
X10250000Y38000000D03*
%TD*%
%TO.C,sensVal*%
X24000000Y37500000D03*
%TD*%
%TO.C,5V*%
X43000000Y16750000D03*
%TD*%
%TO.C,3V3*%
X21000000Y48500000D03*
%TD*%
%TO.C,~CS*%
X33000000Y13500000D03*
%TD*%
%TO.C,DIN*%
X37250000Y15000000D03*
%TD*%
%TO.C,SCK*%
X37250000Y18500000D03*
%TD*%
D19*
%TO.C,P1*%
X40865000Y25900000D03*
X42135000Y25850000D03*
X40865000Y24580000D03*
X42135000Y24580000D03*
D20*
X42516000Y27120000D03*
X40484000Y27120000D03*
X41500000Y19500000D03*
D19*
X42135000Y23310000D03*
X42135000Y22040000D03*
X42135000Y20770000D03*
X40865000Y23310000D03*
X40865000Y22040000D03*
X40865000Y20770000D03*
%TD*%
D21*
%TO.C,C8*%
X40516000Y33000000D03*
X38484000Y33000000D03*
%TD*%
D22*
%TO.C,X1*%
X15000000Y17400000D03*
X15000000Y21600000D03*
%TD*%
D23*
%TO.C,R6*%
X9500000Y51484000D03*
X9500000Y53516000D03*
%TD*%
D21*
%TO.C,R4*%
X16234000Y43500000D03*
X18266000Y43500000D03*
%TD*%
D23*
%TO.C,C19*%
X20000000Y32984000D03*
X20000000Y35016000D03*
%TD*%
D24*
%TO.C,TC1*%
X40000000Y9599000D03*
X40000000Y12901000D03*
%TD*%
D23*
%TO.C,C24*%
X20500000Y13766000D03*
X20500000Y11734000D03*
%TD*%
%TO.C,C25*%
X24500000Y11734000D03*
X24500000Y13766000D03*
%TD*%
D25*
%TO.C,U2*%
X24800000Y33000000D03*
X24800000Y31730000D03*
X24800000Y30460000D03*
X24800000Y29190000D03*
X24800000Y27920000D03*
X24800000Y26650000D03*
X24800000Y25380000D03*
X24800000Y24110000D03*
X24800000Y22840000D03*
X24800000Y21570000D03*
X24800000Y20300000D03*
X24800000Y19030000D03*
X24800000Y17760000D03*
X24800000Y16490000D03*
X34200000Y16490000D03*
X34200000Y17760000D03*
X34200000Y19030000D03*
X34200000Y20300000D03*
X34200000Y21570000D03*
X34200000Y22840000D03*
X34200000Y24110000D03*
X34200000Y25380000D03*
X34200000Y26650000D03*
X34200000Y27920000D03*
X34200000Y29190000D03*
X34200000Y30460000D03*
X34200000Y31730000D03*
X34200000Y33000000D03*
%TD*%
D23*
%TO.C,D1*%
X31000000Y11516000D03*
X31000000Y9484000D03*
%TD*%
%TO.C,FB2*%
X36000000Y36734000D03*
X36000000Y38766000D03*
%TD*%
%TO.C,C16*%
X3500000Y14516000D03*
X3500000Y12484000D03*
%TD*%
%TO.C,R9*%
X9500000Y65016000D03*
X9500000Y62984000D03*
%TD*%
D26*
%TO.C,TP1*%
X12500000Y58500000D03*
%TD*%
%TO.C,TP2*%
X12500000Y54500000D03*
%TD*%
D23*
%TO.C,R1*%
X35000000Y9484000D03*
X35000000Y11516000D03*
%TD*%
D27*
%TO.C,U1*%
X8200000Y4500000D03*
X10500000Y4500000D03*
X12800000Y4500000D03*
D28*
X10500000Y10800000D03*
%TD*%
D21*
%TO.C,C1*%
X8484000Y21500000D03*
X10516000Y21500000D03*
%TD*%
D23*
%TO.C,C2*%
X28000000Y36734000D03*
X28000000Y38766000D03*
%TD*%
D21*
%TO.C,C3*%
X8484000Y17500000D03*
X10516000Y17500000D03*
%TD*%
D23*
%TO.C,C4*%
X19500000Y27516000D03*
X19500000Y25484000D03*
%TD*%
%TO.C,C5*%
X34500000Y3984000D03*
X34500000Y6016000D03*
%TD*%
%TO.C,C6*%
X31000000Y6016000D03*
X31000000Y3984000D03*
%TD*%
%TO.C,C7*%
X27500000Y6016000D03*
X27500000Y3984000D03*
%TD*%
%TO.C,C9*%
X24000000Y3984000D03*
X24000000Y6016000D03*
%TD*%
%TO.C,C10*%
X20500000Y6016000D03*
X20500000Y3984000D03*
%TD*%
%TO.C,C11*%
X17000000Y3984000D03*
X17000000Y6016000D03*
%TD*%
%TO.C,C12*%
X7000000Y38984000D03*
X7000000Y41016000D03*
%TD*%
%TO.C,C13*%
X3000000Y41016000D03*
X3000000Y38984000D03*
%TD*%
%TO.C,C15*%
X3500000Y9516000D03*
X3500000Y7484000D03*
%TD*%
%TO.C,C17*%
X28000000Y43984000D03*
X28000000Y46016000D03*
%TD*%
%TO.C,C18*%
X24000000Y46016000D03*
X24000000Y43984000D03*
%TD*%
%TO.C,C20*%
X15500000Y25484000D03*
X15500000Y27516000D03*
%TD*%
%TO.C,C21*%
X7000000Y56984000D03*
X7000000Y59016000D03*
%TD*%
%TO.C,C22*%
X11500000Y27516000D03*
X11500000Y25484000D03*
%TD*%
%TO.C,C23*%
X3000000Y56984000D03*
X3000000Y59016000D03*
%TD*%
%TO.C,R2*%
X19500000Y20516000D03*
X19500000Y18484000D03*
%TD*%
%TO.C,R3*%
X32000000Y36734000D03*
X32000000Y38766000D03*
%TD*%
%TO.C,R5*%
X7000000Y45484000D03*
X7000000Y47516000D03*
%TD*%
%TO.C,R10*%
X3000000Y45484000D03*
X3000000Y47516000D03*
%TD*%
D29*
%TO.C,U3*%
X9200000Y35500000D03*
X9200000Y34230000D03*
X9200000Y32960000D03*
X9200000Y31690000D03*
X3800000Y31690000D03*
X3800000Y32960000D03*
X3800000Y34230000D03*
X3800000Y35500000D03*
%TD*%
D23*
%TO.C,FB1*%
X38000000Y3984000D03*
X38000000Y6016000D03*
%TD*%
%TO.C,C14*%
X7500000Y27516000D03*
X7500000Y25484000D03*
%TD*%
D30*
%TO.C,K1*%
X41550000Y43000000D03*
X41550000Y47500000D03*
X32450000Y43000000D03*
X32450000Y47500000D03*
%TD*%
M02*
